<svg width="84" height="84" viewBox="0 0 84 84" fill="none" xmlns="http://www.w3.org/2000/svg">
<path fill-rule="evenodd" clip-rule="evenodd" d="M7.875 20.5C7.875 17.3934 10.3934 14.875 13.5 14.875H70.5C73.6066 14.875 76.125 17.3934 76.125 20.5V70.5C76.125 73.6066 73.6066 76.125 70.5 76.125H13.5C10.3934 76.125 7.875 73.6066 7.875 70.5V20.5Z" fill="#DFE2F1"/>
<path fill-rule="evenodd" clip-rule="evenodd" d="M7.875 20.5C7.875 17.3934 10.3934 14.875 13.5 14.875H70.5C73.6066 14.875 76.125 17.3934 76.125 20.5V34.125H7.875V20.5Z" fill="#5D6DBB"/>
<path fill-rule="evenodd" clip-rule="evenodd" d="M26.25 7C27.6997 7 28.875 8.17525 28.875 9.625V23.625C28.875 25.0747 27.6997 26.25 26.25 26.25C24.8003 26.25 23.625 25.0747 23.625 23.625V9.625C23.625 8.17525 24.8003 7 26.25 7Z" fill="#5D6DBB"/>
<path fill-rule="evenodd" clip-rule="evenodd" d="M57.75 7C59.1997 7 60.375 8.17525 60.375 9.625V23.625C60.375 25.0747 59.1997 26.25 57.75 26.25C56.3003 26.25 55.125 25.0747 55.125 23.625V9.625C55.125 8.17525 56.3003 7 57.75 7Z" fill="#5D6DBB"/>
<path fill-rule="evenodd" clip-rule="evenodd" d="M21.875 42C21.875 40.5503 23.0503 39.375 24.5 39.375H29.5C30.9497 39.375 32.125 40.5503 32.125 42C32.125 43.4497 30.9497 44.625 29.5 44.625H24.5C23.0503 44.625 21.875 43.4497 21.875 42ZM36.875 42C36.875 40.5503 38.0503 39.375 39.5 39.375H44.5C45.9497 39.375 47.125 40.5503 47.125 42C47.125 43.4497 45.9497 44.625 44.5 44.625H39.5C38.0503 44.625 36.875 43.4497 36.875 42ZM51.875 42C51.875 40.5503 53.0503 39.375 54.5 39.375H59.5C60.9497 39.375 62.125 40.5503 62.125 42C62.125 43.4497 60.9497 44.625 59.5 44.625H54.5C53.0503 44.625 51.875 43.4497 51.875 42ZM21.875 52.5C21.875 51.0503 23.0503 49.875 24.5 49.875H29.5C30.9497 49.875 32.125 51.0503 32.125 52.5C32.125 53.9497 30.9497 55.125 29.5 55.125H24.5C23.0503 55.125 21.875 53.9497 21.875 52.5ZM36.875 52.5C36.875 51.0503 38.0503 49.875 39.5 49.875H44.5C45.9497 49.875 47.125 51.0503 47.125 52.5C47.125 53.9497 45.9497 55.125 44.5 55.125H39.5C38.0503 55.125 36.875 53.9497 36.875 52.5ZM51.875 52.5C51.875 51.0503 53.0503 49.875 54.5 49.875H59.5C60.9497 49.875 62.125 51.0503 62.125 52.5C62.125 53.9497 60.9497 55.125 59.5 55.125H54.5C53.0503 55.125 51.875 53.9497 51.875 52.5ZM21.875 63C21.875 61.5503 23.0503 60.375 24.5 60.375H29.5C30.9497 60.375 32.125 61.5503 32.125 63C32.125 64.4497 30.9497 65.625 29.5 65.625H24.5C23.0503 65.625 21.875 64.4497 21.875 63ZM36.875 63C36.875 61.5503 38.0503 60.375 39.5 60.375H44.5C45.9497 60.375 47.125 61.5503 47.125 63C47.125 64.4497 45.9497 65.625 44.5 65.625H39.5C38.0503 65.625 36.875 64.4497 36.875 63ZM51.875 63C51.875 61.5503 53.0503 60.375 54.5 60.375H59.5C60.9497 60.375 62.125 61.5503 62.125 63C62.125 64.4497 60.9497 65.625 59.5 65.625H54.5C53.0503 65.625 51.875 64.4497 51.875 63Z" fill="#5D6DBB"/>
</svg>
