<svg width="84" height="84" viewBox="0 0 84 84" fill="none" xmlns="http://www.w3.org/2000/svg">
<path d="M22.077 8C18.9332 8 16.3846 10.5371 16.3846 13.6667V76H61.9231C65.0669 76 67.6154 73.4629 67.6154 70.3333V19.3333H79V13.6667C79 10.5371 76.4515 8 73.3077 8H22.077Z" fill="#DFE2F1"/>
<path d="M67.6154 13.6667C67.6154 10.5371 70.1639 8 73.3077 8C76.4514 8 79 10.5371 79 13.6667V19.3333H67.6154V13.6667Z" fill="#5D6DBB"/>
<path d="M56.2308 64.6667H5V70.3333C5 73.4629 7.54853 76 10.6923 76H61.9231C58.7793 76 56.2308 73.4629 56.2308 70.3333V64.6667Z" fill="#5D6DBB"/>
<path fill-rule="evenodd" clip-rule="evenodd" d="M29 55.815C29 55.0887 29.582 54.5 30.3 54.5L53.7 54.5C54.418 54.5 55 55.0887 55 55.815C55 56.5413 54.418 57.13 53.7 57.13L30.3 57.13C29.582 57.13 29 56.5413 29 55.815Z" fill="#4555A5"/>
<path fill-rule="evenodd" clip-rule="evenodd" d="M29 49.565C29 48.8387 29.582 48.25 30.3 48.25L53.7 48.25C54.418 48.25 55 48.8387 55 49.565C55 50.2913 54.418 50.88 53.7 50.88L30.3 50.88C29.582 50.88 29 50.2913 29 49.565Z" fill="#4555A5"/>
<path fill-rule="evenodd" clip-rule="evenodd" d="M29 43.315C29 42.5887 29.582 42 30.3 42L53.7 42C54.418 42 55 42.5887 55 43.315C55 44.0413 54.418 44.63 53.7 44.63L30.3 44.63C29.582 44.63 29 44.0413 29 43.315Z" fill="#4555A5"/>
<path d="M49.033 36C48.9674 36 48.906 35.9678 48.8686 35.9139L47.4334 33.8423L46.1675 35.9046C46.1312 35.9639 46.0666 36 45.9971 36H44.3311C44.2508 36 44.2032 35.9101 44.2484 35.8437L46.5155 32.5125L44.2246 29.207C44.1787 29.1407 44.2261 29.0501 44.3068 29.0501H46.0827C46.1484 29.0501 46.21 29.0824 46.2473 29.1364L47.6694 31.1953L48.9482 29.1443C48.9847 29.0857 49.0489 29.0501 49.1179 29.0501H50.7835C50.864 29.0501 50.9115 29.1405 50.8658 29.2068L48.5873 32.5125L50.8915 35.8431C50.9374 35.9094 50.8899 36 50.8093 36H49.033Z" fill="#4555A5"/>
<path d="M40.5443 33.1235C40.4522 33.1235 40.3676 33.0728 40.3241 32.9917L37.2315 27.2301H35.8758V32.9235C35.8758 33.0339 35.7862 33.1235 35.6758 33.1235H33.2C33.0895 33.1235 33 33.0339 33 32.9235V18.2C33 18.0895 33.0895 18 33.2 18H38.3818C39.491 18 40.4359 18.2094 41.2164 18.6283C41.997 19.0328 42.579 19.5889 42.9624 20.2967C43.3596 20.99 43.5581 21.77 43.5581 22.6367C43.5581 23.6334 43.2842 24.5362 42.7365 25.3451C42.1887 26.1395 41.3739 26.6884 40.2921 26.9917L43.6392 32.9746C43.6765 33.0413 43.6283 33.1235 43.5519 33.1235H40.5443ZM35.8758 24.9551H38.2791C39.0596 24.9551 39.6416 24.7601 40.025 24.3701C40.4085 23.9656 40.6002 23.4095 40.6002 22.7017C40.6002 22.0084 40.4085 21.4739 40.025 21.0984C39.6416 20.7084 39.0596 20.5134 38.2791 20.5134H35.8758V24.9551Z" fill="#4555A5"/>
</svg>
