<svg height="512pt" viewBox="0 -53 512 511" width="512pt" xmlns="http://www.w3.org/2000/svg"><path d="M256 341.832c-64.703 0-117.332-52.629-117.332-117.332S191.297 107.168 256 107.168 373.332 159.797 373.332 224.5 320.703 341.832 256 341.832zm0-202.664c-47.063 0-85.332 38.27-85.332 85.332s38.27 85.332 85.332 85.332 85.332-38.27 85.332-85.332-38.27-85.332-85.332-85.332zm0 0"/><path d="M448 405.832H58.668C26.305 405.832 0 379.532 0 347.168v-224C0 90.805 26.305 64.5 58.668 64.5h80.789l15.785-31.574C165.246 12.937 185.344.5 207.703.5h94.527c23.766 0 45.012 14.187 54.165 36.098L368 64.5h85.332C485.695 64.5 512 90.805 512 123.168v224c0 34.578-33.727 58.664-64 58.664zM58.668 96.5C43.968 96.5 32 108.469 32 123.168v224c0 14.7 11.969 26.664 26.668 26.664H448c16.148 0 32-13.203 32-26.664v-224c0-14.7-11.969-26.668-26.668-26.668h-96a15.985 15.985 0 01-14.762-9.836l-15.742-37.738c-4.16-9.985-13.805-16.426-24.621-16.426h-94.504c-10.156 0-19.308 5.652-23.851 14.742l-20.204 40.406a16.022 16.022 0 01-14.316 8.852zm0 0"/><path d="M426.645 171.188c-11.754 0-21.333-9.579-21.333-21.333 0-11.753 9.579-21.335 21.333-21.335 11.753 0 21.335 9.582 21.335 21.335 0 11.754-9.582 21.333-21.335 21.333zm0-32c-5.887 0-10.665 4.777-10.665 10.667 0 5.887 4.778 10.665 10.665 10.665 5.89 0 10.667-4.778 10.667-10.665 0-5.89-4.777-10.667-10.667-10.667zm0 0"/></svg>