<svg width="24" height="25" viewBox="0 0 24 25" fill="none" xmlns="http://www.w3.org/2000/svg">
<path fill-rule="evenodd" clip-rule="evenodd" d="M12.6504 7.89677C12.2264 7.78653 11.7736 7.78653 11.3496 7.89677L4.96723 9.55426L11.3423 11.2296C11.7708 11.3422 12.2291 11.3422 12.6576 11.2296L19.0328 9.55426L12.6504 7.89677ZM13.0277 6.44499C12.3562 6.27045 11.6438 6.27045 10.9723 6.44499C10.9724 6.44497 10.9723 6.445 10.9723 6.44499L1.81148 8.82404C1.48123 8.9098 1.25049 9.20767 1.25 9.54887C1.24951 9.89008 1.47938 10.1886 1.80938 10.2753L10.961 12.6803C10.9609 12.6803 10.961 12.6803 10.961 12.6803C11.6394 12.8587 12.3605 12.8587 13.0389 12.6803C13.0389 12.6803 13.039 12.6803 13.0389 12.6803L22.1906 10.2753C22.5206 10.1886 22.7505 9.89008 22.75 9.54887C22.7495 9.20767 22.5188 8.9098 22.1885 8.82404L13.0277 6.44499C13.0277 6.445 13.0276 6.44497 13.0277 6.44499Z" fill="#4555A5"/>
<path fill-rule="evenodd" clip-rule="evenodd" d="M7 10.3141C7.41421 10.3141 7.75 10.6499 7.75 11.0641V14.4776C7.75 14.7603 7.85689 14.9899 7.98721 15.1152C8.44635 15.5567 9.57349 16.3141 12 16.3141C14.4262 16.3141 15.5534 15.5565 16.0131 15.1149C16.1432 14.99 16.25 14.7604 16.25 14.4776V11.0641C16.25 10.6499 16.5858 10.3141 17 10.3141C17.4142 10.3141 17.75 10.6499 17.75 11.0641V14.4776C17.75 15.1089 17.5173 15.75 17.0522 16.1968L17.0521 16.1968C16.2842 16.9343 14.7717 17.8141 12 17.8141C9.22862 17.8141 7.71548 16.9349 6.94752 16.1965L6.94751 16.1965C6.48339 15.7502 6.25 15.1098 6.25 14.4776V11.0641C6.25 10.6499 6.58579 10.3141 7 10.3141Z" fill="#4555A5"/>
<path fill-rule="evenodd" clip-rule="evenodd" d="M20 9.31409C20.4142 9.31409 20.75 9.64987 20.75 10.0641V16.0641C20.75 16.4783 20.4142 16.8141 20 16.8141C19.5858 16.8141 19.25 16.4783 19.25 16.0641V10.0641C19.25 9.64987 19.5858 9.31409 20 9.31409Z" fill="#4555A5"/>
<path fill-rule="evenodd" clip-rule="evenodd" d="M20 16.8141C19.8618 16.8141 19.75 16.9259 19.75 17.0641V19.0641C19.75 19.2023 19.8618 19.3141 20 19.3141C20.138 19.3141 20.25 19.2021 20.25 19.0641V17.0641C20.25 16.9259 20.1382 16.8141 20 16.8141ZM18.25 17.0641C18.25 16.0975 19.0334 15.3141 20 15.3141C20.9666 15.3141 21.75 16.0975 21.75 17.0641V19.0641C21.75 20.0302 20.9667 20.8141 20 20.8141C19.0334 20.8141 18.25 20.0307 18.25 19.0641V17.0641Z" fill="#4555A5"/>
</svg>
