<svg width="598" height="362" fill="none" xmlns="http://www.w3.org/2000/svg"><path d="M232.731 339.235h39.137s-3.46-6.234-13.55-5.374c-9.586.86-10.091-3.081-14.992-3.583-4.901-.43-8.937 3.296-10.595 8.957z" fill="#ebebeb"/><path d="M547.699 138.1c-5.694-8.025-3.892-18.415-.36-27.157.577-1.433 1.009-3.081 2.162-4.084 1.153-1.004 3.099-1.362 4.253-.215.937.931.937 2.364 1.153 3.654.288 1.72 1.081 3.296 2.306 4.514.793.788 1.802 1.505 2.955 1.362 1.514-.215 2.307-1.935 2.811-3.44.937-2.723 1.946-5.445 2.883-8.168.505-1.433 1.081-2.938 2.018-4.156.937-1.218 2.451-2.15 3.965-2.007 1.513.144 2.955 1.505 2.738 3.081-.072.645-.432 1.219-.648 1.863-.144.645-.144 1.362.36 1.792.505.358 1.297.143 1.874-.072 2.018-.931 3.748-2.436 5.406-4.012 1.657-1.577 3.315-3.153 5.261-4.3 1.946-1.146 4.325-1.72 6.487-1.075s3.892 2.723 3.748 4.945c-.216 2.221-2.162 3.941-4.109 5.087-2.883 1.791-5.982 3.153-9.153 4.013-.577.143-1.225.358-1.586.788-.648.86-.072 2.15.793 2.795.937.788 2.162 1.074 3.316 1.648 1.081.573 2.162 1.504 2.234 2.722.072 1.72-1.73 2.795-3.388 3.44-3.243 1.146-6.631 1.791-10.09 1.791-1.225.0-2.523-.071-3.604.359-1.153.429-2.162 1.576-2.018 2.794.144 1.218 1.369 2.006 2.595 2.221 1.225.215 2.45-.071 3.676-.071 2.306.0 4.829 1.075 5.549 3.224.433 1.433-.072 3.081-1.009 4.299-.937 1.219-2.234 2.078-3.531 2.795-4.613 2.651-9.875 4.156-15.136 4.084-5.334-.071-9.874-1.218-13.911-4.514z" fill="#f5f5f5"/><path d="M548.925 139.103c1.585-3.368.144-1.719 3.099-5.732 2.883-4.013 6.487-8.097 10.379-12.253.937-1.003 1.946-2.078 2.883-3.081.937-1.003 1.874-2.007 2.883-2.938 1.946-1.863 3.964-3.44 5.91-4.944 1.946-1.505 3.892-2.795 5.694-4.085 1.802-1.218 3.531-2.364 5.117-3.296.937-.359 1.73-.646 2.235-.86.216-.072.432-.144.576-.216.144-.071.216-.071.216-.071s-.072.0-.216.071c-.144.072-.36.144-.576.215-.505.215-1.226.502-2.235.932-1.874.788-4.612 2.078-7.784 4.013-1.946 1.504-3.964 3.081-5.91 4.944-.937.931-1.874 1.935-2.883 2.938-3.892 4.156-7.424 8.24-10.379 12.181-2.955 3.941-1.514 2.293-3.099 5.661" fill="#e0e0e0"/><path d="M568.169 115.171s0-.215.072-.645c.072-.43.216-1.075.36-1.792.289-1.504.865-3.654 1.442-5.947.576-2.293 1.081-4.443 1.369-5.947.144-.789.288-1.362.361-1.792.072-.43.144-.645.144-.645s0 .215-.072.645c-.072.43-.145 1.075-.217 1.863-.216 1.577-.72 3.655-1.297 5.948-.577 2.293-1.081 4.371-1.513 5.947-.145.716-.289 1.29-.433 1.791-.144.359-.216.574-.216.574zM588.35 118.395s-.289-.072-.793-.215c-.505-.143-1.225-.358-2.162-.502-1.802-.429-4.325-.931-7.064-1.361-2.811-.43-5.333-.717-7.207-.86-.937-.071-1.658-.143-2.162-.143-.505.0-.793-.072-.793-.072h.793c.504.0 1.297.0 2.234.072 1.874.071 4.397.358 7.207.788 2.811.43 5.334 1.003 7.136 1.505.865.215 1.585.43 2.09.645.432.071.721.143.721.143zM552.312 133.084s0-.071-.072-.286c0-.215-.072-.502-.072-.789-.144-2.508-.216-5.948-.216-9.674.0-3.798-.072-7.237-.145-9.673-.072-1.218-.072-2.222-.072-2.938v-.788-.287s0 .072.072.287c0 .215.073.501.073.788.072.716.144 1.72.216 2.938.144 2.508.216 5.947.216 9.673.0 3.798.072 7.237.144 9.674.072 1.218.072 2.221.072 2.937v.789c.072.215.072.286.0.286z" fill="#e0e0e0"/><path d="M580.422 134.016h-1.082c-.72.0-1.801-.072-3.027-.072-2.522-.072-6.054-.143-9.946-.215-3.892-.072-7.352-.143-9.947-.286-.36.0-.576-.072-.793-.072-.216.0-.288.0-.288-.072h1.081c.721.0 1.802.072 3.027.072 2.523.072 6.055.143 9.947.215 3.892.072 7.352.143 9.946.286 1.298.072 2.307.144 3.027.215.361.0.577.072.793.072z" fill="#e0e0e0"/><path d="M357.782 75.904c.792 1.29 2.666 1.218 3.315-.144l4.613-9.53c1.658-3.726 1.585-5.804 1.585-5.804.0-5.732-5.982-9.458-12.252-6.664-1.226.574-2.307 1.362-3.027 2.508-2.091 3.153-1.442 6.95.072 10.032l5.694 9.602zm3.82-10.534c-4.541 2.58-9.082-2.293-6.559-7.022 4.541-2.579 9.082 2.293 6.559 7.023-.36.645-.865 1.218-1.441 1.504zM557.575 233.327c.648 1.146 2.378 1.074 2.955-.144l4.036-8.312c1.442-3.296 1.442-5.087 1.442-5.087.0-5.016-5.262-8.312-10.74-5.876-1.081.502-2.018 1.218-2.666 2.221-1.802 2.795-1.226 6.091.072 8.814l4.901 8.384zm3.387-9.244c-3.964 2.293-7.928-2.006-5.766-6.162 3.964-2.293 7.928 2.006 5.766 6.162-.361.574-.793 1.003-1.298 1.29z" fill="#ebebeb"/><path d="M257.092 24.169h77.049s-6.775-12.325-26.668-10.533c-18.956 1.72-19.893-6.09-29.551-7.022-9.586-.932-17.586 6.377-20.83 17.555z" fill="#f5f5f5"/><path d="M228.551 37.998h49.732s-4.397-7.953-17.226-6.807c-12.253 1.075-12.83-3.94-19.1-4.514-6.127-.645-11.316 4.084-13.406 11.321zM0 236.124h49.732s-4.397-7.954-17.226-6.807c-12.253 1.074-12.83-3.941-19.1-4.515C7.28 224.157 2.09 228.887.0 236.124z" fill="#ebebeb"/><path d="M550.007 203.661H597s-4.18-7.523-16.217-6.448c-11.532 1.074-12.108-3.726-18.019-4.3-5.91-.501-10.811 3.941-12.757 10.748z" fill="#f5f5f5"/><path d="M244.191 150.425c-.072.0-.144-.502-.216-1.505.0-.502-.072-1.075-.216-1.791-.145-.717-.217-1.505-.505-2.437-.432-1.791-1.297-3.941-2.667-6.162-1.369-2.221-3.315-4.586-5.91-6.521-2.667-1.934-5.91-3.654-9.73-4.299-3.82-.645-8.073-.573-12.181 1.003-2.018.717-4.036 1.792-5.838 3.081-.937.645-1.73 1.434-2.595 2.222-.792.86-1.585 1.719-2.234 2.651-2.883 3.726-4.469 8.527-4.541 13.543.0 4.944 1.586 9.816 4.397 13.542.649 1.004 1.441 1.792 2.234 2.652.865.788 1.658 1.576 2.595 2.221 1.802 1.361 3.748 2.436 5.838 3.153 4.036 1.576 8.361 1.72 12.109 1.075 3.82-.645 7.135-2.293 9.802-4.228 2.667-1.935 4.613-4.299 5.982-6.521 1.37-2.221 2.235-4.371 2.739-6.162.288-.86.433-1.72.577-2.436.144-.717.216-1.29.288-1.792-.072-.788.0-1.289.072-1.289s.072.501.072 1.504c0 .502.0 1.147-.144 1.863-.361 1.863-1.226 4.084-2.595 6.377-1.37 2.293-3.316 4.801-6.055 6.879-2.738 2.078-6.198 3.798-10.162 4.514-3.964.717-8.433.573-12.758-1.075-2.162-.716-4.252-1.863-6.126-3.296-1.009-.645-1.874-1.505-2.739-2.364-.793-.932-1.658-1.792-2.378-2.795-2.955-3.941-4.685-9.1-4.685-14.331.072-5.231 1.802-10.318 4.829-14.259.721-1.003 1.586-1.863 2.378-2.795.937-.788 1.802-1.648 2.811-2.293 4.324-1.577 8.793-1.648 12.757-.932 3.964.788 7.424 2.508 10.091 4.658 2.739 2.078 4.685 4.586 5.982 6.879 1.297 2.364 2.162 4.586 2.523 6.449.216.931.36 1.719.432 2.508.144.716.144 1.361.144 1.863-.072.931-.072 1.433-.144 1.433z" fill="#ebebeb"/><path d="M239.146 135.807c.072.072-.361.43-1.153 1.075-.433.358-.937.716-1.514 1.146-.288.215-.577.43-.937.645-.36.215-.721.43-1.153.645-3.099 1.863-8.145 3.87-13.839 3.726-.72.0-1.441.0-2.09-.071-.721-.072-1.369-.215-2.018-.287-.36-.072-.649-.072-1.009-.143-.288-.072-.649-.144-.937-.215-.649-.144-1.225-.287-1.802-.502-2.306-.788-4.397-1.648-5.982-2.579-3.244-1.863-4.757-3.583-4.685-3.655.144-.143 1.874 1.29 5.117 2.866 1.586.789 3.604 1.577 5.838 2.222.577.143 1.154.286 1.802.43.289.071.577.143.937.215.289.071.649.071.937.143l1.946.215c.649.0 1.298.0 2.018.071 5.478.072 10.235-1.648 13.406-3.296.433-.215.793-.358 1.154-.501.36-.215.648-.43 1.009-.574.576-.358 1.153-.644 1.585-.931.793-.502 1.298-.717 1.37-.645zM201.811 165.186c-.072-.072.36-.43 1.153-1.075.432-.359.937-.717 1.514-1.147.288-.215.576-.43.937-.645.36-.215.72-.43 1.153-.645 3.099-1.863 8.144-3.869 13.838-3.726.721.0 1.442.0 2.09.072.721.072 1.37.215 2.018.287.361.071.649.071 1.01.143.288.072.648.143.937.215.648.143 1.225.287 1.801.502 2.307.788 4.397 1.648 5.983 2.579 3.243 1.863 4.757 3.583 4.685 3.655-.145.143-1.874-1.29-5.118-2.867-1.585-.788-3.604-1.576-5.838-2.221-.577-.143-1.153-.287-1.802-.43-.288-.072-.648-.072-.937-.143l-1.946-.215c-.648.0-1.297.0-2.018-.072-5.478-.071-10.235 1.648-13.406 3.296-.432.215-.793.359-1.153.502-.36.215-.649.43-1.009.573-.577.358-1.153.645-1.586.932-.793.43-1.297.716-1.369.645zM244.193 150.998c0 .358-10.595.573-23.713.501-13.117-.071-23.712-.429-23.712-.788.0-.358 10.595-.573 23.712-.501 13.118.071 23.713.43 23.713.788z" fill="#ebebeb"/><path d="M219.83 173.856c-.361.0-.577-10.533-.505-23.575.072-13.041.432-23.574.793-23.574.36.0.576 10.533.504 23.574-.072 13.042-.432 23.575-.792 23.575z" fill="#ebebeb"/><path d="M219.83 173.784c-.072.143-2.739-1.576-5.839-5.517-1.513-1.935-3.171-4.515-4.396-7.596.0-3.869.865-7.452 2.162-10.462 1.297-3.081 2.955-5.517 4.469-7.523 3.099-3.87 5.694-5.661 5.838-5.518.144.144-2.235 2.15-5.045 6.091-1.153 2.938-2.018 6.378-2.018 10.032s.721 7.094 1.874 10.103c2.811 4.013 5.19 5.948 5.046 6.091zM220.622 126.779c.072-.144 2.739 1.576 5.838 5.517 1.514 1.935 3.172 4.514 4.397 7.595.0 3.869-.865 7.452-2.162 10.461-1.297 3.081-2.955 5.518-4.469 7.524-3.099 3.869-5.694 5.661-5.838 5.517-.144-.143 2.234-2.149 5.045-6.09 1.153-2.937 2.018-6.377 2.018-10.031-2.811-4.012-5.19-5.947-5.046-6.09z" fill="#ebebeb"/><path d="M181.774 277.254c1.009 1.648 3.459 1.576 4.252-.144l5.91-12.253c2.163-4.8 2.091-7.523 2.091-7.523.072-7.381-7.713-12.182-15.713-8.599-1.586.717-2.955 1.791-3.892 3.225-2.667 4.084-1.802 8.885.144 12.897l7.208 12.397zm4.901-13.471c-5.838 3.296-11.676-2.867-8.433-9.029.433-.788 1.081-1.505 1.874-1.935 5.838-3.296 11.676 2.867 8.433 9.029-.433.788-1.081 1.433-1.874 1.935zM459.31 96.549c1.009 1.648 3.459 1.576 4.252-.144l5.91-12.252c2.162-4.801 2.09-7.524 2.09-7.524.072-7.38-7.712-12.182-15.712-8.599-1.586.717-2.955 1.791-3.892 3.225-2.667 4.084-1.802 8.885.144 12.898l7.208 12.396zm4.901-13.471c-5.838 3.296-11.677-2.867-8.433-9.029.432-.788 1.081-1.505 1.874-1.934 5.838-3.297 11.676 2.866 8.433 9.028-.433.788-1.082 1.505-1.874 1.935zM548.691 288.565c1.009 1.648 3.46 1.577 4.252-.143l5.911-12.253c2.162-4.801 2.09-7.524 2.09-7.524.072-7.38-7.712-12.181-15.713-8.598-1.585.716-2.955 1.791-3.892 3.224-2.667 4.085-1.802 8.885.144 12.898l7.208 12.396zm4.901-13.542c-5.838 3.296-11.676-2.867-8.433-9.029.433-.788 1.081-1.505 1.874-1.935 5.838-3.296 11.676 2.867 8.433 9.029zM104.797 88.082c1.009 1.648 3.459 1.577 4.252-.143l5.91-12.253c2.163-4.8 2.091-7.524 2.091-7.524.072-7.38-7.712-12.181-15.713-8.598-1.586.716-2.955 1.791-3.892 3.224-2.667 4.085-1.802 8.885.144 12.898l7.208 12.396zm4.901-13.47c-5.838 3.295-11.676-2.867-8.433-9.03.433-.787 1.081-1.504 1.874-1.934 5.838-3.296 11.676 2.866 8.433 9.029-.433.788-1.081 1.433-1.874 1.934zm79.093 162.333c.133.0.067.815-.066 1.777-.134.963-.4 1.703-.533 1.629-.133-.074-.067-.814.067-1.777.133-.888.399-1.629.532-1.629zM190.323 223.173c.133.0.066 1.555-.067 3.48-.2 1.925-.399 3.48-.533 3.406-.133.0-.066-1.555.067-3.48.2-1.851.4-3.406.533-3.406zM190.59 209.253c.134.0.2 1.555.267 3.48.0 1.925-.067 3.48-.2 3.48-.134.0-.201-1.555-.268-3.48.0-1.851.067-3.406.201-3.48zM189.657 195.407c.133.0.399 1.481.532 3.406.2 1.925.2 3.48.134 3.48-.134.0-.4-1.481-.533-3.406-.266-1.851-.266-3.48-.133-3.48zM187.393 181.783c.133-.074.466 1.407.865 3.332.333 1.851.533 3.406.4 3.48-.133.0-.533-1.481-.866-3.332-.333-1.851-.466-3.406-.399-3.48zM183.997 168.603c.133-.074.599 1.333 1.132 3.184.533 1.777.865 3.332.732 3.332-.133.074-.599-1.333-1.132-3.184-.532-1.703-.865-3.258-.732-3.332zM179.402 156.09c.134-.074.733 1.259 1.399 2.962.666 1.703 1.132 3.11.999 3.184-.134.074-.733-1.259-1.399-2.962-.599-1.629-1.065-3.036-.999-3.184zM173.743 144.465c.066-.074.865 1.037 1.664 2.666.799 1.555 1.399 2.962 1.265 3.036-.133.074-.865-1.111-1.664-2.666-.733-1.555-1.399-2.888-1.265-3.036zM167.084 133.803c.067-.148.932.963 1.864 2.444.933 1.48 1.665 2.739 1.532 2.813-.067.074-.932-.962-1.865-2.443-.932-1.407-1.664-2.666-1.531-2.814zM159.693 123.955c.066-.148.998.889 2.064 2.148 1.065 1.332 1.798 2.517 1.731 2.591-.066.148-.999-.888-2.064-2.147s-1.798-2.444-1.731-2.592zM151.769 114.996c.066-.148 1.065.741 2.131 1.925 1.132 1.185 1.931 2.296 1.864 2.444-.067.148-1.065-.741-2.131-1.925-1.132-1.185-1.997-2.296-1.864-2.444zM143.246 106.999c.066-.148 1.065.593 2.264 1.703 1.198 1.111 2.13 2.074 1.997 2.222-.066.148-1.065-.593-2.264-1.703-1.132-1.111-2.064-2.073-1.997-2.222zM134.256 99.965c.067-.148 1.132.445 2.398 1.407 1.265.963 2.264 1.777 2.197 1.925-.067.148-1.132-.518-2.397-1.407-1.265-.888-2.264-1.777-2.198-1.925zM124.801 94.338c.067-.148 1.132.296 2.464 1.037 1.332.74 2.397 1.48 2.33 1.629-.066.148-1.198-.297-2.463-1.037-1.332-.74-2.397-1.48-2.331-1.629zM114.813 90.414c0-.148 1.199.074 2.597.592 1.398.444 2.53.963 2.464 1.11-.067.149-1.199-.073-2.597-.592-1.399-.444-2.464-.888-2.464-1.11z" fill="#6d7bc2"/><path d="M107.089 89.007c0-.148.599-.222 1.332-.148.732.074 1.265.296 1.265.444.0.148-.599.222-1.332.148-.666-.074-1.265-.222-1.265-.444zM107.391 86.209c.071.075-.283.45-.848.825-.566.375-1.061.6-1.131.525-.071-.075.282-.45.848-.825.495-.375 1.06-.6 1.131-.525zM115.733 81.555c.071.075-.848.676-1.979 1.276-1.202.6-2.192 1.05-2.263.976-.07-.075.778-.676 1.98-1.276 1.131-.6 2.191-1.05 2.262-.976zM124.711 77.803c.071.075-.919.6-2.191 1.05-1.273.526-2.333.826-2.404.75-.07-.074.919-.6 2.192-1.05 1.272-.525 2.403-.825 2.403-.75zM134.326 74.876c.071.075-.99.45-2.333.825-1.343.375-2.474.6-2.545.526-.071-.076.99-.45 2.333-.826 1.343-.375 2.474-.6 2.545-.525zM144.294 72.699c.071.075-1.06.375-2.404.675-1.414.3-2.545.376-2.615.3-.071-.074 1.06-.375 2.403-.675 1.414-.225 2.545-.375 2.616-.3zM154.545 71.273c0 .075-1.131.3-2.545.525-1.414.15-2.616.226-2.616.15.0-.075 1.131-.3 2.545-.525 1.414-.15 2.616-.225 2.616-.15zM165.008 70.522c0 .075-1.131.226-2.616.3-1.414.076-2.616.076-2.686-.074.0-.075 1.131-.226 2.615-.3 1.414.0 2.616.0 2.687.075zM175.541 70.447c0 .075-1.131.15-2.615.15-1.485.0-2.616-.075-2.687-.225.0-.075 1.131-.15 2.616-.15 1.484.0 2.686.075 2.686.225zM186.146 70.898c0 .075-1.202.15-2.616.0-1.485-.075-2.686-.225-2.686-.3.0-.076 1.201-.15 2.615.0 1.485.0 2.687.15 2.687.3zM196.75 71.873c0 .075-1.202.075-2.686-.075-1.485-.15-2.616-.375-2.616-.45.0-.075 1.202-.075 2.686.075 1.414.15 2.616.375 2.616.45zM207.284 73.45c0 .075-1.202.0-2.687-.226-1.484-.225-2.616-.525-2.616-.6.0-.075 1.202.0 2.687.225 1.484.225 2.616.45 2.616.6zM217.817 75.4c0 .076-1.202-.074-2.686-.374-1.414-.3-2.616-.6-2.545-.75.0-.076 1.202.074 2.686.374 1.414.376 2.545.676 2.545.75zM228.139 77.953c0 .075-1.202-.15-2.616-.45-1.414-.376-2.545-.751-2.545-.826.0-.075 1.202.15 2.616.45 1.484.3 2.615.676 2.545.826zM238.39 80.88c-.071.075-1.202-.15-2.616-.6-1.414-.451-2.545-.826-2.474-.976.0-.075 1.201.15 2.615.6 1.414.45 2.545.9 2.475.976zM248.428 84.332c-.07.075-1.201-.225-2.545-.75-1.343-.526-2.474-.976-2.403-1.051.07-.075 1.201.225 2.545.75 1.343.526 2.474.976 2.403 1.051zM258.184 88.385c-.07.075-1.202-.3-2.474-.9-1.343-.601-2.333-1.126-2.333-1.201.071-.076 1.202.3 2.474.9 1.344.6 2.333 1.126 2.333 1.201zM267.516 93.113c-.071.075-1.131-.375-2.404-1.05-1.272-.676-2.262-1.276-2.191-1.351.07-.075 1.131.375 2.403 1.05 1.273.6 2.263 1.201 2.192 1.351zM276.424 98.292c-.071.075-1.131-.45-2.333-1.2-1.202-.751-2.121-1.427-2.05-1.502.07-.075 1.131.45 2.333 1.201 1.201.75 2.12 1.426 2.05 1.501zM284.766 104.071c-.071.075-1.061-.525-2.192-1.351-1.131-.825-1.979-1.501-1.909-1.576.071-.075 1.061.525 2.192 1.351 1.131.751 1.979 1.501 1.909 1.576zM292.613 110.301c-.071.075-1.06-.601-2.121-1.426-1.06-.901-1.838-1.652-1.767-1.727.07-.075.989.601 2.121 1.426 1.06.901 1.908 1.651 1.767 1.727zM299.895 116.98c-.071.075-.99-.675-1.98-1.576s-1.697-1.726-1.626-1.801c.071-.075.99.675 1.98 1.576 1.06.901 1.767 1.726 1.626 1.801zM306.611 124.035c-.071.075-.919-.675-1.838-1.651s-1.556-1.801-1.414-1.876c.07-.075.919.675 1.838 1.651.848.976 1.484 1.801 1.414 1.876zM312.62 131.39c-.142.075-.849-.75-1.626-1.801-.778-1.051-1.343-1.876-1.273-1.951.071-.075.849.75 1.626 1.801.778 1.051 1.344 1.876 1.273 1.951zM317.922 139.046c-.141.075-.778-.826-1.485-1.877-.707-1.05-1.201-1.951-1.06-2.026.141-.075.778.826 1.485 1.876.706 1.126 1.201 2.027 1.06 2.027zM322.517 147.001c-.141.0-.707-.825-1.343-1.951-.636-1.126-.99-2.026-.919-2.026.141.0.707.825 1.343 1.951.636 1.051 1.06 2.026.919 2.026zM326.335 155.182c-.142.0-.637-.9-1.131-2.026-.495-1.126-.778-2.102-.707-2.102.141.0.636.901 1.131 2.027.495 1.125.848 2.026.707 2.101zM329.304 163.438c-.142.0-.566-.901-.919-2.027-.354-1.125-.566-2.101-.495-2.101.141.0.566.901.919 2.026.424 1.126.636 2.102.495 2.102zM331.425 171.844c-.142.0-.424-.901-.707-2.102-.283-1.125-.354-2.101-.283-2.101.071.0.424.901.707 2.101.353 1.201.424 2.102.283 2.102zM332.487 178.298c-.142.0-.284-.45-.355-1.05-.071-.601-.071-1.051.071-1.051s.284.45.355 1.051c.071.525.0 1.05-.071 1.05zM344.24 175.937c.161.0.081.59-.08 1.246-.16.657-.48 1.182-.641 1.116-.16.0-.08-.591.081-1.247.16-.656.48-1.181.64-1.115zM347.445 166.224c.16.066-.161 1.116-.561 2.494-.481 1.312-.961 2.362-1.122 2.362-.16.0.161-1.115.561-2.493.481-1.313.961-2.363 1.122-2.363zM351.209 156.709c.16.066-.16 1.116-.721 2.428-.56 1.313-1.121 2.363-1.201 2.297-.16-.066.16-1.116.721-2.428.56-1.313 1.041-2.297 1.201-2.297zM355.695 147.391c.16.065-.321 1.115-.961 2.428-.641 1.246-1.282 2.296-1.362 2.231-.16-.066.32-1.116.961-2.428.561-1.247 1.202-2.297 1.362-2.231zM360.981 138.4c.161.066-.4 1.116-1.121 2.297-.801 1.247-1.522 2.166-1.602 2.166-.16-.066.4-1.116 1.121-2.297.721-1.313 1.442-2.231 1.602-2.166zM367.309 129.804c.081.065-.56 1.05-1.441 2.231-.882 1.181-1.763 2.034-1.843 1.969-.16-.066.481-1.05 1.442-2.232.881-1.115 1.682-2.034 1.842-1.968zM374.679 121.863c.08.066-.641.985-1.763 2.1-1.041 1.05-2.002 1.903-2.162 1.838-.08-.066.641-.985 1.762-2.1 1.121-1.116 2.083-1.903 2.163-1.838zM383.249 114.71c.081.066-.801.919-2.002 1.903-1.202.985-2.243 1.641-2.403 1.575-.08-.065.801-.918 2.002-1.903 1.202-.984 2.323-1.706 2.403-1.575zM392.781 108.411c.08.065-.961.853-2.323 1.706-1.361.853-2.483 1.444-2.563 1.312-.08-.131.961-.853 2.323-1.706 1.282-.787 2.483-1.378 2.563-1.312zM403.194 103.226c.081.132-1.041.722-2.563 1.444-1.442.656-2.723 1.181-2.803 1.05-.08-.131 1.041-.722 2.563-1.444 1.442-.721 2.723-1.181 2.803-1.05zM414.249 99.026c.08.132-1.122.657-2.724 1.182-1.522.525-2.884.918-2.884.787-.08-.131 1.122-.656 2.724-1.181 1.522-.59 2.803-.919 2.884-.787zM425.783 95.745c0 .132-1.202.525-2.804.92-1.602.393-2.963.655-2.963.524-.08-.131 1.201-.525 2.803-.919 1.602-.393 2.964-.656 2.964-.525zM437.718 93.645c0 .132-1.282.394-2.964.657-1.682.262-3.044.328-3.044.262.0-.131 1.282-.393 2.964-.656s3.044-.328 3.044-.263zM449.973 93.383c0 .131-1.361.066-3.043.066-1.683-.066-3.044-.066-3.044-.197s1.361-.263 3.044-.197c1.682.0 3.043.197 3.043.328zM458.704 95.22c-.08.132-.721.0-1.442-.262-.72-.263-1.361-.525-1.281-.656.08-.132.721.0 1.442.262.801.263 1.361.59 1.281.656zM338.836 195.746c.07.097-.421.293-1.122.489-.631.195-1.192.293-1.262.195-.071-.097.42-.293 1.122-.489.631-.147 1.192-.244 1.262-.195zM348.582 193.104c.07.098-1.052.441-2.384.783-1.332.342-2.524.587-2.524.489-.07-.098 1.052-.44 2.384-.782 1.402-.343 2.524-.538 2.524-.49zM358.679 190.952c0 .098-1.052.392-2.454.685-1.402.294-2.524.44-2.594.343-.07-.098 1.052-.392 2.454-.685 1.402-.245 2.524-.44 2.594-.343zM368.846 189.29c0 .097-1.121.342-2.524.538-1.402.195-2.594.342-2.594.244.0-.098 1.122-.342 2.524-.538 1.402-.244 2.594-.342 2.594-.244zM379.224 188.067c0 .098-1.122.293-2.594.44-1.403.147-2.595.196-2.665.098.0-.098 1.122-.294 2.595-.44 1.472-.147 2.664-.196 2.664-.098zM389.672 187.333c0 .098-1.122.245-2.595.294-1.472.098-2.594.098-2.664.0.0-.098 1.122-.245 2.594-.294 1.473-.098 2.665-.098 2.665.0zM400.19 187.089c0 .097-1.192.195-2.595.195-1.472.0-2.594-.049-2.664-.146.0-.098 1.192-.196 2.594-.196 1.473.0 2.665.049 2.665.147zM410.707 187.284c0 .097-1.192.097-2.664.048-1.473-.048-2.595-.146-2.595-.244s1.193-.098 2.665-.049c1.402.049 2.594.196 2.594.245zM421.155 188.018c0 .098-1.192.049-2.664-.049-1.473-.098-2.595-.293-2.595-.342.0-.098 1.192-.049 2.665.049 1.472.097 2.594.244 2.594.342zM431.533 189.192c0 .098-1.192.0-2.594-.147-1.403-.196-2.595-.391-2.525-.489.0-.098 1.192.0 2.595.147 1.402.195 2.524.391 2.524.489zM441.77 190.806c0 .098-1.192-.049-2.594-.294-1.403-.244-2.525-.489-2.525-.587.0-.097 1.193.049 2.595.294 1.402.244 2.524.538 2.524.587zM451.797 192.958c-.07.098-1.192-.098-2.594-.392-1.402-.293-2.454-.635-2.454-.733.07-.098 1.192.098 2.594.391 1.402.342 2.524.636 2.454.734zM461.614 195.55c-.07.098-1.192-.147-2.525-.538-1.332-.391-2.384-.734-2.384-.832.071-.097 1.192.147 2.525.538 1.402.392 2.454.783 2.384.832zM471.15 198.631c-.07.098-1.192-.195-2.454-.636-1.332-.44-2.314-.88-2.244-.929.07-.098 1.122.196 2.454.636 1.262.44 2.314.88 2.244.929zM480.336 202.153c-.07.098-1.122-.294-2.384-.783-1.262-.489-2.244-.978-2.174-1.027.07-.098 1.122.294 2.384.783 1.262.489 2.244.978 2.174 1.027zM489.17 206.114c-.07.049-1.121-.342-2.313-.88-1.192-.538-2.104-1.076-2.034-1.125.07-.049 1.122.342 2.314.88 1.192.539 2.104 1.077 2.033 1.125zM497.585 210.516c-.07.049-1.052-.391-2.244-.978-1.122-.636-2.033-1.174-1.963-1.223.07-.049 1.051.392 2.244.979 1.192.586 2.103 1.124 1.963 1.222zM505.649 215.212c-.07.048-1.052-.441-2.104-1.076-1.122-.685-1.893-1.272-1.823-1.321.07-.049 1.052.44 2.104 1.076 1.051.685 1.893 1.272 1.823 1.321zM513.151 220.347c-.07.049-.981-.489-2.033-1.174-1.052-.733-1.753-1.32-1.683-1.418.07-.049.982.489 2.033 1.174 1.052.733 1.823 1.32 1.683 1.418zM520.233 225.776c-.07.049-.911-.538-1.893-1.272-.982-.782-1.683-1.418-1.543-1.467.071-.049.912.489 1.894 1.272.911.733 1.612 1.418 1.542 1.467zM526.754 231.498c-.07.049-.911-.538-1.753-1.369-.911-.783-1.542-1.516-1.402-1.565.07-.049.912.538 1.753 1.369.912.832 1.543 1.516 1.402 1.565zM532.785 237.514c-.071.049-.842-.587-1.613-1.418-.772-.832-1.403-1.565-1.262-1.614.07-.049.841.587 1.612 1.418.772.881 1.333 1.565 1.263 1.614zM538.184 243.824c-.14.049-.772-.636-1.473-1.517-.701-.88-1.192-1.614-1.122-1.663.141-.048.772.636 1.473 1.517.701.88 1.192 1.614 1.122 1.663zM542.952 250.329c-.14.048-.701-.685-1.332-1.566-.631-.929-1.052-1.663-.982-1.711.14-.049.701.684 1.332 1.565.631.929 1.052 1.663.982 1.712zM547.089 257.078c-.14.049-.631-.685-1.192-1.614-.561-.929-.912-1.712-.771-1.761.14-.049.631.685 1.192 1.614.49.93.841 1.712.771 1.761zM549.753 262.213c-.14.049-.42-.342-.631-.782-.21-.489-.35-.88-.21-.929.14-.049.421.342.631.782.21.489.281.881.21.929zM200.009 249.38c.144.072.072.645-.216 1.361-.217.717-.577 1.219-.649 1.219-.144-.072-.072-.645.216-1.362.216-.716.505-1.218.649-1.218zM204.261 239.778c.144.072-.288 1.147-.937 2.436-.648 1.29-1.225 2.365-1.369 2.293-.144-.071.288-1.146.937-2.436.648-1.361 1.297-2.364 1.369-2.293zM209.739 230.678c.144.072-.433 1.147-1.225 2.365-.793 1.218-1.514 2.221-1.658 2.149-.144-.071.432-1.146 1.225-2.364.793-1.29 1.514-2.222 1.658-2.15zM216.226 222.08c.144.071-.577 1.074-1.514 2.221-.937 1.146-1.802 2.006-1.874 1.934-.144-.071.577-1.074 1.514-2.221.937-1.075 1.802-2.006 1.874-1.934zM223.722 214.269c.072.072-.649 1.003-1.73 2.078s-2.018 1.863-2.09 1.791c-.073-.071.648-1.003 1.729-2.078 1.082-1.074 2.019-1.863 2.091-1.791zM232.082 207.247c.072.072-.793.931-2.018 1.863-1.153.931-2.234 1.648-2.306 1.505-.072-.072.793-.932 2.018-1.863 1.225-.932 2.234-1.648 2.306-1.505zM241.308 201.085c.072.071-.937.86-2.162 1.648-1.298.788-2.379 1.361-2.451 1.29-.072-.072.865-.86 2.162-1.649 1.226-.859 2.379-1.433 2.451-1.289zM251.182 195.925c.072.144-1.009.789-2.378 1.434-1.37.644-2.595 1.146-2.595 1.003-.072-.144 1.009-.717 2.378-1.433 1.298-.717 2.523-1.147 2.595-1.004zM261.633 191.841c.072.144-1.081.645-2.523 1.147-1.441.501-2.666.86-2.738.716-.072-.143 1.081-.645 2.522-1.146 1.442-.573 2.667-.86 2.739-.717zM272.517 188.832c0 .143-1.154.501-2.667.86-1.514.358-2.811.573-2.811.429-.072-.143 1.153-.501 2.667-.859 1.513-.359 2.811-.574 2.811-.43zM283.76 186.969c0 .143-1.225.43-2.811.645-1.585.215-2.811.286-2.883.143.0-.143 1.226-.43 2.811-.645 1.586-.143 2.883-.215 2.883-.143zM295.148 186.252c0 .143-1.297.287-2.811.358-1.585.072-2.883.0-2.883-.143s1.225-.287 2.811-.358c1.586.0 2.883.071 2.883.143zM306.536 186.682c0 .143-1.297.143-2.883.072-1.586-.072-2.811-.287-2.811-.43.0-.144 1.297-.144 2.883-.072 1.514.143 2.811.358 2.811.43zM317.78 188.258c0 .144-1.298.0-2.883-.215-1.514-.286-2.811-.573-2.739-.716.0-.143 1.297.0 2.883.215 1.514.287 2.739.573 2.739.716zM328.807 190.91c-.072.143-1.297-.144-2.811-.502-1.513-.43-2.666-.86-2.666-.931.0-.144 1.297.143 2.811.501 1.513.43 2.666.86 2.666.932zM336.808 193.704c-.072.144-.721.0-1.442-.286-.721-.287-1.297-.574-1.225-.717.072-.143.721.0 1.441.287.721.286 1.298.573 1.226.716z" fill="#6d7bc2"/><path d="M336.159 202.876c1.009 1.648 3.46 1.576 4.253-.143l5.91-12.253c2.162-4.801 2.09-7.524 2.09-7.524.072-7.38-7.712-12.181-15.712-8.599-1.586.717-2.955 1.792-3.892 3.225-2.667 4.084-1.802 8.885.144 12.898l7.207 12.396zm4.901-13.471c-5.838 3.296-11.676-2.866-8.432-9.029.432-.788 1.081-1.504 1.873-1.934 5.839-3.296 11.677 2.866 8.433 9.028-.432.788-1.081 1.505-1.874 1.935z" fill="#6d7bc2"/><path d="M529.231 277.985l-8.288 1.433c-8.938-10.605-23.136-16.265-37.84-13.757-21.983 3.797-36.686 24.577-32.866 46.432 3.82 21.855 24.722 36.472 46.705 32.675 21.983-3.798 36.686-24.578 32.866-46.433-.793-4.657-2.451-8.957-4.613-12.898l4.036-7.452z" fill="#fafafa"/><path d="M529.228 277.984c-.289.502-1.37 2.652-3.964 7.524v-.072c1.153 1.935 2.306 4.443 3.315 7.453.217.86.217 1.791.361 2.723.072.931.288 1.863.288 2.866.0 1.003.072 2.006.072 3.081-.072 1.003-.144 2.078-.216 3.153l-.072.788-.144.788c-.072.574-.217 1.075-.289 1.649-.144.573-.144 1.146-.36 1.648-.144.573-.288 1.146-.505 1.648-1.297 4.514-3.459 9.172-6.703 13.399l-.937.574-1.009.429c-.649.287-1.369.645-2.09.932l-.505.215-.576.215-1.081.358c-.721.215-1.442.502-2.163.717-1.513.358-3.027.716-4.612 1.003-.793.072-1.586.215-2.379.287l-1.153.143c-.433.0-.793.0-1.225.072-.793.0-1.586-.001-2.451.071-.432.0-.793.0-1.225-.071l-1.226-.072c-.792-.072-1.657-.072-2.45-.215-.793-.143-1.658-.287-2.451-.43-.432-.072-.792-.143-1.225-.215l-1.225-.358c-.793-.215-1.586-.43-2.451-.645-.793-.287-1.585-.573-2.378-.932l-1.153-.43c-.792-.358-1.513-.788-2.306-1.146-.721-.43-1.442-.932-2.162-1.362-1.514-.86-2.811-2.006-4.181-3.081-.648-.573-1.297-1.146-1.946-1.791-.576-.645-1.153-1.29-1.729-2.007-.577-.716-1.01-1.433-1.586-2.149l-.793-1.075c-.216-.358-.432-.788-.649-1.147-.432-.788-.865-1.504-1.297-2.293l-1.081-2.364-.577-1.218c-.144-.43-.288-.788-.432-1.218-.288-.86-.577-1.648-.865-2.437-.288-.86-.432-1.648-.577-2.508-.432-1.648-.576-3.367-.792-5.087-.145-.86-.145-1.72-.145-2.508.0-.86-.072-1.72-.072-2.508.072-.86.144-1.648.217-2.508l.072-1.218c.072-.43.144-.788.216-1.218.144-.788.288-1.648.432-2.436.144-.789.433-1.577.649-2.365l.36-1.146.144-.574.217-.573c.288-.717.576-1.505.865-2.221.288-.788.648-1.433 1.009-2.15.36-.716.72-1.433 1.081-2.078.432-.645.865-1.29 1.297-2.006.433-.645.793-1.362 1.298-1.935.936-1.218 1.873-2.436 2.955-3.511.504-.573 1.009-1.075 1.585-1.648.577-.502 1.153-1.003 1.658-1.505 4.469-3.869 9.658-6.592 14.775-8.097 2.595-.716 5.19-1.29 7.712-1.505 2.523-.215 4.974-.286 7.352-.071 3.676 1.576 6.703 3.511 9.154 5.517 2.45 1.935 4.324 3.941 5.838 5.661h-.072c5.55-.86 7.928-1.29 8.433-1.362-.505.072-2.883.502-8.289 1.505h-.072c-1.514-1.648-3.388-3.654-5.838-5.589-2.451-1.935-5.478-3.869-9.154-5.374-3.676-1.505-7.856-2.723-12.541-3.081-2.306-.215-4.757-.144-7.279.071-2.523.287-5.046.789-7.64 1.505-5.118 1.505-10.235 4.228-14.632 8.025-.576.502-1.153.932-1.657 1.434-.505.573-1.009 1.074-1.514 1.648-1.081 1.074-1.946 2.293-2.883 3.511-.505.573-.865 1.218-1.297 1.934-.433.645-.865 1.29-1.226 1.935-.36.717-.72 1.362-1.081 2.078-.36.717-.72 1.362-1.009 2.15-.288.716-.576 1.504-.865 2.221l-.216.573-.144.573-.36 1.147c-.217.788-.505 1.576-.649 2.365-.144.788-.288 1.576-.433 2.436-.072.43-.144.788-.216 1.218l-.072 1.218c-.072.788-.144 1.648-.216 2.436.0.86.0 1.648.072 2.508.0.86.0 1.648.144 2.508.216 1.648.36 3.368.793 5.016.216.86.36 1.648.577 2.508.288.788.576 1.648.792 2.436.145.43.289.788.433 1.218l.504 1.147 1.081 2.364c.433.789.865 1.505 1.298 2.293.216.359.432.789.648 1.147l.793 1.075 1.514 2.149 1.73 1.935c.576.645 1.153 1.29 1.802 1.863.648.573 1.225 1.218 1.874 1.72 1.369 1.003 2.666 2.149 4.18 3.009.721.43 1.441.932 2.162 1.362.721.358 1.514.788 2.235 1.146.36.215.72.43 1.153.573l1.153.43c.793.287 1.586.645 2.306.932l2.379.645 1.153.358c.432.072.793.143 1.225.215l2.379.43c.793.143 1.585.143 2.45.215l1.226.072c.432.071.792.071 1.225.071.793.0 1.586.0 2.378-.071h1.154l1.153-.144c.793-.071 1.585-.215 2.306-.286 1.514-.287 3.027-.645 4.541-1.004.721-.215 1.441-.501 2.162-.716l1.081-.358.505-.215.504-.215c.649-.287 1.37-.645 2.019-.932l1.009-.43.937-.573c.144-.573.288-1.146.504-1.648.144-.573.217-1.147.361-1.648.072-.573.216-1.075.288-1.648l.144-.788.072-.789c.072-1.074.144-2.149.216-3.152.0-1.004-.072-2.007-.072-3.01.0-1.003-.144-1.935-.288-2.866-.144-.932-.216-1.863-.36-2.723-.361-1.72-.721-3.368-1.226-4.873-.937-3.009-2.162-5.445-3.243-7.38v-.143c3.027-4.944 4.18-7.094 4.469-7.596z" fill="#263238"/><mask id="mask0" maskUnits="userSpaceOnUse" x="449" y="265" width="82" height="81"><path d="M529.228 277.984l-8.288 1.433c-8.938-10.605-23.137-16.265-37.84-13.757-21.983 3.797-36.686 24.577-32.866 46.432 3.82 21.855 24.722 36.472 46.704 32.675 21.983-3.798 36.687-24.578 32.867-46.433-.793-4.657-2.451-8.957-4.613-12.898l4.036-7.452z" fill="#fafafa"/></mask><g mask="url(#mask0)"><path d="M464.504 338.246c10.595.717 9.009-16.767 8.649-19.992h18.668c.144.0.216.0.36-.071.793-.215 1.297-.932 1.081-1.72l-.216-1.075c3.892 1.147 6.343 3.869 8.144 7.739 1.226 2.508 2.307 5.446 4.253 7.595 1.874 2.007 4.036 3.798 6.631 4.944v9.029h-53.912v-7.739z" fill="#6d7bc2"/></g><path d="M462.774 286.726c.36.287 19.028 14.976 35.317-2.938 4.757 2.221 8.577 5.589 11.676 9.53-8.937-.215-10.739 8.097-11.099 11.68 2.738 3.224 6.414 9.315 2.522 15.334-3.964-3.225-8.793-6.736-12.685-8.599l4.108-.286c.793-.072 1.442-.717 1.442-1.505.0-.143.0-.358-.072-.502-.289-.716-1.081-1.146-1.802-1.003l-8.649 2.15c-.289.0-.505.072-.721.072l-3.676-15.621h-18.596c-.576.0-1.081.359-1.297.86-.721-.931-2.307-1.361-2.451-1.433z" fill="#6d7bc2"/><path d="M490.235 304.21c.216-.072.504-.072.721-.072 1.225-.071 2.45.072 3.531.502.505.143.937.358 1.442.645 3.964 1.863 8.721 5.374 12.757 8.598 3.892-6.09.216-12.109-2.523-15.405.361-3.583 2.163-11.967 11.1-11.68 9.586 12.181 11.748 29.808 11.1 36.042-.433 3.583-1.226 7.381-3.244 10.462-3.027 4.514-8.649 4.657-13.262 2.579-2.522-1.146-4.757-2.938-6.631-4.944-1.946-2.078-2.955-5.016-4.252-7.595-1.874-3.798-4.324-6.592-8.144-7.739" fill="#fff"/><path d="M490.235 304.21c.216-.072.504-.072.721-.072 1.225-.071 2.45.072 3.531.502.505.143.937.358 1.442.645 3.964 1.863 8.721 5.374 12.757 8.598 3.892-6.09.216-12.109-2.523-15.405.361-3.583 2.163-11.967 11.1-11.68 9.586 12.181 11.748 29.808 11.1 36.042-.433 3.583-1.226 7.381-3.244 10.462-3.027 4.514-8.649 4.657-13.262 2.579-2.522-1.146-4.757-2.938-6.631-4.944-1.946-2.078-2.955-5.016-4.252-7.595-1.874-3.798-4.324-6.592-8.144-7.739" stroke="#000" stroke-width="1.17" stroke-miterlimit="10"/><path d="M473.081 256.631c0-5.876 3.243-10.963 8.361-13.184.576-.144 1.081-.287 1.657-.359 1.226-.215 2.379-.286 3.604-.215 5.045.287 9.01 3.368 11.604 7.524.721 2.222.793 5.16-1.081 7.094-.649.717-1.513.932-2.45 1.003-.217.0-2.091.072-2.091.0.0-1.433-.792-2.722-1.946-3.224-.072-.072-.144-.072-.216-.072h-.144c.433-.359.721-.788 1.009-1.29.289-.573.505-1.218.433-1.935-.144-.788-.577-1.648-1.514-1.504-.432.071-.648.501-.937.788-.504.573-1.009.573-1.585.358-.505-.215-1.009-.717-1.442-1.075-.577-.43-1.225-.716-1.946-.931-4.397-1.003-6.775-.287-7.928.286l-.216.86c-1.585-.287-2.883-1.505-3.243-3.01-.433-1.648-.649-3.296-.721-4.944z" fill="#2e2e2e"/><path d="M473.009 318.469h18.667c.144.0.217.0.361-.071.792-.215 1.297-.932 1.081-1.72l-.216-1.075-2.667-11.393-3.676-15.621h-18.883c-.793.143-1.297.931-1.153 1.719l3.099 14.26.432 1.934.793 3.583" fill="#fff"/><path d="M476.108 304.138c-.577-1.576-.144-3.153 1.009-3.654 1.153-.502 2.595.43 3.244 2.006.648 1.577.144 3.153-1.01 3.655-1.153.501-2.666-.43-3.243-2.007z" fill="#6d7bc2"/><path d="M468.684 305.428c-.144.717-.216 1.433-.144 2.15.072.573.288 1.29.937 1.433.144.0.288.071.361.0 2.522-.143 4.612-1.003 7.063-2.723 2.378-1.72 3.243 2.221 1.081 2.938l-.288.143c.216-.143.72-.286 1.009-.143.36.143.576.43.648.788.073.645-.36 1.29-.864 1.648l-.577.502c.072-.072.144-.072.144-.144 1.225-1.218 1.442 1.218.144 2.007l-.144.071h-.072H478.198l.072.072c.217.43.0 1.003-.216 1.433-1.153.645-2.523 1.075-3.892 1.29.0.0 3.315 22.786-9.874 20.278-10.019-1.934-15.28-33.462-.217-51.519.0.0 1.658.429 2.307 1.576-.144.287-.289.716-.072 1.505 1.153 5.159 3.531 15.692 3.531 15.692-.144.717-.216 1.433-.144 2.15.072.573.288 1.29.937 1.433.144.0.288.071.361.0 2.522-.143 4.612-1.003 7.063-2.723 2.378-1.72 3.243 2.221 1.081 2.938" fill="#fff"/><path d="M468.684 305.428c-.144.717-.216 1.433-.144 2.15.072.573.288 1.29.937 1.433.144.0.288.071.361.0 2.522-.143 4.612-1.003 7.063-2.723 2.378-1.72 3.243 2.221 1.081 2.938l-.288.143c.216-.143.72-.286 1.009-.143.36.143.576.43.648.788.073.645-.36 1.29-.864 1.648l-.577.502c.072-.072.144-.072.144-.144 1.225-1.218 1.442 1.218.144 2.007l-.144.071h-.072H478.198l.072.072c.217.43.0 1.003-.216 1.433-1.153.645-2.523 1.075-3.892 1.29.0.0 3.315 22.786-9.874 20.278-10.019-1.934-15.28-33.462-.217-51.519.0.0 1.658.429 2.307 1.576-.144.287-.289.716-.072 1.505 1.153 5.159 3.531 15.692 3.531 15.692zm0 0c-.144.717-.216 1.433-.144 2.15.072.573.288 1.29.937 1.433.144.0.288.071.361.0 2.522-.143 4.612-1.003 7.063-2.723 2.378-1.72 3.243 2.221 1.081 2.938" stroke="#000" stroke-width="1.17" stroke-miterlimit="10"/><path d="M473.009 318.469h18.667c.144.0.217.0.361-.071.792-.215 1.297-.932 1.081-1.72l-.216-1.075-2.667-11.393-3.676-15.621h-18.883c-.793.143-1.297.931-1.153 1.719l3.099 14.26.432 1.934.793 3.583M470.414 280.062c-2.955 1.863-5.405 4.156-7.496 6.664" stroke="#000" stroke-width="1.17" stroke-miterlimit="10"/><path d="M462.918 286.726c-15.063 18.129-9.802 49.585.216 51.52 13.19 2.508 9.875-20.278 9.875-20.278M508.758 313.812c5.694-8.886-4.901-17.842-4.901-17.842M473.441 313.812c.289-.072.649-.144 1.009-.215.721-.287 1.298-.717 1.874-1.218.505-.43.937-1.004.865-1.648-.289-.143-.721.0-1.009.144-1.082.788-2.307 1.433-3.604 1.791l-.649.215" stroke="#000" stroke-width="1.17" stroke-miterlimit="10"/><path d="M472.216 318.039c.216.0.505.0.721-.071.216-.43.433-1.003.216-1.433.0.0.0-.072-.072-.072H477.91c-.072.072-.216.072-.288.143-1.154.359-2.379.717-3.532 1.147 1.153-.287 2.378-.645 3.532-1.147.072.0.072.0.144-.071.072-.072.144-.072.288-.144l.144-.071c1.226-.717 1.009-3.225-.144-2.007-.072.072-.144.072-.144.144M468.252 303.493c-.793.072-1.874.86-2.163 4.515-.432 5.947-4.468 12.826-4.468 12.826" stroke="#000" stroke-width="1.17" stroke-miterlimit="10"/><path d="M492.974 261.289l.288-.072c3.46-3.153.577-6.091-.36-4.586-.937 1.505-2.018 1.218-3.027.215-1.009-1.003-2.523-1.361-2.523-1.361-5.91-1.648-8.721.86-8.721.86-2.379 11.321 4.252 13.542 4.252 13.542v5.231c-4.829 1.003-9.009 2.723-12.541 4.944l-.144.072s18.884 15.191 35.317-2.938c-3.315-1.576-7.136-2.579-11.388-2.866l-1.225-6.162c-.216.071-.361.071-.577.071-1.658.0-3.027-1.576-3.027-3.511.0-1.934 1.369-3.511 3.027-3.511.361.0.505.0.649.072z" fill="#fff" stroke="#000" stroke-width="1.17" stroke-miterlimit="10"/><path d="M492.469 256.703c-.504 1.218-1.946.501-1.946.501-4.036-4.156-11.316-1.218-11.316-1.218l-.144-.43s1.37-4.156 6.919-3.582c5.55.573 6.487 4.729 6.487 4.729z" fill="#6d7bc2"/><path d="M496.001 305.213l4.108-.287c.072.0.144.0.288-.071.793-.215 1.298-1.003 1.154-1.863-.217-.788-1.009-1.29-1.874-1.147l-8.649 2.15" fill="#fff"/><path d="M496.001 305.213l4.108-.287c.072.0.144.0.288-.071.793-.215 1.298-1.003 1.154-1.863-.217-.788-1.009-1.29-1.874-1.147l-8.649 2.15" stroke="#000" stroke-width="1.17" stroke-miterlimit="10"/><path d="M478.27 261.862s.361 4.801 2.307 6.234c-.216.072-.361.072-.577.072-1.658.0-3.027-1.577-3.027-3.511.0-1.075.504-2.15 1.297-2.795z" fill="#6d7bc2"/><path d="M492.685 256.775c-1.585-3.153-5.405-5.518-9.586-4.586-2.162.501-3.82 2.149-4.396 4.299l-.216.86c-.577 3.654-.793 10.318 4.685 12.611 1.946.788 4.18.717 6.054-.215" stroke="#000" stroke-width="1.17" stroke-miterlimit="10"/><path d="M489.442 256.416c0-.071.0-.071.0.0-6.271-1.434-8.361.573-8.793 1.003m.072-.072c-.072.072-.072.072.0.0v0z" stroke="#000" stroke-width="1.17" stroke-miterlimit="10"/><path d="M476.973 264.585c-1.586-.287-2.883-1.505-3.243-3.01.0-7.165 4.757-13.041 11.82-14.187.433-.072.937-.144 1.37-.144 5.261-.43 9.874 1.935 12.901 6.163 1.37 1.863 2.379 4.012 3.244 6.162.937 2.579 1.657 5.374.576 8.025-.793 1.935-2.522 3.941-4.757 3.941h-3.099" stroke="#000" stroke-width="1.17" stroke-miterlimit="10"/><path d="M489.37 256.345c.793.716 2.162 2.006 3.099.716.216-.287.505-.716.937-.788.937-.143 1.37.716 1.514 1.505.072.716-.072 1.361-.433 1.934-.288.502-.576.932-1.009 1.29l-.288.287M480.577 268.168c-.216.071-.361.071-.577.071-1.658.0-3.027-1.576-3.027-3.511.0-1.146.504-2.221 1.225-2.794M478.27 259.067c.721-.501 2.163-.573 2.163-.573 3.243.287 2.738 3.655 2.306 5.231-.36 1.361 1.297 1.003 2.018.502M485.91 266.09c-.793 1.719-2.45.859-2.45.859" stroke="#000" stroke-width="1.17" stroke-miterlimit="10"/><path d="M486.847 260.859c-.072-.573-.36-.932-.72-.932-.361.072-.577.502-.505 1.075.072.573.36.932.721.932.288-.072.504-.574.504-1.075zM481.514 261.145c-.072-.573-.361-.931-.721-.931s-.577.501-.505 1.075c.073.573.361.931.721.931.361.0.505-.501.505-1.075z" fill="#000"/><path d="M488 258.781c-2.306-1.433-3.243.071-3.243.071M482.955 278.343v-8.527M490.235 304.21c.216-.072.504-.072.721-.072 1.225-.071 2.45.072 3.531.502.505.143.937.358 1.442.645 3.964 1.863 8.721 5.374 12.757 8.598" stroke="#000" stroke-width="1.17" stroke-miterlimit="10"/><path d="M493.046 268.168l1.225 6.162c4.253.286 8.073 1.29 11.388 2.866 4.757 2.221 8.577 5.589 11.676 9.53 9.586 12.181 11.748 29.809 11.1 36.043-.433 3.582-1.226 7.38-3.244 10.461-3.027 4.514-8.649 4.658-13.261 2.58-2.523-1.147-4.757-2.938-6.631-4.945-1.946-2.077-2.955-5.015-4.253-7.595-1.874-3.798-4.324-6.592-8.144-7.739" stroke="#000" stroke-width="1.17" stroke-miterlimit="10"/><path d="M489.442 264.728c0-1.935 1.369-3.511 3.027-3.511.361.0.721.072 1.081.215.577.717.937 1.576.937 2.508.0 1.935-1.369 3.511-3.027 3.511-.36.0-.721-.072-1.081-.215-.577-.717-.937-1.576-.937-2.508z" fill="#6d7bc2"/><path d="M492.469 268.239c1.672.0 3.027-1.572 3.027-3.511s-1.355-3.511-3.027-3.511c-1.672.0-3.027 1.572-3.027 3.511s1.355 3.511 3.027 3.511z" stroke="#000" stroke-width="1.17" stroke-miterlimit="10"/><path d="M472.793 268.956c0-1.72-.577-3.44-1.586-4.944-4.036-3.726-11.1-6.163-19.172-6.163-12.541.0-22.704 6.019-22.704 13.4.0 1.791.505 3.511 1.514 4.944 2.955 2.723 7.352 4.442 10.883 5.231 9.514 2.221 17.01-1.362 24.938 3.224.937.502 2.018-.143 1.874-1.218-.36-2.723-.432-4.371.937-6.736 1.298-2.221 3.316-5.087 3.316-7.738z" fill="#e4e8f2"/><path d="M469.765 262.22c-1.801-1.863-4.108-3.153-6.486-4.156-8.073-3.296-17.37-3.368-25.515-.358-3.027 1.146-5.982 2.723-8 5.231-2.163 2.651-3.388 7.094-1.37 10.175 2.09 3.153 5.262 5.446 8.721 6.879 3.82 1.576 8.073 2.078 12.253 2.006 2.883-.072 5.766-.43 8.649-.358 2.883.143 5.838.788 8.145 2.508.36.286.792.645 1.297.645.793-.072 1.153-1.004 1.081-1.72-.072-.788-.504-1.433-.648-2.221-.289-1.72.936-3.297 1.946-4.658 1.513-2.078 2.883-4.514 2.883-7.094v-.215c0-2.436-1.226-4.801-2.956-6.664z" stroke="#000" stroke-width="1.246" stroke-miterlimit="10"/><path d="M439.278 271.894c-1.712.0-3.1 1.38-3.1 3.081zM449.368 271.894zM459.747 271.894z" fill="#fff"/><path d="M485.801 90.523l3.171 8.814c-10.09 11.894-13.694 28.59-8.072 44.282 8.433 23.431 34.38 35.684 58.021 27.229 23.568-8.383 35.893-34.179 27.388-57.682-8.433-23.431-34.38-35.684-58.02-27.229-5.046 1.792-9.586 4.371-13.478 7.596l-9.01-3.01z" fill="#fafafa"/><path d="M485.801 90.521c.504.144 3.171 1.003 9.081 2.938h-.072c1.946-1.576 4.469-3.44 7.64-5.087.937-.358 1.947-.645 2.956-.931 1.009-.287 2.018-.717 3.171-.86 1.154-.144 2.379-.215 3.604-.358.289.0.577-.072.937-.072h2.811c.649.0 1.298.0 1.946.072l1.946.215c5.262.573 10.884 2.077 16.217 4.872 5.334 2.723 10.451 6.736 14.632 11.966l.792.932.721 1.003c.505.717.937 1.361 1.442 2.078l.36.502.288.573.649 1.146c.432.789.793 1.505 1.225 2.293.361.788.649 1.577 1.009 2.437l.505 1.218c.144.43.36.788.432 1.218.289.86.505 1.72.793 2.508l.36 1.289c.145.43.145.86.289 1.29.144.86.36 1.792.504 2.652.072.429.144.859.217 1.361l.144 1.361c.072.932.216 1.792.216 2.723v4.156l-.144 1.362c-.072.931-.216 1.863-.289 2.794-.144.932-.36 1.863-.576 2.795l-.288 1.361c-.072.43-.289.932-.433 1.362-.288.931-.576 1.791-.865 2.723-.288.931-.721 1.791-1.081 2.651-.649 1.791-1.73 3.439-2.595 5.231-.504.859-1.081 1.648-1.585 2.436l-.793 1.218c-.288.43-.577.788-.937 1.146-.649.789-1.225 1.505-1.874 2.293-.649.717-1.369 1.433-2.09 2.15l-1.081 1.075c-.361.358-.793.645-1.154.931-.792.645-1.513 1.29-2.306 1.935l-1.225.86c-.432.287-.865.502-1.297.717-.865.429-1.73.931-2.595 1.361-.865.43-1.802.788-2.667 1.146-1.73.789-3.604 1.29-5.477 1.863-.937.287-1.874.43-2.811.645-.937.144-1.874.359-2.811.502-.937.072-1.874.143-2.811.287l-1.37.143h-4.18c-.937.0-1.874-.143-2.739-.287l-1.369-.143-.649-.072-.649-.143c-.865-.215-1.802-.358-2.667-.573-.864-.144-1.729-.43-2.594-.717-.865-.286-1.73-.501-2.523-.788-.793-.358-1.658-.645-2.45-1.003-.793-.358-1.658-.645-2.379-1.075-1.514-.86-3.099-1.576-4.469-2.58-.72-.501-1.441-.931-2.09-1.433-.649-.501-1.297-1.074-1.946-1.576-5.189-4.228-9.153-9.387-11.82-14.761-1.298-2.723-2.379-5.446-3.172-8.169-.36-1.361-.72-2.722-.937-4.084-.072-.645-.144-1.362-.216-2.007-.505-5.23.072-10.175 1.081-14.546 1.081-4.299 2.595-8.097 4.325-11.178 1.729-3.081 3.603-5.517 5.189-7.452v.072c-2.09-5.518-3.027-8.097-3.171-8.599.216.502 1.153 3.081 3.243 8.814v.143c-1.658 3.081-3.244 6.807-4.253 11.107-1.009 4.299-1.585 9.172-1.009 14.402.072.645.144 1.29.216 2.007.072.645.217 1.289.361 2.006.216 1.361.576 2.651.937 4.013.793 2.723 1.874 5.374 3.171 8.097 2.667 5.302 6.631 10.461 11.748 14.617.649.502 1.298 1.075 1.946 1.577.721.43 1.37.931 2.091 1.361 1.369 1.003 2.955 1.72 4.468 2.508.721.43 1.586.717 2.379 1.075.793.358 1.585.645 2.45 1.003.865.287 1.658.502 2.523.788.865.287 1.658.573 2.595.717.865.143 1.729.358 2.666.501l.649.144.649.071 1.369.144c.937.071 1.802.215 2.739.215h4.108l1.37-.144c.937-.071 1.874-.143 2.811-.286.937-.144 1.874-.359 2.739-.502.937-.215 1.874-.287 2.739-.645 1.801-.573 3.675-1.003 5.405-1.863.865-.358 1.802-.716 2.667-1.146.865-.43 1.73-.932 2.595-1.362.432-.215.865-.43 1.297-.716l1.225-.789c.793-.573 1.658-1.074 2.451-1.648.721-.644 1.514-1.218 2.234-1.863.361-.286.793-.644 1.153-.931l1.01-1.075 2.09-2.078c.648-.788 1.225-1.505 1.874-2.293.288-.358.648-.716.937-1.146l.792-1.218c.505-.789 1.082-1.577 1.586-2.437.865-1.719 1.874-3.368 2.595-5.159.36-.86.793-1.72 1.081-2.651.288-.932.577-1.791.865-2.723.144-.43.288-.86.36-1.361l.289-1.362c.216-.931.36-1.863.576-2.723.072-.931.216-1.863.288-2.794l.145-1.362v-1.361-2.723c0-.932-.145-1.791-.217-2.723l-.144-1.361c0-.43-.072-.86-.216-1.362-.144-.86-.36-1.72-.505-2.651-.072-.43-.144-.86-.288-1.29l-.36-1.29c-.288-.859-.505-1.648-.793-2.508-.144-.429-.288-.788-.432-1.218l-.505-1.218c-.36-.788-.649-1.576-1.009-2.364-.432-.789-.793-1.505-1.225-2.222l-.577-1.146-.288-.573-.361-.502c-.504-.717-.937-1.361-1.441-2.078l-.721-1.003-.793-.932c-4.108-5.159-9.153-9.1-14.487-11.894-5.333-2.723-10.883-4.3-16.073-4.873l-1.946-.215c-.648-.072-1.297.0-1.946-.072h-2.811c-.288.0-.576.072-.937.072-1.225.143-2.378.215-3.531.358-1.154.215-2.235.43-3.388.645-1.081.144-2.162.574-3.171.86-1.009.287-2.018.573-2.955.932-3.171 1.648-5.694 3.367-7.64 5.015h-.072c-5.91-2.006-8.577-2.866-9.081-3.08z" fill="#263238"/><path d="M546.056 167.55v-34.967s-.072 20.493-6.343 38.048c-19.172 5.804-37.767 2.723-52.759-15.835.721-3.225.216-5.589.288-6.449 3.244-2.58 5.622-6.664 6.487-10.39.937-4.013 1.73-7.954 3.171-11.68l11.821.072c.937.0 1.657-.717 1.657-1.648v-19.49c0-.932-.72-1.649-1.657-1.649l-8.073-.071c2.955-.573 5.91-1.003 8.865-1.147h.145c1.946-.143 5.405-.215 7.351-.215-2.378 1.29-3.82 3.941-3.531 6.306.072.502.144 1.003.36 1.433 2.018 4.371 7.352 5.732 11.676 4.443 4.901-1.433 8.433-5.876 8.217-11.035 3.027.43 6.054 1.003 9.081 1.72 4.541 1.074 9.01 2.436 12.613 5.517 3.172 2.651 5.766 6.091 6.992 9.96 2.45 7.595 3.387 15.621 3.387 23.718-5.477 15.692-19.748 23.359-19.748 23.359z" fill="#ced3eb"/><path d="M496.972 126.349c-1.442 3.726-2.235 7.667-3.171 11.679-.865 3.655-3.244 7.811-6.487 10.39-2.739 2.15-6.055 3.153-9.586 1.792-4.757-1.792-6.487-7.022-7.063-11.68-.793-5.732-.793-11.608-.145-17.34.649 1.504 3.46 6.019 11.965 4.8.216.144.504.287.793.287l13.694.072z" fill="#ced3eb"/><path d="M483.279 126.349l25.515.071c.936.0 1.657-.716 1.657-1.648v-19.49c0-.931-.721-1.648-1.657-1.648l-21.695-.215h-.433v-.215c0-.43-.144-.86-.288-1.29-.721-1.289-2.306-1.791-3.676-1.146l-2.667 1.361c-5.694 2.867-7.712 9.029-8.793 14.833 3.243 7.165 12.685 4.944 12.685 4.944z" fill="#fff"/><path d="M499.09 115.743c.451-1.886-.534-3.734-2.199-4.128-1.665-.393-3.381.818-3.831 2.705-.451 1.886.534 3.734 2.199 4.127 1.665.393 3.381-.817 3.831-2.704z" fill="#dfe3f2"/><path d="M506.996 107.281c.11-.462-.146-.919-.572-1.019-.426-.101-.861.192-.971.654-.11.462.146.918.572 1.019.426.101.86-.192.971-.654z" fill="#000"/><path d="M492.215 113.379c2.019-.501 3.172 1.362 2.883 2.866-.504 2.365-3.892 3.296-5.91 3.368-1.657.0-5.622-.43-7.207-.573" fill="#fff"/><path d="M492.215 113.379c2.019-.501 3.172 1.362 2.883 2.866-.504 2.365-3.892 3.296-5.91 3.368-1.657.0-5.622-.43-7.207-.573" stroke="#000" stroke-width="1.17" stroke-miterlimit="10"/><path d="M481.26 114.526c2.451.716 5.045.716 7.568.143 2.09-.502 4.541-1.505 5.622-3.511.648-1.147.144-3.01-1.226-3.368-1.513-.43-2.955 1.075-4.396 1.433-.865.215-1.802.43-2.739.502-.288.0-.504.071-.721.071.0-.215.072-.43.288-.502l.216-.143" stroke="#000" stroke-width="1.17" stroke-miterlimit="10"/><path d="M496.972 126.349c-1.441 3.726-2.234 7.667-3.171 11.679-1.586 6.736-8.289 15.12-16.073 12.182-4.757-1.792-6.486-7.022-7.063-11.68-.937-7.165-.865-14.474.504-21.568 1.154-5.876 3.1-11.966 8.794-14.833l2.666-1.361c1.298-.645 2.955-.143 3.676 1.146.216.359.289.86.289 1.29v.215M500.72 103.491c2.955-.573 5.911-1.003 8.938-1.147h.144c1.946-.143 5.406-.215 7.352-.215" stroke="#000" stroke-width="1.17" stroke-miterlimit="10"/><path d="M532.361 94.534c1.009-.573 1.874-1.218 2.091-1.29 1.297-4.156 1.081-9.459-1.586-12.898-.649-.86-.793-1.505-.577-2.293v-.144c-.072-.071-.216-.143-.288-.071-1.441.86-3.459.143-3.459.143-8.433-5.016-12.758-1.934-14.776-1.791-2.018.143-3.315-1.577-3.315-1.577l-.361 2.15c0 .143-.072.287-.144.43-.216.501-.721.788-1.297.788h-.361l-.216 1.29c-.144 2.365 1.225 4.586 3.46 5.446l-.216.43v.071c-.145.287-.217.645-.289.932-1.009 3.224-1.225 8.527-1.225 8.527-.432 6.52 2.523 9.386 4.757 10.246v.144c0 .286-.072.716-.216 1.289l-.072.215c-2.811 1.577-4.397 5.16-3.172 7.811 2.018 4.442 7.352 5.732 11.677 4.442 4.901-1.433 8.432-5.875 8.216-11.034H533.731c-1.225-.215-2.09-1.29-2.018-2.508l.36-6.02" fill="#fff"/><path d="M510.955 74.829c-.144 2.365 1.297 4.586 3.459 5.517.217-.43.577-.788.937-1.003 1.658-1.075 1.37 1.791 5.983 1.075 6.342-1.075 8 1.146 8 1.146.144.215-.288 1.434-.288 1.649-.288 1.361-1.009 2.58-1.225 3.94-.577 1.29-.793 2.652-2.307 3.512-.649.358-3.82 2.293-7.784 1.863-1.802-.215-3.46-1.004-5.117-2.222-.072.645.0 1.648.072 3.153.288 4.3 3.676 7.667 6.27 7.524 5.19-.287 6.775-2.365 8.145-8.527.144-.573 1.153-2.938 1.153-2.938 1.009-1.648 2.595-3.44 4.252-1.934.361.286.577.716.721 1.146.793 2.078-.72 3.368-2.378 4.156.072.501.433 2.58.433 2.58.0.214 4.252-2.365 4.613-2.724.648-.86 1.153-1.79 1.441-2.794 1.297-4.156 1.081-9.459-1.586-12.898-.648-.86-.216-1.361.0-2.15.0-.143-.072-.215-.144-.286h-.144c-1.441.86-4.036.0-4.036.0-8.433-5.016-12.685-1.935-14.776-1.791-.216.501-.721.788-1.298.788l-.072.43c-.072.286-.288.573-.504.788z" fill="#6d7bc2"/><path d="M519.388 94.39c-1.514.789-3.244.287-3.892-1.074M514.415 80.275c-2.235-.932-3.604-3.082-3.46-5.518.0-.43.072-.86.216-1.29h.361c.504.0 1.009-.286 1.297-.788.072-.143.144-.286.144-.43l.361-2.15s1.297 1.72 3.315 1.577c2.018-.143 6.343-3.296 14.775 1.791.0.0 2.019.717 3.46-.143.072-.072.216-.072.288.072.0.072.072.143.0.143-.216.788-.072 1.505.577 2.293 2.667 3.368 2.883 8.742 1.586 12.898-.361.287-4.613 2.938-4.613 2.723.0.0-.361-2.078-.433-2.58v-.142h.144c.433-.144.865-.287 1.298-.502 1.73-.788 3.171-2.15 2.378-4.156-.144-.43-.432-.788-.72-1.147-1.658-1.504-3.172.359-4.253 1.935-.216.287-1.081 2.365-1.081 2.651-.433 2.508-1.514 8.384-7.928 8.814-1.946.143-7.064-2.078-6.487-10.533 1.658 1.218 3.82 1.934 5.189 2.078 3.532.286 6.343-1.004 7.352-1.72 1.009-.788 1.874-2.365 2.306-3.225.433-.86 1.226-2.866 1.514-4.227.072-.215.432-1.505.288-1.648.0.0-1.585-2.221-8-1.147-4.613.788-4.253-2.15-5.982-1.075-.361.287-.721.645-.937 1.004zm0 0v.071c-.144.287-.216.645-.288.932-1.009 3.224-1.153 7.022-1.225 8.455" stroke="#000" stroke-width="1.17" stroke-miterlimit="10"/><path d="M514.945 88.442c.438-.012.781-.439.766-.953-.014-.514-.381-.921-.819-.91-.437.013-.78.44-.766.954.015.515.382.922.819.91zM520.927 90.019c.438-.013.781-.44.766-.954-.015-.514-.381-.92-.819-.909-.438.013-.781.44-.766.954.015.514.381.92.819.909z" fill="#000"/><path d="M518.307 90.45s-2.307.501-2.09-.645c.072-.359.648-4.013.648-4.013s-1.081-2.15-3.892-1.648M519.388 85.434s3.676-.645 5.045 2.293M517.226 102.058c-2.883 1.504-4.469 5.159-3.244 7.81 2.018 4.443 7.352 5.733 11.676 4.443 4.901-1.433 8.433-5.876 8.217-11.035" stroke="#000" stroke-width="1.17" stroke-miterlimit="10"/><path d="M566.021 144.191c0-8.026-.937-16.123-3.388-23.718-1.225-3.869-3.892-7.309-6.991-9.96-3.604-3.081-8.073-4.443-12.613-5.517-3.028-.717-6.055-1.219-9.082-1.72h-.144M539.857 170.345c4.541-17.986 6.271-37.762 6.271-37.762v34.752M532.073 94.749l-.36 6.019c-.072 1.218.793 2.293 2.018 2.508h.144M517.442 100.266c-.072.43-.433 4.586-3.748 7.596M481.548 109.796c-.288-.859-.144-3.726-.072-5.302.0-.645.577-1.146 1.226-1.146l26.163.215c.937.0 1.658.716 1.658 1.648v19.49c0 .931-.721 1.648-1.658 1.648l-25.515-.072c-.792.0-1.369-.645-1.369-1.433v-1.505c1.802.86 5.261 1.075 5.261 1.075 1.226.0 3.172-.215 4.181-.788.937-.573 2.162-1.362 2.378-2.58.144-.931-.576-1.863-1.513-2.006-.289-.072-.577.0-.865.072M481.909 123.411s.072 8.598 2.09 11.895M487.316 148.418s.145 4.801-.434 6.449" stroke="#000" stroke-width="1.17" stroke-miterlimit="10"/><path d="M491.711 37.64c2.306-.502 4.757-.43 7.135-.502 2.739.0 5.478-.143 8.073.645 4.541 1.434 7.856 5.374 8.289 10.104.648 6.52-4.109 12.253-10.595 12.97-1.01.07-2.019.572-2.739 1.289-.433.502-.505 1.863-1.442 1.576-.36-.143-.649-.43-.937-.716-.865-.788-1.874-1.362-3.027-1.648-1.586-.43-3.388-.43-4.973-.788-.288-1.075-.505-2.15-.505-3.297.072-5.374 3.82-10.39 9.298-11.536z" fill="#ced3eb"/><path d="M506.847 51.47zM498.991 51.541zM491.567 51.613z" fill="#fff"/><path d="M335.728 223.011l-6.919 5.876c-14.271-4.944-30.704-2.437-42.957 8.025-18.379 15.621-20.541 43.136-4.757 61.408 15.712 18.272 43.389 20.422 61.769 4.729 18.379-15.62 20.541-43.136 4.756-61.408-3.387-3.869-7.279-7.094-11.532-9.458l-.36-9.172z" fill="#fafafa"/><path d="M335.727 223.011c0 .573.144 3.225.432 9.172l-.072-.072c2.162 1.218 4.613 2.866 7.207 5.088.648.717 1.225 1.505 1.874 2.365.648.788 1.297 1.576 1.873 2.579l1.73 2.795c.505 1.003 1.009 2.078 1.514 3.081l.36.788c.072.287.216.573.289.86l.648 1.72.649 1.719c.144.574.36 1.219.504 1.863 1.298 4.945 1.874 10.462 1.226 16.194-.649 5.733-2.523 11.752-5.838 17.269l-.577 1.075-.721 1.003-.361.501-.432.502-.793.931c-.577.645-1.081 1.29-1.658 1.863-.576.573-1.225 1.147-1.802 1.72-.648.573-1.225 1.218-1.873 1.72-.649.501-1.37 1.074-2.019 1.576l-.864.788c-.361.215-.721.43-1.082.717-.72.43-1.513.931-2.234 1.361-.36.215-.721.43-1.153.645l-1.225.573c-.793.359-1.586.789-2.379 1.147-.865.286-1.658.645-2.523.931l-1.297.43-1.297.359c-.865.215-1.73.429-2.667.716-.865.143-1.802.287-2.739.43l-1.369.215c-.433.072-.937.072-1.37.143l-2.811.215c-.937.0-1.874-.071-2.811-.071-1.874.0-3.748-.359-5.622-.502-.937-.143-1.873-.43-2.81-.573l-1.37-.287c-.432-.071-.937-.286-1.369-.43-.937-.286-1.802-.573-2.739-.86-.865-.358-1.802-.788-2.667-1.146l-1.297-.573c-.433-.215-.865-.43-1.298-.717-.865-.501-1.657-.931-2.522-1.433-.793-.502-1.586-1.075-2.379-1.648l-1.153-.788c-.36-.287-.721-.573-1.081-.932-.721-.645-1.442-1.218-2.162-1.863-.721-.645-1.298-1.361-1.946-2.006-1.37-1.29-2.451-2.795-3.604-4.299-.504-.789-1.009-1.577-1.441-2.365-.433-.788-.793-1.648-1.226-2.436l-.576-1.218c-.144-.43-.288-.86-.505-1.29-.288-.86-.648-1.648-.937-2.508-.288-.86-.504-1.72-.72-2.58l-.361-1.289-.144-.645-.072-.645-.432-2.58c-.145-.86-.217-1.719-.289-2.579-.072-.86-.144-1.72-.144-2.58.0-.86.072-1.72.072-2.579.0-.86.0-1.72.144-2.508.217-1.648.361-3.297.793-4.873.216-.788.361-1.576.577-2.365.216-.788.504-1.504.72-2.292 2.019-6.091 5.334-11.465 9.298-15.693 2.018-2.078 4.108-4.013 6.343-5.661 1.153-.788 2.234-1.576 3.387-2.221.577-.358 1.154-.716 1.73-1.003l1.73-.86c4.613-2.293 9.298-3.439 13.55-4.013h-.072c4.685-3.726 6.703-5.446 7.136-5.804-.433.358-2.379 2.078-6.848 5.947h-.072c-2.306-.716-5.189-1.576-8.577-2.006-3.387-.43-7.279-.573-11.532.0-4.252.573-8.865 1.791-13.478 4.013l-1.73.86c-.576.286-1.153.644-1.657 1.003-1.153.645-2.235 1.433-3.316 2.221-3.892 4.228-7.208 9.53-9.226 15.549-.216.788-.504 1.505-.721 2.293-.144.788-.36 1.577-.504 2.365-.433 1.576-.577 3.224-.793 4.872-.144.788-.144 1.648-.144 2.508.0.86-.072 1.648-.072 2.508.072.86.144 1.72.144 2.508.072.86.072 1.72.288 2.58l.433 2.579.072.645.144.645.36 1.29c.216.86.433 1.719.721 2.508.288.86.649 1.648.937 2.508.144.429.288.859.505 1.218l.576 1.218c.433.788.793 1.576 1.225 2.436.433.788.937 1.505 1.442 2.293.504.788.937 1.576 1.513 2.293 1.154 1.433 2.235 2.938 3.532 4.228.649.645 1.225 1.361 1.946 2.006.721.573 1.442 1.218 2.162 1.791.361.287.721.645 1.082.932l1.153.788c.793.502 1.513 1.075 2.306 1.576.793.43 1.658.932 2.523 1.362.432.215.793.501 1.225.716l1.297.574c.865.358 1.73.788 2.595 1.146.937.287 1.802.573 2.739.86.433.143.865.287 1.369.43l1.37.287c.937.215 1.802.429 2.739.573 1.874.215 3.676.573 5.55.501.937.0 1.874.072 2.738.072.937-.072 1.802-.143 2.739-.215.433-.072.937-.072 1.37-.143l1.369-.215c.865-.144 1.802-.287 2.667-.43.865-.215 1.73-.43 2.595-.717l1.297-.358c.432-.143.865-.287 1.225-.43.865-.287 1.658-.645 2.523-.931.793-.359 1.586-.789 2.378-1.147l1.154-.573c.432-.215.792-.358 1.153-.645.721-.43 1.441-.932 2.234-1.361l1.009-.788c.649-.502 1.37-1.003 2.018-1.577.649-.501 1.226-1.146 1.874-1.719.577-.574 1.226-1.147 1.802-1.72.577-.645 1.081-1.218 1.658-1.863l.793-.932.432-.429.361-.502c.432-.645.937-1.29 1.369-2.006l.721-1.004.576-1.003c.649-5.733.145-11.25-1.153-16.123-.144-.644-.288-1.218-.504-1.791-.144-.573-.433-1.146-.649-1.72l-.649-1.719c-.072-.287-.216-.574-.288-.86l-.36-.788-1.73-2.794c-.504-.932-1.225-1.72-1.802-2.508-.648-.788-1.225-1.648-1.874-2.365h-.072v-.072c-.144-5.66-.288-8.312-.288-8.885z" fill="#263238"/><mask id="mask1" maskUnits="userSpaceOnUse" x="270" y="223" width="89" height="91"><path d="M335.578 223.162l-6.92 5.876c-14.27-4.944-30.704-2.436-42.956 8.025-18.38 15.621-20.542 43.137-4.757 61.409 15.712 18.272 43.389 20.421 61.768 4.729 18.379-15.621 20.541-43.136 4.757-61.408-3.388-3.87-7.28-7.094-11.532-9.459l-.36-9.172z" fill="#fafafa"/></mask><g mask="url(#mask1)"><path d="M259.831 234.332c-.072-.716-.432-1.361-.937-1.863-.504.0-1.009.071-1.441.358h-.072c.288.43.721.717 1.225.932l-.144.072c-.288.071-.504.143-.721.286h-.072c-1.009.717-1.225 2.006-.504 3.01.288.43.72.716 1.225.859v.072c-.216.072-.36.215-.577.287-.864.645-1.009 1.934-.288 2.723v.071l.216.215s1.442 1.29 4.109 2.58l.072.215c1.009 2.508 3.387 1.146 3.387 1.146l.649 4.801-2.883.717s5.694 38.693 19.244 38.12c.721.0 1.441-.143 2.162-.358 1.442-.502 2.811-1.147 4.036-1.935-1.153 10.677-1.585 20.708-1.801 27.516-.145 5.159.216 7.022 5.333 7.953.865.144 2.379.358 2.379.358.432.072.792.072 1.297.144l.649.071.504-2.078s7.28 3.082 17.01-1.863c.649 7.381 6.847 12.11 12.325 12.11 5.478.0 12.108.072 12.108.072s2.091-.359 2.091 1.433c0-1.147-.072-9.387.0-18.702v-4.371-1.075-2.221-2.15-1.075c.072-8.025.072-15.19.072-17.985v-1.218c.144.43.288.931.432 1.361v.072c.144.43.288.86.433 1.361v.072.071c.144.43.216.86.36 1.29v.144c.361 1.361.649 2.794 1.009 4.155v.144c.072.43.216.788.289 1.218.0.072.0.072.072.143.288 1.29.576 2.58.792 3.87.0.071.0.143.073.215.072.358.144.644.216 1.003.0.071.0.143.072.215.072.358.144.716.216 1.003v.143c.072.358.144.788.216 1.147.072.358.144.716.216 1.003.0.071.001.215.073.286.072.287.072.502.144.717.0.072.0.215.072.287.072.215.072.501.144.716.0.072.0.143.072.215.072.287.072.573.144.932v.215c.072.215.072.43.072.644.0.144.072.215.072.359.0.143.072.286.072.43.0.143.072.286.072.43.0.143.0.215.073.286.0.144.072.287.072.43v.143c.072.359.072.717.144 1.004.0.143.072.286.072.43v.071c.216 1.218.288 1.935.288 1.935h2.523v1.72 1.219c0 1.433.864 2.866 2.306 3.224.216.072.432.072.721.143h.576c.865.0 1.658-.071 2.451-.071H354.322c2.811.0 5.117-3.153 5.117-5.948v-6.09h-.072c.072-1.433.072-2.938.072-4.371.0-27.587-6.775-61.265-30.488-71.87-1.874-.86-3.82-1.505-5.838-2.078-.793-.215-2.234-.573-2.234-.573l-.072-.072c-1.081-1.505-2.091-8.67-1.946-11.321.144-2.652 4.685-4.658 3.387-9.315l-.144.143c-.721.43-1.658.358-2.451.286-2.81-.214-5.621-.501-8.36-1.003-2.09-.358-4.109-.931-6.127-1.576-.072.0-.216-.072-.288-.072-.216-.071-.504-.143-.721-.215-2.955 2.579-4.973 6.162-6.631 9.315l4.181 1.935s-4.613 8.097 3.964 11.249c1.009.43 2.162.574 3.243.574 1.298-.072 2.523-.43 3.532-1.075l1.009-.788-1.73 3.081s-3.099.358-6.054 1.863c-8.289 4.299-12.325 14.188-16.866 21.998-.144.215-.216.43-.36.573-.937 1.147-2.595 1.362-3.748.43-.288-.215-.505-.502-.721-.86-.072-.071-.072-.215-.144-.286.0.0-.072-.072-.072-.144l-4.18-12.181c-1.586-5.589-2.163-7.524-3.46-13.185v-.214c-.865-.644-1.802-1.289-2.451-1.863-.36-.358-.865-.573-1.369-.716v.072c-.144.86.072 1.791.504 2.508l1.514 3.081c.072.072.072.143.0.287-.072.143-.216.143-.36.071-.649-.358-1.009-.429-1.946-1.003l-4.469-1.29z" fill="#fff"/><path d="M359.295 318.384h-14.054s-2.235-17.556-6.992-32.532c0 .717-.216 45.931-.288 48.725v-.143c0-.071-.072-.143-.072-.215.0-.071-.072-.143-.144-.215-.072-.071-.072-.143-.144-.215l-.072-.071c-.073-.072-.145-.144-.217-.144h-12.253c-3.82.0-7.424-1.648-9.803-4.586-.36-.429-.648-.859-1.009-1.361-.432-.645-.72-1.29-1.009-2.006-.505-3.153-1.082-6.736-1.586-10.748-.072-.789-.216-1.648-.288-2.437-.072-.43-.072-.86-.145-1.218-.072-.86-.216-1.72-.288-2.579-.072-.86-.144-1.72-.288-2.58-.144-.86-.144-1.791-.216-2.651-.072-.43-.072-.932-.072-1.362-.073-.931-.145-1.791-.217-2.722-.576-9.316-.72-19.132.144-27.946.073-.788.145-1.648.289-2.436.288-2.006.576-3.941.937-5.804.144-.717.288-1.505.504-2.221.361-1.434.721-2.795 1.153-4.156 2.811-3.153 6.631-4.872 10.883-3.654l1.441.43c25.227 11.178 31.281 48.582 30.416 77.029zM294.429 322.899l-.504 2.149c-1.082-.071-2.523-.286-4.037-.573-5.117-.931-5.477-2.794-5.333-7.953.216-6.808.72-16.911 1.802-27.659 2.09-19.992 6.342-42.133 15.207-48.869 1.442-.788 3.028-1.29 4.685-1.648.289-.072.577-.143.865-.143-4.036 1.361-22.92 14.259-12.685 84.696z" fill="#2e2e2e"/><path d="M294.283 322.898c-10.234-70.437 8.721-83.335 12.758-84.696l.216-.072" stroke="#000" stroke-width="1.17" stroke-miterlimit="10"/><path d="M307.329 238.202c-2.018.071-4.541.645-6.126 2.078-9.082 7.953-12.83 28.59-14.92 48.582-1.153 10.676-1.586 20.78-1.802 27.658-.144 5.16.216 7.023 5.334 7.954 1.513.287 2.955.502 4.036.573l.504-2.078c8.577 2.938 17.154-1.863 17.154-1.863" stroke="#000" stroke-width="1.17" stroke-miterlimit="10"/><path d="M328.88 241.283l-1.442-.43c-4.252-1.218-8.072.502-10.883 3.654-.649.717-1.154 1.434-1.658 2.222-.433 1.29-.793 2.723-1.154 4.156-.216.716-.36 1.433-.504 2.221-.361 1.863-.721 3.798-.937 5.804-.072.788-.216 1.648-.288 2.437-.937 8.813-.793 18.63-.145 27.945.073.931.145 1.791.217 2.723.072.43.072.931.072 1.361.072.86.144 1.792.216 2.651.072.86.144 1.72.288 2.58.144.86.216 1.72.289 2.58.072.429.072.859.144 1.218.072.788.216 1.648.288 2.436.505 4.013 1.081 7.667 1.586 10.748.288 1.648.865 3.296 1.802 4.729.288.502.648.932 1.009 1.362 2.45 2.866 6.054 4.586 9.802 4.586h11.532c1.081.0 2.09 1.29 2.09 1.29.072-2.795.288-48.009.288-48.726" stroke="#000" stroke-width="1.17" stroke-miterlimit="10" stroke-linecap="round" stroke-linejoin="bevel"/><path d="M320.519 238.632c.793.143 1.658.358 2.45.573 25.226 11.25 31.28 48.654 30.415 77.101h-14.054s-5.839-45.215-18.38-52.452" stroke="#000" stroke-width="1.17" stroke-miterlimit="10"/></g><path d="M275.327 249.595c-1.585-5.589-2.162-7.524-3.459-13.184v-.215c-.865-.645-1.802-1.29-2.45-1.864-.361-.358-.865-.573-1.37-.716v.072c-.144.86.072 1.792.504 2.508l1.514 3.081c.072.072.072.144.0.287s-.216.143-.361.071c-.648-.358-1.009-.429-1.946-1.003l-4.108-1.361c-.072-.717-.432-1.362-.937-1.863-.504.0-1.009.072-1.441.358h-.072c.288.43.721.716 1.225.931l-.144.072c-.288.072-.504.143-.721.287h-.072c-1.009.716-1.225 2.006-.504 3.009.288.43.721.717 1.225.86v.072c-.216.071-.36.214-.576.286-.865.645-1.01 1.935-.289 2.723v.072l.216.215s1.442 1.289 4.109 2.579l.072.215c1.009 2.508 3.387 1.147 3.387 1.147l.649 4.801 11.748-2.795z" fill="#fff"/><path d="M301.563 239.993c-8.865 6.736-13.118 28.805-15.208 48.869-1.297.86-2.667 1.576-4.18 2.006-14.992 4.801-21.263-37.762-21.263-37.762l2.883-.716 11.677-2.867 4.18 12.182c0 .071.0.071.072.143.0.072.072.143.144.287v.071c.721 1.362 2.451 1.792 3.82 1.075.289-.143.577-.358.793-.645.144-.215.216-.358.36-.573 4.469-7.81 8.433-17.77 16.722-22.07z" fill="#2e2e2e"/><path d="M279.436 261.776s1.153 2.938 3.459 4.873M263.507 252.461l-.649-4.801M263.868 235.622c.937.502 1.297.574 1.946 1.003.144.072.288.0.36-.071.072-.072.072-.143.0-.287l-1.514-3.081c-.432-.788-.648-1.648-.504-2.508v-.072c.36-.501 1.009-.788 1.586-.716.504.072 1.009.358 1.369.716.649.574 1.586 1.219 2.451 1.864 1.153.931 1.946 2.292 2.234 3.726v.215c1.297 5.66 1.874 7.595 3.459 13.184" stroke="#000" stroke-width="1.17" stroke-miterlimit="10"/><path d="M260.84 248.019c-.864-.287-1.441-1.147-1.441-2.078l.216-6.664.288-6.234.361-8.026c.072-1.074.937-1.934 2.09-1.863.216.0.432.072.649.144.792.286 1.297 1.074 1.225 1.863l-.288 10.461-.217 10.462c0 1.146-1.009 2.078-2.234 2.078z" fill="#6d7bc2"/><path d="M260.84 248.019c-.864-.287-1.441-1.147-1.441-2.078l.216-6.664.288-6.234.361-8.026c.072-1.074.937-1.934 2.09-1.863.216.0.432.072.649.144.792.286 1.297 1.074 1.225 1.863l-.288 10.461-.217 10.462c0 1.146-1.009 2.078-2.234 2.078zM256.157 236.052c-.504-.215-.865-.501-1.225-.931-.649-1.004-.432-2.293.577-3.01h.072c.432-.286.937-.358 1.441-.358.649.0 1.298.287 1.802.645.505.501.865 1.146.937 1.863M255.939 240.352c-.504-.144-.937-.502-1.225-.86-.721-1.004-.432-2.293.505-3.01h.072c.432-.287.937-.43 1.441-.43.649.0 1.297.215 1.802.645.505.43.937 1.003 1.081 1.648" stroke="#000" stroke-width="1.17" stroke-miterlimit="10"/><path d="M259.472 242.215c-.432.0-.937.215-1.297.501-.865.645-1.009 1.935-.288 2.723v.072l.216.215s1.441 1.289 4.108 2.579M286.211 288.862c-1.297.86-2.667 1.576-4.18 2.006-14.992 4.801-21.263-37.762-21.263-37.762l14.56-3.583 4.18 12.182.072.215.072.215v.071c.721 1.362 2.451 1.792 3.82 1.075.288-.143.577-.358.793-.645.144-.215.216-.358.36-.573 4.541-7.81 8.577-17.699 16.866-21.998 1.441-.788 3.027-1.29 4.685-1.648.288-.072.576-.143.865-.143l.216-.072" stroke="#000" stroke-width="1.17" stroke-miterlimit="10"/><path d="M307.329 238.202c-2.018.071-3.532.501-5.838 1.791-8.865 6.736-13.118 28.805-15.208 48.869-.216 1.863-.36 3.654-.505 5.446" stroke="#000" stroke-width="1.17" stroke-miterlimit="10"/><path d="M320.447 238.56c-1.081-1.505-2.09-8.67-1.946-11.321.144-2.652 4.685-4.658 3.388-9.315l-.144.143c-.721.43-1.658.358-2.451.286-2.811-.215-5.622-.501-8.361-1.003-2.09-.358-4.108-.931-6.126-1.576-.072.0-.216-.072-.288-.072-.217-.071-.505-.143-.721-.215-2.955 2.579-4.973 6.162-6.631 9.315l4.18 1.935s-4.613 8.097 3.964 11.249c1.009.43 2.163.574 3.244.574 1.297-.072 2.522-.43 3.531-1.075l1.01-.788-1.73 3.081" fill="#fff"/><path d="M321.888 217.924c1.298 4.585-3.243 6.663-3.387 9.315l-2.667-1.505c.36-.358 3.387-5.088-.144-6.664-3.172-1.433-2.883 6.306-2.955 7.667-.072 4.443-2.955 10.175-8.073 10.318-8.649-3.153-3.964-11.25-3.964-11.25 2.594 1.075 3.964 3.296 5.838 4.228 2.45 1.146 3.892-.43 4.685-1.791.432-.86.648-1.863.576-2.795-.216-2.938 1.514-5.732 2.379-7.452" fill="#c9c9c9"/><path d="M299.833 213.839c-2.955 2.58-4.973 6.162-6.631 9.315l4.181 1.935M297.383 225.161s-4.613 8.097 3.964 11.249c1.009.43 2.162.574 3.243.574 5.117-.144 8-5.876 8.073-10.319.0-1.361-.217-9.028 2.955-7.667 3.531 1.577.504 6.306.144 6.664l2.667 1.505" stroke="#000" stroke-width="1.17" stroke-miterlimit="10"/><path d="M297.022 211.618c-.216.43.144.86.505 1.075l.144.071c.649.359 1.441.789 2.162 1.075 1.226.573 2.523 1.147 3.892 1.577.217.071.505.143.721.215.072.0.216.071.288.071 2.018.645 4.037 1.218 6.127 1.577 2.739.501 5.55.859 8.361 1.003h.72c.793-.573 1.226-1.648 1.081-2.651-.072-1.075-.648-2.007-1.369-2.795-1.586-1.791-3.82-2.938-6.126-3.511-2.307-.573-4.757-.645-7.136-.502-1.73.072-3.46.287-5.117.574-.505.143-1.009.286-1.514.501-.721.215-1.441.573-2.162 1.075-.216.215-.433.43-.577.645z" fill="#6d7bc2"/><path d="M310.861 217.35c-2.09-.358-4.109-.931-6.127-1.576-.072.0-.216-.072-.288-.072-.216-.071-.504-.143-.721-.215l-2.162-1.075-.144-.072c-.361-.215-.721-.573-.505-1.074.144-.215.361-.43.577-.645.649-.43 1.369-.789 2.162-1.075 2.739-1.003 5.694-1.362 8.577-1.505 2.379-.143 4.829-.072 7.136.502 2.306.573 4.54 1.719 6.126 3.511.721.788 1.297 1.791 1.37 2.794.144 1.003-.289 2.078-1.082 2.651-.072.072-.072.072-.144.072-.721.43-1.658.358-2.45.287-2.883-.144-5.622-.43-8.433-.932z" stroke="#000" stroke-width="1.17" stroke-miterlimit="10"/><path d="M310.861 217.35c-.865 1.72-2.595 4.515-2.379 7.452.072 1.004-.072 1.935-.576 2.795-.793 1.433-2.235 2.938-4.685 1.791-1.874-.931-3.172-3.081-5.838-4.227.0.0 1.946.645 2.883-1.362M309.203 235.121l-1.658 2.866-.144.215s-2.45 4.586.36 6.664c2.811 2.078 12.83-6.163 12.83-6.163l-.072-.071c-1.081-1.505-2.09-8.67-1.946-11.322.144-2.651 4.685-4.657 3.387-9.315M299.905 216.849s2.811.286 3.46 2.293" stroke="#000" stroke-width="1.17" stroke-miterlimit="10"/><path d="M300.846 219.569c.116-.337-.095-.714-.471-.843-.377-.129-.776.04-.893.377-.116.337.095.714.471.843.377.128.776-.041.893-.377z" fill="#000"/><path d="M257.669 181.236c2.955-.645 6.054-.573 9.082-.573 3.459.0 6.991-.143 10.306.86 5.839 1.791 10.019 6.879 10.596 12.898.864 8.312-5.262 15.692-13.551 16.552-1.369.143-2.594.717-3.531 1.648-.577.645-.649 2.365-1.874 2.006-.433-.215-.865-.501-1.154-.931-2.09-.502-4.324-.502-6.342-1.003-5.19-1.29-9.37-5.231-10.956-10.319-.432-1.361-.576-2.794-.576-4.227.072-6.879 4.901-13.328 11.892-14.833z" fill="#ced3eb"/><path d="M277.057 199.007c0-1.82-1.485-3.296-3.316-3.296zM266.967 199.078c-1.831.0-3.316 1.476-3.316 3.296.0 1.821 1.485 3.296 3.316 3.296zM257.525 199.078c-1.831.0-3.316 1.476-3.316 3.296.0 1.821 1.485 3.296 3.316 3.296z" fill="#fff"/><path d="M164.333 277.112l-6.126 7.165c5.189 14.618 2.739 31.6-8.145 44.283-16.217 18.988-44.831 21.353-63.93 5.231-19.1-16.123-21.479-44.57-5.262-63.558 16.217-18.989 44.831-21.353 63.931-5.231l9.586.287z" fill="#fafafa"/><path d="M164.332 277.11c-.577.0-3.316-.143-9.586-.43l.072.072c-1.298-2.221-2.955-4.729-5.334-7.38-1.153-1.362-2.522-2.652-4.036-4.013-.721-.645-1.586-1.29-2.451-1.935s-1.657-1.361-2.666-1.934c-.937-.574-1.946-1.218-2.955-1.792-1.082-.501-2.163-1.003-3.244-1.576l-.865-.43c-.288-.143-.576-.215-.865-.358-.576-.215-1.225-.502-1.801-.645-.649-.143-1.298-.358-1.874-.502-5.118-1.361-10.884-1.863-16.866-1.146-5.982.716-12.18 2.651-17.947 6.09l-1.08.645-1.01.717c-.72.502-1.37 1.003-2.09 1.433l-.505.358-.504.43-.937.86-1.946 1.72-.937.931c-.288.287-.577.645-.865 1.003l-.793 1.075c-.288.359-.504.788-.72 1.147-.505.788-.937 1.505-1.442 2.293-.288.358-.432.788-.648 1.218l-.577 1.218c-.36.86-.865 1.648-1.153 2.508-.289.86-.649 1.72-.937 2.579-.144.43-.36.86-.505 1.29l-.36 1.362c-.216.931-.505 1.791-.72 2.723-.145.931-.29 1.863-.433 2.794l-.217 1.433c-.072.502-.072.932-.144 1.433-.072.932-.144 1.935-.144 2.866.0.932.072 1.935.072 2.867.0 1.934.36 3.869.577 5.804.144.931.432 1.934.648 2.866l.36 1.433c.073.502.29.931.433 1.433.289.932.649 1.863.937 2.795.36.931.793 1.791 1.226 2.722l.576 1.362c.216.43.505.86.72 1.29.505.86 1.01 1.719 1.442 2.579.577.788 1.154 1.648 1.73 2.437l.865 1.218c.288.358.649.716.937 1.146.649.717 1.297 1.505 1.946 2.221.649.717 1.442 1.362 2.09 2.007 1.37 1.361 2.955 2.508 4.469 3.654.72.645 1.586 1.075 2.378 1.577.793.501 1.586 1.003 2.451 1.504.865.43 1.73.789 2.523 1.218l1.297.645c.432.215.865.359 1.297.502.865.287 1.73.645 2.595.931.865.287 1.802.502 2.667.717l1.297.358.649.144.649.071c.864.144 1.801.287 2.666.43.865.143 1.802.215 2.667.287.865.071 1.802.071 2.667.143.865.0 1.802-.072 2.667-.072.865.0 1.73.0 2.594-.215 1.73-.215 3.46-.358 5.118-.859.865-.215 1.658-.359 2.45-.574.793-.215 1.586-.501 2.379-.788 6.342-2.149 11.892-5.589 16.289-9.673 2.162-2.078 4.18-4.228 5.838-6.521.793-1.146 1.658-2.293 2.306-3.511.361-.573.721-1.146 1.009-1.791.289-.573.577-1.218.937-1.792 2.307-4.729 3.532-9.601 4.109-13.972.576-4.443.36-8.456-.144-11.967-.505-3.511-1.37-6.449-2.163-8.813v.071c3.964-4.729 5.766-6.807 6.127-7.237-.361.43-2.163 2.508-6.127 7.094v.072c.793 2.364 1.658 5.302 2.163 8.813.504 3.511.648 7.524.072 11.895-.577 4.371-1.802 9.172-4.109 13.901-.288.573-.576 1.147-.937 1.791-.288.574-.648 1.147-1.009 1.72-.648 1.218-1.513 2.293-2.306 3.44-1.658 2.221-3.676 4.371-5.838 6.449-.793.286-1.586.501-2.379.788-.792.215-1.657.358-2.45.573-1.658.43-3.316.573-5.045.788-.865.144-1.73.144-2.595.144-.865.0-1.73.071-2.595.071-.865-.071-1.73-.071-2.667-.143-.865-.072-1.802-.072-2.666-.287-.865-.143-1.802-.286-2.667-.43l-.649-.071-.649-.144-1.297-.358c-.865-.215-1.802-.43-2.667-.716-.865-.287-1.729-.645-2.594-.932-.433-.143-.865-.287-1.298-.502l-1.225-.573c-.865-.43-1.658-.788-2.523-1.218-.792-.43-1.585-1.003-2.378-1.433-.793-.502-1.658-.932-2.379-1.576-1.513-1.147-3.099-2.222-4.396-3.655-.721-.645-1.442-1.29-2.09-2.006-.65-.717-1.298-1.433-1.874-2.15-.289-.358-.65-.716-.937-1.075l-.865-1.218c-.577-.788-1.153-1.576-1.658-2.364-.504-.86-.937-1.72-1.441-2.58-.217-.43-.505-.86-.721-1.29l-.577-1.361c-.36-.932-.793-1.791-1.153-2.723-.288-.932-.649-1.863-.937-2.795-.144-.429-.36-.931-.433-1.361l-.36-1.433c-.216-.932-.432-1.863-.648-2.866-.217-1.935-.577-3.798-.577-5.733.0-.931-.072-1.934-.072-2.866.072-.931.144-1.863.144-2.794.072-.502.0-.932.144-1.433l.216-1.362.433-2.794c.216-.932.432-1.792.72-2.723l.36-1.362c.145-.43.29-.86.505-1.29.289-.859.65-1.719.937-2.579.36-.86.793-1.648 1.154-2.436l.576-1.219c.216-.429.36-.788.649-1.146.504-.788.937-1.505 1.441-2.293.217-.358.433-.788.721-1.146l.793-1.075c.504-.717 1.081-1.362 1.586-2.078.288-.358.576-.645.864-1.003l.865-.932c.577-.645 1.154-1.29 1.802-1.863.649-.573 1.298-1.146 1.946-1.648l.937-.86.505-.43.504-.358c.721-.502 1.37-1.003 2.09-1.433l1.01-.717 1.08-.645c.648.144 1.297.359 1.874.502.648.143 1.225.43 1.802.645.576.215 1.153.43 1.802.645.288.143.576.215.864.286.289.144.577.287.793.43 1.081.502 2.163 1.075 3.244 1.577 1.009.573 1.946 1.218 2.883 1.791 1.009.502 1.802 1.29 2.666 1.863.865.645 1.658 1.218 2.451 1.863v.071h.072c5.91.359 8.721.43 9.298.43z" fill="#263238"/><mask id="mask2" maskUnits="userSpaceOnUse" x="70" y="254" width="95" height="91"><path d="M164.332 277.11l-6.126 7.166c5.189 14.617 2.739 31.6-8.144 44.283-16.217 18.988-44.831 21.353-63.931 5.23-19.1-16.122-21.479-44.569-5.262-63.557 16.217-18.989 44.831-21.354 63.931-5.231l9.586.286z" fill="#fafafa"/></mask><g mask="url(#mask2)"><path d="M87.067 337.157c2.45 1.29 13.478 4.371 26.524 3.296 13.045-1.146 22.415-5.876 24.649-8.527 2.235-2.651 4.757-1.505 6.559-1.361.288 2.078.216 4.442.288 8.957-18.379 16.624-40.794 17.34-58.813 9.172v-10.319c.072-2.436.793-1.146.793-1.218z" fill="#ced3eb"/><path d="M86.347 336.512v12.253M145.015 330.565v9.315" stroke="#000" stroke-width="1.165" stroke-linejoin="round"/></g><path d="M71.21 310.716s.433 14.331 10.451 23.002c10.09 8.67 29.984 7.595 39.426 5.732 9.441-1.863 14.991-6.019 14.991-6.019-3.171-2.078-4.252-5.804-4.252-5.804h-.072c2.378.502 4.685 1.146 6.27 1.791 5.045 2.078 11.244.502 11.244.502 13.19-3.511 14.271-14.044 13.406-23.933-.865-9.96-3.532-21.496-12.829-28.948-9.298-7.381-20.109-9.817-20.109-9.817l-2.163 7.739-4.108-1.577.937 4.371-7.208 15.621-11.387-12.11.072-4.657-4.181 3.153s-2.739-6.091-3.675-8.169c-.938-2.078-1.01-2.866-1.01-2.866-5.622 1.146-14.343 5.804-14.343 5.804-14.775 8.598-11.46 36.185-11.46 36.185zm61.409-13.471c0-.931.72-1.719 1.657-1.719s1.802.716 1.802 1.648c0 .931-.721 1.791-1.658 1.791-1.009.072-1.801-.717-1.801-1.72zm-29.191 13.042c5.55-2.508 17.082 1.003 17.082 1.003s5.117 8.455.0 14.402c-8.145-.86-11.605 1.289-15.136.358-3.532-1.003-4.901-9.458-5.19-10.748-.216-1.433 1.946-2.15 7.424-4.729z" fill="#ced3eb"/><path d="M134.421 294.093c1.801.0 3.315 1.433 3.315 3.152.0 1.792-1.442 3.153-3.315 3.153-1.802.0-3.316-1.433-3.316-3.153.0-1.719 1.514-3.152 3.316-3.152zm0-1.147c-2.451.0-4.397 1.935-4.397 4.299.0 2.365 1.946 4.3 4.397 4.3 2.45.0 4.396-1.935 4.396-4.3.0-2.364-1.946-4.299-4.396-4.299z" fill="#fff"/><path d="M134.348 295.454c1.01.0 1.874.788 1.874 1.791.0 1.004-.864 1.792-1.874 1.792-1.009.0-1.874-.788-1.874-1.792.073-.931.865-1.791 1.874-1.791z" fill="#fff"/><path d="M114.311 269.228l3.892 3.082-2.018 4.227c-.288.358-.865.43-1.225.144l-2.811-3.153 2.162-4.3z" fill="#6d7bc2"/><path d="M116.906 275.104l1.946 3.941-2.594 5.732-3.532-4.442 1.225-4.729" fill="#6d7bc2"/><path d="M104.798 227.955c2.234-3.009 5.261-4.801 8.793-5.876.216-.071.432-.143.648-.143 1.37-.286 2.883-.358 4.181.143 2.162.789 3.387 3.512 2.234 5.661.216-.215.505-.573.865-.645.216-.071.432-.071.721-.071-.072.143-.072.215-.144.358.144-.143.216-.287.36-.358 4.18.071 4.108 6.735.721 8.383-1.37-.143-2.667-.573-3.892-1.218l-6.271-3.368s-1.874-.931-3.243-.071c-.649.43-1.226 1.289-1.442 2.866-.576 4.801-1.874 10.39-1.874 10.39-.288-.573-.576-1.075-1.009-1.577-.432-.501-.937-1.003-1.585-1.146-.649-4.658.072-9.458 2.883-13.328z" fill="#2e2e2e"/><path d="M95.932 314.299c3.316-2.723 9.082-5.661 15.929-4.442 18.956 3.296 33.587 6.162 29.767-10.677" stroke="#000" stroke-width="1.165" stroke-linejoin="round"/><path d="M140.475 330.135c10.595 2.365 22.199-5.231 22.343-16.266.144-11.321-1.369-23.359-8.721-32.459-5.622-6.951-15.785-12.038-24.434-14.188M96.725 268.798c-5.261 1.649-12.901 4.156-16.866 8.026-3.531 3.439-6.414 7.953-7.351 12.826.0.0-10.74 45.142 23.64 50.23 25.587 3.798 39.065-4.944 44.327-9.673-.577-.144-1.154-.287-1.658-.43-8.361-2.723-19.749-5.231-31.929-4.085-1.442.144-2.811.215-4.253.144-1.585.0-3.027-.932-3.82-2.293-1.37-2.58-2.306-5.876-2.81-9.172-1.226-7.237-.938-14.546-.938-14.546" stroke="#000" stroke-width="1.165" stroke-linejoin="round"/><path d="M121.087 235.336l-6.271-3.367s-4.108-2.078-4.685 2.794c-.576 4.801-1.874 10.39-1.874 10.39s-1.081-2.364-2.522-2.723c-.433-.071-.937.0-1.442.359-2.234 1.648 1.514 6.305 2.451 7.81.576.931.288 4.801 2.234 7.667l-1.802 5.302 5.838 4.085 5.334 3.224h.072-.072l7.64-7.595-1.226-5.016c2.091-2.078 3.748-5.446 3.172-10.892-.649-5.445-1.802-8.813-2.955-10.819" fill="#fff"/><path d="M121.087 235.336l-6.271-3.367s-4.108-2.078-4.685 2.794c-.576 4.801-1.874 10.39-1.874 10.39s-1.081-2.364-2.522-2.723c-.433-.071-.937.0-1.442.359-2.234 1.648 1.514 6.305 2.451 7.81.576.931.288 4.801 2.234 7.667l-1.802 5.302 5.838 4.085 5.334 3.224h.072-.072l7.64-7.595-1.226-5.016c2.091-2.078 3.748-5.446 3.172-10.892-.649-5.445-1.802-8.813-2.955-10.819" stroke="#000" stroke-width="1.165" stroke-linejoin="round"/><path d="M121.231 235.336c1.153 2.006 2.306 5.374 2.955 10.819 1.369 12.253-9.082 14.116-9.082 14.116" stroke="#000" stroke-width="1.165" stroke-linejoin="round"/><path d="M101.987 241.283c-.793-4.586-.072-9.458 2.811-13.256 2.666-3.583 6.486-5.518 10.811-6.377 1.369-.287 2.883-.359 4.18.143 2.162.788 3.388 3.511 2.235 5.661.216-.215.504-.574.864-.645 5.55-1.003 5.19 8.025.433 8.67-.721.072-1.442.072-2.162.0-1.37-.143-2.667-.573-3.892-1.218l-6.271-3.368s-4.108-2.078-4.685 2.795c-.576 4.8-1.874 10.389-1.874 10.389s-.937-2.507-2.45-2.794zm0 0c-.433-.072-.937.0-1.442.358-2.234 1.648 1.514 6.306 2.451 7.811.576.931.288 4.8 2.234 7.667" stroke="#000" stroke-width="1.165" stroke-linejoin="round"/><path d="M107.032 258.695c-.721-.43-1.37-1.003-1.802-1.648l-1.802 5.302M117.915 239.85l.649 7.165.144 1.792h-2.234" stroke="#000" stroke-width="1.165" stroke-linejoin="round"/><path d="M115.969 239.85h-9.37v5.517c0 .932.721 1.648 1.658 1.648h6.127c.936.0 1.657-.716 1.657-1.648v-5.517h10.379v5.517c0 .932-.721 1.648-1.658 1.648h-6.126M113.086 248.807c1.802 2.723 3.388 2.149 3.388 2.149" stroke="#000" stroke-width="1.165" stroke-linejoin="round"/><path d="M118.132 272.381l2.666 2.006-1.946 4.515-2.09-3.726 1.37-2.795zM111.789 273.384l2.09 2.222-1.225 4.729-3.027-3.941 2.162-3.01z" fill="#fff"/><path d="M116.185 284.777l-2.162-2.722-11.532-14.69-1.441-1.863.576-.788 1.802-2.365 5.838 4.085 5.334 3.224-2.523 3.368-2.378 3.296-8.649-10.748c-.217.215-3.028 2.508-4.325 3.224l5.117 11.322 4.037-3.44-.217 4.515 11.605 12.754-1.082-9.172z" fill="#fff" stroke="#000" stroke-width="1.165" stroke-linejoin="round"/><path d="M125.195 264.786c1.441 1.075 3.099 1.863 4.757 2.508l-2.379 7.667-4.108-1.577.937 4.371-7.135 16.194-1.081-9.243 9.009-19.92-2.883-2.723-7.712 7.595 6.198 4.729 4.397-9.601z" fill="#fff"/><path d="M125.195 264.786c1.441 1.075 3.099 1.863 4.757 2.508l-2.379 7.667-4.108-1.577.937 4.371-7.135 16.194-1.081-9.243 9.009-19.92zm0 0-2.883-2.723-7.712 7.595 6.198 4.729 4.397-9.601z" stroke="#000" stroke-width="1.165" stroke-linejoin="round"/><path d="M118.131 272.309l-2.018 4.228c-.288.358-.865.43-1.225.143l-2.811-3.152M112.654 280.335l1.225-4.729M118.78 279.045l-1.946-3.941" stroke="#000" stroke-width="1.165" stroke-linejoin="round"/><path d="M112.582 244.293zM119.717 244.293z" fill="#000"/><path d="M134.348 293.233c.649-15.191-2.522-25.438-2.522-25.438M139.138 297.297c.012-2.454-2.076-4.453-4.663-4.466-2.588-.012-4.695 1.967-4.707 4.42-.012 2.454 2.076 4.453 4.663 4.466 2.588.012 4.695-1.967 4.707-4.42zM99.176 284.563c-.433-.932-1.298-2.508-2.811-5.16-4.973-8.527.576-10.605.576-10.605" stroke="#000" stroke-width="1.165" stroke-linejoin="round"/><path d="M104.653 303.838l-2.09.716s-5.405-9.817-6.27-13.901c-.865-4.084 2.018-5.661 2.018-5.661s1.946-1.576 4.901.215c3.027 1.792 7.352 15.908 7.424 16.481.072.573-2.09 1.576-2.09 1.576" stroke="#000" stroke-width="1.165" stroke-linejoin="round"/><path d="M107.897 304.626zM105.23 304.841z" fill="#fff"/><path d="M128.223 217.135c0 3.941 3.243 7.166 7.207 7.166h3.892v.072c0 .716-.432 1.361-1.153 1.648v.072l3.964.071h.072c1.009.0 1.874-.788 1.874-1.863h15.929c1.946.0 3.82-.788 5.117-2.15.576-1.075.937-2.293.937-3.511v-.072c0-7.237-5.91-13.041-13.19-13.041h-16.289c-3.46.0-6.847 1.362-9.298 3.87l-.648.644c-1.37 2.15-2.018 4.586-2.018 7.094zm27.1-2.579c0-1.72 1.441-3.153 3.171-3.153 1.73.0 3.171 1.433 3.171 3.153.0 1.719-1.441 3.153-3.171 3.153-1.802-.072-3.171-1.434-3.171-3.153zm-7.136 3.081c-1.729.0-3.171-1.433-3.171-3.153s1.442-3.153 3.171-3.153c1.73.0 3.172 1.433 3.172 3.153.0 1.791-1.442 3.153-3.172 3.153zm-9.802.0c-1.73.0-3.171-1.433-3.171-3.153s1.441-3.153 3.171-3.153c1.73.0 3.171 1.433 3.171 3.153.0 1.791-1.441 3.153-3.171 3.153z" fill="#e4e8f2"/><path d="M141.34 204.022h16.289c7.279.0 13.117 5.876 13.117 13.042v.071c0 3.941-3.243 7.166-7.207 7.166H147.61c0 1.003-.792 1.791-1.874 1.791h-.072l-3.964-.071h-.576c.216.0.36.0.576-.072.721-.215 1.153-.86 1.153-1.648v-.072h-3.892c-3.964.0-7.207-3.224-7.207-7.165.072-7.166 5.91-13.042 13.19-13.042z" stroke="#000" stroke-width=".807" stroke-miterlimit="10"/><path d="M91.968 99.905l-6.775 4.227c-18.091 11.249-23.57 34.895-12.253 52.881 11.316 17.985 35.1 23.431 53.191 12.181 18.091-11.25 23.569-34.896 12.253-52.881-2.378-3.869-5.406-7.094-8.793-9.745l.865-8.097z" fill="#fafafa"/><path d="M91.967 99.905c-.072.574-.288 2.867-.793 8.026v-.072c1.73 1.362 3.676 3.081 5.622 5.374 1.01 1.147 1.946 2.436 2.883 3.87.505.716.865 1.504 1.298 2.293.432.788.937 1.576 1.297 2.436.36.86.793 1.791 1.153 2.651.289.932.649 1.935.937 2.866l.217.717.144.788c.144.502.216 1.075.36 1.576.072.502.216 1.075.288 1.577.072.573.145 1.075.217 1.648.504 4.442.216 9.387-1.082 14.259-1.297 4.944-3.747 9.888-7.351 14.259l-.649.86-.72.788c-.505.502-1.01 1.004-1.514 1.577-.505.573-1.081.931-1.586 1.433-.576.502-1.081.932-1.658 1.433-1.225.86-2.378 1.72-3.675 2.508-.65.358-1.298.717-2.019 1.075l-1.009.573-1.08.43c-.722.287-1.442.573-2.09.932-.722.358-1.442.501-2.235.788-.721.215-1.514.501-2.235.645-.792.143-1.513.358-2.306.501-.36.072-.793.143-1.153.215l-1.153.143c-.793.072-1.586.144-2.379.287-.793.0-1.586.0-2.45.072H66.02c-.432.0-.793-.072-1.225-.072-.793-.072-1.658-.143-2.45-.215-.793-.072-1.586-.287-2.451-.43-1.658-.215-3.243-.788-4.83-1.218-.792-.215-1.585-.573-2.378-.86-.792-.286-1.585-.573-2.306-1.003-.72-.358-1.514-.788-2.234-1.146-.721-.43-1.442-.86-2.163-1.362l-1.08-.645c-.361-.215-.65-.501-1.01-.788-.648-.502-1.37-1.003-2.018-1.576-.649-.574-1.225-1.147-1.874-1.72l-.937-.86c-.288-.287-.577-.645-.865-.931-.576-.645-1.08-1.29-1.657-1.863-.505-.645-.938-1.362-1.442-2.007-1.01-1.29-1.73-2.794-2.523-4.156-.432-.716-.72-1.433-1.009-2.221-.288-.717-.648-1.505-.937-2.221-.216-.789-.504-1.505-.72-2.293l-.36-1.147c-.073-.358-.145-.788-.29-1.146-.143-.789-.36-1.577-.504-2.293-.144-.788-.216-1.577-.288-2.293-.216-1.577-.216-3.081-.216-4.586-.072-.788.072-1.505.144-2.293.072-.788.144-1.505.216-2.221.144-.717.288-1.505.433-2.222.144-.716.216-1.433.504-2.149.433-1.433.72-2.867 1.297-4.156.289-.645.505-1.362.793-2.007.289-.645.649-1.289.937-1.934 2.595-5.016 6.127-9.244 10.163-12.468 2.163-1.074 4.325-2.006 6.487-2.651 4.325-1.361 8.505-1.791 12.325-1.72 3.82.072 7.208.717 10.09 1.577 2.884.86 5.262 1.935 7.208 2.938h-.072c4.54-2.58 6.487-3.798 6.92-4.085-.433.287-2.38 1.505-6.776 4.3h-.144c-1.946-.932-4.324-2.007-7.207-2.866-2.883-.86-6.271-1.434-10.09-1.505-3.749-.072-8.001.43-12.254 1.791-2.162.645-4.252 1.577-6.414 2.651-3.964 3.152-7.496 7.38-10.018 12.396-.289.645-.65 1.218-.937 1.863-.289.645-.505 1.29-.793 2.006-.577 1.29-.865 2.723-1.297 4.156-.217.717-.36 1.433-.433 2.15-.144.716-.288 1.433-.36 2.15-.072.716-.145 1.504-.217 2.221-.072.716-.144 1.505-.072 2.221.0 1.505.0 3.01.217 4.586.072.788.144 1.505.288 2.293.144.788.288 1.505.504 2.293.073.358.145.788.289 1.146l.36 1.147c.216.716.505 1.505.72 2.221.29.717.65 1.433.938 2.222.36.716.576 1.504 1.009 2.149.793 1.433 1.513 2.866 2.523 4.156.504.645.937 1.362 1.441 2.007.505.644 1.081 1.218 1.586 1.863.288.286.504.644.793.931l.936.86c.577.573 1.226 1.146 1.802 1.72.649.501 1.298 1.003 2.018 1.504.36.287.65.502 1.01.789l1.08.644c.721.43 1.442.932 2.163 1.29.72.359 1.514.717 2.234 1.147.721.43 1.514.716 2.307 1.003.792.287 1.513.645 2.306.86 1.586.43 3.171.931 4.757 1.146l2.379.43 2.378.215c.432.0.793.072 1.225.072h1.226c.792.0 1.585.0 2.378-.072.793-.072 1.586-.143 2.379-.286l1.153-.144c.36-.071.792-.143 1.153-.215.721-.144 1.514-.43 2.235-.645.72-.287 1.513-.43 2.162-.717.72-.286 1.37-.573 2.09-.931.36-.144.72-.287 1.01-.43l1.008-.573 1.946-1.075c1.298-.789 2.45-1.648 3.676-2.508.577-.502 1.081-.932 1.658-1.433.504-.502 1.153-.932 1.585-1.433.505-.502 1.01-1.004 1.442-1.577l.72-.788.65-.86c3.531-4.371 5.982-9.243 7.279-14.116 1.369-4.872 1.586-9.745 1.153-14.188-.072-.573-.144-1.074-.216-1.648-.072-.573-.216-1.074-.288-1.576-.144-.502-.217-1.075-.361-1.576l-.144-.789-.216-.716c-.288-1.003-.649-1.935-.937-2.866-.36-.932-.793-1.792-1.153-2.652-.361-.859-.865-1.648-1.298-2.436-.937-1.433-1.874-2.723-2.883-3.869-1.946-2.293-3.892-4.084-5.55-5.374v-.072c.793-5.087 1.01-7.452 1.081-7.954z" fill="#263238"/><path d="M53.912 145.335l-.649.644s.144 2.508 2.162 6.593c2.018 4.084 5.838 6.019 5.838 6.019-5.621 5.016-9.009 13.542-13.982 15.549-6.992 2.794-25.731 4.872-16.578-26.656l.65-2.149.071-.215s6.27-22.213 27.75-30.095c0 0 6.054-2.007 7.855-3.87 1.73-1.791 2.883-.071 3.676.43.793.573 4.469 2.795 4.469 2.795s1.225-1.362 3.82-2.15c3.243.0 20.974 4.299 26.019 8.885h.072l.072-.215 6.559-18.845s2.378 3.296 5.982 5.087c4.18 2.078 7.856 1.147 7.856 1.147 1.081 43.494-25.442 33.319-34.884 28.447s.793 9.96.72 19.276c-14.559 17.842-34.884 17.698-47.641 11.106l8.577-10.963s3.748-5.661 11.46-6.449c0 0 4.829-.215 4.324-2.508 1.658-.072 3.027-.287 3.748-1.648.144-.215.649-1.361-.576-2.15 2.955.86 4.684-3.439 1.441-4.371 3.604-.071 3.316-3.654.865-4.585-10.595-4.013-17.586-.574-17.586-.574s-4.685 1.218-8.217 6.234l-.288.144z" fill="#6d7bc2"/><path d="M52.903 136.449v9.674" stroke="#000" stroke-width="1.389" stroke-miterlimit="10"/><path d="M131.825 113.878c0-2.866.36-6.377 1.946-7.094 2.811-1.29 7.424-5.445 1.514-15.406l3.82-3.797-7.64 8.026s-1.081-2.078-3.099-1.003c-1.946 1.074-9.153 5.66-5.91 15.19l-.649 1.792s1.946 3.081 6.199 5.087c4.324 1.863 7.856 1.075 7.856 1.075z" fill="#fff"/><path d="M96.724 141.25c9.154 4.801 34.452 14.689 35.317-23.288.0.0-1.081-9.96 1.73-11.249 2.811-1.29 7.424-5.446 1.514-15.406l3.82-3.798-7.64 8.026s-1.081-2.078-3.099-1.003c-1.946 1.075-9.153 5.66-5.91 15.191l-8.361 24.291M127.5 91.665s2.019 3.081-2.306 6.234" stroke="#000" stroke-width="1.389" stroke-miterlimit="10"/><path d="M136.582 93.743s1.297 3.941-3.82 6.521c-1.802.931-3.82-1.004-2.955-2.795.0.0.0-.072.072-.072" stroke="#000" stroke-width="1.389" stroke-miterlimit="10"/><path d="M138.096 98.616s-1.154 3.869-4.181 4.084c-2.739.143-2.234-2.58-2.234-2.58" stroke="#000" stroke-width="1.389" stroke-miterlimit="10"/><path d="M85.697 96.18c-.216.071-.36-.144-.505-.072-2.81-.502-4.829-2.651-5.045-3.726.072.573 1.153.501.937 1.075.0.143-.072.071-.144.143-.072.215-.072-.072-.216.143-.65-1.003-1.082-1.505-1.226-2.078.072.573.0 1.218-.144 1.791.0.144-.072.215-.144.359-.432 1.003-1.297 1.791-2.739 2.006-.36.072-.72.072-1.08.0-1.01-.072-1.947-.143-2.668-.143-2.522-.144-3.46.071-3.171 1.72.144.716.36 1.433.649 2.15.504 1.289.865 3.654.36 6.09-.577 2.938-2.523 5.159-6.559 7.309-.72.358-1.441.716-2.234 1.003-7.064 2.579-24.073 9.243-31.065 33.534-.72 2.58-1.297 4.944-1.73 7.094l-.216-.143c-4.829-2.866-7.928-9.244-6.99-14.761.504-2.723 2.233-4.658 4.54-6.091 1.585-1.003 3.315-1.791 4.757-3.009 4.829-4.085.937-10.39 3.603-15.263 3.028-5.446 7.713-8.885 13.839-9.1 1.514.072 3.243.215 4.973.143 2.45.072 4.973-.143 6.703-1.719 1.442-1.219 1.73-3.225 2.234-4.945.577-1.934 1.082-3.797 1.514-5.804.36-1.863 1.081-3.654 2.018-5.23 1.01-1.792 2.523-3.225 4.253-4.3 1.513-.86 3.243-1.361 5.045-1.504 1.586.071 3.171.573 4.54 1.361.505.287.938.573 1.37.931 3.171 2.652 4.613 7.094 4.54 11.035z" fill="#2e2e2e"/><path d="M132.618 102.413s-1.009 1.218-.433 2.365c.577 1.146 1.874 1.433 3.172.931M135.357 91.307l-2.739 2.723" stroke="#000" stroke-width="1.389" stroke-miterlimit="10"/><path d="M68.687 109.507c1.01-1.146 1.586-2.364 1.874-3.798.504-2.507.144-4.8-.36-6.09-.36-2.078 1.298-1.791 5.839-1.576 2.09.143 3.316-.86 3.82-2.007.072-.071.072-.215.144-.358.216-.716.216-1.433.072-2.15.144 1.147.865 2.222 2.162 2.58 1.442.358 2.163 1.72 2.595 3.153-.793 1.863-2.163 3.941-4.541 4.228-.36.071-.649.071-.937.071l-.216.072c.288.86.865 1.648 1.657 2.436l-4.468 4.156c.072.0-4.325-2.508-6.559-4.729zM76.76 118.607l1.441 2.795 1.37-3.44-1.874-1.504-.938 2.149zM71.714 119.539l2.09 3.009.865-3.654-1.441-1.72-1.514 2.365z" fill="#fff"/><path d="M76.4 125.988l-1.587-2.078-8.216-11.393-.505-.717.721-.573 1.73-1.72 2.883 2.221 3.82 2.508-1.802 2.58-1.73 2.508-5.622-7.452c-.144.215-2.306 1.29-3.675 1.791l3.675 8.814 2.883-2.652-.144 3.512 8.289 9.888-.72-7.237z" fill="#fff" stroke="#000" stroke-width="1.389" stroke-linejoin="round"/><path d="M82.31 112.015c1.08.645 2.234 1.003 3.603 1.433v.143l-1.441 4.873-2.956-1.218.65 3.439-5.118 12.54-.793-7.166 6.054-14.044s-1.513-.788-2.667-1.935c-.36.359-4.396 4.228-4.396 4.228l4.469 3.654 2.594-5.947z" fill="#fff"/><path d="M82.31 112.015c1.08.645 2.234 1.003 3.603 1.433v.143l-1.441 4.873-2.956-1.218.65 3.439-5.118 12.54-.793-7.166 6.054-14.044zm0 0s-1.514-.788-2.668-1.935c-.36.359-4.396 4.228-4.396 4.228l4.469 3.654 2.594-5.947zM77.769 116.386l-1.442 3.296c-.216.287-.649.358-.865.143l-2.018-2.436M73.804 122.62l.865-3.726M78.201 121.545l-1.37-3.009" stroke="#000" stroke-width="1.389" stroke-linejoin="round"/><path d="M89.302 129.929c1.081.0 1.874.86 1.874 1.863.0 1.003-.865 1.863-1.874 1.863-1.009.0-1.874-.86-1.874-1.863.0-1.003.793-1.863 1.874-1.863zm0-.645c-1.441.0-2.595 1.146-2.595 2.508.0 1.361 1.154 2.508 2.595 2.508 1.442.0 2.595-1.147 2.595-2.508.0-1.362-1.153-2.508-2.595-2.508z" fill="#fff"/><path d="M89.3 130.717c.577.0 1.082.502 1.082 1.075s-.505 1.075-1.081 1.075c-.577.0-1.082-.502-1.082-1.075s.433-1.075 1.082-1.075z" fill="#fff"/><path d="M89.228 129.355c.36-9.243-1.513-15.405-1.513-15.405M92.12 131.811c.007-1.504-1.246-2.729-2.798-2.737-1.553-.008-2.817 1.204-2.824 2.708-.007 1.504 1.246 2.729 2.798 2.737 1.553.008 2.817-1.204 2.824-2.708zM63.425 123.408c-.288-.573-.792-1.505-1.73-3.153-3.026-5.159.361-6.449.361-6.449" stroke="#000" stroke-width="1.389" stroke-linejoin="round"/><path d="M66.74 135.088l-1.296.43s-3.244-5.947-3.82-8.455c-.505-2.508 1.225-3.44 1.225-3.44s1.153-.931 3.027.143c1.802 1.075 4.469 9.674 4.469 10.032.0.358-1.298.932-1.298.932" stroke="#000" stroke-width="1.389" stroke-linejoin="round"/><path d="M68.903 135.446zM67.101 135.59z" fill="#fff"/><path d="M77.985 150.494h3.964c1.658.0 3.027-1.218 3.171-2.866l2.379-23.36v-.358c0-1.72-1.442-3.153-3.172-3.153H71.354c-1.586.0-2.955 1.218-3.171 2.794l-1.442 13.83v.286s6.92-1.576 13.262 1.72c2.306 1.218 2.739 4.514-.865 4.586 3.243.932 1.513 5.231-1.442 4.371 1.226.788.721 1.935.577 2.15" fill="#fff"/><path d="M66.741 137.452l1.442-13.829c.216-1.576 1.513-2.794 3.17-2.794h12.974c1.73.0 3.172 1.433 3.172 3.152v.359l-2.379 23.359c-.144 1.577-1.513 2.866-3.171 2.866h-3.964" stroke="#000" stroke-width="1.389" stroke-miterlimit="10"/><path d="M82.453 125.701c0 .475.388.86.865.86z" fill="#000"/><path d="M79.78 132.953c.45-1.887-.534-3.735-2.2-4.128-1.665-.393-3.38.818-3.83 2.704-.451 1.887.534 3.735 2.199 4.128 1.665.393 3.38-.818 3.83-2.704z" fill="#dfe3f2"/><path d="M61.12 158.734c2.234-2.006 4.756-3.511 7.928-3.869 1.441-.144 3.17-.287 4.54-.932.793-.358 1.658-1.433.577-2.078h.504c1.73.0 3.172-.43 3.532-1.791.433-1.72-1.441-1.72-1.441-1.72h.432c.577.0 1.225.0 1.802-.072.793-.143 1.441-.43 1.73-1.218.72-1.791-1.01-2.723-2.09-3.153h.576c1.297-.071 2.667-.429 2.739-1.791.072-1.791-1.946-2.866-3.388-3.439-1.657-.645-3.387-1.004-5.117-1.218-.72-.072-1.441-.144-2.162-.144-5.045-.215-10.883 1.003-14.343 4.944-1.297 1.505-2.739 2.938-4.108 4.228 1.441 10.605 8.288 12.253 8.288 12.253z" fill="#fff"/><path d="M72.796 142.97c2.162.502 2.594.501 4.684.788 1.298.215 4.325.358 4.397-1.648.072-1.791-1.946-2.866-3.388-3.439-1.657-.645-3.387-1.004-5.117-1.218-.72-.072-1.441-.144-2.162-.144-5.045-.215-10.884 1.003-14.343 4.944-8.073 9.101-18.812 14.976-18.812 14.976" stroke="#000" stroke-width="1.17" stroke-miterlimit="10"/><path d="M78.633 143.901c1.01.43 2.811 1.362 2.09 3.153-.36.86-.936 1.147-1.73 1.218-1.801.287-3.675-.143-5.405-.501-.648-.143-1.802-.358-2.378-.573" stroke="#000" stroke-width="1.17" stroke-miterlimit="10"/><path d="M76.76 148.344s1.873.0 1.441 1.72c-.72 2.866-6.559 1.576-9.298 1.003M78.057 107.501c.36 1.433 1.585 2.579 3.1 3.798 1.513 1.218 4.107 2.006 4.9 2.149 7.784 1.577 16.938 5.016 25.515 12.396M96.724 137.309s1.154 10.748.865 24.148M29.334 155.509c-4.83-2.867-7.929-9.244-6.992-14.761.505-2.723 2.235-4.658 4.613-6.091 1.586-1.003 3.316-1.791 4.757-3.009 4.83-4.085.937-10.39 3.604-15.263 3.243-5.876 8.433-9.387 15.28-9.172 3.315.072 7.568.86 10.234-1.504 1.442-1.219 1.73-3.225 2.235-4.945.576-1.934 1.081-3.797 1.513-5.804.36-1.863 1.01-3.654 2.019-5.23 1.009-1.792 2.522-3.225 4.252-4.3 3.316-1.934 7.928-2.078 11.316-.143.504.287.937.573 1.37.931 3.099 2.652 4.54 7.094 4.468 11.035" stroke="#000" stroke-width="1.17" stroke-miterlimit="10"/><path d="M79.426 91.379c.144 1.146.865 2.22 2.163 2.579 1.441.358 2.162 1.72 2.594 3.153-.793 1.863-2.162 3.941-4.54 4.228-4.325.645-6.416-1.218-6.416-1.218" stroke="#000" stroke-width="1.17" stroke-miterlimit="10"/><path d="M75.895 97.54c.398.0.72-.32.72-.716-.398.0-.721.32-.721.716.0.396.322.717.72.717zM82.381 97.11c.398.0.721-.32.721-.716-.399.0-.721.32-.721.716.0.396.322.717.72.717z" fill="#000"/><path d="M74.165 151.855c1.08.645.216 1.72-.577 2.078-1.37.645-3.1.717-4.54.932-11.1 1.289-14.848 16.48-21.84 19.275-6.99 2.794-25.73 4.872-16.577-26.656 7.064-24.291 24.001-30.883 31.065-33.534.793-.287 1.513-.573 2.234-1.003 4.108-2.078 5.982-4.371 6.63-7.309.505-2.508.145-4.801-.36-6.09-.36-2.078 1.297-1.792 5.838-1.577 2.09.143 3.315-.86 3.82-2.006.072-.072.072-.215.144-.358.216-.717.216-1.434.072-2.15" stroke="#000" stroke-width="1.17" stroke-miterlimit="10"/><path d="M79.066 97.04s.793 2.794.72 3.224c-.071.43-1.08.071-1.08.071M78.49 102.915c-1.514.788-3.244.287-3.893-1.003M77.057 99.851c1.39-1.304 1.475-3.457.19-4.81-1.284-1.353-3.452-1.392-4.841-.088-1.39 1.304-1.475 3.458-.19 4.81 1.284 1.353 3.452 1.392 4.841.088zM85.696 99.047c1.39-1.304 1.474-3.457.19-4.81-1.284-1.352-3.452-1.392-4.841-.088-1.39 1.304-1.475 3.458-.19 4.81 1.284 1.353 3.451 1.392 4.84.088z" stroke="#000" stroke-width="1.17" stroke-miterlimit="10"/><path d="M83.463 94.316c.072 1.29-.937 2.436-2.234 2.58h-.217c-1.225.0-2.234-.932-2.306-2.078-.072-1.29.865-2.437 2.234-2.58.072-.072.145-.072.217-.072zm0-.501h-.289c-1.585.143-2.739 1.505-2.667 3.08.072 1.434 1.298 2.58 2.811 2.58h.289c1.585-.143 2.739-1.504 2.666-3.08-.144-1.505-1.369-2.652-2.81-2.58z" fill="#fff"/><path d="M78.129 97.11l1.802-.142" stroke="#000" stroke-width="1.17" stroke-miterlimit="10"/><path d="M74.814 95.033c1.225.0 2.306.931 2.378 2.221.072 1.362-.937 2.508-2.306 2.651h-.217c-1.225.0-2.306-.931-2.378-2.22-.072-1.362.937-2.509 2.306-2.652.072-.072.145-.072.217.0zm0-.573h-.289c-1.657.143-2.883 1.576-2.739 3.224.073 1.505 1.37 2.651 2.883 2.651h.289c1.657-.143 2.81-1.576 2.739-3.152z" fill="#fff"/><path opacity=".28" d="M85.35 98.683c1.186-1.114 1.262-2.95.17-4.102-1.094-1.15-2.942-1.18-4.129-.067-1.187 1.114-1.263 2.95-.17 4.101 1.093 1.151 2.942 1.181 4.128.068zM76.927 99.997c1.399-1.315 1.487-3.481.197-4.838-1.29-1.357-3.47-1.392-4.87-.077-1.399 1.315-1.487 3.481-.197 4.838 1.29 1.357 3.47 1.391 4.87.077z" fill="#9ea7d6"/><path d="M63.301 71.984c0-1.934-.648-3.726-1.73-5.445-4.468-4.085-12.252-6.808-21.117-6.808-13.839.0-25.01 6.593-25.01 14.761.0 1.935.576 3.87 1.657 5.446 3.316 3.01 8.073 4.873 11.965 5.732 10.523 2.437 18.74-1.504 27.532 3.511 1.01.574 2.235-.215 2.09-1.361-.36-3.01-.432-4.8 1.082-7.38 1.37-2.365 3.531-5.518 3.531-8.456z" fill="#ced3eb"/><path d="M59.986 64.532c-1.946-2.078-4.541-3.44-7.136-4.514-8.865-3.654-19.1-3.726-28.109-.43-3.316 1.218-6.63 3.01-8.865 5.732-2.379 3.01-3.748 7.882-1.442 11.25 2.307 3.44 5.766 6.02 9.586 7.596 4.253 1.72 8.938 2.364 13.55 2.22 3.172-.07 6.343-.5 9.586-.357 3.244.143 6.487.86 9.01 2.794.432.359.865.717 1.441.645.865-.072 1.298-1.075 1.154-1.935-.145-.86-.577-1.576-.721-2.436-.289-1.863 1.009-3.583 2.162-5.159 1.73-2.293 3.171-4.944 3.171-7.81v-.215c-.072-2.723-1.441-5.374-3.387-7.38z" stroke="#000" stroke-width="1.373" stroke-miterlimit="10"/><path d="M26.399 75.209c1.91.0 3.46-1.54 3.46-3.44s-1.55-3.44-3.46-3.44-3.46 1.54-3.46 3.44 1.55 3.44 3.46 3.44zm11.171.0c1.911.0 3.46-1.54 3.46-3.44s-1.549-3.44-3.46-3.44c-1.91.0-3.46 1.54-3.46 3.44s1.55 3.44 3.46 3.44zM48.958 75.209c1.911.0 3.46-1.54 3.46-3.44s-1.549-3.44-3.46-3.44c-1.91.0-3.46 1.54-3.46 3.44s1.55 3.44 3.46 3.44z" fill="#fff"/><g opacity=".72"><path opacity=".72" d="M17.153 116.386c4.14.0 7.496-3.336 7.496-7.452s-3.356-7.452-7.496-7.452c-4.14.0-7.496 3.336-7.496 7.452s3.357 7.452 7.496 7.452z" fill="#6d7bc2"/><path opacity=".72" d="M20.613 108.289c.072-.287.072-.502.072-.788-.072-.932-.865-1.648-1.802-1.72-.576.0-1.225.215-1.585.717-.577-.86-1.802-1.075-2.667-.502-.577.358-.865 1.003-.865 1.648.0.86.504 1.791 1.009 2.436.288.359.576.717.937 1.004.144.143 1.153 1.074 1.37.931 1.369-.502 3.17-2.078 3.531-3.726z" fill="#fff"/></g><path d="M249.38 285.709c-.216-1.075 2.019-2.938 2.811-3.296 2.739-1.433 7.064-.358 8.577 2.436 3.46 6.306-6.27 15.334-11.388 17.555-.576-.429-14.415-10.748-11.171-17.34 3.243-6.664 10.379-3.296 11.171.645z" fill="#dfe3f2"/><g opacity=".72"><path opacity=".72" d="M435.458 325.563c4.537.0 8.216-3.657 8.216-8.169.0-4.511-3.679-8.168-8.216-8.168-4.538.0-8.217 3.657-8.217 8.168.0 4.512 3.679 8.169 8.217 8.169z" fill="#6d7bc2"/><path opacity=".72" d="M439.278 316.75c.072-.287.072-.574.072-.86-.072-1.004-.937-1.863-1.946-1.863-.649.0-1.298.286-1.73.788-.649-.932-2.018-1.218-2.955-.573-.577.43-.937 1.074-.937 1.791.0.931.576 1.935 1.153 2.723.288.43.649.788 1.009 1.075.216.143 1.225 1.146 1.442 1.074 1.441-.644 3.459-2.364 3.892-4.155z" fill="#fff"/></g><path d="M153.52 76.116c6.807.0 12.325-5.486 12.325-12.253S160.327 51.61 153.52 51.61c-6.807.0-12.325 5.486-12.325 12.253s5.518 12.253 12.325 12.253z" fill="#6d7bc2"/><path d="M153.448 48.17c-5.622.0-10.884 3.01-13.695 7.811 2.811 4.873 8.001 7.81 13.695 7.81 5.622.0 10.883-3.009 13.694-7.81-2.811-4.8-8.072-7.81-13.694-7.81z" fill="#ced3eb"/><path d="M157.123 59.85l-.432-.286 4.252-6.09.433.286-4.253 6.09zm-8.937 11.107 1.225-1.791 1.154.788-1.226 1.791-1.153-.788zm9.658-9.459-5.838 8.312c-.288.43-.865.645-1.153.43l-1.658-1.146c-.36-.215-.36-.788.0-1.218l5.838-8.312c.289-.43.865-.645 1.153-.43l1.658 1.146c.289.215.289.788.0 1.218zm-7.135 12.182c-.144.143-.289.286-.433.358l-3.82-2.65c-.288-.216-.288-.646.0-1.004.144-.143.288-.287.504-.358l3.82 2.652c.144.214.144.644-.072 1.003z" fill="#fff"/><path d="M440.538 151.714c5.294.0 9.586-4.266 9.586-9.53.0-5.263-4.292-9.53-9.586-9.53-5.295.0-9.586 4.267-9.586 9.53.0 5.264 4.291 9.53 9.586 9.53z" fill="#6d7bc2"/><path d="M440.538 130.003c-4.397.0-8.433 2.293-10.596 6.091-2.162 3.797-2.162 8.455.0 12.181 2.163 3.798 6.271 6.091 10.596 6.091 4.396.0 8.432-2.293 10.595-6.091 2.162-3.798 2.162-8.455.0-12.181z" fill="#6d7bc2"/><path d="M443.349 139.103l-.361-.215 3.316-4.729.36.215-3.315 4.729zm-6.92 8.67.937-1.361.865.573-.937 1.362-.865-.574zm7.496-7.38-4.541 6.449c-.216.358-.648.502-.864.287l-1.298-.932c-.288-.143-.288-.573.0-.931l4.541-6.449c.216-.359.649-.502.865-.287l1.297.86c.216.215.288.645.0 1.003zm-5.55 9.458c-.072.144-.216.215-.36.287-.144.072-.288.072-.36.0l-2.955-2.078c-.217-.143-.217-.502.0-.788.072-.143.216-.215.36-.287.144-.071.288.0.36.072l2.955 2.078c.217.072.217.43.0.716z" fill="#fff"/></svg>