<svg width="24" height="24" viewBox="0 0 24 24" fill="none" xmlns="http://www.w3.org/2000/svg"><path fill-rule="evenodd" clip-rule="evenodd" d="M10.1958 2.33496C8.67705 2.33496 7.44583 3.56618 7.44583 5.08496v0C7.44583 5.66714 6.97388 6.1391 6.39169 6.1391H5.3119C3.92501 6.1391 2.75516 7.17182 2.58314 8.548L2.17191 11.8378C2.00216 13.1958 2.85679 14.4719 4.1771 14.832L10.7502 16.6247C11.5685 16.8479 12.4316 16.8479 13.2498 16.6247l6.5731-1.7927C21.1433 14.4719 21.9979 13.1958 21.8281 11.8378L21.4169 8.548C21.2449 7.17182 20.075 6.1391 18.6881 6.1391H17.6083C17.0261 6.1391 16.5541 5.66714 16.5541 5.08496v0C16.5541 3.56618 15.3229 2.33496 13.8041 2.33496H10.1958zM15.7985 7.6391C15.8004 7.63911 15.8023 7.63912 15.8041 7.63912 15.806 7.63912 15.8079 7.63911 15.8098 7.6391H18.6881C19.3186 7.6391 19.8503 8.10852 19.9285 8.73406L20.3397 12.0239C20.4169 12.6411 20.0284 13.2212 19.4283 13.3849L12.8552 15.1775C12.2953 15.3302 11.7048 15.3302 11.1449 15.1775L4.57178 13.3849C3.97163 13.2212 3.58317 12.6411 3.66032 12.0239L4.07155 8.73406C4.14974 8.10852 4.6815 7.6391 5.3119 7.6391H8.19016C8.19205 7.63911 8.19394 7.63912 8.19583 7.63912 8.19772 7.63912 8.19961 7.63911 8.2015 7.6391H15.7985zM14 6.1391C14.5822 6.1391 15.0541 5.66714 15.0541 5.08496v0C15.0541 4.3946 14.4945 3.83496 13.8041 3.83496H10.1958C9.50548 3.83496 8.94583 4.3946 8.94583 5.08496v0C8.94583 5.66714 9.41779 6.1391 9.99997 6.1391H14z" fill="#4555a5"/><path fill-rule="evenodd" clip-rule="evenodd" d="M3.54632 13.3138C3.96652 13.3138 4.30716 13.6545 4.30716 14.0747v4.6495C4.30716 19.2378 4.72349 19.6541 5.23706 19.6541H18.763C19.2765 19.6541 19.6929 19.2378 19.6929 18.7242V14.0747C19.6929 13.6545 20.0335 13.3138 20.4537 13.3138 20.8739 13.3138 21.2145 13.6545 21.2145 14.0747v4.6495C21.2145 20.0782 20.1169 21.1758 18.763 21.1758H5.23706C3.8831 21.1758 2.78549 20.0782 2.78549 18.7242V14.0747C2.78549 13.6545 3.12613 13.3138 3.54632 13.3138z" fill="#4555a5"/></svg>