<svg width="24" height="24" viewBox="0 0 24 24" fill="none" xmlns="http://www.w3.org/2000/svg">
<path fill-rule="evenodd" clip-rule="evenodd" d="M8.25 2.75C8.25 2.33579 7.91421 2 7.5 2C7.08579 2 6.75 2.33579 6.75 2.75V4.25002H6C3.92893 4.25002 2.25 5.92896 2.25 8.00002V9.00002V9.75002V18C2.25 20.0711 3.92893 21.75 6 21.75H18C20.0711 21.75 21.75 20.0711 21.75 18V9.75002V9.00002V8.00002C21.75 5.92896 20.0711 4.25002 18 4.25002H17.25V2.75C17.25 2.33579 16.9142 2 16.5 2C16.0858 2 15.75 2.33579 15.75 2.75V4.25002H8.25V2.75ZM15.75 6.75V5.75002H8.25V6.75C8.25 7.16421 7.91421 7.5 7.5 7.5C7.08579 7.5 6.75 7.16421 6.75 6.75V5.75002H6C4.75736 5.75002 3.75 6.75738 3.75 8.00002V8.25002H20.25V8.00002C20.25 6.75738 19.2426 5.75002 18 5.75002H17.25V6.75C17.25 7.16421 16.9142 7.5 16.5 7.5C16.0858 7.5 15.75 7.16421 15.75 6.75ZM20.25 9.75002H3.75V18C3.75 19.2427 4.75736 20.25 6 20.25H18C19.2426 20.25 20.25 19.2427 20.25 18V9.75002ZM8 12.1859C7.58579 12.1859 7.25 12.5217 7.25 12.9359C7.25 13.3501 7.58579 13.6859 8 13.6859H10C10.4142 13.6859 10.75 13.3501 10.75 12.9359C10.75 12.5217 10.4142 12.1859 10 12.1859H8ZM14 12.1859C13.5858 12.1859 13.25 12.5217 13.25 12.9359C13.25 13.3501 13.5858 13.6859 14 13.6859H16C16.4142 13.6859 16.75 13.3501 16.75 12.9359C16.75 12.5217 16.4142 12.1859 16 12.1859H14ZM8 16.1859C7.58579 16.1859 7.25 16.5217 7.25 16.9359C7.25 17.3501 7.58579 17.6859 8 17.6859H10C10.4142 17.6859 10.75 17.3501 10.75 16.9359C10.75 16.5217 10.4142 16.1859 10 16.1859H8ZM14 16.1859C13.5858 16.1859 13.25 16.5217 13.25 16.9359C13.25 17.3501 13.5858 17.6859 14 17.6859H16C16.4142 17.6859 16.75 17.3501 16.75 16.9359C16.75 16.5217 16.4142 16.1859 16 16.1859H14Z" fill="#333333"/>
</svg>
