<svg width="24" height="24" viewBox="0 0 24 24" fill="none" xmlns="http://www.w3.org/2000/svg"><path fill-rule="evenodd" clip-rule="evenodd" d="M8.25 2.75C8.25 2.33579 7.91421 2 7.5 2 7.08579 2 6.75 2.33579 6.75 2.75V4.25002H6C3.92893 4.25002 2.25 5.92896 2.25 8.00002v1 .75V18C2.25 20.0711 3.92893 21.75 6 21.75H18C20.0711 21.75 21.75 20.0711 21.75 18V9.75002v-.75-1C21.75 5.92896 20.0711 4.25002 18 4.25002h-.75V2.75C17.25 2.33579 16.9142 2 16.5 2 16.0858 2 15.75 2.33579 15.75 2.75V4.25002H8.25V2.75zm7.5 4V5.75002H8.25V6.75C8.25 7.16421 7.91421 7.5 7.5 7.5 7.08579 7.5 6.75 7.16421 6.75 6.75V5.75002H6C4.75736 5.75002 3.75 6.75738 3.75 8.00002v.25h16.5v-.25C20.25 6.75738 19.2426 5.75002 18 5.75002h-.75V6.75C17.25 7.16421 16.9142 7.5 16.5 7.5 16.0858 7.5 15.75 7.16421 15.75 6.75zM20.25 9.75002H3.75V18C3.75 19.2427 4.75736 20.25 6 20.25H18C19.2426 20.25 20.25 19.2427 20.25 18V9.75002zM7 11.25C6.58579 11.25 6.25 11.5858 6.25 12 6.25 12.4142 6.58579 12.75 7 12.75H8.42857C8.84278 12.75 9.17857 12.4142 9.17857 12 9.17857 11.5858 8.84278 11.25 8.42857 11.25H7zm4.2857.0C10.8715 11.25 10.5357 11.5858 10.5357 12 10.5357 12.4142 10.8715 12.75 11.2857 12.75H12.7143C13.1285 12.75 13.4643 12.4142 13.4643 12 13.4643 11.5858 13.1285 11.25 12.7143 11.25H11.2857zm4.2857.0C15.1572 11.25 14.8214 11.5858 14.8214 12 14.8214 12.4142 15.1572 12.75 15.5714 12.75H17C17.4142 12.75 17.75 12.4142 17.75 12 17.75 11.5858 17.4142 11.25 17 11.25H15.5714zM7 14.25C6.58579 14.25 6.25 14.5858 6.25 15 6.25 15.4142 6.58579 15.75 7 15.75H8.42857C8.84278 15.75 9.17857 15.4142 9.17857 15 9.17857 14.5858 8.84278 14.25 8.42857 14.25H7zm4.2857.0C10.8715 14.25 10.5357 14.5858 10.5357 15 10.5357 15.4142 10.8715 15.75 11.2857 15.75H12.7143C13.1285 15.75 13.4643 15.4142 13.4643 15 13.4643 14.5858 13.1285 14.25 12.7143 14.25H11.2857zm4.2857.0C15.1572 14.25 14.8214 14.5858 14.8214 15 14.8214 15.4142 15.1572 15.75 15.5714 15.75H17C17.4142 15.75 17.75 15.4142 17.75 15 17.75 14.5858 17.4142 14.25 17 14.25H15.5714zM7 17.25C6.58579 17.25 6.25 17.5858 6.25 18 6.25 18.4142 6.58579 18.75 7 18.75H8.42857C8.84278 18.75 9.17857 18.4142 9.17857 18 9.17857 17.5858 8.84278 17.25 8.42857 17.25H7zm4.2857.0C10.8715 17.25 10.5357 17.5858 10.5357 18 10.5357 18.4142 10.8715 18.75 11.2857 18.75H12.7143C13.1285 18.75 13.4643 18.4142 13.4643 18 13.4643 17.5858 13.1285 17.25 12.7143 17.25H11.2857zm4.2857.0C15.1572 17.25 14.8214 17.5858 14.8214 18 14.8214 18.4142 15.1572 18.75 15.5714 18.75H17C17.4142 18.75 17.75 18.4142 17.75 18 17.75 17.5858 17.4142 17.25 17 17.25H15.5714z" fill="#333"/></svg>