<svg width="24" height="24" viewBox="0 0 24 24" fill="none" xmlns="http://www.w3.org/2000/svg">
<path fill-rule="evenodd" clip-rule="evenodd" d="M12.4605 3.40799C12.1896 3.19734 11.8104 3.19734 11.5395 3.40799L2.53955 10.408C2.21259 10.6623 2.15369 11.1335 2.40799 11.4605C2.66229 11.7874 3.1335 11.8463 3.46046 11.592L4.25 10.9779V20C4.25 20.4142 4.58579 20.75 5 20.75H19C19.4142 20.75 19.75 20.4142 19.75 20V10.9779L20.5395 11.592C20.8665 11.8463 21.3377 11.7874 21.592 11.4605C21.8463 11.1335 21.7874 10.6623 21.4605 10.408L12.4605 3.40799ZM18.2701 9.82688L12 4.95015L5.72992 9.82688C5.74306 9.88245 5.75 9.94041 5.75 10V19.25H18.25V10C18.25 9.94041 18.257 9.88245 18.2701 9.82688ZM12 9.25C12.4142 9.25 12.75 9.58579 12.75 10V12.25H15C15.4142 12.25 15.75 12.5858 15.75 13C15.75 13.4142 15.4142 13.75 15 13.75H12.75V16C12.75 16.4142 12.4142 16.75 12 16.75C11.5858 16.75 11.25 16.4142 11.25 16V13.75H9C8.58579 13.75 8.25 13.4142 8.25 13C8.25 12.5858 8.58579 12.25 9 12.25H11.25V10C11.25 9.58579 11.5858 9.25 12 9.25Z" fill="#333333"/>
</svg>
