<svg width="24" height="25" viewBox="0 0 24 25" fill="none" xmlns="http://www.w3.org/2000/svg">
<path fill-rule="evenodd" clip-rule="evenodd" d="M12 3.81409C8.54822 3.81409 5.75 6.61231 5.75 10.0641C5.75 12.3069 6.8361 14.4552 8.19399 16.2523C9.54411 18.0391 11.1018 19.3979 11.908 20.0466C11.9412 20.0733 11.9732 20.0818 12 20.0818C12.0268 20.0818 12.0588 20.0733 12.092 20.0466C12.8982 19.3979 14.4559 18.0391 15.806 16.2523C17.1639 14.4552 18.25 12.3069 18.25 10.0641C18.25 6.61231 15.4518 3.81409 12 3.81409ZM4.25 10.0641C4.25 5.78388 7.71979 2.31409 12 2.31409C16.2802 2.31409 19.75 5.78388 19.75 10.0641C19.75 12.7771 18.4483 15.2436 17.0028 17.1566C15.5495 19.0799 13.8883 20.5265 13.0323 21.2153C12.4249 21.704 11.5751 21.704 10.9677 21.2153C10.1117 20.5265 8.45047 19.0799 6.99722 17.1566C5.55174 15.2436 4.25 12.7771 4.25 10.0641Z" fill="#333333"/>
<path fill-rule="evenodd" clip-rule="evenodd" d="M12 7.81409C10.7574 7.81409 9.75 8.82145 9.75 10.0641C9.75 11.3067 10.7574 12.3141 12 12.3141C13.2426 12.3141 14.25 11.3067 14.25 10.0641C14.25 8.82145 13.2426 7.81409 12 7.81409ZM8.25 10.0641C8.25 7.99302 9.92893 6.31409 12 6.31409C14.0711 6.31409 15.75 7.99302 15.75 10.0641C15.75 12.1352 14.0711 13.8141 12 13.8141C9.92893 13.8141 8.25 12.1352 8.25 10.0641Z" fill="#333333"/>
</svg>
