<svg width="24" height="25" viewBox="0 0 24 25" fill="none" xmlns="http://www.w3.org/2000/svg">
<path d="M14 10.0641L13.7 17.0641M10.3 17.0641L10 10.0641M6 6.06409L6.87554 19.1971C6.94558 20.2477 7.81818 21.0641 8.87111 21.0641H15.1289C16.1818 21.0641 17.0544 20.2477 17.1245 19.1971L18 6.06409M6 6.06409H9M6 6.06409H4M18 6.06409H20M18 6.06409H15M15 6.06409V5.06409C15 3.95952 14.1046 3.06409 13 3.06409H11C9.89543 3.06409 9 3.95952 9 5.06409V6.06409M15 6.06409H9" stroke="#333333" stroke-width="1.5" stroke-linecap="round" stroke-linejoin="round"/>
</svg>
