<svg width="24" height="24" viewBox="0 0 24 24" fill="none" xmlns="http://www.w3.org/2000/svg"><path d="M7.85714 3H6.25C5.55952 3 5 3.564 5 4.26V6.90399C5 9.68798 7.21825 11.988 9.98413 12 12.754 12.008 15 9.74798 15 6.95999V4.26C15 3.564 14.4405 3 13.75 3H12.1429" stroke="#333" stroke-width="1.5" stroke-miterlimit="10" stroke-linecap="round" stroke-linejoin="round"/><path d="M10 12v6C10 20.2074 11.7926 22 14 22 16.2074 22 18 20.2074 18 18V16" stroke="#333" stroke-width="1.5" stroke-miterlimit="10" stroke-linecap="round" stroke-linejoin="round"/><path d="M18 16C19.1046 16 20 15.1046 20 14 20 12.8954 19.1046 12 18 12 16.8954 12 16 12.8954 16 14 16 15.1046 16.8954 16 18 16z" stroke="#333" stroke-width="1.5" stroke-miterlimit="10" stroke-linecap="round" stroke-linejoin="round"/></svg>