<svg width="24" height="24" fill="none" xmlns="http://www.w3.org/2000/svg"><path d="M21.32 20.976l-.915-5.18a1.492 1.492 0 00-1.068-1.17l-2.466-.72a2.614 2.614 0 00-.71-1.569 2.764 2.764 0 00-1.2-.742c.079-.084.152-.168.218-.25.586-.721.9-1.516.98-2.059h.19c.495 0 .898-.39.898-.868v-.445a.87.87 0 00-.465-.76v-1.07a.298.298 0 00-.303-.293.298.298 0 00-.303.293v1.202a1.926 1.926 0 00-.542.177v-2.36c0-.652-.549-1.183-1.222-1.183h-.836c-.288 0-.57.098-.793.274l-.082.065a.866.866 0 01-1.07 0l-.083-.065a1.282 1.282 0 00-.793-.274H9.92c-.674 0-1.222.53-1.222 1.183v2.36a1.574 1.574 0 00-.14-.065 1.897 1.897 0 00-.403-.112v-3.04c0-.948.798-1.72 1.778-1.72h4.465c.98 0 1.778.772 1.778 1.72v.461c0 .162.136.293.303.293a.298.298 0 00.303-.293v-.46c0-1.272-1.07-2.306-2.383-2.306H9.933C8.62 2 7.55 3.034 7.55 4.306v2.907a.87.87 0 00-.465.76v.445c0 .479.403.868.898.868h.19c.08.543.394 1.338.98 2.06.067.081.139.165.217.248-1.049.323-1.814 1.235-1.909 2.312l-2.466.72c-.56.164-.97.612-1.068 1.17L3.556 17.9c-.029.159.083.31.247.338a.302.302 0 00.35-.24l.37-2.104a.903.903 0 01.647-.707l2.28-.666v.579c-.522.093-.967.44-1.15.922a1.449 1.449 0 00-.09.398l-.22 2.738a.732.732 0 00.202.563c.145.152.35.24.565.24h.377a.298.298 0 00.303-.293.298.298 0 00-.303-.293h-.377a.167.167 0 01-.12-.051.157.157 0 01-.044-.12l.22-2.738a.883.883 0 01.055-.241c.128-.336.472-.562.857-.565h.057a.91.91 0 01.845.524c.04.09.063.184.071.282l.22 2.738a.155.155 0 01-.043.12.167.167 0 01-.12.05h-.378a.298.298 0 00-.302.294c0 .161.135.293.302.293h.378c.214 0 .42-.088.565-.24a.731.731 0 00.202-.563l-.22-2.738a1.435 1.435 0 00-.117-.464 1.49 1.49 0 00-1.128-.858v-.754l1.04-.304c.095.193.282.61.654 1.509a240.3 240.3 0 011.298 3.226c.298.755.587 1.494.834 2.13.044.115.157.19.283.19a.303.303 0 00.284-.19 361.662 361.662 0 01.845-2.157c.446-1.13.911-2.291 1.285-3.198.373-.9.56-1.317.655-1.51l1.04.304v1.73c-.72.136-1.267.751-1.267 1.488 0 .835.702 1.515 1.566 1.515.864 0 1.566-.68 1.566-1.515 0-.735-.543-1.348-1.26-1.486V14.52l2.282.666c.338.1.586.37.646.708l.914 5.18a.279.279 0 01-.067.236.3.3 0 01-.23.104H3.906a.3.3 0 01-.23-.104.28.28 0 01-.066-.236l.302-1.71a.294.294 0 00-.248-.337.302.302 0 00-.35.24l-.301 1.709a.856.856 0 00.2.712.92.92 0 00.693.311h16.521c.268 0 .52-.113.693-.311a.853.853 0 00.2-.713zM16.18 7.94c.161-.039.29-.038.292-.038a.317.317 0 00.148-.034.272.272 0 01.021.103v.446a.288.288 0 01-.292.282h-.17l.001-.759zm-8.028.76h-.17a.288.288 0 01-.292-.283v-.446c0-.036.008-.07.022-.103a.314.314 0 00.147.034c.003 0 .132 0 .293.038v.76zm.605.328v-.77a.435.435 0 00.285-.014.41.41 0 00.262-.38V5.162c0-.33.276-.597.617-.597h.835c.15 0 .295.05.41.141l.082.065a1.486 1.486 0 001.837 0l.082-.065a.663.663 0 01.41-.141h.835c.34 0 .617.267.617.597v2.703a.41.41 0 00.262.38.435.435 0 00.285.014v.77c0 .427-.306 1.258-.872 1.954-.188.231-.429.48-.726.695l-.027.02c-.46.33-1.05.581-1.784.581a3.015 3.015 0 01-1.81-.6 3.938 3.938 0 01-.726-.696c-.568-.696-.874-1.527-.874-1.954zm5.392 4.732l-1.983 1.434-1.983-1.434c.197-.242.307-.553.307-.83v-.472a3.585 3.585 0 001.676.406c.654 0 1.21-.163 1.676-.406v.472c0 .277.11.588.307.83zm-4.471-.327a.858.858 0 00-.533-.02L8.1 13.72c.177-.842.883-1.512 1.784-1.642v.853a.76.76 0 01-.207.503zm.821 2.35l-.002-.003-.045-.112-.008-.02-.044-.106-.003-.007a134.925 134.925 0 00-.174-.421l-.013-.03-.034-.081-.01-.024-.058-.14-.016-.037-.022-.052-.024-.056-.008-.02-.007-.016-.1-.233v-.002c-.018-.038-.034-.076-.05-.113a3.733 3.733 0 00-.024-.055l1.706 1.233-.713.293-.004.002-.297.122-.05-.121zm3.063.668l-1.096 2.765v-3.215l1.096.45zm-1.696 2.742l-1.096-2.742 1.096-.45v3.192zm2.584-4.882l-.046.106a22.727 22.727 0 00-.055.127c0 .003-.002.005-.003.008l-.044.102-.008.02-.01.024-.02.047-.025.06a63.07 63.07 0 01-.073.174l-.01.025-.034.08-.013.031-.035.084-.01.024c-.042.099-.084.202-.128.31l-.005.01-.043.105-.008.02-.046.112v.002l-.051.123-.298-.122-.003-.001-.713-.293 1.705-1.233-.024.055zm.736-.897a.854.854 0 00-.532.019.76.76 0 01-.206-.503v-.853c.907.13 1.61.793 1.785 1.642l-1.047-.306zm2.35 4.147c0 .512-.431.93-.961.93s-.961-.418-.961-.93c0-.513.431-.93.96-.93.53 0 .962.417.962.93z" fill="#333"/></svg>