<svg width="24" height="25" viewBox="0 0 24 25" fill="none" xmlns="http://www.w3.org/2000/svg">
<path fill-rule="evenodd" clip-rule="evenodd" d="M16.109 2.68557C15.6208 2.19742 14.8294 2.19742 14.3412 2.68557L4.3667 12.6601C4.13228 12.8945 4.00058 13.2125 4.00058 13.544V16.3284C4.00058 17.0188 4.56023 17.5784 5.25058 17.5784H8.03499C8.36651 17.5784 8.68445 17.4467 8.91887 17.2123L18.8934 7.23775C19.3816 6.74959 19.3816 5.95813 18.8934 5.46998L16.109 2.68557ZM5.50058 13.6475L15.2251 3.92301L17.656 6.35386L7.93143 16.0784H5.50058V13.6475ZM4.75 19.57C4.33579 19.57 4 19.9058 4 20.32C4 20.7343 4.33579 21.07 4.75 21.07H18.716C19.1303 21.07 19.466 20.7343 19.466 20.32C19.466 19.9058 19.1303 19.57 18.716 19.57H4.75Z" fill="#333333"/>
</svg>
