<svg width="24" height="24" viewBox="0 0 24 24" fill="none" xmlns="http://www.w3.org/2000/svg">
<mask id="path-1-inside-1" fill="white">
<path fill-rule="evenodd" clip-rule="evenodd" d="M19.9504 8.65196C19.2837 9.31863 18.9504 9.65196 18.5362 9.65196C18.122 9.65196 17.7886 9.31863 17.122 8.65196L15.3471 6.87707C14.6804 6.21041 14.3471 5.87707 14.3471 5.46286C14.3471 5.04864 14.6804 4.71531 15.3471 4.04864L15.3957 4C16.0624 3.33333 16.3957 3 16.8099 3C17.2242 3 17.5575 3.33333 18.2242 4L19.999 5.77488C20.6657 6.44155 20.9991 6.77489 20.9991 7.1891C20.9991 7.60332 20.6657 7.93665 19.999 8.60332L19.9504 8.65196ZM5 20.999C4.05719 20.999 3.58579 20.999 3.29289 20.7061C3 20.4132 3 19.9418 3 18.999V17.2241C3 16.8154 3 16.611 3.07612 16.4272C3.15224 16.2434 3.29676 16.0989 3.58579 15.8099L11.3679 8.02786C12.0345 7.3612 12.3679 7.02786 12.7821 7.02786C13.1963 7.02786 13.5296 7.3612 14.1963 8.02786L15.9712 9.80275C16.6378 10.4694 16.9712 10.8028 16.9712 11.217C16.9712 11.6312 16.6378 11.9645 15.9712 12.6312L8.18911 20.4132C7.90008 20.7022 7.75557 20.8468 7.5718 20.9229C7.38803 20.999 7.18365 20.999 6.7749 20.999H5Z"/>
</mask>
<path d="M8.18911 20.4132L9.24977 21.4739L8.18911 20.4132ZM7.5718 20.9229L8.14582 22.3087L7.5718 20.9229ZM15.9712 9.80275L14.9105 10.8634L15.9712 9.80275ZM16.9712 11.217H15.4712H16.9712ZM11.3679 8.02786L12.4285 9.08852L11.3679 8.02786ZM12.7821 7.02786V8.52786V7.02786ZM3.29289 20.7061L4.35355 19.6454L3.29289 20.7061ZM3.58579 15.8099L2.52513 14.7492L3.58579 15.8099ZM3.07612 16.4272L4.46194 17.0012L3.07612 16.4272ZM19.999 8.60332L18.9384 7.54266L19.999 8.60332ZM15.3957 4L14.3351 2.93933L15.3957 4ZM16.8099 3V1.5V3ZM17.122 8.65196L16.0613 9.71262L17.122 8.65196ZM19.9504 8.65196L18.8897 7.5913L19.9504 8.65196ZM18.5362 9.65196V8.15196V9.65196ZM15.3471 6.87707L14.2864 7.93774L15.3471 6.87707ZM15.3471 4.04864L14.2864 2.98798L15.3471 4.04864ZM14.3471 5.46286H12.8471H14.3471ZM14.2864 7.93774L16.0613 9.71262L18.1826 7.5913L16.4077 5.81641L14.2864 7.93774ZM14.3351 2.93933L14.2864 2.98798L16.4077 5.1093L16.4564 5.06066L14.3351 2.93933ZM21.0597 4.71422L19.2848 2.93934L17.1635 5.06066L18.9384 6.83555L21.0597 4.71422ZM21.0111 9.71263L21.0597 9.66398L18.9384 7.54266L18.8897 7.5913L21.0111 9.71263ZM1.5 17.2241V18.999H4.5V17.2241H1.5ZM10.3072 6.9672L2.52513 14.7492L4.64645 16.8706L12.4285 9.08852L10.3072 6.9672ZM17.0318 8.74209L15.2569 6.9672L13.1356 9.08852L14.9105 10.8634L17.0318 8.74209ZM9.24977 21.4739L17.0318 13.6918L14.9105 11.5705L7.12845 19.3526L9.24977 21.4739ZM5 22.499H6.7749V19.499H5V22.499ZM7.12845 19.3526C7.05392 19.4271 6.99926 19.4817 6.95189 19.5277C6.9048 19.5734 6.87843 19.5973 6.86378 19.6099C6.8502 19.6215 6.85837 19.6133 6.88306 19.5971C6.91064 19.579 6.94979 19.5569 6.99777 19.5371L8.14582 22.3087C8.66935 22.0918 9.04728 21.6764 9.24977 21.4739L7.12845 19.3526ZM6.7749 22.499C7.06126 22.499 7.62229 22.5256 8.14582 22.3087L6.99777 19.5371C7.04575 19.5172 7.08907 19.5051 7.12135 19.4984C7.15025 19.4924 7.16185 19.4924 7.14401 19.4938C7.12475 19.4953 7.0892 19.497 7.02358 19.498C6.95757 19.499 6.88031 19.499 6.7749 19.499V22.499ZM14.9105 10.8634C15.0811 11.034 15.2123 11.1654 15.3216 11.2803C15.4314 11.3958 15.4932 11.4679 15.5286 11.5144C15.5635 11.5601 15.5478 11.5488 15.5242 11.4923C15.4957 11.4239 15.4712 11.3268 15.4712 11.217H18.4712C18.4712 10.55 18.1822 10.0465 17.9137 9.69465C17.6716 9.3774 17.3352 9.04544 17.0318 8.74209L14.9105 10.8634ZM17.0318 13.6918C17.3352 13.3885 17.6716 13.0565 17.9137 12.7393C18.1822 12.3874 18.4712 11.8839 18.4712 11.217H15.4712C15.4712 11.1071 15.4957 11.01 15.5242 10.9416C15.5478 10.8852 15.5635 10.8738 15.5286 10.9195C15.4932 10.966 15.4314 11.0382 15.3216 11.1536C15.2123 11.2686 15.0811 11.3999 14.9105 11.5705L17.0318 13.6918ZM12.4285 9.08852C12.5991 8.91791 12.7305 8.78672 12.8454 8.67744C12.9609 8.56765 13.033 8.50585 13.0795 8.4704C13.1252 8.43554 13.1139 8.45127 13.0574 8.47481C12.989 8.50333 12.8919 8.52786 12.7821 8.52786V5.52786C12.1151 5.52786 11.6116 5.81686 11.2598 6.08533C10.9425 6.32739 10.6105 6.66385 10.3072 6.9672L12.4285 9.08852ZM15.2569 6.9672C14.9536 6.66385 14.6216 6.32739 14.3044 6.08533C13.9525 5.81686 13.449 5.52786 12.7821 5.52786V8.52786C12.6722 8.52786 12.5751 8.50333 12.5067 8.47481C12.4503 8.45127 12.4389 8.43554 12.4846 8.4704C12.5311 8.50585 12.6033 8.56765 12.7187 8.67744C12.8337 8.78672 12.965 8.91791 13.1356 9.08852L15.2569 6.9672ZM1.5 18.999C1.5 19.428 1.49681 19.9006 1.54999 20.2961C1.60896 20.7348 1.76063 21.2952 2.23223 21.7668L4.35355 19.6454C4.43125 19.7231 4.48256 19.8092 4.51075 19.8777C4.53402 19.9342 4.53089 19.9534 4.52324 19.8964C4.51545 19.8385 4.50812 19.7438 4.5041 19.5845C4.5001 19.4259 4.5 19.2403 4.5 18.999H1.5ZM5 19.499C4.75872 19.499 4.57309 19.4989 4.41455 19.4949C4.25525 19.4909 4.16052 19.4836 4.1026 19.4758C4.04564 19.4681 4.06476 19.465 4.12132 19.4882C4.18985 19.5164 4.27586 19.5678 4.35355 19.6454L2.23223 21.7668C2.70383 22.2384 3.26421 22.39 3.70286 22.449C4.09835 22.5022 4.571 22.499 5 22.499V19.499ZM4.5 17.2241C4.5 17.1187 4.50003 17.0415 4.50102 16.9754C4.502 16.9098 4.50374 16.8743 4.5052 16.855C4.50656 16.8372 4.50661 16.8488 4.50059 16.8777C4.49387 16.9099 4.48181 16.9533 4.46194 17.0012L1.6903 15.8532C1.47345 16.3767 1.5 16.9378 1.5 17.2241H4.5ZM2.52513 14.7492C2.32264 14.9517 1.90715 15.3297 1.6903 15.8532L4.46194 17.0012C4.44207 17.0492 4.41996 17.0884 4.40189 17.116C4.38571 17.1407 4.37747 17.1488 4.38912 17.1352C4.40171 17.1206 4.42562 17.0942 4.47133 17.0471C4.51731 16.9998 4.57191 16.9451 4.64645 16.8706L2.52513 14.7492ZM18.9384 6.83555C19.109 7.00616 19.2402 7.13749 19.3495 7.25242C19.4593 7.36791 19.5211 7.44007 19.5565 7.48654C19.5914 7.53223 19.5756 7.52092 19.5521 7.46447C19.5236 7.39608 19.4991 7.29898 19.4991 7.1891H22.4991C22.4991 6.52216 22.2101 6.01866 21.9416 5.66679C21.6995 5.34953 21.3631 5.01757 21.0597 4.71422L18.9384 6.83555ZM21.0597 9.66398C21.3631 9.36063 21.6995 9.02867 21.9416 8.71141C22.2101 8.35954 22.4991 7.85605 22.4991 7.1891H19.4991C19.4991 7.07922 19.5236 6.98212 19.5521 6.91373C19.5756 6.85729 19.5914 6.84597 19.5565 6.89167C19.5211 6.93813 19.4593 7.01029 19.3495 7.12578C19.2402 7.24071 19.109 7.37205 18.9384 7.54266L21.0597 9.66398ZM16.4564 5.06066C16.627 4.89005 16.7583 4.75886 16.8733 4.64958C16.9887 4.53978 17.0609 4.47798 17.1074 4.44253C17.1531 4.40767 17.1418 4.42341 17.0853 4.44694C17.0169 4.47546 16.9198 4.5 16.8099 4.5V1.5C16.143 1.5 15.6395 1.789 15.2876 2.05747C14.9704 2.29952 14.6384 2.63599 14.3351 2.93933L16.4564 5.06066ZM19.2848 2.93934C18.9815 2.63599 18.6495 2.29952 18.3322 2.05747C17.9804 1.789 17.4769 1.5 16.8099 1.5V4.5C16.7001 4.5 16.603 4.47546 16.5346 4.44694C16.4781 4.42341 16.4668 4.40767 16.5125 4.44253C16.559 4.47798 16.6311 4.53978 16.7466 4.64958C16.8616 4.75886 16.9929 4.89005 17.1635 5.06066L19.2848 2.93934ZM16.0613 9.71262C16.3647 10.016 16.6966 10.3524 17.0139 10.5945C17.3658 10.863 17.8692 11.152 18.5362 11.152V8.15196C18.6461 8.15196 18.7432 8.1765 18.8116 8.20502C18.868 8.22855 18.8793 8.24429 18.8336 8.20943C18.7872 8.17398 18.715 8.11218 18.5995 8.00238C18.4846 7.8931 18.3532 7.76191 18.1826 7.5913L16.0613 9.71262ZM18.8897 7.5913C18.7191 7.76191 18.5878 7.8931 18.4729 8.00238C18.3574 8.11218 18.2852 8.17398 18.2388 8.20943C18.1931 8.24429 18.2044 8.22855 18.2608 8.20502C18.3292 8.1765 18.4263 8.15196 18.5362 8.15196V11.152C19.2031 11.152 19.7066 10.863 20.0585 10.5945C20.3758 10.3524 20.7077 10.016 21.0111 9.71263L18.8897 7.5913ZM16.4077 5.81641C16.2371 5.6458 16.1059 5.51447 15.9967 5.39953C15.8869 5.28405 15.8251 5.21189 15.7896 5.16542C15.7547 5.11973 15.7705 5.13104 15.794 5.18749C15.8225 5.25588 15.8471 5.35298 15.8471 5.46286H12.8471C12.8471 6.1298 13.1361 6.6333 13.4045 6.98517C13.6466 7.30243 13.9831 7.63439 14.2864 7.93774L16.4077 5.81641ZM14.2864 2.98798C13.9831 3.29133 13.6466 3.62329 13.4045 3.94055C13.1361 4.29242 12.8471 4.79591 12.8471 5.46286H15.8471C15.8471 5.57274 15.8225 5.66984 15.794 5.73823C15.7705 5.79467 15.7547 5.80599 15.7896 5.76029C15.8251 5.71383 15.8869 5.64166 15.9967 5.52618C16.1059 5.41125 16.2371 5.27991 16.4077 5.1093L14.2864 2.98798Z" fill="#828282" mask="url(#path-1-inside-1)"/>
</svg>
