<svg width="24" height="24" viewBox="0 0 24 24" fill="none" xmlns="http://www.w3.org/2000/svg"><path fill-rule="evenodd" clip-rule="evenodd" d="M12.6504 7.83269C12.2264 7.72244 11.7736 7.72244 11.3496 7.83269L4.96723 9.49017 11.3423 11.1655C11.7708 11.2781 12.2291 11.2782 12.6576 11.1655L19.0328 9.49017 12.6504 7.83269zM13.0277 6.3809C12.3562 6.20637 11.6438 6.20637 10.9723 6.3809 10.9724 6.38088 10.9723 6.38092 10.9723 6.3809L1.81148 8.75995C1.48123 8.84572 1.25049 9.14359 1.25 9.48479 1.24951 9.82599 1.47938 10.1245 1.80938 10.2112L10.961 12.6162c-9999999999976694e-20.0.0.0.0.0C11.6394 12.7946 12.3605 12.7946 13.0389 12.6162c0 0 9999999999976694e-20.0.0.0L22.1906 10.2112C22.5206 10.1245 22.7505 9.82599 22.75 9.48479 22.7495 9.14359 22.5188 8.84572 22.1885 8.75995L13.0277 6.3809C13.0276 6.38088 13.0277 6.38092 13.0277 6.3809z" fill="#4555a5"/><path fill-rule="evenodd" clip-rule="evenodd" d="M7 10.25C7.41421 10.25 7.75 10.5858 7.75 11V14.4135C7.75 14.6963 7.85689 14.9258 7.98721 15.0512 8.44635 15.4926 9.57349 16.25 12 16.25 14.4262 16.25 15.5534 15.4924 16.0131 15.0508 16.1432 14.9259 16.25 14.6963 16.25 14.4135V11C16.25 10.5858 16.5858 10.25 17 10.25 17.4142 10.25 17.75 10.5858 17.75 11V14.4135C17.75 15.0448 17.5173 15.686 17.0522 16.1327H17.0521C16.2842 16.8702 14.7717 17.75 12 17.75 9.22862 17.75 7.71548 16.8708 6.94752 16.1324H6.94751C6.48339 15.6861 6.25 15.0457 6.25 14.4135V11C6.25 10.5858 6.58579 10.25 7 10.25z" fill="#4555a5"/><path fill-rule="evenodd" clip-rule="evenodd" d="M20 9.25C20.4142 9.25 20.75 9.58579 20.75 10v6C20.75 16.4142 20.4142 16.75 20 16.75 19.5858 16.75 19.25 16.4142 19.25 16V10C19.25 9.58579 19.5858 9.25 20 9.25z" fill="#4555a5"/><path fill-rule="evenodd" clip-rule="evenodd" d="M20 16.75C19.8618 16.75 19.75 16.8618 19.75 17v2C19.75 19.1382 19.8618 19.25 20 19.25 20.138 19.25 20.25 19.138 20.25 19V17C20.25 16.8618 20.1382 16.75 20 16.75zM18.25 17C18.25 16.0334 19.0334 15.25 20 15.25 20.9666 15.25 21.75 16.0334 21.75 17v2C21.75 19.9661 20.9667 20.75 20 20.75 19.0334 20.75 18.25 19.9666 18.25 19V17z" fill="#4555a5"/></svg>