<svg width="25" height="24" viewBox="0 0 25 24" fill="none" xmlns="http://www.w3.org/2000/svg">
<path fill-rule="evenodd" clip-rule="evenodd" d="M21.0458 4H3.95416C2.87491 4 2 4.87491 2 5.95416C2 6.60754 2.32654 7.2177 2.87019 7.58013L4.05525 8.37016L10.8359 12.8906C10.9619 12.9746 11.0926 13.0481 11.2269 13.111C12.167 13.5519 13.2824 13.4784 14.1641 12.8906L20.9448 8.37016L22.1298 7.58013C22.6735 7.2177 23 6.60754 23 5.95416C23 4.87491 22.1251 4 21.0458 4ZM2.5 11C2.5 10.7912 2.52133 10.5874 2.56192 10.3907C2.67644 9.83563 3.33417 9.69222 3.80571 10.0066L10.0038 14.1387C11.5154 15.1464 13.4846 15.1464 14.9962 14.1387L21.1943 10.0066C21.6658 9.69222 22.3236 9.83563 22.4381 10.3907C22.4787 10.5874 22.5 10.7912 22.5 11V18C22.5 19.1046 21.6046 20 20.5 20H4.5C3.39543 20 2.5 19.1046 2.5 18V11Z" fill="#4555A5"/>
</svg>
