<svg width="24" height="25" viewBox="0 0 24 25" fill="none" xmlns="http://www.w3.org/2000/svg">
<path fill-rule="evenodd" clip-rule="evenodd" d="M10.1958 2.39905C8.67705 2.39905 7.44583 3.63026 7.44583 5.14905C7.44583 5.73123 6.97388 6.20319 6.39169 6.20319H5.3119C3.92501 6.20319 2.75516 7.23591 2.58314 8.61209L2.17191 11.9019C2.00216 13.2599 2.85679 14.536 4.1771 14.8961L10.7502 16.6888C11.5685 16.9119 12.4316 16.9119 13.2498 16.6888L19.8229 14.8961C21.1433 14.536 21.9979 13.2599 21.8281 11.9019L21.4169 8.61209C21.2449 7.23591 20.075 6.20319 18.6881 6.20319H17.6083C17.0261 6.20319 16.5541 5.73123 16.5541 5.14905C16.5541 3.63026 15.3229 2.39905 13.8041 2.39905H10.1958ZM15.7985 7.70319C15.8004 7.7032 15.8023 7.70321 15.8041 7.70321C15.806 7.70321 15.8079 7.7032 15.8098 7.70319H18.6881C19.3186 7.70319 19.8503 8.17261 19.9285 8.79814L20.3397 12.088C20.4169 12.7052 20.0284 13.2853 19.4283 13.449L12.8552 15.2416C12.2953 15.3943 11.7048 15.3943 11.1449 15.2416L4.57178 13.449C3.97163 13.2853 3.58317 12.7052 3.66032 12.088L4.07155 8.79814C4.14974 8.17261 4.6815 7.70319 5.3119 7.70319H8.19016C8.19205 7.7032 8.19394 7.70321 8.19583 7.70321C8.19772 7.70321 8.19961 7.7032 8.2015 7.70319H15.7985ZM14 6.20319C14.5822 6.20319 15.0541 5.73123 15.0541 5.14905C15.0541 4.45869 14.4945 3.89905 13.8041 3.89905H10.1958C9.50548 3.89905 8.94583 4.45869 8.94583 5.14905C8.94583 5.73123 9.41779 6.20319 9.99997 6.20319H14Z" fill="#333333"/>
<path fill-rule="evenodd" clip-rule="evenodd" d="M3.54632 13.378C3.96652 13.378 4.30716 13.7186 4.30716 14.1388V18.7883C4.30716 19.3019 4.72349 19.7182 5.23706 19.7182H18.763C19.2765 19.7182 19.6929 19.3019 19.6929 18.7883V14.1388C19.6929 13.7186 20.0335 13.378 20.4537 13.378C20.8739 13.378 21.2145 13.7186 21.2145 14.1388V18.7883C21.2145 20.1423 20.1169 21.2399 18.763 21.2399H5.23706C3.8831 21.2399 2.78549 20.1423 2.78549 18.7883V14.1388C2.78549 13.7186 3.12613 13.378 3.54632 13.378Z" fill="#333333"/>
</svg>
