<svg width="24" height="24" viewBox="0 0 24 24" fill="none" xmlns="http://www.w3.org/2000/svg">
<path d="M13 6H7C4.79086 6 3 7.79086 3 10V17C3 19.2091 4.79086 21 7 21H14C16.2091 21 18 19.2091 18 17V11" stroke="#333333" stroke-width="1.5" stroke-linecap="round"/>
<path d="M8.46967 14.4697C8.17678 14.7626 8.17678 15.2374 8.46967 15.5303C8.76256 15.8232 9.23744 15.8232 9.53033 15.5303L8.46967 14.4697ZM21 3H21.75C21.75 2.58579 21.4142 2.25 21 2.25V3ZM15 2.25C14.5858 2.25 14.25 2.58579 14.25 3C14.25 3.41421 14.5858 3.75 15 3.75V2.25ZM20.25 9C20.25 9.41421 20.5858 9.75 21 9.75C21.4142 9.75 21.75 9.41421 21.75 9H20.25ZM9.53033 15.5303L21.5303 3.53033L20.4697 2.46967L8.46967 14.4697L9.53033 15.5303ZM15 3.75H21V2.25H15V3.75ZM20.25 3V9H21.75V3H20.25Z" fill="#333333"/>
</svg>
