<svg width="24" height="25" viewBox="0 0 24 25" fill="none" xmlns="http://www.w3.org/2000/svg">
<path d="M19 8.81409C19.4142 8.81409 19.75 8.4783 19.75 8.06409C19.75 7.64987 19.4142 7.31409 19 7.31409V8.81409ZM10 7.31409C9.58579 7.31409 9.25 7.64987 9.25 8.06409C9.25 8.4783 9.58579 8.81409 10 8.81409V7.31409ZM19 7.31409H10V8.81409H19V7.31409Z" fill="#333333"/>
<path d="M14 16.8141C14.4142 16.8141 14.75 16.4783 14.75 16.0641C14.75 15.6499 14.4142 15.3141 14 15.3141L14 16.8141ZM5 15.3141C4.58579 15.3141 4.25 15.6499 4.25 16.0641C4.25 16.4783 4.58579 16.8141 5 16.8141L5 15.3141ZM14 15.3141L5 15.3141L5 16.8141L14 16.8141L14 15.3141Z" fill="#333333"/>
<circle cx="7" cy="8.06409" r="3" stroke="#333333" stroke-width="1.5"/>
<circle cx="17" cy="16.0641" r="3" stroke="#333333" stroke-width="1.5"/>
</svg>
