<svg width="24" height="25" viewBox="0 0 24 25" fill="none" xmlns="http://www.w3.org/2000/svg">
<path fill-rule="evenodd" clip-rule="evenodd" d="M8.9 1.81409H8.867H8.86699C7.77485 1.81408 6.90936 1.81408 6.21173 1.87107C5.49835 1.92936 4.89472 2.05097 4.34355 2.33181C3.44978 2.7872 2.72312 3.51386 2.26772 4.40763C1.98688 4.95881 1.86527 5.56243 1.80699 6.27582C1.74999 6.97344 1.74999 7.83894 1.75 8.93108V8.93109V8.96409V15.1641V15.1971C1.74999 16.2892 1.74999 17.1547 1.80699 17.8524C1.86527 18.5657 1.98688 19.1694 2.26772 19.7205C2.72312 20.6143 3.44978 21.341 4.34355 21.7964C4.89472 22.0772 5.49834 22.1988 6.21173 22.2571C6.90935 22.3141 7.77484 22.3141 8.86698 22.3141H8.9H15.1H15.133C16.2252 22.3141 17.0906 22.3141 17.7883 22.2571C18.5017 22.1988 19.1053 22.0772 19.6565 21.7964C20.5502 21.341 21.2769 20.6143 21.7323 19.7205C22.0131 19.1694 22.1347 18.5657 22.193 17.8524C22.25 17.1547 22.25 16.2892 22.25 15.1971V15.1641V8.96409V8.93107C22.25 7.83893 22.25 6.97344 22.193 6.27582C22.1347 5.56243 22.0131 4.95881 21.7323 4.40763C21.2769 3.51386 20.5502 2.7872 19.6565 2.33181C19.1053 2.05097 18.5017 1.92936 17.7883 1.87107C17.0906 1.81408 16.2251 1.81408 15.133 1.81409H15.1H8.9ZM5.02453 3.66832C5.329 3.51318 5.71325 3.4168 6.33388 3.36609C6.96327 3.31467 7.76752 3.31409 8.9 3.31409H15.1C16.2325 3.31409 17.0367 3.31467 17.6661 3.36609C18.2867 3.4168 18.671 3.51318 18.9755 3.66832C19.587 3.9799 20.0842 4.47709 20.3958 5.08862C20.5509 5.39309 20.6473 5.77734 20.698 6.39797C20.7494 7.02735 20.75 7.83161 20.75 8.96409V14.6957L18.6148 11.7738C17.8158 10.6805 16.1842 10.6805 15.3852 11.7738L12.7292 15.4083C11.9663 16.4523 10.428 16.5088 9.59057 15.5236L9.02388 14.8569C8.22522 13.9173 6.77479 13.9173 5.97613 14.8569L3.32575 17.975C3.31693 17.8976 3.30903 17.8162 3.30201 17.7302C3.25058 17.1008 3.25 16.2966 3.25 15.1641V8.96409C3.25 7.83161 3.25058 7.02735 3.30201 6.39797C3.35271 5.77734 3.44909 5.39309 3.60423 5.08862C3.91582 4.47709 4.413 3.9799 5.02453 3.66832ZM3.94085 19.5674C4.23121 19.9383 4.60037 20.2437 5.02453 20.4599C5.329 20.615 5.71325 20.7114 6.33388 20.7621C6.96326 20.8135 7.76752 20.8141 8.9 20.8141H15.1C16.2325 20.8141 17.0367 20.8135 17.6661 20.7621C18.2867 20.7114 18.671 20.615 18.9755 20.4599C19.587 20.1483 20.0842 19.6511 20.3958 19.0396C20.5509 18.7351 20.6473 18.3508 20.698 17.7302C20.7112 17.5687 20.721 17.3956 20.7284 17.2084L17.4037 12.6588C17.204 12.3855 16.796 12.3855 16.5963 12.6588L13.9403 16.2933C12.6052 18.1204 9.91324 18.2193 8.44766 16.495L7.88097 15.8284C7.68131 15.5935 7.3187 15.5935 7.11904 15.8284L3.94085 19.5674ZM8.00001 9.06408C8.55229 9.06408 9.00001 8.61637 9.00001 8.06408C9.00001 7.5118 8.55229 7.06408 8.00001 7.06408C7.44772 7.06408 7.00001 7.5118 7.00001 8.06408C7.00001 8.61637 7.44772 9.06408 8.00001 9.06408ZM8.00001 10.5641C9.38072 10.5641 10.5 9.4448 10.5 8.06408C10.5 6.68337 9.38072 5.56408 8.00001 5.56408C6.6193 5.56408 5.50001 6.68337 5.50001 8.06408C5.50001 9.4448 6.6193 10.5641 8.00001 10.5641Z" fill="#333333"/>
</svg>
