<svg width="24" height="24" viewBox="0 0 24 24" fill="none" xmlns="http://www.w3.org/2000/svg">
<circle cx="12" cy="9" r="3" stroke="#333333" stroke-width="1.5"/>
<circle cx="19" cy="10" r="2" stroke="#333333" stroke-width="1.5"/>
<circle cx="5" cy="10" r="2" stroke="#333333" stroke-width="1.5"/>
<path d="M17 18C17 18 16.375 14 12 14C7.625 14 7 18 7 18" stroke="#333333" stroke-width="1.5" stroke-linecap="round" stroke-linejoin="round"/>
<path d="M21.2933 16.2512C21.4321 16.6415 21.861 16.8454 22.2512 16.7067C22.6415 16.5679 22.8454 16.139 22.7067 15.7488L21.2933 16.2512ZM22 16C22.7067 15.7488 22.7065 15.7484 22.7064 15.748C22.7064 15.7479 22.7062 15.7475 22.7061 15.7473C22.7059 15.7467 22.7057 15.7462 22.7055 15.7456C22.7051 15.7444 22.7046 15.7431 22.7041 15.7416C22.703 15.7388 22.7018 15.7354 22.7004 15.7315C22.6975 15.7238 22.6938 15.7142 22.6893 15.7028C22.6803 15.68 22.668 15.6499 22.6521 15.6136C22.6204 15.5411 22.5742 15.443 22.5113 15.3279C22.3863 15.099 22.1914 14.7952 21.9082 14.4899C21.3319 13.8688 20.3929 13.25 19 13.25V14.75C19.896 14.75 20.457 15.1312 20.8085 15.5101C20.9892 15.7048 21.1151 15.901 21.1949 16.0471C21.2345 16.1195 21.2617 16.1777 21.2778 16.2146C21.2858 16.2329 21.291 16.2458 21.2936 16.2523C21.2949 16.2555 21.2955 16.2571 21.2954 16.257C21.2954 16.2569 21.2952 16.2564 21.2949 16.2555C21.2947 16.255 21.2945 16.2544 21.2942 16.2537C21.2941 16.2534 21.294 16.253 21.2938 16.2526C21.2937 16.2524 21.2936 16.252 21.2936 16.2519C21.2935 16.2516 21.2933 16.2512 22 16ZM19 13.25C17.6071 13.25 16.6681 13.8688 16.0918 14.4899C15.8086 14.7952 15.6137 15.099 15.4887 15.3279C15.4258 15.443 15.3796 15.5411 15.3479 15.6136C15.332 15.6499 15.3197 15.68 15.3107 15.7028C15.3062 15.7142 15.3025 15.7238 15.2996 15.7315C15.2982 15.7354 15.297 15.7388 15.2959 15.7416C15.2954 15.7431 15.2949 15.7444 15.2945 15.7456C15.2943 15.7462 15.2941 15.7467 15.2939 15.7473C15.2938 15.7475 15.2936 15.7479 15.2936 15.748C15.2935 15.7484 15.2933 15.7488 16 16C16.7067 16.2512 16.7065 16.2516 16.7064 16.2519C16.7064 16.252 16.7063 16.2524 16.7062 16.2526C16.706 16.253 16.7059 16.2534 16.7058 16.2537C16.7055 16.2544 16.7053 16.255 16.7051 16.2555C16.7048 16.2564 16.7046 16.2569 16.7046 16.257C16.7045 16.2571 16.7051 16.2555 16.7064 16.2523C16.709 16.2458 16.7142 16.2329 16.7222 16.2146C16.7383 16.1777 16.7655 16.1195 16.8051 16.0471C16.8849 15.901 17.0108 15.7048 17.1915 15.5101C17.543 15.1312 18.104 14.75 19 14.75V13.25Z" fill="#333333"/>
<path d="M1.29334 15.7488C1.15458 16.139 1.35847 16.5679 1.74875 16.7067C2.13903 16.8454 2.5679 16.6415 2.70666 16.2512L1.29334 15.7488ZM8 16C8.70666 15.7488 8.70654 15.7484 8.70641 15.748C8.70636 15.7479 8.70622 15.7475 8.70613 15.7473C8.70594 15.7467 8.70574 15.7462 8.70552 15.7456C8.7051 15.7444 8.70462 15.7431 8.7041 15.7416C8.70305 15.7388 8.70181 15.7354 8.70037 15.7315C8.69749 15.7238 8.69382 15.7142 8.68932 15.7028C8.68033 15.68 8.66802 15.6499 8.65215 15.6136C8.62044 15.5411 8.57419 15.443 8.51132 15.3279C8.38627 15.099 8.19137 14.7952 7.90816 14.4899C7.33192 13.8688 6.39295 13.25 5 13.25V14.75C5.89597 14.75 6.457 15.1312 6.80853 15.5101C6.9892 15.7048 7.11513 15.901 7.19494 16.0471C7.2345 16.1195 7.26168 16.1777 7.2778 16.2146C7.28584 16.2329 7.29104 16.2458 7.29359 16.2523C7.29486 16.2555 7.29546 16.2571 7.29541 16.257C7.29539 16.2569 7.2952 16.2564 7.29485 16.2555C7.29468 16.255 7.29447 16.2544 7.29421 16.2537C7.29409 16.2534 7.29395 16.253 7.2938 16.2526C7.29373 16.2524 7.29361 16.252 7.29358 16.2519C7.29346 16.2516 7.29334 16.2512 8 16ZM5 13.25C3.60705 13.25 2.66808 13.8688 2.09184 14.4899C1.80863 14.7952 1.61373 15.099 1.48868 15.3279C1.42581 15.443 1.37956 15.5411 1.34785 15.6136C1.33198 15.6499 1.31967 15.68 1.31068 15.7028C1.30618 15.7142 1.30251 15.7238 1.29963 15.7315C1.29819 15.7354 1.29695 15.7388 1.2959 15.7416C1.29538 15.7431 1.2949 15.7444 1.29448 15.7456C1.29426 15.7462 1.29406 15.7467 1.29387 15.7473C1.29378 15.7475 1.29364 15.7479 1.29359 15.748C1.29346 15.7484 1.29334 15.7488 2 16C2.70666 16.2512 2.70654 16.2516 2.70642 16.2519C2.70639 16.252 2.70627 16.2524 2.7062 16.2526C2.70605 16.253 2.70591 16.2534 2.70579 16.2537C2.70553 16.2544 2.70532 16.255 2.70515 16.2555C2.7048 16.2564 2.70461 16.2569 2.70459 16.257C2.70454 16.2571 2.70514 16.2555 2.70641 16.2523C2.70896 16.2458 2.71416 16.2329 2.7222 16.2146C2.73832 16.1777 2.7655 16.1195 2.80506 16.0471C2.88487 15.901 3.0108 15.7048 3.19147 15.5101C3.543 15.1312 4.10403 14.75 5 14.75V13.25Z" fill="#333333"/>
</svg>
