<svg width="32" height="32" viewBox="0 0 32 32" fill="none" xmlns="http://www.w3.org/2000/svg"><rect x=".75" y=".75" width="30.5" height="30.5" rx="7.25" stroke="url(#paint0_linear)" stroke-width="1.5"/><path d="M16.288 8.08008C17.92 8.08008 19.224 8.52808 20.2 9.42408 21.192 10.3201 21.688 11.5441 21.688 13.0961 21.688 14.7121 21.176 15.9281 20.152 16.7441 19.128 17.5601 17.768 17.9681 16.072 17.9681L15.976 19.8641H13.6L13.48 16.0961H14.272C15.824 16.0961 17.008 15.8881 17.824 15.4721 18.656 15.0561 19.072 14.2641 19.072 13.0961 19.072 12.2481 18.824 11.5841 18.328 11.1041 17.848 10.6241 17.176 10.3841 16.312 10.3841 15.448 10.3841 14.768 10.6161 14.272 11.0801 13.776 11.5441 13.528 12.1921 13.528 13.0241H10.96C10.96 12.0641 11.176 11.2081 11.608 10.4561 12.04 9.70408 12.656 9.12008 13.456 8.70408 14.272 8.28808 15.216 8.08008 16.288 8.08008zM14.752 25.1681C14.256 25.1681 13.84 25.0001 13.504 24.6641 13.168 24.3281 13 23.9121 13 23.4161 13 22.9201 13.168 22.5041 13.504 22.1681 13.84 21.8321 14.256 21.6641 14.752 21.6641 15.232 21.6641 15.64 21.8321 15.976 22.1681 16.312 22.5041 16.48 22.9201 16.48 23.4161 16.48 23.9121 16.312 24.3281 15.976 24.6641 15.64 25.0001 15.232 25.1681 14.752 25.1681z" fill="url(#paint1_linear)"/><defs><linearGradient id="paint0_linear" x1="0" y1="0" x2="-.138736" y2="31.9994" gradientUnits="userSpaceOnUse"><stop offset=".00194019" stop-color="#4555a5"/><stop offset="1" stop-color="#6545a5"/></linearGradient><linearGradient id="paint1_linear" x1="10.96" y1="8.08008" x2="10.842" y2="25.1673" gradientUnits="userSpaceOnUse"><stop offset=".00194019" stop-color="#4555a5"/><stop offset="1" stop-color="#6545a5"/></linearGradient></defs></svg>