<svg width="24" height="25" viewBox="0 0 24 25" fill="none" xmlns="http://www.w3.org/2000/svg"><path d="M21.25 12.3366V19.3C21.25 19.8724 21.2494 20.2566 21.2252 20.5525 21.2018 20.8396 21.1599 20.9769 21.1138 21.0675 20.9939 21.3027 20.8027 21.4939 20.5675 21.6138 20.4769 21.6599 20.3396 21.7018 20.0525 21.7252 19.7566 21.7494 19.3724 21.75 18.8 21.75H17.2C16.6276 21.75 16.2434 21.7494 15.9475 21.7252 15.6604 21.7018 15.5231 21.6599 15.4325 21.6138 15.1973 21.4939 15.0061 21.3027 14.8862 21.0675 14.8401 20.9769 14.7982 20.8396 14.7748 20.5525 14.7506 20.2566 14.75 19.8724 14.75 19.3V16.5C14.75 14.9812 13.5188 13.75 12 13.75 10.4812 13.75 9.25 14.9812 9.25 16.5V19.3C9.25 19.8724 9.24942 20.2566 9.22524 20.5525 9.20178 20.8396 9.1599 20.9769 9.11376 21.0675 8.99392 21.3027 8.80269 21.4939 8.56749 21.6138 8.47693 21.6599 8.33965 21.7018 8.05252 21.7252 7.75664 21.7494 7.37243 21.75 6.8 21.75H5.2C4.62757 21.75 4.24336 21.7494 3.94748 21.7252 3.66035 21.7018 3.52307 21.6599 3.43251 21.6138 3.19731 21.4939 3.00608 21.3027 2.88624 21.0675 2.8401 20.9769 2.79822 20.8396 2.77476 20.5525 2.75058 20.2566 2.75 19.8724 2.75 19.3V12.3366C2.75 11.1368 2.7566 10.6813 2.87186 10.2724 2.9798 9.88939 3.15715 9.52948 3.3951 9.21055 3.64917 8.87 4.00632 8.58728 4.95778 7.85628L8.55777 5.09043C10.0079 3.97633 10.5683 3.56338 11.1581 3.40519 11.7096 3.25726 12.2904 3.25726 12.8419 3.40519 13.4317 3.56338 13.9921 3.97632 15.4422 5.09043L19.0422 7.85628C19.9937 8.58728 20.3508 8.87 20.6049 9.21055 20.8428 9.52948 21.0202 9.88939 21.1281 10.2724 21.2434 10.6813 21.25 11.1368 21.25 12.3366z" stroke="#828282" stroke-width="1.5"/></svg>