<svg width="24" height="24" viewBox="0 0 24 24" fill="none" xmlns="http://www.w3.org/2000/svg"><path d="M22 18.8V11.8366C22 10.6796 22 10.1011 21.85 9.56894 21.7172 9.09756 21.4989 8.65459 21.206 8.26206 20.8754 7.81891 20.4167 7.46646 19.4992 6.76155L15.8992 3.99569C14.5033 2.9233 13.8054 2.3871 13.0362 2.18079 12.3574 1.99873 11.6426 1.99873 10.9638 2.18079 10.1946 2.3871 9.49666 2.9233 8.10084 3.9957L4.50084 6.76155C3.58334 7.46646 3.12459 7.81891 2.79397 8.26206 2.50111 8.65459 2.28283 9.09756 2.14998 9.56894 2 10.1011 2 10.6796 2 11.8366V18.8C2 19.9201 2 20.4802 2.21799 20.908 2.40973 21.2843 2.71569 21.5903 3.09202 21.782 3.51984 22 4.0799 22 5.2 22H6.8C7.9201 22 8.48016 22 8.90798 21.782 9.28431 21.5903 9.59027 21.2843 9.78201 20.908 10 20.4802 10 19.9201 10 18.8V16C10 14.8954 10.8954 14 12 14 13.1046 14 14 14.8954 14 16V18.8C14 19.9201 14 20.4802 14.218 20.908 14.4097 21.2843 14.7157 21.5903 15.092 21.782 15.5198 22 16.0799 22 17.2 22H18.8C19.9201 22 20.4802 22 20.908 21.782 21.2843 21.5903 21.5903 21.2843 21.782 20.908 22 20.4802 22 19.9201 22 18.8z" fill="#4555a5"/></svg>