<svg width="24" height="24" viewBox="0 0 24 24" fill="none" xmlns="http://www.w3.org/2000/svg">
<path fill-rule="evenodd" clip-rule="evenodd" d="M5.25 3C5.25 2.58579 5.58579 2.25 6 2.25H18C18.4142 2.25 18.75 2.58579 18.75 3V8.25L22 8.25C22.4142 8.25 22.75 8.58579 22.75 9L22.75 21C22.75 21.1989 22.671 21.3897 22.5303 21.5303C22.3897 21.671 22.1989 21.75 22 21.75H18H14C13.5858 21.75 13.25 21.4142 13.25 21V16.75H10.75V21C10.75 21.4142 10.4142 21.75 10 21.75H6H2C1.58579 21.75 1.25 21.4142 1.25 21V9C1.25 8.58579 1.58579 8.25 2 8.25H5.25V3ZM18.75 20.25H21.25L21.25 9.75L18.75 9.75V20.25ZM17.25 9V3.75H6.75V9V20.25H9.25V16C9.25 15.5858 9.58579 15.25 10 15.25H14C14.4142 15.25 14.75 15.5858 14.75 16V20.25H17.25V9ZM5.25 9.75V20.25H2.75V9.75H5.25ZM12 6.25C12.4142 6.25 12.75 6.58579 12.75 7V8.25H14C14.4142 8.25 14.75 8.58579 14.75 9C14.75 9.41421 14.4142 9.75 14 9.75H12.75V11C12.75 11.4142 12.4142 11.75 12 11.75C11.5858 11.75 11.25 11.4142 11.25 11V9.75H10C9.58579 9.75 9.25 9.41421 9.25 9C9.25 8.58579 9.58579 8.25 10 8.25H11.25V7C11.25 6.58579 11.5858 6.25 12 6.25Z" fill="#333333"/>
</svg>
