<svg width="22" height="20" viewBox="0 0 22 20" fill="none" xmlns="http://www.w3.org/2000/svg">
<path d="M8 8C9.933 8 11.5 6.433 11.5 4.5C11.5 2.567 9.933 1 8 1C6.067 1 4.5 2.567 4.5 4.5C4.5 6.433 6.067 8 8 8Z" stroke="white" stroke-width="1.5" stroke-linecap="round" stroke-linejoin="round"/>
<path d="M11.5 17.4359C10.295 17.9807 9.10115 18.2723 7.93507 18.2723C5.9784 18.2723 4.51139 18.0493 2.85983 17.0198C1.20826 15.9902 0.895385 14.2891 2.12824 12.9462C3.3611 11.6033 5.32198 11 7.9862 11C8.9032 11 10.0705 11.2367 10.9404 11.5727" stroke="white" stroke-width="1.5" stroke-linecap="round" stroke-linejoin="round"/>
<path d="M17 9.93591V17.9359" stroke="white" stroke-width="1.5" stroke-linecap="round"/>
<path d="M21 13.9359L13 13.9359" stroke="white" stroke-width="1.5" stroke-linecap="round"/>
</svg>
