<svg width="24" height="24" viewBox="0 0 24 24" fill="none" xmlns="http://www.w3.org/2000/svg">
<path d="M21.9999 6.00008L21.9997 11.0001C21.9997 12.1046 21.1043 13 19.9997 13L13.9996 13L13.2067 13C12.7613 13 12.5382 12.4614 12.8532 12.1464L13.8532 11.1464C13.947 11.0527 13.9996 10.9255 13.9996 10.7929L13.9999 5.9999C14 4.89537 14.8954 4 15.9999 4L19.9999 4C21.1045 4 22 4.89548 21.9999 6.00008Z" stroke="#333333" stroke-width="1.5"/>
<path d="M18.9996 9.25C19.4138 9.25 19.7496 9.58579 19.7496 10C19.7496 10.4142 19.4138 10.75 18.9996 10.75V9.25ZM16.9996 10.75C16.5854 10.75 16.2496 10.4142 16.2496 10C16.2496 9.58579 16.5854 9.25 16.9996 9.25V10.75ZM18.9996 10.75H16.9996V9.25H18.9996V10.75Z" fill="#333333"/>
<path d="M19 6.25C19.4142 6.25 19.75 6.58579 19.75 7C19.75 7.41421 19.4142 7.75 19 7.75V6.25ZM17 7.75C16.5858 7.75 16.25 7.41421 16.25 7C16.25 6.58579 16.5858 6.25 17 6.25V7.75ZM19 7.75H17V6.25H19V7.75Z" fill="#333333"/>
<path d="M4.25 9.5C4.25 11.1569 5.59315 12.5 7.25 12.5C8.90685 12.5 10.25 11.1569 10.25 9.5C10.25 7.84315 8.90685 6.5 7.25 6.5C5.59315 6.5 4.25 7.84315 4.25 9.5Z" stroke="#333333" stroke-width="1.5"/>
<path d="M2.05524 16.8108L2.54026 17.3829L2.05524 16.8108ZM3.24521 18.9174C4.5378 19.1354 5.87689 19.25 7.24929 19.25V20.75C5.79337 20.75 4.37085 20.6284 2.99579 20.3965L3.24521 18.9174ZM7.24929 19.25C8.62163 19.25 9.96066 19.1354 11.2532 18.9175L11.5026 20.3966C10.1276 20.6284 8.70514 20.75 7.24929 20.75V19.25ZM11.9582 17.3829C10.7837 16.3871 9.118 15.75 7.24918 15.75V14.25C9.45263 14.25 11.4674 15.0002 12.9282 16.2388L11.9582 17.3829ZM7.24918 15.75C5.3804 15.75 3.71472 16.3871 2.54026 17.3829L1.57022 16.2387C3.03104 15.0002 5.04577 14.25 7.24918 14.25V15.75ZM11.2532 18.9175C11.7437 18.8347 12.0703 18.5295 12.1931 18.2235C12.3037 17.9479 12.2686 17.6461 11.9582 17.3829L12.9282 16.2388C13.7559 16.9406 13.924 17.9378 13.5852 18.7821C13.2587 19.5959 12.4835 20.2312 11.5026 20.3966L11.2532 18.9175ZM2.99579 20.3965C2.01486 20.2311 1.23973 19.5958 0.913182 18.782C0.574446 17.9378 0.742507 16.9405 1.57022 16.2387L2.54026 17.3829C2.22976 17.6461 2.19472 17.9478 2.3053 18.2234C2.42807 18.5294 2.75468 18.8347 3.24521 18.9174L2.99579 20.3965Z" fill="#333333"/>
</svg>
