<svg width="32" height="32" viewBox="0 0 32 32" fill="none" xmlns="http://www.w3.org/2000/svg"><path fill-rule="evenodd" clip-rule="evenodd" d="M3.252 17.1622H11.9738C12.4412 17.1622 12.8237 16.7706 12.8237 16.2905V3.2706C12.8237 2.7916 12.4412 2.39999 11.9738 2.39999H3.252C2.78295 2.39999 2.40039 2.7916 2.40039 3.2706V16.2905C2.40039 16.7701 2.78295 17.1622 3.252 17.1622z" fill="#e1eaf9"/><path fill-rule="evenodd" clip-rule="evenodd" d="M10.7637 17.1622H11.974C12.4414 17.1622 12.8239 16.7706 12.8239 16.2905V3.2706C12.8239 2.7916 12.4414 2.39999 11.974 2.39999H10.7637C11.2322 2.39999 11.6153 2.7916 11.6153 3.2706V16.2905C11.6153 16.7701 11.2322 17.1622 10.7637 17.1622z" fill="#97b0db"/><path fill-rule="evenodd" clip-rule="evenodd" d="M9.74692 6.86367C10.3551 7.15709 10.7743 7.78876 10.7743 8.52258 10.7743 9.53564 9.97202 10.3569 8.98236 10.3569 7.99269 10.3569 7.19043 9.53564 7.19043 8.52258 7.19043 7.79727 7.60293 7.169 8.20061 6.87218 8.38246 6.78194 8.35696 6.6429 8.35696 6.4278V5.02371H9.60721V6.42383C9.60721 6.63098 9.57616 6.78081 9.74692 6.86367z" fill="#caddea"/><path d="M8.21776 5.33245C8.04977 5.33245 7.91504 5.19454 7.91504 5.02371 7.91504 4.85175 8.04977 4.71384 8.21776 4.71384H9.74799C9.91488 4.71384 10.0496 4.85175 10.0496 5.02371 10.0496 5.19454 9.91488 5.33245 9.74799 5.33245H8.21776z" fill="#97b0db"/><path fill-rule="evenodd" clip-rule="evenodd" d="M10.7743 8.52258H7.19043C7.19043 9.53564 7.99269 10.3569 8.98236 10.3569 9.97202 10.3569 10.7743 9.53564 10.7743 8.52258z" fill="#6073ba"/><path d="M6.13013 7.41872C6.27872 7.41872 6.40014 7.54188 6.40014 7.69511 6.40014 7.84721 6.27872 7.97037 6.13013 7.97037H3.66845C3.51986 7.97037 3.39844 7.84721 3.39844 7.69511 3.39844 7.54188 3.51986 7.41872 3.66845 7.41872H6.13013zM6.13013 4.69965C6.27872 4.69965 6.40014 4.8228 6.40014 4.97604 6.40014 5.12814 6.27872 5.25129 6.13013 5.25129H3.66845C3.51986 5.25129 3.39844 5.12814 3.39844 4.97604 3.39844 4.8228 3.51986 4.69965 3.66845 4.69965H6.13013zM6.13013 6.0589C6.27872 6.0589 6.40014 6.18206 6.40014 6.33529 6.40014 6.48739 6.27872 6.61055 6.13013 6.61055H3.66845C3.51986 6.61055 3.39844 6.48739 3.39844 6.33529 3.39844 6.18206 3.51986 6.0589 3.66845 6.0589H6.13013zM9.27432 14.2156C9.42401 14.2156 9.54432 14.3387 9.54432 14.4908 9.54432 14.6441 9.42401 14.7672 9.27432 14.7672H3.66845C3.51986 14.7672 3.39844 14.6441 3.39844 14.4908 3.39844 14.3387 3.51986 14.2156 3.66845 14.2156H9.27432zM10.4131 12.8563C10.5617 12.8563 10.6831 12.9795 10.6831 13.1316 10.6831 13.2848 10.5617 13.408 10.4131 13.408H3.66845C3.51986 13.408 3.39844 13.2848 3.39844 13.1316 3.39844 12.9795 3.51986 12.8563 3.66845 12.8563H10.4131zM10.4131 11.4971C10.5617 11.4971 10.6831 11.6202 10.6831 11.7723 10.6831 11.9255 10.5617 12.0487 10.4131 12.0487H3.66845C3.51986 12.0487 3.39844 11.9255 3.39844 11.7723 3.39844 11.6202 3.51986 11.4971 3.66845 11.4971H10.4131zM6.13013 10.1372C6.27872 10.1372 6.40014 10.2604 6.40014 10.4136 6.40014 10.5657 6.27872 10.6889 6.13013 10.6889H3.66845C3.51986 10.6889 3.39844 10.5657 3.39844 10.4136 3.39844 10.2604 3.51986 10.1372 3.66845 10.1372H6.13013zM6.13013 8.77798C6.27872 8.77798 6.40014 8.90113 6.40014 9.05437 6.40014 9.20647 6.27872 9.32962 6.13013 9.32962H3.66845C3.51986 9.32962 3.39844 9.20647 3.39844 9.05437 3.39844 8.90113 3.51986 8.77798 3.66845 8.77798H6.13013z" fill="#6073ba"/><path d="M13.5056 29.6H26.8583C28.9658 29.6 30.2829 27.2645 29.2292 25.3965L23.0961 14.5229V8.89679H17.2678V14.5229L11.1347 25.3965C10.0805 27.2645 11.3982 29.6 13.5056 29.6z" fill="#6073ba"/><path d="M17.2681 10.5597H20.4555C21.0353 10.5597 21.5052 11.0406 21.5052 11.6342V14.5224L24.2904 25.3965C24.7688 27.265 24.1708 29.6 23.2134 29.6H26.8586C28.966 29.6 30.2832 27.265 29.229 25.3965L23.0964 14.5224V8.89679L22.4721 7.90701 19.052 7.87033 17.2676 8.89679V10.5597H17.2681z" fill="#4555a5"/><path d="M15.5186 6.72558C15.7432 6.4957 16.0541 6.35364 16.3967 6.35364H23.9676C24.6539 6.35364 25.2101 6.92292 25.2101 7.62496 25.2101 7.97572 25.0713 8.29393 24.8462 8.52382 24.6216 8.75421 24.3108 8.89627 23.9681 8.89627H16.3972C15.7109 8.89627 15.1553 8.327 15.1553 7.62496 15.1548 7.27419 15.2941 6.95598 15.5186 6.72558z" fill="#4555a5"/><path d="M15.5182 6.72558C15.7427 6.4957 16.0536 6.35364 16.3963 6.35364h4.558C21.6406 6.35364 22.1963 6.92292 22.1963 7.62496 22.1963 7.97572 22.0575 8.29393 21.8329 8.52382 21.6078 8.75421 21.298 8.89627 20.9543 8.89627h-4.558C15.7099 8.89627 15.1543 8.327 15.1543 7.62496 15.1543 7.27419 15.2936 6.95598 15.5182 6.72558z" fill="#6073ba"/><path d="M12.4549 26.1533 17.066 18.015H23.297L27.8994 26.1709C28.067 26.4943 27.9635 27.1943 27.8671 27.3647 27.7707 27.5357 27.3236 28.0131 26.875 28.0131H13.6358C13.0948 28.0177 12.6628 27.714 12.4721 27.3844 12.3348 27.1338 12.2122 26.5666 12.4549 26.1533z" fill="#e1eaf9"/><path d="M22.3994 18.013 23.2967 18.0146 27.8411 26.065C28.157 26.6322 28.0213 27.2134 27.9249 27.3839 27.8285 27.5549 27.5383 28.0126 26.9136 28.0126L24.3428 28.0084C24.4519 27.2439 24.5412 26.377 24.3383 25.5846L22.3994 18.013z" fill="#acc5e8"/><path d="M18.5622 23.5844C18.4951 23.1117 19.0522 22.7945 19.407 23.1055 19.7638 23.4185 19.5407 24.0348 19.0724 24.0348 18.8206 24.0343 18.5985 23.8401 18.5622 23.5844z" fill="#acc5e8"/><path d="M22.1778 24.7038C22.0829 24.2306 22.6355 23.8912 23.0029 24.1857 23.182 24.3293 23.2471 24.5876 23.1598 24.8025 23.0801 24.9977 22.8903 25.1284 22.6829 25.1284 22.4392 25.1284 22.2262 24.9471 22.1778 24.7038z" fill="#acc5e8"/><path d="M20.8334 21.2737C20.7541 20.8201 21.2689 20.49 21.6363 20.7504 21.825 20.8842 21.9042 21.1404 21.827 21.3615 21.7544 21.5697 21.557 21.7118 21.341 21.7118 21.0927 21.7112 20.8773 21.5232 20.8334 21.2737z" fill="#acc5e8"/></svg>