<svg width="24" height="24" viewBox="0 0 24 24" fill="none" xmlns="http://www.w3.org/2000/svg"><path d="M20.7633 12.5086C21.157 11.9883 21.375 11.3508 21.375 10.6875 21.375 9.63515 20.7867 8.63906 19.8398 8.08359 19.5961 7.94061 19.3185 7.86536 19.0359 7.86562H13.4156L13.5563 4.98515C13.5891 4.28906 13.343 3.62812 12.8648 3.12422 12.6302 2.87585 12.3471 2.67823 12.0331 2.54359 11.7191 2.40895 11.3807 2.34013 11.0391 2.34141 9.82031 2.34141 8.74219 3.16172 8.41875 4.33594L6.40547 11.625H6.39844V21.6562H17.468C17.6836 21.6562 17.8945 21.614 18.0891 21.5297 19.2047 21.0539 19.9242 19.9641 19.9242 18.7547 19.9242 18.4594 19.882 18.1687 19.7977 17.8875 20.1914 17.3672 20.4094 16.7297 20.4094 16.0664 20.4094 15.7711 20.3672 15.4805 20.2828 15.1992 20.6766 14.6789 20.8945 14.0414 20.8945 13.3781 20.8898 13.0828 20.8477 12.7898 20.7633 12.5086zM2.625 12.375V20.9062C2.625 21.3211 2.96016 21.6562 3.375 21.6562H4.89844V11.625H3.375C2.96016 11.625 2.625 11.9602 2.625 12.375z" fill="#4555a5"/></svg>