<svg width="24" height="24" viewBox="0 0 24 24" fill="none" xmlns="http://www.w3.org/2000/svg"><path d="M20.7633 12.5086C21.157 11.9883 21.375 11.3508 21.375 10.6875 21.375 9.63514 20.7867 8.63904 19.8398 8.08357 19.5961 7.94059 19.3185 7.86534 19.0359 7.8656H13.4156L13.5563 4.98514C13.5891 4.28904 13.343 3.62811 12.8648 3.1242 12.6302 2.87583 12.3471 2.67821 12.0331 2.54357 11.7191 2.40893 11.3807 2.34012 11.0391 2.34139 9.82031 2.34139 8.74219 3.1617 8.41875 4.33592L6.40547 11.625H3.375C2.96016 11.625 2.625 11.9601 2.625 12.375V20.9062C2.625 21.3211 2.96016 21.6562 3.375 21.6562H17.468C17.6836 21.6562 17.8945 21.614 18.0891 21.5297 19.2047 21.0539 19.9242 19.964 19.9242 18.7547 19.9242 18.4594 19.882 18.1687 19.7977 17.8875 20.1914 17.3672 20.4094 16.7297 20.4094 16.0664 20.4094 15.7711 20.3672 15.4804 20.2828 15.1992 20.6766 14.6789 20.8945 14.0414 20.8945 13.3781 20.8898 13.0828 20.8477 12.7898 20.7633 12.5086zM4.3125 19.9687V13.3125H6.21094V19.9687H4.3125zM19.2281 11.6953 18.7148 12.1406 19.0406 12.7359C19.148 12.932 19.2036 13.1522 19.2023 13.3758 19.2023 13.7625 19.0336 14.1304 18.743 14.3836L18.2297 14.8289 18.5555 15.4242C18.6628 15.6203 18.7185 15.8405 18.7172 16.064 18.7172 16.4508 18.5484 16.8187 18.2578 17.0719L17.7445 17.5172 18.0703 18.1125C18.1776 18.3086 18.2333 18.5288 18.232 18.7523 18.232 19.2773 17.9227 19.7508 17.4445 19.9664H7.71094V13.2375L10.043 4.78826C10.1031 4.5717 10.2322 4.38064 10.4107 4.24403 10.5891 4.10743 10.8073 4.03272 11.032 4.03123 11.2102 4.03123 11.3859 4.08279 11.5266 4.18826 11.7586 4.3617 11.8828 4.6242 11.8687 4.90311L11.6437 9.5531H19.0125C19.4297 9.80857 19.6875 10.2398 19.6875 10.6875 19.6875 11.0742 19.5188 11.4398 19.2281 11.6953z" fill="#828282"/></svg>