<svg width="24" height="24" viewBox="0 0 24 24" fill="none" xmlns="http://www.w3.org/2000/svg">
<path d="M13.5 17.5L11.5 19.5C9.56704 21.433 6.43304 21.433 4.50004 19.5C2.56704 17.567 2.56704 14.433 4.50004 12.5L6.50004 10.5C8.43304 8.56704 11.567 8.56705 13.5 10.5C13.8064 10.8064 14.0642 11.1429 14.2734 11.5M10.5 6.50004L12.5 4.50004C14.433 2.56704 17.567 2.56705 19.5 4.50004C21.433 6.43304 21.433 9.56705 19.5 11.5L17.5 13.5C15.567 15.433 12.433 15.433 10.5 13.5C10.1937 13.1937 9.93589 12.8572 9.72664 12.5" stroke="#333333" stroke-width="1.8" stroke-linecap="round" stroke-linejoin="round"/>
</svg>
