<svg width="24" height="24" viewBox="0 0 24 24" fill="none" xmlns="http://www.w3.org/2000/svg">
<path d="M13.2308 7.5V5.4C13.2308 4.55992 13.2308 4.13988 13.0673 3.81901C12.9235 3.53677 12.694 3.3073 12.4118 3.16349C12.0909 3 11.6708 3 10.8308 3H5.4C4.55992 3 4.13988 3 3.81901 3.16349C3.53677 3.3073 3.3073 3.53677 3.16349 3.81901C3 4.13988 3 4.55992 3 5.4V18.6C3 19.4401 3 19.8601 3.16349 20.181C3.3073 20.4632 3.53677 20.6927 3.81901 20.8365C4.13988 21 4.55992 21 5.4 21H10.8308C11.6708 21 12.0909 21 12.4118 20.8365C12.694 20.6927 12.9235 20.4632 13.0673 20.181C13.2308 19.8601 13.2308 19.4401 13.2308 18.6V16.5M8.84615 12H22M22 12L17.6154 16.5M22 12L17.6154 7.5" stroke="#333333" stroke-width="1.5" stroke-linecap="round" stroke-linejoin="round"/>
</svg>
