<svg width="24" height="24" viewBox="0 0 24 24" fill="none" xmlns="http://www.w3.org/2000/svg"><path fill-rule="evenodd" clip-rule="evenodd" d="M12 3.75C8.54822 3.75 5.75 6.54822 5.75 10 5.75 12.2429 6.8361 14.3911 8.19399 16.1882 9.54411 17.975 11.1018 19.3338 11.908 19.9825 11.9412 20.0092 11.9732 20.0177 12 20.0177 12.0268 20.0177 12.0588 20.0092 12.092 19.9825 12.8982 19.3338 14.4559 17.975 15.806 16.1882 17.1639 14.3911 18.25 12.2429 18.25 10 18.25 6.54822 15.4518 3.75 12 3.75zM4.25 10C4.25 5.71979 7.71979 2.25 12 2.25 16.2802 2.25 19.75 5.71979 19.75 10 19.75 12.713 18.4483 15.1795 17.0028 17.0925 15.5495 19.0158 13.8883 20.4625 13.0323 21.1512 12.4249 21.6399 11.5751 21.6399 10.9677 21.1512 10.1117 20.4625 8.45047 19.0158 6.99722 17.0925 5.55174 15.1795 4.25 12.713 4.25 10z" fill="#4555a5"/><path fill-rule="evenodd" clip-rule="evenodd" d="M12 7.75C10.7574 7.75 9.75 8.75736 9.75 10 9.75 11.2426 10.7574 12.25 12 12.25 13.2426 12.25 14.25 11.2426 14.25 10 14.25 8.75736 13.2426 7.75 12 7.75zM8.25 10C8.25 7.92893 9.92893 6.25 12 6.25 14.0711 6.25 15.75 7.92893 15.75 10 15.75 12.0711 14.0711 13.75 12 13.75 9.92893 13.75 8.25 12.0711 8.25 10z" fill="#4555a5"/></svg>