<svg width="24" height="25" viewBox="0 0 24 25" fill="none" xmlns="http://www.w3.org/2000/svg"><path d="M19.5 10c0 3.5899-3.8056 6.5-8.5 6.5C9.75228 16.5 8.56736 16.2944 7.49999 15.9251 6.81544 15.6883 4.46846 16.5232 3.07125 17.067 2.66312 17.2258 2.23933 16.8247 2.37633 16.4088 2.80885 15.0954 3.42593 13.0033 3.15144 12.5 2.73175 11.7304 2.49999 10.8859 2.49999 10 2.49999 6.41015 6.30557 3.5 11 3.5c4.6944.0 8.5 2.91015 8.5 6.5z" stroke="#828282" stroke-width="1.5"/><path fill-rule="evenodd" clip-rule="evenodd" d="M22.1016 11.3205C21.9373 12.1442 21.6431 12.9313 21.2372 13.6668 21.2458 13.7773 21.2502 13.8884 21.2502 14 21.2502 14.7518 21.0542 15.4736 20.6903 16.1409 20.5831 16.3375 20.55 16.5461 20.5378 16.6994 20.5248 16.8641 20.531 17.0377 20.5463 17.206 20.5768 17.5429 20.6502 17.9306 20.7406 18.3201 20.8843 18.9396 21.0837 19.6176 21.269 20.2025 20.6299 19.9612 19.867 19.6904 19.1574 19.4834 18.7197 19.3557 18.2843 19.2469 17.9016 19.1864 17.5602 19.1324 17.1187 19.0905 16.755 19.2164 15.7679 19.5579 14.6659 19.75 13.5002 19.75 12.1284 19.75 10.8484 19.4842 9.74062 19.0246 8.5902 18.9103 7.49346 18.6504 6.4777 18.2676 6.34784 18.2187 6.17247 18.2017 5.96191 18.2108 6.28369 18.5648 6.64331 18.8931 7.03418 19.192 8.71436 20.4768 11.0029 21.25 13.5002 21.25 14.8299 21.25 16.0977 21.031 17.2454 20.6339 17.2404 20.6357 17.2425 20.6356 17.2527 20.6351 17.2867 20.6334 17.4104 20.6273 17.6673 20.668 17.9609 20.7144 18.3279 20.8039 18.7373 20.9233 19.5531 21.1613 20.4655 21.4969 21.1569 21.7659 22.1542 22.154 23.1721 21.194 22.8362 20.1742 22.6223 19.5246 22.3681 18.6983 22.2017 17.9811 22.1181 17.6206 22.0617 17.3088 22.0402 17.0708 22.0294 16.9517 22.0291 16.869 22.0331 16.8178L22.0339 16.8097C22.4926 15.9507 22.7502 15.0008 22.7502 14 22.7502 13.0447 22.5169 12.1419 22.1016 11.3205zM22.0373 16.7847C22.0373 16.7847 22.037 16.7858 22.0366 16.7882L22.0373 16.7847z" fill="#828282"/></svg>