<svg width="24" height="24" viewBox="0 0 24 24" fill="none" xmlns="http://www.w3.org/2000/svg"><path fill-rule="evenodd" clip-rule="evenodd" d="M4.53407 4.30804C6.21426 3.02319 8.50283 2.25 11.0001 2.25 13.4973 2.25 15.7859 3.02319 17.4661 4.30804 19.1469 5.59341 20.2501 7.42231 20.2501 9.5 20.2501 11.5777 19.1469 13.4066 17.4661 14.692 15.7859 15.9768 13.4973 16.75 11.0001 16.75 9.67039 16.75 8.4025 16.531 7.25485 16.1339 7.25984 16.1356 7.25779 16.1355 7.24749 16.135 7.21353 16.1334 7.08984 16.1273 6.8329 16.168 6.53938 16.2144 6.17231 16.3039 5.76299 16.4233 4.94715 16.6613 4.03473 16.9968 3.34334 17.2659 2.34608 17.654 1.32817 16.694 1.66404 15.6741 1.87797 15.0246 2.13211 14.1983 2.29849 13.4811 2.38214 13.1206 2.43854 12.8088 2.46008 12.5708 2.47086 12.4517 2.47115 12.369 2.4671 12.3178 2.46687 12.3149 2.46663 12.3122 2.46639 12.3097 2.00761 11.4507 1.75007 10.5008 1.75007 9.5 1.75007 7.42231 2.85319 5.59341 4.53407 4.30804z" fill="#4555a5"/><path fill-rule="evenodd" clip-rule="evenodd" d="M22.1016 10.8205C21.2222 15.2293 16.6219 18.5907 11.0789 18.5907 9.4386 18.5907 7.88089 18.2964 6.4777 17.7676 6.34784 17.7187 6.17247 17.7017 5.96191 17.7108 6.28369 18.0648 6.64331 18.3931 7.03418 18.692 8.71436 19.9768 11.0029 20.75 13.5002 20.75 14.8299 20.75 16.0977 20.531 17.2454 20.1339 17.2404 20.1357 17.2425 20.1356 17.2527 20.1351 17.2867 20.1334 17.4104 20.1273 17.6673 20.168 17.9609 20.2144 18.3279 20.3039 18.7373 20.4233 19.5531 20.6613 20.4655 20.9969 21.1569 21.2659 22.1542 21.654 23.1721 20.694 22.8362 19.6742 22.6223 19.0246 22.3681 18.1983 22.2017 17.4811 22.1181 17.1206 22.0617 16.8088 22.0402 16.5708 22.0294 16.4517 22.0291 16.369 22.0331 16.3178L22.0339 16.3097C22.4926 15.4507 22.7502 14.5008 22.7502 13.5 22.7502 12.5447 22.5169 11.6419 22.1016 10.8205z" fill="#4555a5"/></svg>