<svg width="24" height="24" viewBox="0 0 24 24" fill="none" xmlns="http://www.w3.org/2000/svg"><path fill-rule="evenodd" clip-rule="evenodd" d="M3.6001 6.99998c0-2.9823399999999998 2.41766-5.4 5.4-5.4 2.9823000000000004.0 5.4 2.41766 5.4 5.4C14.4001 9.98231 11.9824 12.4 9.0001 12.4 6.01776 12.4 3.6001 9.98231 3.6001 6.99998z" fill="#4555a5"/><path fill-rule="evenodd" clip-rule="evenodd" d="M3.50961 15.0579C4.93155 14.1336 6.85975 13.6 9.0001 13.6 11.1404 13.6 13.0686 14.1336 14.4906 15.0579 15.9102 15.9806 16.9001 17.3555 16.9001 19 16.9001 19.6886 16.556 20.277 16.1124 20.7307 15.6664 21.1869 15.0609 21.572 14.3694 21.8832 12.9826 22.5073 11.1026 22.9 9.0001 22.9 6.89762 22.9 5.01759 22.5073 3.63077 21.8832 2.93931 21.572 2.33381 21.1869 1.88784 20.7307 1.44418 20.277 1.1001 19.6886 1.1001 19 1.1001 17.3555 2.09002 15.9806 3.50961 15.0579z" fill="#4555a5"/><path fill-rule="evenodd" clip-rule="evenodd" d="M14.5089 11.3193C14.1756 11.7438 14.3604 12.4 14.9 12.4 17.8824 12.4 20.3 9.98231 20.3 6.99998c0-2.9823399999999998-2.4176-5.4-5.4-5.4C14.3604 1.59998 14.1756 2.25622 14.5089 2.68068 15.443 3.87035 16 5.37012 16 7 16 8.62987 15.443 10.1296 14.5089 11.3193z" fill="#4555a5"/><path fill-rule="evenodd" clip-rule="evenodd" d="M17.2566 21.8508C16.8975 22.1144 17.0746 22.7614 17.5138 22.6872 18.5559 22.5113 19.4904 22.2337 20.2693 21.8832 20.9608 21.5721 21.5663 21.1869 22.0123 20.7308 22.4559 20.277 22.8 19.6887 22.8 19 22.8 17.3555 21.8101 15.9806 20.3905 15.0579 19.4863 14.4702 18.3774 14.0404 17.1395 13.8054 16.7287 13.7274 16.5276 14.2911 16.8404 14.5685 18.1082 15.6926 19 17.2113 19 18.9678 19 19.8564 18.5645 20.6155 18.0029 21.201 17.7737 21.4399 17.5229 21.6554 17.2566 21.8508z" fill="#4555a5"/></svg>