<svg width="24" height="25" viewBox="0 0 24 25" fill="none" xmlns="http://www.w3.org/2000/svg"><path d="M12 3C8.13401 3 5 6.13401 5 10V14.4692C5 15.075 4.58771 15.6031 4 15.75 3.41229 15.8969 3 16.425 3 17.0308V17.3153C3 18.2458 3.75425 19 4.68466 19H19.3153C20.2458 19 21 18.2458 21 17.3153V17.0308C21 16.425 20.5877 15.8969 20 15.75 19.4123 15.6031 19 15.075 19 14.4692V10C19 6.13401 15.866 3 12 3z" stroke="#828282" stroke-width="1.5"/><path d="M12 22.5C13.933 22.5 15.5 21.2464 15.5 19.7 15.5 19.4583 15.4617 19.2237 15.3897 19H8.61027C8.53828 19.2237 8.5 19.4583 8.5 19.7 8.5 21.2464 10.067 22.5 12 22.5z" stroke="#828282" stroke-width="1.5"/></svg>