<svg width="24" height="24" viewBox="0 0 24 24" fill="none" xmlns="http://www.w3.org/2000/svg"><path fill-rule="evenodd" clip-rule="evenodd" d="M4.25 9.5C4.25 5.21979 7.71979 1.75 12 1.75 16.2802 1.75 19.75 5.21979 19.75 9.5V13.9692C19.75 14.2309 19.9281 14.4589 20.1819 14.5224 21.1035 14.7528 21.75 15.5808 21.75 16.5308V16.8153C21.75 18.16 20.66 19.25 19.3153 19.25H4.68466C3.34003 19.25 2.25 18.16 2.25 16.8153V16.5308C2.25 15.5808 2.89652 14.7528 3.8181 14.5224 4.07193 14.4589 4.25 14.2309 4.25 13.9692V9.5z" fill="#4555a5"/><path fill-rule="evenodd" clip-rule="evenodd" d="M7.93848 20.2662C8.49582 21.7792 10.2093 22.75 12 22.75 13.7907 22.75 15.5041 21.7792 16.0615 20.2662H7.93848z" fill="#4555a5"/></svg>