<svg width="32" height="32" viewBox="0 0 32 32" fill="none" xmlns="http://www.w3.org/2000/svg"><path d="M4.41985.0H17.8251C19.3829.0 20.6453 1.26063 20.6453 2.81625V29.1838C20.6453 30.7394 19.3829 32 17.8251 32H4.41985C2.86202 32 1.59961 30.7394 1.59961 29.1838V2.81625C1.59961 1.26063 2.86202.0 4.41985.0z" fill="#6073ba"/><path d="M17.815 1.33937H15.0423v.85938C15.0423 2.74437 14.5992 3.18687 14.0528 3.18687H8.19323C7.64683 3.18687 7.2037 2.74437 7.2037 2.19875V1.33937H4.43103C3.58609 1.33937 2.90137 2.02312 2.90137 2.86687V28.5469C2.90137 29.7144 3.84896 30.6606 5.01811 30.6606H17.2279C18.397 30.6606 19.3446 29.7144 19.3446 28.5469V2.86687C19.3446 2.02312 18.6599 1.33937 17.815 1.33937z" fill="#f2f2fc"/><mask id="mask0" mask-type="alpha" maskUnits="userSpaceOnUse" x="2" y="1" width="18" height="30"><path d="M17.815 1.33937H15.0423v.85938C15.0423 2.74437 14.5992 3.18687 14.0528 3.18687H8.19323C7.64683 3.18687 7.2037 2.74437 7.2037 2.19875V1.33937H4.43103C3.58609 1.33937 2.90137 2.02312 2.90137 2.86687V28.5469C2.90137 29.7144 3.84896 30.6606 5.01811 30.6606H17.2279C18.397 30.6606 19.3446 29.7144 19.3446 28.5469V2.86687C19.3446 2.02312 18.6599 1.33937 17.815 1.33937z" fill="#fafaff"/></mask><g mask="url(#mask0)"><path d="M12.522 24.8969 14.6525 22.8987 13.8069 22.7419C13.3989 22.66 13.1053 22.1869 13.1053 21.7712V19.9181H11.1275 9.14973V21.7712C9.14973 22.1869 8.85619 22.66 8.44811 22.7419L7.60254 22.8987 9.73305 24.8969C10.516 25.6325 11.7378 25.6325 12.522 24.8969z" fill="#ffe7cf"/><path d="M12.1465 19.9181v2.8094C12.1465 23.1431 12.44 23.6162 12.8481 23.6981L13.5773 23.9062 14.6519 22.8981 13.8063 22.7412C13.3983 22.6594 13.1047 22.1862 13.1047 21.7706V19.9175L12.1465 19.9181z" fill="#f4d5ba"/><path d="M13.5965 22.64 11.1274 24.4831 8.65829 22.64C8.52561 22.5412 8.35411 22.5112 8.19639 22.5587L4.04802 23.8087C3.60176 23.9431 3.27004 24.3181 3.19118 24.7775L2.27739 30.1206C2.21417 30.4881 2.49833 30.8244 2.87198 30.8244H19.3847C19.7584 30.8244 20.0419 30.4887 19.9793 30.1206L19.0655 24.7775C18.9873 24.3187 18.6556 23.9437 18.2087 23.8087L14.0603 22.5587C13.9007 22.5112 13.7292 22.5412 13.5965 22.64z" fill="#acc5e8"/><path d="M8.19495 22.5587 7.48145 22.7737 9.0568 24.975C9.18073 25.1481 9.40855 25.2125 9.60508 25.1287L11.1272 24.4831 8.65811 22.64C8.5248 22.5412 8.3533 22.5112 8.19495 22.5587z" fill="#97b0db"/><path d="M12.6488 25.1287C12.8454 25.2119 13.0732 25.1481 13.1971 24.975L14.7725 22.7737 14.7687 22.7725 14.0589 22.5587C13.9006 22.5112 13.7291 22.5412 13.597 22.64L11.1279 24.4831 12.6488 25.1287z" fill="#97b0db"/><path d="M11.1264 24.4831 9.92969 24.9912 10.6288 25.8031H11.6233L12.3231 24.9912 11.1264 24.4831z" fill="#aeedc7"/><path d="M11.6236 25.8031H11.1267 10.6291L9.71094 30.8244H12.5418L11.6236 25.8031z" fill="#aeedc7"/><path d="M11.1271 29.8919C11.1271 29.8919 8.35376 22.5112 8.19541 22.5587L4.04704 23.8087C3.60078 23.9431 3.26907 24.3181 3.1902 24.7775L2.27641 30.1206C2.2132 30.4881 2.49735 30.8244 2.871 30.8244H19.3837C19.7574 30.8244 20.0409 30.4887 19.9783 30.1206L19.0645 24.7775C18.9863 24.3187 18.6546 23.9437 18.2077 23.8087L14.0593 22.5587C13.9004 22.5112 11.1271 29.8919 11.1271 29.8919z" fill="#e1eaf9"/><path d="M19.9772 30.1206 19.0634 24.7775C18.9852 24.3188 18.6535 23.9438 18.2066 23.8088L14.0582 22.5588C14.015 22.5456 13.7791 23.0819 13.458 23.8694L16.4666 24.7756C16.6938 24.8444 16.8628 25.035 16.9029 25.2694L17.853 30.8244H19.3833C19.7563 30.8244 20.0404 30.4881 19.9772 30.1206z" fill="#caddea"/><path d="M15.5371 26.6513C15.37 26.6513 15.2348 26.5162 15.2348 26.3494V22.92C15.2348 21.7737 14.3379 20.8337 13.1926 20.78 13.0255 20.7719 12.8965 20.6306 12.9047 20.4637 12.9128 20.2969 13.0542 20.1687 13.2214 20.1762 14.6903 20.2456 15.8407 21.4506 15.8407 22.92V26.3494C15.8394 26.5156 15.7042 26.6513 15.5371 26.6513z" fill="#4555a5"/><path d="M6.71734 24.416C6.55023 24.416 6.41504 24.281 6.41504 24.1141V22.9204C6.41504 21.4554 7.56229 20.2504 9.02623 20.1772 9.19335 20.1685 9.33542 20.2972 9.34356 20.4641 9.35169 20.631 9.22339 20.7729 9.05628 20.781 7.91403 20.8379 7.01964 21.7779 7.01964 22.921V24.1147C7.01964 24.2804 6.88445 24.416 6.71734 24.416z" fill="#4555a5"/><path d="M15.5335 27.8088C16.2311 27.8088 16.7966 27.2441 16.7966 26.5475 16.7966 25.8509 16.2311 25.2863 15.5335 25.2863 14.836 25.2863 14.2705 25.8509 14.2705 26.5475 14.2705 27.2441 14.836 27.8088 15.5335 27.8088z" fill="#6073ba"/><path d="M15.534 27.1031C15.8412 27.1031 16.0904 26.8544 16.0904 26.5475 16.0904 26.2406 15.8412 25.9919 15.534 25.9919 15.2267 25.9919 14.9775 26.2406 14.9775 26.5475 14.9775 26.8544 15.2267 27.1031 15.534 27.1031z" fill="#caddea"/><path d="M7.71746 29.0225H7.34005C7.17294 29.0225 7.03775 28.8875 7.03775 28.7206 7.03775 28.5538 7.17294 28.4188 7.34005 28.4188H7.71746C7.76315 28.4188 7.80696 28.3994 7.83763 28.3663 7.8683 28.3331 7.88457 28.2875 7.88081 28.2425L7.6605 25.4181C7.65237 25.3181 7.62858 25.2206 7.58978 25.1281 7.45021 24.7987 7.11911 24.5869 6.74483 24.5869 6.74233 24.5869 6.74045 24.5869 6.73795 24.5869L6.68788 24.5875C6.30296 24.59 5.95872 24.8244 5.83167 25.17 5.80225 25.25 5.7841 25.3338 5.77721 25.4188L5.5569 28.2431C5.55315 28.2888 5.56879 28.3338 5.60009 28.3669 5.63076 28.4006 5.67519 28.4194 5.72026 28.4194H6.09767C6.26478 28.4194 6.39997 28.5544 6.39997 28.7213 6.39997 28.8881 6.26478 29.0231 6.09767 29.0231H5.72026C5.50683 29.0231 5.30091 28.9331 5.15571 28.7769 5.0105 28.62 4.93665 28.4088 4.95355 28.1956L5.17386 25.3712C5.18513 25.2306 5.21517 25.0931 5.26399 24.9612 5.47804 24.3806 6.04885 23.9881 6.68412 23.9837L6.73419 23.9831C6.73795 23.9831 6.7417 23.9831 6.74546 23.9831 7.36321 23.9831 7.91273 24.3394 8.14744 24.8925 8.21191 25.045 8.25134 25.2062 8.26448 25.3712L8.48479 28.1956C8.50169 28.4081 8.42784 28.62 8.28263 28.7769 8.1368 28.9325 7.93151 29.0225 7.71746 29.0225z" fill="#6073ba"/><path d="M7.63616 17.1925V16.0619H6.94518C6.61659 16.0619 6.35059 16.3275 6.35059 16.6556V17.115C6.35059 17.4431 6.61659 17.7087 6.94518 17.7087H7.63553V17.1925H7.63616z" fill="#f4d5ba"/><path d="M15.3075 16.0619H14.6172V17.1925 17.7087H15.3075C15.6361 17.7087 15.9021 17.4431 15.9021 17.115V16.6556C15.9021 16.3281 15.6361 16.0619 15.3075 16.0619z" fill="#f4d5ba"/><path d="M13.6652 12.2119C13.07 11.7 12.2326 11.7331 11.1266 11.7206 10.0207 11.7331 9.18387 11.6994 8.58802 12.2119 7.8282 12.865 7.41699 13.835 7.41699 14.8356V17.745C7.41699 18.7456 8.6769 21.4006 11.1266 21.4006 13.5763 21.4006 14.8362 18.7456 14.8362 17.745V14.8356C14.8362 13.835 14.425 12.865 13.6652 12.2119z" fill="#ffe7cf"/><path d="M13.6652 12.2119C13.4286 12.0087 13.1538 11.8912 12.8396 11.8231 12.8396 11.8244 12.8396 11.8262 12.8396 11.8275V17.7456C12.8396 18.6 11.9214 20.6594 10.1289 21.2444 10.4362 21.3444 10.7692 21.4019 11.1272 21.4019 13.5769 21.4019 14.8368 18.7469 14.8368 17.7462V14.8369C14.8362 13.835 14.425 12.865 13.6652 12.2119z" fill="#f4d5ba"/><path d="M13.3582 10.7969H11.1269 8.8956C7.7471 10.7969 6.81641 11.7263 6.81641 12.8731V16.2819C6.81641 16.2819 7.38909 16.2687 7.75711 16.6325 7.83347 16.7081 7.96365 16.6531 7.96365 16.545V13.7563C7.96365 13.2494 8.37486 12.8387 8.88245 12.8387H9.71739C9.93645 12.8387 10.1486 12.9144 10.3182 13.0525L10.4002 13.1194C10.6055 13.2869 10.8621 13.3781 11.1269 13.3781 11.3916 13.3781 11.6482 13.2869 11.8535 13.1194L11.9355 13.0525C12.1051 12.9144 12.3173 12.8387 12.5364 12.8387H13.3713C13.8789 12.8387 14.2901 13.2494 14.2901 13.7563V16.5456C14.2901 16.6531 14.4203 16.7088 14.4966 16.6331 14.8647 16.2694 15.4374 16.2825 15.4374 16.2825V12.8737C15.4374 11.7262 14.5067 10.7969 13.3582 10.7969z" fill="#6073ba"/><path d="M13.3579 10.7969H11.3613C12.4992 10.7969 13.4224 11.7094 13.4399 12.8413 13.9156 12.8763 14.2898 13.2725 14.2898 13.7563V16.5456C14.2898 16.6531 14.42 16.7088 14.4964 16.6331 14.8644 16.2694 15.4371 16.2825 15.4371 16.2825V12.8737C15.4371 11.7262 14.5064 10.7969 13.3579 10.7969z" fill="#4555a5"/></g><path d="M18.602 7.89249V12.99L17.128 14.1981C16.9139 14.3737 17.0379 14.7206 17.3151 14.7206H28.295C29.2501 14.7206 30.0244 13.9475 30.0244 12.9937V7.89249C30.0244 6.93874 29.2501 6.16562 28.295 6.16562H20.3313C19.3762 6.16562 18.602 6.93874 18.602 7.89249z" fill="#aeedc7" stroke="#7cce99" stroke-miterlimit="10"/><path d="M26.7725 9.62249H25.092V7.94437H23.4491V9.62249H21.7686V11.2631H23.4491V12.9412H25.092V11.2631H26.7725V9.62249z" fill="#6073ba"/></svg>