<svg width="24" height="24" viewBox="0 0 24 24" fill="none" xmlns="http://www.w3.org/2000/svg"><g clip-path="url(#clip0)"><path d="M19.1165 16.0506H17.7801V14.7426C17.7848 14.5375 17.6202 14.3675 17.4124 14.3629 17.4102 14.3629 17.4081 14.3629 17.4059 14.3629H16.2085C15.9938 14.3624 15.8181 14.5308 15.8129 14.7426V16.0506H14.4551C14.2405 16.0502 14.0647 16.2186 14.0596 16.4304v1.1814C14.0647 17.8236 14.2405 17.992 14.4551 17.9916H15.8129V19.3418C15.8181 19.5536 15.9938 19.7219 16.2085 19.7215H17.4059C17.6138 19.7202 17.7814 19.5532 17.7801 19.3481 17.7801 19.346 17.7801 19.3439 17.7801 19.3418V17.9916H19.1165C19.3244 17.9903 19.492 17.8232 19.4907 17.6181 19.4907 17.616 19.4907 17.6139 19.4907 17.6118V16.4304C19.4954 16.2253 19.3308 16.0553 19.123 16.0506 19.1208 16.0506 19.1187 16.0506 19.1165 16.0506zM18.892 17.4008H17.577C17.3623 17.4004 17.1866 17.5688 17.1814 17.7806V19.1308h-.7698V17.7806C16.4164 17.5755 16.2517 17.4055 16.0439 17.4008 16.0417 17.4008 16.0396 17.4008 16.0375 17.4008H14.6583V16.6413H16.0375C16.2453 16.6401 16.4129 16.473 16.4116 16.2679 16.4116 16.2658 16.4116 16.2637 16.4116 16.2616V14.9536h.7698V16.2616C17.1866 16.4734 17.3623 16.6418 17.577 16.6413H18.892V17.4008z" fill="#000"/><path d="M16.875 11.8808C15.1965 11.8812 13.6249 12.6926 12.6669 14.0525 12.5861 14.0281 12.51 14.0044 12.4381 13.9812L12.1478 13.1682C13.0458 12.5044 13.2917 11.4677 13.3589 10.9656 13.9627 10.804 14.5174 10.104 14.7398 9.17617 14.8595 8.67448 14.6842 8.20697 14.3031 8.0133 14.1975 7.95972 14.0807 7.93187 13.9619 7.93145 13.9815 7.78588 14.0021 7.60782 14.0234 7.38883 14.073 6.87702 14.1047 6.36014 14.1047 6.22934 14.1047 6.13651 14.1064 6.04073 14.1085 5.93946 14.1244 5.13145 14.144 4.12596 13.2408 3.22469 12.43 2.41583 11.2822 1.96984 10.0925 2.00233 8.90701 2.0344 7.79554 2.53355 7.04244 3.37153 7.01935 3.39727 6.99583 3.42343 6.97188 3.44959 6.51772 3.95001 5.89591 4.63566 5.94039 6.39136 5.94466 6.56309 6.11145 7.35085 6.28422 7.95128 6.18372 7.96098 6.08579 7.99094 5.99726 8.03862 5.63162 8.23356 5.46398 8.69052 5.5803 9.17575 5.80268 10.1053 6.35906 10.8061 6.96461 10.966 7.03688 11.4585 7.29048 12.4846 8.16546 13.1492L7.78228 13.9268C7.50859 14.0116 7.20025 14.0952 6.88165 14.1833 4.82336 14.7525 2 15.5319 2 18.0635V20.7108C2 21.3361 2.33913 22.0006 2.94768 22.0006H16.893C16.896 22.0006 16.8985 22.0002 16.9011 22.0002 19.7334 21.9842 22.0163 19.7057 22 16.9116 21.9837 14.1298 19.6945 11.8825 16.875 11.8808zM7.41835 3.84326C7.44273 3.81625 7.4671 3.78967 7.49062 3.76309 8.13381 3.04663 9.08833 2.62005 10.1087 2.59263 11.1342 2.56436 12.1204 2.94663 12.8149 3.63988 13.5406 4.36393 13.5239 5.19474 13.5098 5.92807 13.5077 6.03229 13.506 6.13102 13.506 6.22934 13.506 6.29178 13.4996 6.42174 13.4884 6.58714 13.3435 6.05634 13.1412 5.54326 12.8624 5.24368L12.8401 5.1998C12.7661 5.05381 12.5865 4.99474 12.4386 5.06773 12.3774 5.09811 12.3282 5.1479 12.3 5.2095 11.8176 6.25634 11.3399 6.21415 10.5483 6.14453 10.4564 6.13651 10.3627 6.12807 10.2678 6.12174 9.96673 6.10064 9.85768 6.27448 9.82475 6.34959 9.72724 6.57322 9.86281 6.81457 10.1108 7.10107 9.32055 7.00782 9.12041 6.43777 8.93994 5.92343 8.81463 5.56647 8.67265 5.16182 8.25997 5.16182 7.85755 5.15423 7.47138 5.31836 7.20068 5.61204 6.89405 5.93693 6.72128 6.40022 6.62506 6.85423 6.58614 6.69727 6.55749 6.53777 6.53953 6.37702 6.50061 4.85507 6.98813 4.31752 7.41835 3.84326zM7.53595 10.693C7.52826 10.5352 7.39697 10.4103 7.2366 10.4095 7.23232 10.4095 7.22805 10.4095 7.22377 10.4095 6.78543 10.4095 6.32228 9.70402 6.16319 9.03988 6.10204 8.78503 6.18244 8.61161 6.28251 8.55803 6.39583 8.49769 6.51643 8.60402 6.56305 8.65254 6.6768 8.77069 6.86625 8.77575 6.98642 8.66351 7.03688 8.61626 7.06939 8.55296 7.07751 8.48461 7.10702 8.43398 7.1207 8.37575 7.11643 8.31752 7.08478 7.86436 7.11686 6.56773 7.63987 6.01457 7.78955 5.85085 8.00167 5.75634 8.2249 5.75339 8.26981 5.81752 8.3301 5.98841 8.37501 6.1171 8.59696 6.74959 9.00964 7.92638 10.84 7.669 11.0038 7.64579 11.1175 7.49642 11.094 7.33482 11.0842 7.26731 11.0513 7.20529 11.0004 7.15887 10.8554 7.02723 10.7177 6.88799 10.5877 6.74157 11.2916 6.80191 12.0092 6.82469 12.6028 5.9036 12.9778 6.59727 13.1728 7.97702 13.2207 8.52512 13.234 8.67786 13.3636 8.79516 13.5188 8.79516 13.5274 8.79516 13.5359 8.79474 13.5449 8.79389 13.6552 8.78461 13.7514 8.71541 13.7946 8.61499 13.8537 8.55718 13.9439 8.49516 14.0298 8.53862 14.1398 8.59431 14.2189 8.78503 14.1577 9.04073 13.9986 9.70486 13.5355 10.4108 13.0971 10.4108H13.0899C13.0317 10.4099 12.9748 10.4255 12.9252 10.4559 12.8401 10.5082 12.7875 10.599 12.785 10.6977 12.7721 10.939 12.6562 12.1741 11.6363 12.7998 11.6346 12.8006 11.6333 12.8019 11.6316 12.8028 11.2343 13.0445 10.7399 13.1673 10.1613 13.1673 9.58441 13.1673 9.0909 13.042 8.69404 12.7943 7.68692 12.1669 7.55263 10.934 7.53595 10.693zM8.26425 14.299 8.67907 13.4576C9.10843 13.6563 9.60493 13.7568 10.16 13.7568 10.707 13.7568 11.1967 13.661 11.6217 13.4728L11.9224 14.3137C11.9527 14.399 12.0212 14.466 12.108 14.4952 12.1824 14.5201 12.2615 14.5458 12.3449 14.572 12.1982 14.8437 12.0772 15.1281 11.9831 15.4217 11.706 15.7454 11.1248 16.2407 10.16 16.2407 9.50187 16.2479 8.87151 15.9779 8.42675 15.499 8.11115 15.1648 7.93239 14.7922 7.87209 14.5179 7.94565 14.4956 8.01749 14.4736 8.08763 14.4509 8.16503 14.426 8.22875 14.3711 8.26425 14.299zM2.59871 20.7108V18.0635C2.59871 15.9795 5.06541 15.299 7.04287 14.7521 7.12669 14.7289 7.21179 14.7061 7.29305 14.6833 7.50987 15.5812 8.48534 16.831 10.1583 16.831 10.7318 16.8382 11.2946 16.68 11.7778 16.3758 11.5439 18.4403 12.6122 20.4365 14.4729 21.4099H2.94768C2.75694 21.4099 2.59871 21.034 2.59871 20.7108zM16.875 21.4099C14.3733 21.4099 12.3453 19.4091 12.3453 16.9407 12.3453 14.4724 14.3733 12.4715 16.875 12.4715 19.3768 12.4715 21.4047 14.4724 21.4047 16.9407 21.4021 19.4078 19.3755 21.4074 16.875 21.4099z" fill="#000"/></g><defs><clipPath id="clip0"><path d="M0 0h20v20H0z" fill="#fff" transform="translate(2 2)"/></clipPath></defs></svg>