<svg width="24" height="24" viewBox="0 0 24 24" fill="none" xmlns="http://www.w3.org/2000/svg"><path d="M8.5 10C10.433 10 12 8.433 12 6.5 12 4.567 10.433 3 8.5 3 6.567 3 5 4.567 5 6.5 5 8.433 6.567 10 8.5 10z" stroke="#333" stroke-width="1.5" stroke-linecap="round" stroke-linejoin="round"/><path d="M11.515 19.7962C10.6939 19.9321 9.85097 20 8.99056 20 7.03388 20 5.1733 19.6392 3.48304 18.9939 2.09415 18.4591 1.53073 16.9606 2.44792 15.8908 3.95037 14.1334 6.32197 13 8.98619 13 10.445 13 11.812 13.3396 13 13.9339" stroke="#333" stroke-width="1.5" stroke-linecap="round" stroke-linejoin="round"/><path d="M11 16.4108H12.9673L15.3224 21 17.6816 12 20.0367 16.4108H22" stroke="#333" stroke-width="1.5" stroke-linecap="round" stroke-linejoin="round"/></svg>