<svg width="32" height="32" viewBox="0 0 32 32" fill="none" xmlns="http://www.w3.org/2000/svg"><path d="M15.9112 15.3776C18.3112 15.3776 20.1779 13.422 20.1779 11.022 20.1779 8.62204 18.2223 6.75537 15.8223 6.75537 13.4223 6.75537 11.5557 8.71093 11.5557 11.022 11.5557 13.422 13.5112 15.3776 15.9112 15.3776zM15.8223 8.53315c.08889999999999887.0.08889999999999887.0.0.0C17.2446 8.53315 18.4001 9.6887 18.4001 11.1109 18.4001 12.5331 17.2446 13.5998 15.8223 13.5998 14.4001 13.5998 13.3334 12.4443 13.3334 11.1109 13.3334 9.6887 14.489 8.53315 15.8223 8.53315z" fill="url(#paint0_linear)"/><path d="M29.0668 14.8446C27.3779 13.3335 25.1557 12.5335 22.8446 12.6224H22.5239C22.2944 12.6224 22.0964 12.7792 22.0286 12.9984 21.9789 13.1595 21.9241 13.3156 21.8643 13.4667 21.7032 13.8737 22.0453 14.4056 22.483 14.4013 22.6002 14.4002 22.72 14.4002 22.8446 14.4002 24.4473 14.3158 26.05 14.7918 27.3488 15.6762 27.4805 15.7658 27.5557 15.9165 27.5557 16.0758V21.7224c0 .27619999999999933.22389999999999688.5.5.5H28.8335c.27609999999999957.0.5-.22380000000000067.5-.5v-6.404C29.3335 15.1858 29.2808 15.0586 29.187 14.9649L29.0668 14.8446z" fill="url(#paint1_linear)"/><path d="M20.1858 6.23303C20.4858 6.4966 21.0392 6.44442 21.3364 6.17767 21.9288 5.64591 22.8099 5.45679 23.6446 5.77782 24.7112 6.22227 25.2446 7.46671 24.8001 8.62227 24.4446 9.42227 23.6446 9.9556 22.8446 9.9556 22.5866 9.9556 22.284 10.2379 22.2986 10.4954 22.3112 10.7164 22.3112 10.9259 22.3112 11.1112V11.1445C22.3112 11.4206 22.5271 11.7118 22.8025 11.7318 22.8165 11.7328 22.8305 11.7334 22.8446 11.7334 25.0668 11.7334 26.8446 9.9556 26.8446 7.82227 26.8446 5.60004 25.0668 3.82227 22.9334 3.82227 21.6756 3.82227 20.5568 4.37851 19.823 5.36802 19.661 5.5865 19.7447 5.88665 19.9618 6.05063 20.0374 6.10778 20.1122 6.16843 20.1858 6.23303z" fill="url(#paint2_linear)"/><path d="M9.47212 14.41C9.91678 14.4366 10.2767 13.9219 10.1164 13.5062 10.0641 13.3706 10.0157 13.2309 9.97135 13.0873 9.90361 12.8681 9.70555 12.7113 9.47612 12.7113H9.15539C6.84428 12.6224 4.62206 13.4224 2.93317 14.8446L2.81295 14.9648C2.71918 15.0586 2.6665 15.1858 2.6665 15.3184v6.404c0 .27609999999999957.22385999999999973.5.5.5H3.94428c.27613999999999983.0.5-.22390000000000043.5-.5V16.0854C4.44428 15.9208 4.52489 15.7658 4.66312 15.6764 6.02983 14.7919 7.55258 14.3158 9.15539 14.4002 9.2612 14.4002 9.36701 14.4037 9.47212 14.41z" fill="url(#paint3_linear)"/><path d="M9.15573 11.6445C9.23472 11.6445 9.31372 11.6445 9.39271 11.6367 9.58118 11.6181 9.68906 11.436 9.68906 11.2466V11.0223C9.68906 10.8136 9.68906 10.605 9.69826 10.4056 9.70972 10.1568 9.40479 9.8667 9.15573 9.8667 8.00017 9.8667 7.0224 8.88892 7.0224 7.73337 7.0224 6.57781 8.00017 5.60003 9.15573 5.60003 9.76188 5.60003 10.3267 5.84804 10.7374 6.2595 11.0022 6.52475 11.4913 6.59307 11.7667 6.33885 11.9051 6.21112 12.0486 6.08701 12.19 5.96889 12.3842 5.8068 12.4358 5.52474 12.2807 5.32503 11.0535 3.74575 8.85083 3.27873 7.11129 4.35559 5.24462 5.51114 4.6224 7.91114 5.77795 9.77781 6.48906 10.9334 7.73351 11.6445 9.15573 11.6445z" fill="url(#paint4_linear)"/><path d="M23.022 19.9113C21.2442 17.9557 18.7553 16.8002 16.0887 16.8891 13.4346 16.8006 10.8686 17.9448 9.09176 19.8836 9.07488 19.902 9.05949 19.9217 9.04564 19.9425L8.97265 20.052C8.91789 20.1341 8.88867 20.2306 8.88867 20.3293V26.9335C8.88867 27.7335 9.51089 28.4446 10.3998 28.4446H21.7776C22.5776 28.4446 23.2887 27.7335 23.2887 26.9335V20.3851C23.2887 20.2524 23.236 20.1253 23.1422 20.0315L23.022 19.9113zM21.422 26.1668C21.422 26.443 21.1981 26.6668 20.922 26.6668H11.1664C10.8903 26.6668 10.6664 26.443 10.6664 26.1668V21.0073C10.6664 20.8747 10.7186 20.7468 10.8151 20.6559 12.2233 19.3299 14.1146 18.6668 16.0887 18.6668 17.977 18.581 19.8654 19.324 21.2735 20.6558 21.3699 20.7469 21.422 20.8747 21.422 21.0073V26.1668z" fill="url(#paint5_linear)"/><defs><linearGradient id="paint0_linear" x1="11.5557" y1="6.75537" x2="11.5183" y2="15.3774" gradientUnits="userSpaceOnUse"><stop offset=".00194019" stop-color="#4555a5"/><stop offset="1" stop-color="#6545a5"/></linearGradient><linearGradient id="paint1_linear" x1="21.3335" y1="12.6157" x2="21.2835" y2="22.2222" gradientUnits="userSpaceOnUse"><stop offset=".00194019" stop-color="#4555a5"/><stop offset="1" stop-color="#6545a5"/></linearGradient><linearGradient id="paint2_linear" x1="19.5557" y1="3.82227" x2="19.5184" y2="11.7332" gradientUnits="userSpaceOnUse"><stop offset=".00194019" stop-color="#4555a5"/><stop offset="1" stop-color="#6545a5"/></linearGradient><linearGradient id="paint3_linear" x1="2.6665" y1="12.7046" x2="2.61741" y2="22.2221" gradientUnits="userSpaceOnUse"><stop offset=".00194019" stop-color="#4555a5"/><stop offset="1" stop-color="#6545a5"/></linearGradient><linearGradient id="paint4_linear" x1="5.19482" y1="3.77246" x2="5.15822" y2="11.6443" gradientUnits="userSpaceOnUse"><stop offset=".00194019" stop-color="#4555a5"/><stop offset="1" stop-color="#6545a5"/></linearGradient><linearGradient id="paint5_linear" x1="8.88867" y1="16.8843" x2="8.84844" y2="28.4445" gradientUnits="userSpaceOnUse"><stop offset=".00194019" stop-color="#4555a5"/><stop offset="1" stop-color="#6545a5"/></linearGradient></defs></svg>