<svg width="24" height="24" fill="none" xmlns="http://www.w3.org/2000/svg"><path d="M16.117 15.68l-.619.928c-.123.185-.287.343-.502.4-.705.187-2.576.27-5.425-2.579-2.85-2.849-2.766-4.72-2.58-5.425.058-.215.216-.379.4-.502l.929-.619c.69-.46.877-1.394.417-2.085L6.984 3.17a1.503 1.503 0 00-1.843-.548l-.79.339c-.601.257-1.09.719-1.383 1.303-.244.488-.433 1.003-.46 1.548-.08 1.718.297 5.952 5.013 10.668 4.715 4.715 8.949 5.092 10.667 5.011.545-.026 1.06-.215 1.548-.459a2.763 2.763 0 001.303-1.383l.34-.79a1.503 1.503 0 00-.549-1.843l-2.628-1.753a1.503 1.503 0 00-2.085.417z" fill="#4555A5"/></svg>