<svg width="24" height="25" viewBox="0 0 24 25" fill="none" xmlns="http://www.w3.org/2000/svg">
<path d="M2.5 9.41161C2.5 7.83897 3.77488 6.56409 5.34752 6.56409V6.56409C6.36937 6.56409 7.31288 6.01655 7.81986 5.12934L8.2 4.46409C8.41738 4.08367 8.52607 3.89347 8.6621 3.73956C8.94813 3.41595 9.33124 3.19363 9.75412 3.10584C9.95524 3.06409 10.1743 3.06409 10.6125 3.06409H13.3875C13.8257 3.06409 14.0448 3.06409 14.2459 3.10584C14.6688 3.19363 15.0519 3.41595 15.3379 3.73956C15.4739 3.89347 15.5826 4.08367 15.8 4.46409L16.1801 5.12934C16.6871 6.01655 17.6306 6.56409 18.6525 6.56409V6.56409C20.2251 6.56409 21.5 7.83897 21.5 9.41161V15.7641C21.5 17.4442 21.5 18.2843 21.173 18.9261C20.8854 19.4905 20.4265 19.9495 19.862 20.2371C19.2202 20.5641 18.3802 20.5641 16.7 20.5641H7.3C5.61984 20.5641 4.77976 20.5641 4.13803 20.2371C3.57354 19.9495 3.1146 19.4905 2.82698 18.9261C2.5 18.2843 2.5 17.4442 2.5 15.7641V9.41161Z" stroke="#333333" stroke-width="1.5" stroke-linecap="round" stroke-linejoin="round"/>
<circle cx="12" cy="13.5641" r="4" stroke="#333333" stroke-width="1.5"/>
<circle cx="18.25" cy="9.81409" r="0.75" stroke="#333333" stroke-width="1.5"/>
</svg>
