<svg width="24" height="24" viewBox="0 0 24 24" fill="none" xmlns="http://www.w3.org/2000/svg"><mask id="path-1-inside-1" fill="#fff"><path fill-rule="evenodd" clip-rule="evenodd" d="M19.9504 8.65196C19.2837 9.31863 18.9504 9.65196 18.5362 9.65196 18.122 9.65196 17.7886 9.31863 17.122 8.65196L15.3471 6.87707C14.6804 6.21041 14.3471 5.87707 14.3471 5.46286 14.3471 5.04864 14.6804 4.71531 15.3471 4.04864L15.3957 4C16.0624 3.33333 16.3957 3 16.8099 3 17.2242 3 17.5575 3.33333 18.2242 4L19.999 5.77488C20.6657 6.44155 20.9991 6.77489 20.9991 7.1891 20.9991 7.60332 20.6657 7.93665 19.999 8.60332L19.9504 8.65196zM5 20.999C4.05719 20.999 3.58579 20.999 3.29289 20.7061 3 20.4132 3 19.9418 3 18.999V17.2241C3 16.8154 3 16.611 3.07612 16.4272 3.15224 16.2434 3.29676 16.0989 3.58579 15.8099L11.3679 8.02786C12.0345 7.3612 12.3679 7.02786 12.7821 7.02786 13.1963 7.02786 13.5296 7.3612 14.1963 8.02786L15.9712 9.80275C16.6378 10.4694 16.9712 10.8028 16.9712 11.217 16.9712 11.6312 16.6378 11.9645 15.9712 12.6312l-7.78209 7.782C7.90008 20.7022 7.75557 20.8468 7.5718 20.9229 7.38803 20.999 7.18365 20.999 6.7749 20.999H5z"/></mask><path d="M8.18911 20.4132 9.24977 21.4739 8.18911 20.4132zM7.5718 20.9229 8.14582 22.3087 7.5718 20.9229zM15.9712 9.80275 14.9105 10.8634 15.9712 9.80275zM16.9712 11.217h-1.5 1.5zM11.3679 8.02786 12.4285 9.08852 11.3679 8.02786zM12.7821 7.02786v1.5-1.5zM3.29289 20.7061 4.35355 19.6454 3.29289 20.7061zM3.58579 15.8099 2.52513 14.7492 3.58579 15.8099zM3.07612 16.4272 4.46194 17.0012 3.07612 16.4272zM19.999 8.60332 18.9384 7.54266 19.999 8.60332zM15.3957 4 14.3351 2.93933 15.3957 4zM16.8099 3V1.5 3zM17.122 8.65196 16.0613 9.71262 17.122 8.65196zM19.9504 8.65196 18.8897 7.5913 19.9504 8.65196zM18.5362 9.65196v-1.5 1.5zM15.3471 6.87707 14.2864 7.93774 15.3471 6.87707zm0-2.82843L14.2864 2.98798 15.3471 4.04864zM14.3471 5.46286h-1.5 1.5zM14.2864 7.93774 16.0613 9.71262 18.1826 7.5913 16.4077 5.81641 14.2864 7.93774zM14.3351 2.93933 14.2864 2.98798 16.4077 5.1093 16.4564 5.06066 14.3351 2.93933zM21.0597 4.71422 19.2848 2.93934 17.1635 5.06066 18.9384 6.83555 21.0597 4.71422zM21.0111 9.71263 21.0597 9.66398 18.9384 7.54266 18.8897 7.5913 21.0111 9.71263zM1.5 17.2241V18.999h3V17.2241h-3zM10.3072 6.9672l-7.78207 7.782L4.64645 16.8706 12.4285 9.08852 10.3072 6.9672zM17.0318 8.74209 15.2569 6.9672 13.1356 9.08852 14.9105 10.8634 17.0318 8.74209zM9.24977 21.4739 17.0318 13.6918 14.9105 11.5705 7.12845 19.3526 9.24977 21.4739zM5 22.499H6.7749v-3H5v3zm2.12845-3.1464C7.05392 19.4271 6.99926 19.4817 6.95189 19.5277 6.9048 19.5734 6.87843 19.5973 6.86378 19.6099 6.8502 19.6215 6.85837 19.6133 6.88306 19.5971 6.91064 19.579 6.94979 19.5569 6.99777 19.5371L8.14582 22.3087C8.66935 22.0918 9.04728 21.6764 9.24977 21.4739L7.12845 19.3526zM6.7749 22.499C7.06126 22.499 7.62229 22.5256 8.14582 22.3087L6.99777 19.5371C7.04575 19.5172 7.08907 19.5051 7.12135 19.4984 7.15025 19.4924 7.16185 19.4924 7.14401 19.4938 7.12475 19.4953 7.0892 19.497 7.02358 19.498 6.95757 19.499 6.88031 19.499 6.7749 19.499v3zM14.9105 10.8634C15.0811 11.034 15.2123 11.1654 15.3216 11.2803 15.4314 11.3958 15.4932 11.4679 15.5286 11.5144 15.5635 11.5601 15.5478 11.5488 15.5242 11.4923 15.4957 11.4239 15.4712 11.3268 15.4712 11.217h3C18.4712 10.55 18.1822 10.0465 17.9137 9.69465 17.6716 9.3774 17.3352 9.04544 17.0318 8.74209L14.9105 10.8634zM17.0318 13.6918C17.3352 13.3885 17.6716 13.0565 17.9137 12.7393 18.1822 12.3874 18.4712 11.8839 18.4712 11.217h-3C15.4712 11.1071 15.4957 11.01 15.5242 10.9416 15.5478 10.8852 15.5635 10.8738 15.5286 10.9195 15.4932 10.966 15.4314 11.0382 15.3216 11.1536 15.2123 11.2686 15.0811 11.3999 14.9105 11.5705L17.0318 13.6918zM12.4285 9.08852C12.5991 8.91791 12.7305 8.78672 12.8454 8.67744 12.9609 8.56765 13.033 8.50585 13.0795 8.4704 13.1252 8.43554 13.1139 8.45127 13.0574 8.47481 12.989 8.50333 12.8919 8.52786 12.7821 8.52786v-3C12.1151 5.52786 11.6116 5.81686 11.2598 6.08533 10.9425 6.32739 10.6105 6.66385 10.3072 6.9672L12.4285 9.08852zM15.2569 6.9672C14.9536 6.66385 14.6216 6.32739 14.3044 6.08533 13.9525 5.81686 13.449 5.52786 12.7821 5.52786v3C12.6722 8.52786 12.5751 8.50333 12.5067 8.47481 12.4503 8.45127 12.4389 8.43554 12.4846 8.4704 12.5311 8.50585 12.6033 8.56765 12.7187 8.67744 12.8337 8.78672 12.965 8.91791 13.1356 9.08852L15.2569 6.9672zM1.5 18.999C1.5 19.428 1.49681 19.9006 1.54999 20.2961 1.60896 20.7348 1.76063 21.2952 2.23223 21.7668L4.35355 19.6454C4.43125 19.7231 4.48256 19.8092 4.51075 19.8777 4.53402 19.9342 4.53089 19.9534 4.52324 19.8964 4.51545 19.8385 4.50812 19.7438 4.5041 19.5845 4.5001 19.4259 4.5 19.2403 4.5 18.999h-3zm3.5.5C4.75872 19.499 4.57309 19.4989 4.41455 19.4949 4.25525 19.4909 4.16052 19.4836 4.1026 19.4758 4.04564 19.4681 4.06476 19.465 4.12132 19.4882 4.18985 19.5164 4.27586 19.5678 4.35355 19.6454L2.23223 21.7668C2.70383 22.2384 3.26421 22.39 3.70286 22.449 4.09835 22.5022 4.571 22.499 5 22.499v-3zM4.5 17.2241C4.5 17.1187 4.50003 17.0415 4.50102 16.9754 4.502 16.9098 4.50374 16.8743 4.5052 16.855 4.50656 16.8372 4.50661 16.8488 4.50059 16.8777 4.49387 16.9099 4.48181 16.9533 4.46194 17.0012L1.6903 15.8532C1.47345 16.3767 1.5 16.9378 1.5 17.2241h3zM2.52513 14.7492C2.32264 14.9517 1.90715 15.3297 1.6903 15.8532L4.46194 17.0012C4.44207 17.0492 4.41996 17.0884 4.40189 17.116 4.38571 17.1407 4.37747 17.1488 4.38912 17.1352 4.40171 17.1206 4.42562 17.0942 4.47133 17.0471 4.51731 16.9998 4.57191 16.9451 4.64645 16.8706L2.52513 14.7492zM18.9384 6.83555C19.109 7.00616 19.2402 7.13749 19.3495 7.25242 19.4593 7.36791 19.5211 7.44007 19.5565 7.48654 19.5914 7.53223 19.5756 7.52092 19.5521 7.46447 19.5236 7.39608 19.4991 7.29898 19.4991 7.1891h3C22.4991 6.52216 22.2101 6.01866 21.9416 5.66679 21.6995 5.34953 21.3631 5.01757 21.0597 4.71422L18.9384 6.83555zM21.0597 9.66398C21.3631 9.36063 21.6995 9.02867 21.9416 8.71141 22.2101 8.35954 22.4991 7.85605 22.4991 7.1891h-3C19.4991 7.07922 19.5236 6.98212 19.5521 6.91373 19.5756 6.85729 19.5914 6.84597 19.5565 6.89167 19.5211 6.93813 19.4593 7.01029 19.3495 7.12578 19.2402 7.24071 19.109 7.37205 18.9384 7.54266L21.0597 9.66398zM16.4564 5.06066C16.627 4.89005 16.7583 4.75886 16.8733 4.64958 16.9887 4.53978 17.0609 4.47798 17.1074 4.44253 17.1531 4.40767 17.1418 4.42341 17.0853 4.44694 17.0169 4.47546 16.9198 4.5 16.8099 4.5v-3C16.143 1.5 15.6395 1.789 15.2876 2.05747 14.9704 2.29952 14.6384 2.63599 14.3351 2.93933L16.4564 5.06066zM19.2848 2.93934C18.9815 2.63599 18.6495 2.29952 18.3322 2.05747 17.9804 1.789 17.4769 1.5 16.8099 1.5v3C16.7001 4.5 16.603 4.47546 16.5346 4.44694 16.4781 4.42341 16.4668 4.40767 16.5125 4.44253 16.559 4.47798 16.6311 4.53978 16.7466 4.64958 16.8616 4.75886 16.9929 4.89005 17.1635 5.06066L19.2848 2.93934zM16.0613 9.71262C16.3647 10.016 16.6966 10.3524 17.0139 10.5945 17.3658 10.863 17.8692 11.152 18.5362 11.152V8.15196C18.6461 8.15196 18.7432 8.1765 18.8116 8.20502 18.868 8.22855 18.8793 8.24429 18.8336 8.20943 18.7872 8.17398 18.715 8.11218 18.5995 8.00238 18.4846 7.8931 18.3532 7.76191 18.1826 7.5913L16.0613 9.71262zM18.8897 7.5913C18.7191 7.76191 18.5878 7.8931 18.4729 8.00238 18.3574 8.11218 18.2852 8.17398 18.2388 8.20943 18.1931 8.24429 18.2044 8.22855 18.2608 8.20502 18.3292 8.1765 18.4263 8.15196 18.5362 8.15196V11.152C19.2031 11.152 19.7066 10.863 20.0585 10.5945 20.3758 10.3524 20.7077 10.016 21.0111 9.71263L18.8897 7.5913zM16.4077 5.81641C16.2371 5.6458 16.1059 5.51447 15.9967 5.39953 15.8869 5.28405 15.8251 5.21189 15.7896 5.16542 15.7547 5.11973 15.7705 5.13104 15.794 5.18749 15.8225 5.25588 15.8471 5.35298 15.8471 5.46286h-3C12.8471 6.1298 13.1361 6.6333 13.4045 6.98517 13.6466 7.30243 13.9831 7.63439 14.2864 7.93774L16.4077 5.81641zM14.2864 2.98798C13.9831 3.29133 13.6466 3.62329 13.4045 3.94055 13.1361 4.29242 12.8471 4.79591 12.8471 5.46286h3C15.8471 5.57274 15.8225 5.66984 15.794 5.73823 15.7705 5.79467 15.7547 5.80599 15.7896 5.76029 15.8251 5.71383 15.8869 5.64166 15.9967 5.52618 16.1059 5.41125 16.2371 5.27991 16.4077 5.1093L14.2864 2.98798z" fill="#828282" mask="url(#path-1-inside-1)"/></svg>