<svg width="24" height="24" viewBox="0 0 24 24" fill="none" xmlns="http://www.w3.org/2000/svg"><path fill-rule="evenodd" clip-rule="evenodd" d="M19.9504 8.65196C19.2837 9.31863 18.9504 9.65196 18.5362 9.65196 18.122 9.65196 17.7886 9.31863 17.122 8.65196L15.3471 6.87707C14.6804 6.21041 14.3471 5.87707 14.3471 5.46286 14.3471 5.04864 14.6804 4.71531 15.3471 4.04864L15.3957 4C16.0624 3.33333 16.3957 3 16.8099 3 17.2242 3 17.5575 3.33333 18.2242 4L19.999 5.77488C20.6657 6.44155 20.9991 6.77489 20.9991 7.1891 20.9991 7.60332 20.6657 7.93665 19.999 8.60332L19.9504 8.65196zM5 20.999C4.05719 20.999 3.58579 20.999 3.29289 20.7061 3 20.4132 3 19.9418 3 18.999V17.2241C3 16.8154 3 16.611 3.07612 16.4272 3.15224 16.2434 3.29676 16.0989 3.58579 15.8099L11.3679 8.02786C12.0345 7.3612 12.3679 7.02786 12.7821 7.02786 13.1963 7.02786 13.5296 7.3612 14.1963 8.02786L15.9712 9.80275C16.6378 10.4694 16.9712 10.8028 16.9712 11.217 16.9712 11.6312 16.6378 11.9645 15.9712 12.6312l-7.78209 7.782C7.90008 20.7022 7.75557 20.8468 7.5718 20.9229 7.38803 20.999 7.18365 20.999 6.7749 20.999H5z" fill="#4555a5"/></svg>