<svg width="24" height="24" viewBox="0 0 24 24" fill="none" xmlns="http://www.w3.org/2000/svg">
<path d="M4 3L4 2.25L4 3ZM13.25 7C13.25 7.41421 13.5858 7.75 14 7.75C14.4142 7.75 14.75 7.41421 14.75 7L13.25 7ZM7 13.75C7.41421 13.75 7.75 13.4142 7.75 13C7.75 12.5858 7.41421 12.25 7 12.25L7 13.75ZM3.85355 5.85355L3.32322 6.38388L3.85355 5.85355ZM1.85355 3.85355L1.32322 4.38388L1.85355 3.85355ZM12 2.25L4 2.25L4 3.75L12 3.75L12 2.25ZM1.32322 4.38388L3.32322 6.38388L4.38388 5.32322L2.38388 3.32322L1.32322 4.38388ZM3.25 6.20711L3.25 11L4.75 11L4.75 6.20711L3.25 6.20711ZM4 2.25L2.20711 2.25L2.20711 3.75L4 3.75L4 2.25ZM13.25 5L13.25 7L14.75 7L14.75 5L13.25 5ZM6 13.75L7 13.75L7 12.25L6 12.25L6 13.75ZM3.32322 6.38388C3.27634 6.337 3.25 6.27341 3.25 6.20711L4.75 6.20711C4.75 5.87559 4.61831 5.55764 4.38388 5.32322L3.32322 6.38388ZM2.38388 3.32322C2.54137 3.48071 2.42983 3.75 2.20711 3.75L2.20711 2.25C1.09348 2.25 0.535768 3.59643 1.32322 4.38388L2.38388 3.32322ZM3.25 11C3.25 12.5188 4.48122 13.75 6 13.75L6 12.25C5.30964 12.25 4.75 11.6904 4.75 11L3.25 11ZM12 3.75C12.6904 3.75 13.25 4.30964 13.25 5L14.75 5C14.75 3.48122 13.5188 2.25 12 2.25L12 3.75Z" fill="#333333"/>
<path d="M10 19L10 12C10 10.8954 10.8954 10 12 10L20 10L21.7929 10C22.2383 10 22.4614 10.5386 22.1464 10.8536L20.1464 12.8536C20.0527 12.9473 20 13.0745 20 13.2071L20 19C20 20.1046 19.1046 21 18 21L12 21C10.8954 21 10 20.1046 10 19Z" stroke="#333333" stroke-width="1.5"/>
<path d="M7 6.25C6.58579 6.25 6.25 6.58579 6.25 7C6.25 7.41421 6.58579 7.75 7 7.75V6.25ZM11 7.75C11.4142 7.75 11.75 7.41421 11.75 7C11.75 6.58579 11.4142 6.25 11 6.25V7.75ZM7 7.75H11V6.25H7V7.75Z" fill="#333333"/>
<path d="M13 13.25C12.5858 13.25 12.25 13.5858 12.25 14C12.25 14.4142 12.5858 14.75 13 14.75V13.25ZM17 14.75C17.4142 14.75 17.75 14.4142 17.75 14C17.75 13.5858 17.4142 13.25 17 13.25V14.75ZM13 14.75H17V13.25H13V14.75Z" fill="#333333"/>
<path d="M13 16.25C12.5858 16.25 12.25 16.5858 12.25 17C12.25 17.4142 12.5858 17.75 13 17.75V16.25ZM17 17.75C17.4142 17.75 17.75 17.4142 17.75 17C17.75 16.5858 17.4142 16.25 17 16.25V17.75ZM13 17.75H17V16.25H13V17.75Z" fill="#333333"/>
</svg>
