<svg width="32" height="32" viewBox="0 0 32 32" fill="none" xmlns="http://www.w3.org/2000/svg"><path d="M16 27C16 27 7 22.2 7 13.8V6.6L16 3 25 6.6V13.8C25 22.2 16 27 16 27z" stroke="url(#paint0_linear)" stroke-width="2" stroke-linejoin="round"/><path d="M14.0715 17.0142 12.2632 15.1808C11.8841 14.7964 11.2639 14.7964 10.8848 15.1808 10.513 15.5577 10.513 16.1634 10.8848 16.5403L13.3595 19.0494C13.7511 19.4465 14.3919 19.4465 14.7835 19.0494L21.1153 12.6296C21.4871 12.2527 21.4871 11.647 21.1153 11.2701 20.7363 10.8857 20.116 10.8857 19.7369 11.2701L14.0715 17.0142z" fill="url(#paint1_linear)"/><defs><linearGradient id="paint0_linear" x1="7" y1="3" x2="6.86127" y2="26.9992" gradientUnits="userSpaceOnUse"><stop offset=".00194019" stop-color="#4555a5"/><stop offset="1" stop-color="#6545a5"/></linearGradient><linearGradient id="paint1_linear" x1="10.2144" y1="10.5713" x2="10.1826" y2="19.7712" gradientUnits="userSpaceOnUse"><stop offset=".00194019" stop-color="#4555a5"/><stop offset="1" stop-color="#6545a5"/></linearGradient></defs></svg>