<svg width="32" height="32" viewBox="0 0 32 32" fill="none" xmlns="http://www.w3.org/2000/svg"><path d="M27 5H5C4.46975 5.0006 3.96139 5.2115 3.58644 5.58644 3.2115 5.96139 3.0006 6.46975 3 7V25.0001C3.00002 25.2628 3.05176 25.5228 3.15229 25.7655 3.25281 26.0081 3.40015 26.2286 3.58587 26.4143 3.7716 26.6 3.99209 26.7473 4.23475 26.8478 4.47741 26.9483 4.73748 27 5.00012 27L6.67387 26.9999C6.86297 26.9998 7.04817 26.9462 7.208 26.8451 7.36783 26.7441 7.49573 26.5998 7.57688 26.429 8.06387 25.403 8.83194 24.5362 9.79189 23.9292 10.7518 23.3222 11.8643 23 13 23 14.1357 23 15.2482 23.3222 16.2081 23.9292 17.1681 24.5362 17.9361 25.403 18.4231 26.429 18.5043 26.5998 18.6322 26.7441 18.7921 26.8452 18.9519 26.9462 19.1371 26.9999 19.3263 26.9999L27 27C27.5303 26.9994 28.0386 26.7885 28.4136 26.4136 28.7885 26.0386 28.9994 25.5303 29 25V7C28.9994 6.46975 28.7885 5.96139 28.4136 5.58644 28.0386 5.2115 27.5303 5.0006 27 5zM10 18C10 17.4067 10.1759 16.8266 10.5056 16.3333 10.8352 15.8399 11.3038 15.4554 11.8519 15.2284 12.4001 15.0013 13.0033 14.9419 13.5853 15.0576 14.1672 15.1734 14.7018 15.4591 15.1213 15.8787 15.5409 16.2982 15.8266 16.8328 15.9424 17.4147 16.0581 17.9967 15.9987 18.5999 15.7716 19.1481 15.5446 19.6962 15.1601 20.1648 14.6667 20.4944 14.1734 20.8241 13.5933 21 13 21 12.2046 20.9991 11.4421 20.6828 10.8797 20.1203 10.3173 19.5579 10.0009 18.7954 10 18zm17 7L19.9293 24.9999C19.0939 23.5641 17.8349 22.422 16.3248 21.7302 17.0818 21.0563 17.6161 20.1681 17.8569 19.1835 18.0977 18.1989 18.0335 17.1644 17.6729 16.2171 17.3123 15.2698 16.6723 14.4544 15.8378 13.8792 15.0033 13.3039 14.0136 12.9958 13 12.9958 11.9864 12.9958 10.9967 13.3039 10.1622 13.8792 9.32766 14.4544 8.68768 15.2698 8.32709 16.2171 7.9665 17.1644 7.90234 18.1989 8.14311 19.1835 8.38387 20.1681 8.9182 21.0563 9.67525 21.7302 8.16513 22.4221 6.90606 23.5642 6.07075 25H5V7H27V25zM7 12V10C7 9.73478 7.10536 9.48043 7.29289 9.29289 7.48043 9.10536 7.73478 9 8 9H24C24.2652 9 24.5196 9.10536 24.7071 9.29289 24.8946 9.48043 25 9.73478 25 10V22C25 22.2652 24.8946 22.5196 24.7071 22.7071 24.5196 22.8946 24.2652 23 24 23H22C21.7348 23 21.4804 22.8946 21.2929 22.7071 21.1054 22.5196 21 22.2652 21 22 21 21.7348 21.1054 21.4804 21.2929 21.2929 21.4804 21.1054 21.7348 21 22 21h1V11H9v1C9 12.2652 8.89464 12.5196 8.70711 12.7071 8.51957 12.8946 8.26522 13 8 13 7.73478 13 7.48043 12.8946 7.29289 12.7071 7.10536 12.5196 7 12.2652 7 12z" fill="url(#paint0_linear)"/><defs><linearGradient id="paint0_linear" x1="3" y1="5" x2="2.91929" y2="26.9997" gradientUnits="userSpaceOnUse"><stop offset=".00194019" stop-color="#4555a5"/><stop offset="1" stop-color="#6545a5"/></linearGradient></defs></svg>