<svg width="120" height="120" viewBox="0 0 120 120" fill="none" xmlns="http://www.w3.org/2000/svg">
<path d="M102 2H36C31.5817 2 28 5.58172 28 10V112C28 116.418 31.5817 120 36 120H102C106.418 120 110 116.418 110 112V10C110 5.58172 106.418 2 102 2Z" fill="#DFE2F1"/>
<path d="M39.6737 91.876H98.6184C99.5417 91.876 100.3 91.0147 100.3 89.9656C100.3 88.9166 99.5417 88.0552 98.6184 88.0552H39.6737C38.7504 88.0552 37.9923 88.9166 37.9923 89.9656C37.9923 91.0147 38.7504 91.876 39.6737 91.876Z" fill="white"/>
<path d="M98.6087 96.8452H39.6737C38.7504 96.8452 37.9923 97.7065 37.9923 98.7555C37.9923 99.8046 38.7504 100.666 39.6737 100.666H98.6184C99.5417 100.666 100.3 99.8046 100.3 98.7555C100.29 97.6954 99.532 96.8452 98.6087 96.8452Z" fill="white"/>
<path d="M98.6087 105.624H39.6737C38.7504 105.624 37.9923 106.485 37.9923 107.534C37.9923 108.584 38.7504 109.445 39.6737 109.445H98.6184C99.5417 109.445 100.3 108.584 100.3 107.534C100.29 106.474 99.532 105.624 98.6087 105.624Z" fill="white"/>
<path d="M69.1482 67.9587C84.3966 67.9587 96.7569 55.633 96.7557 40.4286C96.7545 25.2241 84.3922 12.8984 69.1438 12.8984C53.8954 12.8984 41.5352 25.2241 41.5364 40.4286C41.5376 55.633 53.8998 67.9587 69.1482 67.9587Z" fill="#F0F3F9"/>
<path d="M89.108 43.4651C83.9136 40.7818 80.3473 39.6664 80.5578 36.2653C80.7682 32.8531 79.1955 18.1996 69.2055 22.0314C69.2055 22.0314 67.5995 21.3246 66.8796 21.424C66.8796 21.424 67.4666 21.5344 67.7657 21.8436C66.6027 21.7774 64.9525 21.8657 63.5681 22.6497C62.8149 23.0804 62.0729 24.2178 61.4194 25.7969C61.3751 25.8963 61.3308 26.0067 61.2976 26.1061C61.0318 26.8018 60.7771 27.5748 60.5445 28.403C60.1458 29.8495 59.8135 31.4728 59.5809 33.1513C59.5034 33.7034 59.437 34.2556 59.3926 34.8187C59.3926 34.8408 59.3816 34.8739 59.3816 34.896C59.005 39.026 59.2819 43.2995 60.6442 46.2147C61.065 47.1313 61.5967 47.9042 62.2501 48.5006C61.9954 47.9705 61.7185 47.2196 61.4748 46.1706C61.2422 45.1657 61.0318 43.8958 60.8989 42.2615C60.9321 42.5154 61.1758 44.2933 61.7739 46.1595C62.1061 47.2196 62.5491 48.3018 63.1361 49.1521C66.0047 51.0293 70.0029 54.7949 73.6024 58.6929C74.4109 59.5653 75.1862 60.4376 75.9393 61.31C77.2241 62.8008 78.3981 64.2473 79.3838 65.5504C79.3948 65.5725 79.417 65.5835 79.4281 65.6056C79.5056 65.705 79.5721 65.7933 79.6385 65.8927C81.9754 64.932 84.1573 63.6621 86.1176 62.1272C90.6253 58.6266 94.0033 53.7568 95.6425 48.1472C94.103 46.5902 91.9876 44.9559 89.108 43.4651Z" fill="#B24318"/>
<path d="M63.5348 49.3729C64.4541 48.9422 63.8892 41.113 63.8892 41.113L71.7085 39.567C72.2512 42.1289 71.9632 46.6122 72.9378 46.811C72.9711 46.8221 71.4648 49.7815 69.1722 50.4109C66.7467 51.0624 63.5016 49.3839 63.5348 49.3729Z" fill="#CD8085"/>
<path d="M71.354 24.6705C71.354 24.6705 67.3115 20.905 63.1693 25.046C63.1693 25.046 65.761 24.6153 71.354 24.6705Z" fill="#575BA3"/>
<path d="M72.0407 38.8493C72.0407 38.8493 74.2115 35.4371 74.721 32.5219C75.0975 30.4348 74.0232 22.716 66.2483 23.8313C66.2483 23.8313 63.9889 24.0522 61.8624 25.4877C60.1679 26.6251 57.7313 29.0766 60.4558 35.8126L61.1647 38.0873L72.0407 38.8493Z" fill="#C4541C"/>
<path d="M86.1287 62.1382C84.1683 63.6731 81.9864 64.943 79.6495 65.9038C79.5831 65.9258 79.5166 65.959 79.4502 65.9811C79.4391 65.9038 79.428 65.8265 79.417 65.7602C79.4059 65.6939 79.3948 65.6277 79.3837 65.5614C79.2287 64.5013 79.0847 63.5075 78.9629 62.6572C78.7081 60.9235 78.542 59.7751 78.542 59.7751L80.3362 59.5874L85.7964 59.0021C85.7964 59.0021 85.8185 59.1457 85.8739 59.5542C85.9293 59.9959 86.0179 60.8021 86.1287 62.1382Z" fill="#DCABB0"/>
<path d="M57.3991 46.5902L57.388 46.6785L56.6127 57.4782C56.6127 57.4782 54.7853 59.4659 52.836 61.4977C52.8028 61.5309 52.7695 61.564 52.7363 61.5971C52.548 61.7848 52.3708 61.9836 52.1825 62.1713C49.7681 60.2941 47.6748 58.0303 46.0024 55.4795C47.0657 54.3642 48.2286 53.1937 49.3915 52.0894C52.393 49.2404 55.4719 46.7889 57.3326 46.6012C57.3658 46.5902 57.3769 46.5902 57.3991 46.5902Z" fill="#DCABB0"/>
<path d="M86.2727 59.3555C84.9326 52.9397 82.7729 50.1459 82.7729 50.1459C80.292 48.2687 76.0279 46.7558 72.5613 46.3804C72.5059 46.3693 72.4616 46.3693 72.4063 46.3583C71.6199 47.4957 70.3241 48.5337 68.2419 48.4785C66.1043 48.4233 64.8196 47.4515 64.0554 46.4577C63.9668 46.3362 63.8782 46.2147 63.8007 46.0933C63.0475 46.1153 62.3719 46.1374 61.7849 46.1595C61.6853 46.1595 61.5856 46.1706 61.4859 46.1706C61.1869 46.1816 60.91 46.1926 60.6552 46.2147C58.0747 46.3472 57.388 46.5018 57.388 46.5018C57.388 46.5018 55.4387 46.0933 49.1257 51.4489C49.1257 51.4489 52.692 59.6205 52.7363 61.5971L52.836 61.5309C52.7917 61.8732 52.7474 62.2266 52.7142 62.5689C57.3105 65.959 62.9922 67.9687 69.139 67.9687C70.4902 67.9687 71.8193 67.8694 73.1151 67.6816C75.009 67.4056 76.8475 66.9418 78.5974 66.3013C78.8521 66.213 79.118 66.1136 79.3727 66.0031C79.3838 65.9148 79.3948 65.8375 79.3948 65.7602C79.3948 65.716 79.4059 65.6719 79.4059 65.6167C79.5278 64.4572 79.6828 63.3308 79.8489 62.2486L86.2727 59.3555Z" fill="#EACF65"/>
<path d="M62.5158 43.167C62.5158 43.167 72.2954 43.3326 72.2954 37.2592C72.3065 31.1857 73.5691 27.122 67.3226 26.7576C61.076 26.3932 59.8688 28.7122 59.3704 30.744C58.872 32.7648 59.9685 42.9682 62.5158 43.167Z" fill="#DAA9AE"/>
<path d="M62.8702 26.6141C62.8702 26.6141 65.5505 33.7366 69.6595 34.7856C73.7685 35.8347 75.5516 34.7414 75.5516 34.7414C75.5516 34.7414 72.3951 32.2458 71.7417 27.884C71.7417 27.895 64.897 23.224 62.8702 26.6141Z" fill="#C4541C"/>
<path d="M63.5348 27.1883C63.5348 27.1883 61.5412 28.7784 61.0539 30.3244C60.5666 31.8703 60.3451 35.0506 59.4148 34.9402C59.4148 34.9402 57.399 30.1035 59.6695 27.3649C62.0618 24.4607 63.5348 27.1883 63.5348 27.1883Z" fill="#C4541C"/>
<path d="M94.0547 76.4936L90.7432 76.4715L89.7353 73.3244L88.6942 76.4605L85.3716 76.4384L88.0408 78.3929L86.9997 81.529L89.691 79.6076L92.3602 81.5732L91.3523 78.4261L94.0547 76.4936Z" fill="#ECD165"/>
<path d="M80.454 76.3942L79.4572 73.2471L78.4051 76.3832L75.0935 76.3611L77.7627 78.3156L76.7105 81.4517L79.4018 79.5303L82.071 81.4959L81.0742 78.3488L83.7656 76.4163L80.454 76.3942Z" fill="#ECD165"/>
<path d="M70.1649 76.3169L69.1682 73.1698L68.116 76.3059L64.8044 76.2838L67.4736 78.2383L66.4215 81.3744L69.1239 79.453L71.782 81.4186L70.7852 78.2715L73.4876 76.339L70.1649 76.3169Z" fill="#ECD165"/>
<path d="M59.887 76.2403L58.8791 73.0931L57.838 76.2292L54.5154 76.2071L57.1846 78.1617L56.1435 81.2978L58.8348 79.3764L61.504 81.342L60.5072 78.1948L63.1985 76.2623L59.887 76.2403Z" fill="#ECD165"/>
<path d="M49.5979 76.1623L48.6011 73.0152L47.549 76.1513L44.2374 76.1292L46.9066 78.0837L45.8544 81.2198L48.5458 79.2984L51.2149 81.264L50.2182 78.1169L52.9095 76.1844L49.5979 76.1623Z" fill="#ECD165"/>
<path d="M37 80.8648L34.6454 78.5094L34.4914 78.3553L32.1257 76L2 102.206L6.31311 106.531L6.46715 106.686L10.7913 111L37 80.8648Z" fill="#9EA7D6"/>
<path d="M39.2976 86.3333L27.6364 74.1168C26.7879 73.2279 26.7879 71.8034 27.6364 70.9145L33.2821 65L48 80.4188L42.3543 86.3333C41.5058 87.2222 40.1352 87.2222 39.2976 86.3333Z" fill="#7D8AC9"/>
<path fill-rule="evenodd" clip-rule="evenodd" d="M112.12 44.7248C112.122 69.2975 92.2153 89.2176 67.657 89.2176C43.0988 89.2176 23.1888 69.2975 23.1869 44.7248C23.1849 20.1521 43.0917 0.231995 67.65 0.231995C92.2082 0.231995 112.118 20.1521 112.12 44.7248ZM106.099 44.7248C106.1 65.9699 88.8892 83.1925 67.6566 83.1925C46.4239 83.1925 29.2101 65.9699 29.2084 44.7248C29.2067 23.4796 46.4178 6.25704 67.6505 6.25704C88.8831 6.25704 106.097 23.4796 106.099 44.7248Z" fill="#5D6DBB"/>
<path d="M67.6597 83.1925C88.8923 83.1925 106.103 65.9699 106.102 44.7247C106.1 23.4796 88.8862 6.25702 67.6536 6.25702C46.4209 6.25702 29.2099 23.4796 29.2116 44.7247C29.2132 65.9699 46.4271 83.1925 67.6597 83.1925Z" fill="white"/>
<mask id="mask0" mask-type="alpha" maskUnits="userSpaceOnUse" x="29" y="6" width="78" height="78">
<path d="M67.6693 83.2121C88.9074 83.2121 106.123 65.9851 106.121 44.7346C106.119 23.484 88.9013 6.25708 67.6632 6.25708C46.4252 6.25708 29.2097 23.484 29.2114 44.7346C29.2131 65.9851 46.4313 83.2121 67.6693 83.2121Z" fill="white"/>
</mask>
<g mask="url(#mask0)">
<path d="M117.718 -13.884H19.5615V127.869H117.718V-13.884Z" fill="#DFE2F1"/>
<path d="M68.8172 65.3518C87.07 65.3518 101.866 50.545 101.864 32.28C101.863 14.015 87.0648 -0.791763 68.812 -0.791763C50.5591 -0.791763 35.7635 14.015 35.765 32.28C35.7664 50.545 50.5644 65.3518 68.8172 65.3518Z" fill="#F7F8FA"/>
<path d="M92.7095 35.9278C86.4917 32.7043 82.2228 31.3645 82.4747 27.2787C82.7266 23.1797 80.844 5.57643 68.8856 10.1795C68.8856 10.1795 66.9632 9.33055 66.1015 9.44994C66.1015 9.44994 66.8041 9.5826 67.1621 9.95403C65.7701 9.87444 63.7947 9.98056 62.1375 10.9224C61.2359 11.4398 60.3477 12.8061 59.5655 14.7031C59.5125 14.8224 59.4594 14.9551 59.4196 15.0745C59.1015 15.9102 58.7965 16.8388 58.5181 17.8337C58.0409 19.5715 57.6431 21.5215 57.3647 23.5378C57.2719 24.2011 57.1924 24.8644 57.1393 25.5409C57.1393 25.5675 57.1261 25.6073 57.1261 25.6338C56.6753 30.5951 57.0068 35.7288 58.6375 39.2309C59.1412 40.3319 59.7776 41.2605 60.5598 41.9768C60.2549 41.3401 59.9234 40.438 59.6318 39.1778C59.3534 37.9706 59.1015 36.4451 58.9424 34.4818C58.9821 34.7869 59.2738 36.9227 59.9897 39.1645C60.3875 40.438 60.9178 41.738 61.6204 42.7595C65.0541 45.0146 69.8401 49.5381 74.1489 54.2208C75.1167 55.2688 76.0447 56.3167 76.9462 57.3647C78.4841 59.1556 79.8894 60.8933 81.0694 62.4587C81.0826 62.4852 81.1091 62.4985 81.1224 62.525C81.2152 62.6444 81.2947 62.7505 81.3743 62.8699C84.1716 61.7158 86.7834 60.1903 89.13 58.3464C94.5258 54.1412 98.5694 48.2912 100.532 41.5523C98.6887 39.6819 96.1565 37.7186 92.7095 35.9278Z" fill="#B24318"/>
<path d="M62.0977 43.0248C63.1981 42.5074 62.522 33.1022 62.522 33.1022L71.8819 31.2451C72.5315 34.3227 72.1868 39.7084 73.3535 39.9472C73.3932 39.9605 71.5902 43.5156 68.8459 44.2718C65.9424 45.0544 62.0579 43.0381 62.0977 43.0248Z" fill="#F2D781"/>
<path d="M71.4577 13.35C71.4577 13.35 66.6186 8.82647 61.6603 13.801C61.6603 13.801 64.7626 13.2837 71.4577 13.35Z" fill="#575BA3"/>
<path d="M72.2796 30.3828C72.2796 30.3828 74.8781 26.2838 75.4879 22.7817C75.9387 20.2746 74.6527 11.002 65.3459 12.3418C65.3459 12.3418 62.6413 12.6071 60.0959 14.3316C58.0674 15.698 55.1508 18.6429 58.4121 26.7348L59.2606 29.4675L72.2796 30.3828Z" fill="#C4541C"/>
<path d="M89.1434 58.3596C86.7968 60.2035 84.185 61.7291 81.3877 62.8832C81.3081 62.9097 81.2286 62.9495 81.149 62.976C81.1358 62.8832 81.1225 62.7903 81.1092 62.7107C81.096 62.6311 81.0827 62.5515 81.0695 62.4719C80.8839 61.1984 80.7115 60.0046 80.5657 58.9831C80.2608 56.9004 80.0619 55.5208 80.0619 55.5208L82.2096 55.2953L88.7457 54.5923C88.7457 54.5923 88.7722 54.7647 88.8385 55.2555C88.9047 55.7861 89.0108 56.7545 89.1434 58.3596Z" fill="#F8E4A5"/>
<path d="M54.7531 39.6819L54.7398 39.788L53.8118 52.7616C53.8118 52.7616 51.6243 55.1494 49.2909 57.5902C49.2512 57.63 49.2114 57.6698 49.1716 57.7096C48.9462 57.9351 48.7341 58.1739 48.5087 58.3994C45.6186 56.1443 43.1129 53.4249 41.111 50.3606C42.3837 49.0208 43.7757 47.6146 45.1678 46.2881C48.7606 42.8656 52.4462 39.9207 54.6735 39.6952C54.7133 39.6819 54.7266 39.6819 54.7531 39.6819Z" fill="#F8E4A5"/>
<path d="M89.3157 55.0168C87.7115 47.3095 85.1263 43.9534 85.1263 43.9534C82.1566 41.6982 77.0524 39.8809 72.9027 39.4298C72.8365 39.4166 72.7834 39.4166 72.7171 39.4033C71.7758 40.7696 70.2247 42.0166 67.7323 41.9503C65.1735 41.8839 63.6357 40.7166 62.7209 39.5227C62.6148 39.3768 62.5088 39.2309 62.416 39.0849C61.5144 39.1115 60.7057 39.138 60.0031 39.1645C59.8838 39.1645 59.7644 39.1778 59.6451 39.1778C59.2872 39.1911 58.9557 39.2043 58.6508 39.2309C55.5618 39.39 54.7398 39.5758 54.7398 39.5758C54.7398 39.5758 52.4065 39.0849 44.8496 45.5187C44.8496 45.5187 49.1186 55.3351 49.1716 57.7096L49.2909 57.63C49.2379 58.0413 49.1849 58.4658 49.1451 58.877C54.647 62.9495 61.4482 65.3638 68.8061 65.3638C70.4236 65.3638 72.0145 65.2444 73.5656 65.0189C75.8327 64.6873 78.0334 64.1301 80.1281 63.3607C80.4331 63.2546 80.7513 63.1352 81.0562 63.0026C81.0694 62.8964 81.0827 62.8036 81.0827 62.7107C81.0827 62.6577 81.096 62.6046 81.096 62.5383C81.2418 61.1454 81.4274 59.7923 81.6263 58.4923L89.3157 55.0168Z" fill="#EEBA34"/>
<path d="M60.8781 35.5696C60.8781 35.5696 72.5845 35.7686 72.5845 28.4726C72.5978 21.1766 74.1092 16.2949 66.6319 15.8572C59.1546 15.4194 57.7095 18.2052 57.1129 20.646C56.5163 23.0736 57.8288 35.3308 60.8781 35.5696Z" fill="#F8E4A5"/>
<path d="M61.3022 15.6847C61.3022 15.6847 64.5106 24.2409 69.4292 25.5011C74.3478 26.7614 76.4822 25.4481 76.4822 25.4481C76.4822 25.4481 72.7038 22.4501 71.9216 17.2102C71.9216 17.2235 63.7284 11.6122 61.3022 15.6847Z" fill="#C4541C"/>
<path d="M62.0978 16.3745C62.0978 16.3745 59.7114 18.2847 59.1281 20.1419C58.5447 21.9991 58.2796 25.8195 57.1659 25.6868C57.1659 25.6868 54.753 19.8766 57.4708 16.5867C60.3345 13.0979 62.0978 16.3745 62.0978 16.3745Z" fill="#C4541C"/>
<path d="M98.6312 75.6048L94.6671 75.5782L93.4607 71.7976L92.2145 75.565L88.2372 75.5384L91.4323 77.8864L90.1861 81.6538L93.4077 79.3456L96.6028 81.7069L95.3963 77.9262L98.6312 75.6048Z" fill="#EEBA34"/>
<path d="M82.3508 75.4853L81.1576 71.7047L79.8981 75.4721L75.9341 75.4455L79.1292 77.7935L77.8697 81.5609L81.0913 79.2527L84.2864 81.614L83.0932 77.8333L86.3148 75.5119L82.3508 75.4853Z" fill="#EEBA34"/>
<path d="M70.0344 75.3925L68.8412 71.6118L67.5817 75.3792L63.6177 75.3527L66.8128 77.7007L65.5533 81.4681L68.7881 79.1599L71.97 81.5211L70.7768 77.7405L74.0116 75.419L70.0344 75.3925Z" fill="#EEBA34"/>
<path d="M57.7314 75.2996L56.5249 71.519L55.2787 75.2864L51.3014 75.2598L54.4965 77.6078L53.2503 81.3752L56.4719 79.067L59.667 81.4283L58.4738 77.6476L61.6954 75.3262L57.7314 75.2996Z" fill="#EEBA34"/>
<path d="M45.415 75.2068L44.2218 71.4261L42.9623 75.1935L38.9983 75.167L42.1934 77.515L40.9339 81.2824L44.1555 78.9742L47.3506 81.3354L46.1574 77.5548L49.379 75.2333L45.415 75.2068Z" fill="#EEBA34"/>
</g>
<g opacity="0.2" filter="url(#filter0_i)">
<path d="M67.6597 83.1925C88.8923 83.1925 106.103 65.9699 106.102 44.7247C106.1 23.4796 88.8862 6.25702 67.6536 6.25702C46.4209 6.25702 29.2099 23.4796 29.2116 44.7247C29.2132 65.9699 46.4271 83.1925 67.6597 83.1925Z" fill="white"/>
</g>
<path opacity="0.36" d="M95 58C98.3137 58 101 51.9558 101 44.5C101 37.0442 98.3137 31 95 31C91.6863 31 89 37.0442 89 44.5C89 51.9558 91.6863 58 95 58Z" fill="#F3FFFE"/>
<defs>
<filter id="filter0_i" x="29.2115" y="6.25702" width="76.8902" height="76.9354" filterUnits="userSpaceOnUse" color-interpolation-filters="sRGB">
<feFlood flood-opacity="0" result="BackgroundImageFix"/>
<feBlend mode="normal" in="SourceGraphic" in2="BackgroundImageFix" result="shape"/>
<feColorMatrix in="SourceAlpha" type="matrix" values="0 0 0 0 0 0 0 0 0 0 0 0 0 0 0 0 0 0 127 0" result="hardAlpha"/>
<feOffset/>
<feGaussianBlur stdDeviation="12"/>
<feComposite in2="hardAlpha" operator="arithmetic" k2="-1" k3="1"/>
<feColorMatrix type="matrix" values="0 0 0 0 0 0 0 0 0 0 0 0 0 0 0 0 0 0 1 0"/>
<feBlend mode="normal" in2="shape" result="effect1_innerShadow"/>
</filter>
</defs>
</svg>
