<svg width="32" height="32" viewBox="0 0 32 32" fill="none" xmlns="http://www.w3.org/2000/svg"><path d="M16.4103 4.00978C16.2658 4.00964 16.1231 4.04086 15.9918 4.10129 15.8606 4.16172 15.7441 4.24992 15.6503 4.35978L15.5503 4.43178C12.5403 3.54778 9.12629 4.23178 6.74429 6.48578 4.63029 8.48378 3.82429 11.2478 4.31829 13.8338L4.28829 13.8618 2.94629 15.1318C2.67287 15.3841 2.45465 15.6902 2.3054 16.031 2.15615 16.3718 2.0791 16.7398 2.0791 17.1118 2.0791 17.4838 2.15615 17.8518 2.3054 18.1926 2.45465 18.5333 2.67287 18.8395 2.94629 19.0918 3.63029 19.7418 4.57029 20.0058 5.46029 19.8838 5.58829 20.3498 5.84629 20.7918 6.23229 21.1578 6.75429 21.6518 7.42429 21.9218 8.10829 21.9698 8.15829 22.6158 8.44429 23.2498 8.96829 23.7438 9.48829 24.2378 10.1583 24.5078 10.8423 24.5558 10.8923 25.2018 11.1783 25.8358 11.7023 26.3298 12.2239 26.8119 12.8957 27.0995 13.6046 27.1443 14.3134 27.1891 15.0161 26.9883 15.5943 26.5758L16.2543 27.1998C17.4143 28.2998 19.3003 28.2998 20.4623 27.1998 20.9823 26.7078 21.2703 26.0778 21.3243 25.4338 22.0043 25.3838 22.6663 25.1138 23.1863 24.6218 23.7063 24.1298 23.9943 23.4998 24.0463 22.8558 24.7163 22.7998 25.3703 22.5298 25.8863 22.0458 26.2883 21.6638 26.5523 21.1978 26.6743 20.7078 27.1192 20.7642 27.571 20.7221 27.9979 20.5846 28.4247 20.447 28.8161 20.2174 29.1443 19.9118 29.4177 19.6595 29.6359 19.3533 29.7852 19.0126 29.9344 18.6718 30.0115 18.3038 30.0115 17.9318 30.0115 17.5598 29.9344 17.1918 29.7852 16.851 29.6359 16.5102 29.4177 16.2041 29.1443 15.9518L27.9563 14.8278 28.1843 13.9878C28.7078 12.0414 28.4419 9.96711 27.4443 8.21578 25.9743 5.61178 23.1283 4.01578 20.0643 4.01578H18.0263C17.9344 4.01155 17.8423 4.00955 17.7503 4.00978H16.4083 16.4103zm8.744 10.91402L26.1263 15.8838C26.1883 15.9438 26.2563 15.9938 26.3283 16.0358L27.6923 17.3238C27.776 17.401 27.8429 17.4946 27.8886 17.5989 27.9343 17.7032 27.958 17.8159 27.958 17.9298 27.958 18.0437 27.9343 18.1563 27.8886 18.2606 27.8429 18.3649 27.776 18.4586 27.6923 18.5358 27.5178 18.6971 27.2889 18.7868 27.0513 18.7868 26.8137 18.7868 26.5847 18.6971 26.4103 18.5358L24.1303 16.3818C23.9326 16.1992 23.6734 16.0978 23.4043 16.0978 23.1352 16.0978 22.876 16.1992 22.6783 16.3818L22.6543 16.4018C22.2543 16.7818 22.2543 17.3978 22.6543 17.7778L24.4323 19.4578C24.5161 19.5351 24.583 19.629 24.6287 19.7335 24.6745 19.8379 24.6981 19.9507 24.6981 20.0648 24.6981 20.1788 24.6745 20.2916 24.6287 20.3961 24.583 20.5006 24.5161 20.5944 24.4323 20.6718 24.2735 20.8187 24.0692 20.9068 23.8534 20.9213 23.6376 20.9359 23.4233 20.876 23.2463 20.7518 23.0452 20.6093 22.8012 20.5405 22.5553 20.5569 22.3094 20.5733 22.0767 20.6739 21.8963 20.8418 21.7221 21.004 21.6164 21.2266 21.6007 21.4641 21.5851 21.7016 21.6608 21.9362 21.8123 22.1198 21.9454 22.2825 22.0112 22.49 21.9963 22.6997 21.9815 22.9094 21.887 23.1054 21.7323 23.2478 21.5714 23.3967 21.3637 23.4851 21.1448 23.4979 20.926 23.5106 20.7094 23.447 20.5323 23.3178 20.3321 23.1714 20.0873 23.099 19.8397 23.1128 19.5921 23.1267 19.3569 23.226 19.1743 23.3938 18.9981 23.556 18.8909 23.7796 18.8749 24.0186 18.8589 24.2576 18.9353 24.4935 19.0883 24.6778 19.3683 25.0178 19.3403 25.5118 19.0083 25.8258 18.8311 25.9888 18.5991 26.0793 18.3583 26.0793 18.1175 26.0793 17.8855 25.9888 17.7083 25.8258L17.0643 25.2178 17.2323 25.0598C17.5057 24.8075 17.7239 24.5013 17.8732 24.1606 18.0224 23.8198 18.0995 23.4518 18.0995 23.0798 18.0995 22.7078 18.0224 22.3398 17.8732 21.999 17.7239 21.6582 17.5057 21.3521 17.2323 21.0998 16.72 20.6198 16.0568 20.3328 15.3563 20.2878 15.301 19.6099 14.9942 18.9771 14.4963 18.5138 13.9848 18.0335 13.3224 17.7458 12.6223 17.6998 12.567 17.0219 12.2602 16.3891 11.7623 15.9258 11.4286 15.615 11.0297 15.3827 10.5948 15.2456 10.1599 15.1086 9.69986 15.0704 9.24829 15.1338 9.11254 14.647 8.84546 14.2069 8.47629 13.8618 8.18153 13.586 7.83491 13.3714 7.45656 13.2307 7.0782 13.0899 6.67566 13.0257 6.27229 13.0418 6.16476 12.0877 6.28285 11.1217 6.61704 10.2216 6.95123 9.32152 7.49218 8.51252 8.19629 7.85978 8.8851 7.21656 9.69816 6.721 10.5855 6.40354 11.4729 6.08609 12.4158 5.95345 13.3563 6.01378L11.1663 7.59378C10.8302 7.83238 10.5468 8.1375 10.3335 8.4902 10.1203 8.84291 9.98177 9.23568 9.92663 9.64413 9.8715 10.0526 9.90089 10.468 10.013 10.8646 10.1251 11.2613 10.3175 11.6306 10.5783 11.9498 11.1043 12.5942 11.8556 13.0146 12.6799 13.126 13.5042 13.2374 14.3401 13.0314 15.0183 12.5498L17.7123 10.6098H20.5923L25.1543 14.9238zM12.3363 9.21378 16.7823 6.00978H17.7523C17.8357 6.00895 17.9191 6.01095 18.0023 6.01578H20.0623C22.4463 6.01578 24.6063 7.25578 25.7043 9.19978 26.4083 10.4458 26.6183 11.8798 26.3043 13.2518L21.8803 8.89578C21.6934 8.71251 21.4421 8.60982 21.1803 8.60978H17.3863C17.1767 8.60971 16.9725 8.67548 16.8023 8.79778L13.8503 10.9278C13.5873 11.1105 13.2655 11.188 12.9482 11.1451 12.6309 11.1021 12.3412 10.9418 12.1363 10.6958 12.0457 10.5882 11.9786 10.4628 11.9393 10.3277 11.9001 10.1927 11.8895 10.0509 11.9084 9.91147 11.9272 9.77207 11.975 9.63816 12.0487 9.51834 12.1224 9.39853 12.2204 9.29547 12.3363 9.21578V9.21378zM14.5003 22.4698C14.6751 22.3095 14.9039 22.221 15.1411 22.2217 15.3782 22.2225 15.6064 22.3124 15.7803 22.4738 15.864 22.551 15.9309 22.6446 15.9766 22.7489 16.0223 22.8533 16.046 22.9659 16.046 23.0798 16.046 23.1937 16.0223 23.3063 15.9766 23.4106 15.9309 23.5149 15.864 23.6086 15.7803 23.6858L14.4363 24.9558C14.2619 25.1166 14.0335 25.2059 13.7963 25.2059 13.5591 25.2059 13.3306 25.1166 13.1563 24.9558 13.0725 24.8786 13.0057 24.7849 12.96 24.6806 12.9142 24.5763 12.8906 24.4637 12.8906 24.3498 12.8906 24.2359 12.9142 24.1233 12.96 24.0189 13.0057 23.9146 13.0725 23.821 13.1563 23.7438L14.5003 22.4718V22.4698zM13.0483 21.0958 11.7023 22.3698C11.5278 22.5312 11.2989 22.6208 11.0613 22.6208 10.8236 22.6208 10.5947 22.5312 10.4203 22.3698 10.3384 22.2942 10.2727 22.2028 10.2271 22.1011 10.1816 21.9994 10.1571 21.8895 10.1552 21.7781 10.1534 21.6666 10.1741 21.556 10.2162 21.4528 10.2584 21.3496 10.321 21.2561 10.4003 21.1778L10.4203 21.1578 11.7623 19.8878 11.7823 19.8678C11.958 19.7148 12.1841 19.6322 12.4171 19.6359 12.6501 19.6396 12.8735 19.7293 13.0443 19.8878 13.1277 19.9646 13.1943 20.0579 13.24 20.1617 13.2856 20.2654 13.3094 20.3775 13.3098 20.4909 13.3102 20.6043 13.2871 20.7165 13.2421 20.8206 13.1971 20.9247 13.1312 21.0184 13.0483 21.0958zM10.3083 18.5138 8.96829 19.7818 8.94629 19.8018C8.77068 19.9542 8.54498 20.0365 8.31246 20.0328 8.07995 20.0291 7.85697 19.9397 7.68629 19.7818 7.60254 19.7046 7.53569 19.6109 7.48996 19.5066 7.44424 19.4023 7.42063 19.2897 7.42063 19.1758 7.42063 19.0619 7.44424 18.9493 7.48996 18.8449 7.53569 18.7406 7.60254 18.647 7.68629 18.5698L9.02629 17.3018C9.20086 17.1398 9.43018 17.0499 9.66829 17.0499 9.9064 17.0499 10.1357 17.1398 10.3103 17.3018 10.3922 17.3774 10.4579 17.4688 10.5035 17.5705 10.549 17.6722 10.5735 17.7821 10.5753 17.8935 10.5772 18.0049 10.5565 18.1156 10.5143 18.2188 10.4722 18.3219 10.4096 18.4155 10.3303 18.4938L10.3103 18.5138H10.3083zM7.02429 16.4478 5.68429 17.7178C5.50972 17.8797 5.2804 17.9697 5.04229 17.9697 4.80418 17.9697 4.57486 17.8797 4.40029 17.7178 4.31654 17.6406 4.24969 17.5469 4.20396 17.4426 4.15824 17.3383 4.13463 17.2257 4.13463 17.1118 4.13463 16.9979 4.15824 16.8852 4.20396 16.7809 4.24969 16.6766 4.31654 16.583 4.40029 16.5058L5.74229 15.2358C5.91675 15.0744 6.14565 14.9848 6.38329 14.9848 6.62093 14.9848 6.84983 15.0744 7.02429 15.2358 7.10805 15.313 7.1749 15.4066 7.22062 15.5109 7.26635 15.6152 7.28995 15.7279 7.28995 15.8418 7.28995 15.9557 7.26635 16.0683 7.22062 16.1726 7.1749 16.2769 7.10805 16.3706 7.02429 16.4478z" fill="url(#paint0_linear)"/><defs><linearGradient id="paint0_linear" x1="2.0791" y1="4.00977" x2="1.98959" y2="28.0245" gradientUnits="userSpaceOnUse"><stop offset=".00194019" stop-color="#4555a5"/><stop offset="1" stop-color="#6545a5"/></linearGradient></defs></svg>