<svg width="25" height="25" viewBox="0 0 25 25" fill="none" xmlns="http://www.w3.org/2000/svg">
<path fill-rule="evenodd" clip-rule="evenodd" d="M13.286 2.42097C13.0484 2.27847 12.7517 2.27847 12.5142 2.42097L2.51421 8.42097C2.22514 8.59442 2.08731 8.93941 2.17729 9.26429C2.26728 9.58917 2.56297 9.81409 2.90008 9.81409H4.15008L4.15008 16.3141H2.90008C2.48587 16.3141 2.15008 16.6499 2.15008 17.0641C2.15008 17.4783 2.48587 17.8141 2.90008 17.8141H22.9001C23.3143 17.8141 23.6501 17.4783 23.6501 17.0641C23.6501 16.6499 23.3143 16.3141 22.9001 16.3141H21.6501V9.81409H22.9001C23.2372 9.81409 23.5329 9.58917 23.6229 9.26429C23.7129 8.93941 23.575 8.59442 23.2859 8.42097L13.286 2.42097ZM9.15008 16.3141H5.65008L5.65008 9.81409H9.15008L9.15008 16.3141ZM15.1501 16.3141H10.6501L10.6501 9.81409H12.9001H15.1501L15.1501 16.3141ZM20.1501 16.3141H16.6501L16.6501 9.81409H20.1501V16.3141ZM12.9001 8.31409H5.60782L12.9001 3.93874L20.1923 8.31409H12.9001ZM2.90008 20.3141C2.48587 20.3141 2.15008 20.6499 2.15008 21.0641C2.15008 21.4783 2.48587 21.8141 2.90008 21.8141H22.9001C23.3143 21.8141 23.6501 21.4783 23.6501 21.0641C23.6501 20.6499 23.3143 20.3141 22.9001 20.3141H2.90008Z" fill="#333333"/>
</svg>
