<svg width="24" height="24" viewBox="0 0 24 24" fill="none" xmlns="http://www.w3.org/2000/svg"><path fill-rule="evenodd" clip-rule="evenodd" d="M12.463 2.22823C12.178 2.05722 11.822 2.05722 11.5369 2.22823L1.53695 8.22823C1.19006 8.43636 1.02467 8.85036 1.13265 9.24022 1.24063 9.63007 1.59546 9.89998 1.99999 9.89998h1.1V16.1h-1.1C1.50294 16.1 1.09999 16.5029 1.09999 17 1.09999 17.497 1.50294 17.9 1.99999 17.9H22C22.497 17.9 22.9 17.497 22.9 17 22.9 16.5029 22.497 16.1 22 16.1H20.9V9.89998H22C22.4045 9.89998 22.7594 9.63007 22.8673 9.24022 22.9753 8.85036 22.8099 8.43636 22.463 8.22823L12.463 2.22823zM8.09999 16.1h-3.2V9.89998h3.2V16.1zM14.1 16.1H9.89999V9.89998H12 14.1V16.1zM19.1 16.1H15.9V9.89998H19.1V16.1zM12 8.09998H5.24928L12 4.04955 18.7507 8.09998H12zM1.99999 20.1C1.50294 20.1 1.09999 20.5029 1.09999 21 1.09999 21.497 1.50294 21.9 1.99999 21.9H22C22.497 21.9 22.9 21.497 22.9 21 22.9 20.5029 22.497 20.1 22 20.1H1.99999z" fill="#4555a5"/></svg>