<svg width="24" height="24" viewBox="0 0 24 24" fill="none" xmlns="http://www.w3.org/2000/svg">
<circle cx="12" cy="7" r="4.25" stroke="#333333" stroke-width="1.5"/>
<mask id="path-2-inside-1" fill="white">
<path fill-rule="evenodd" clip-rule="evenodd" d="M5.31089 21.6334C3.62653 20.9118 2.94307 18.8776 4.05763 17.4231C5.88528 15.038 8.76304 13.5 12 13.5C15.237 13.5 18.1148 15.038 19.9424 17.4231C21.057 18.8776 20.3735 20.9118 18.6891 21.6334C16.6361 22.513 14.3749 23 12 23C9.6251 23 7.36392 22.513 5.31089 21.6334Z"/>
</mask>
<path d="M5.31089 21.6334L4.72018 23.0122L5.31089 21.6334ZM5.24827 18.3355C6.80429 16.3048 9.24947 15 12 15V12C8.27661 12 4.96628 13.7712 2.867 16.5107L5.24827 18.3355ZM12 15C14.7506 15 17.1957 16.3048 18.7518 18.3355L21.133 16.5107C19.0338 13.7712 15.7234 12 12 12V15ZM18.0984 20.2546C16.2286 21.0557 14.1682 21.5 12 21.5V24.5C14.5817 24.5 17.0436 23.9703 19.2799 23.0122L18.0984 20.2546ZM12 21.5C9.83188 21.5 7.7714 21.0557 5.90161 20.2546L4.72018 23.0122C6.95643 23.9703 9.41831 24.5 12 24.5V21.5ZM18.7518 18.3355C19.1843 18.8999 19.0195 19.86 18.0984 20.2546L19.2799 23.0122C21.7275 21.9635 22.9296 18.8553 21.133 16.5107L18.7518 18.3355ZM2.867 16.5107C1.07043 18.8553 2.27249 21.9635 4.72018 23.0122L5.90161 20.2546C4.98057 19.86 4.81572 18.8999 5.24827 18.3355L2.867 16.5107Z" fill="#333333" mask="url(#path-2-inside-1)"/>
</svg>
