<svg id="Layer_1" data-name="Layer 1" xmlns="http://www.w3.org/2000/svg" xmlns:xlink="http://www.w3.org/1999/xlink" viewBox="0 0 20 22.5"><defs><mask id="mask" x="0" y="10" width="19.99" height="12.5" maskUnits="userSpaceOnUse"><g transform="translate(-2 -2)"><g id="path-2-inside-1"><path d="M5.3 21.6a2.7 2.7.0 0 1-1.2-4.2 10 10 0 0 1 15.8.0 2.7 2.7.0 0 1-1.2 4.2 16.7 16.7.0 0 1-13.4.0z" fill="#fff" fill-rule="evenodd"/></g></g></mask></defs><circle cx="10" cy="5" r="4.3" fill="none" stroke="#fff" stroke-width="1.5"/><g mask="url(#mask)"><path d="M5.3 21.6 4.7 23zm-.1-3.3A8.6 8.6.0 0 1 12 15V12a11.6 11.6.0 0 0-9.1 4.5zM12 15a8.6 8.6.0 0 1 6.8 3.3l2.3-1.8A11.6 11.6.0 0 0 12 12zm6.1 5.3A15.4 15.4.0 0 1 12 21.5v3A18 18 0 0 0 19.3 23zM12 21.5a15.4 15.4.0 0 1-6.1-1.2L4.7 23A18 18 0 0 0 12 24.5zm6.8-3.2a1.4 1.4.0 0 1-.7 2L19.3 23a4.3 4.3.0 0 0 1.8-6.5zM2.9 16.5A4.3 4.3.0 0 0 4.7 23l1.2-2.7a1.4 1.4.0 0 1-.7-2z" transform="translate(-2 -2)" fill="#fff"/></g></svg>