<svg width="24" height="25" viewBox="0 0 24 25" fill="none" xmlns="http://www.w3.org/2000/svg">
<mask id="mask0" mask-type="alpha" maskUnits="userSpaceOnUse" x="2" y="2" width="20" height="21">
<circle cx="12" cy="12.0641" r="9.25" fill="white" stroke="#333333" stroke-width="1.5"/>
</mask>
<g mask="url(#mask0)">
<path fill-rule="evenodd" clip-rule="evenodd" d="M12 -22.1859C3.57766 -22.1859 -3.25 -15.3583 -3.25 -6.93591C-3.25 -6.07557 -3.17876 -5.23187 -3.04185 -4.41039C-2.05541 -4.59136 -1.03874 -4.68591 0 -4.68591C4.70524 -4.68591 8.95735 -2.74581 12 0.378078C15.0427 -2.74581 19.2948 -4.68591 24 -4.68591C25.0387 -4.68591 26.0554 -4.59136 27.0418 -4.41039C27.1788 -5.23187 27.25 -6.07557 27.25 -6.93591C27.25 -15.3583 20.4223 -22.1859 12 -22.1859ZM-4.75 -6.93591C-4.75 -5.95979 -4.6665 -5.00316 -4.50626 -4.07279C-11.5684 -2.10485 -16.75 4.3745 -16.75 12.0641C-16.75 19.7537 -11.5684 26.233 -4.50626 28.201C-4.6665 29.1313 -4.75 30.088 -4.75 31.0641C-4.75 40.3149 2.74923 47.8141 12 47.8141C21.2508 47.8141 28.75 40.3149 28.75 31.0641C28.75 30.088 28.6665 29.1313 28.5063 28.201C35.5684 26.233 40.75 19.7537 40.75 12.0641C40.75 4.3745 35.5684 -2.10485 28.5063 -4.07279C28.6665 -5.00316 28.75 -5.95979 28.75 -6.93591C28.75 -16.1867 21.2508 -23.6859 12 -23.6859C2.74923 -23.6859 -4.75 -16.1867 -4.75 -6.93591ZM28.1846 26.7328C34.5724 24.914 39.25 19.0353 39.25 12.0641C39.25 5.09287 34.5724 -0.785826 28.1846 -2.60463C27.0708 1.56783 24.3864 5.09896 20.8035 7.31676C21.5667 8.72914 22 10.346 22 12.0641C22 13.7822 21.5667 15.399 20.8035 16.8114C24.3864 19.0292 27.0708 22.5603 28.1846 26.7328ZM19.9931 18.0742C23.2522 20.0839 25.6979 23.2858 26.7221 27.0718C25.8388 27.231 24.9291 27.3141 24 27.3141C19.6777 27.3141 15.7754 25.5159 13.0004 22.6268C13.1805 22.4054 13.3551 22.1793 13.5239 21.9487C16.1602 21.5456 18.4576 20.1131 19.9931 18.0742ZM19.4935 16.0797C20.1357 14.8838 20.5 13.5165 20.5 12.0641C20.5 10.6117 20.1357 9.24435 19.4935 8.04848C18.5456 8.52346 17.5463 8.91114 16.5063 9.20096C16.6665 10.1313 16.75 11.088 16.75 12.0641C16.75 13.0402 16.6665 13.9968 16.5063 14.9272C17.5463 15.217 18.5456 15.6047 19.4935 16.0797ZM16.1846 16.3954C17.044 16.6401 17.8725 16.9583 18.6627 17.3427C17.6463 18.624 16.268 19.6053 14.6824 20.1322C15.3254 18.9645 15.8332 17.7118 16.1846 16.3954ZM15.0418 14.5896C15.1788 13.7681 15.25 12.9244 15.25 12.0641C15.25 11.2037 15.1788 10.36 15.0418 9.53856C14.0554 9.71953 13.0387 9.81409 12 9.81409C10.9613 9.81409 9.9446 9.71953 8.95816 9.53856C8.82125 10.36 8.75 11.2037 8.75 12.0641C8.75 12.9244 8.82125 13.7681 8.95815 14.5896C9.94459 14.4086 10.9613 14.3141 12 14.3141C13.0387 14.3141 14.0554 14.4086 15.0418 14.5896ZM9.27789 16.0563C10.1612 15.8972 11.0709 15.8141 12 15.8141C12.9291 15.8141 13.8388 15.8972 14.7221 16.0563C14.285 17.6721 13.589 19.1815 12.6814 20.5372C12.4566 20.555 12.2294 20.5641 12 20.5641C11.7706 20.5641 11.5434 20.555 11.3186 20.5372C10.411 19.1815 9.71498 17.6721 9.27789 16.0563ZM7.49374 14.9272C7.3335 13.9968 7.25 13.0402 7.25 12.0641C7.25 11.088 7.3335 10.1313 7.49374 9.20096C6.45368 8.91114 5.4544 8.52346 4.50646 8.04848C3.86428 9.24435 3.5 10.6117 3.5 12.0641C3.5 13.5165 3.86428 14.8838 4.50646 16.0797C5.4544 15.6047 6.45368 15.217 7.49374 14.9272ZM5.33727 17.3427C6.12754 16.9583 6.95599 16.6401 7.81539 16.3954C8.16681 17.7118 8.67458 18.9645 9.31759 20.1322C7.73197 19.6053 6.35374 18.624 5.33727 17.3427ZM3.19651 16.8114C2.43327 15.399 2 13.7822 2 12.0641C2 10.346 2.43327 8.72914 3.19651 7.31676C-0.386446 5.09896 -3.07082 1.56783 -4.18461 -2.60463C-10.5724 -0.785828 -15.25 5.09287 -15.25 12.0641C-15.25 19.0353 -10.5724 24.914 -4.18461 26.7328C-3.07082 22.5603 -0.386448 19.0292 3.19651 16.8114ZM-2.72212 27.0718C-1.69792 23.2858 0.747774 20.0839 4.00687 18.0742C5.54235 20.1131 7.83983 21.5456 10.4761 21.9487C10.645 22.1793 10.8195 22.4054 10.9996 22.6268C8.22461 25.5159 4.3223 27.3141 0 27.3141C-0.92912 27.3141 -1.83883 27.231 -2.72212 27.0718ZM-3.04185 28.5386C-2.05541 28.7195 -1.03874 28.8141 0 28.8141C4.70524 28.8141 8.95735 26.874 12 23.7501C15.0427 26.874 19.2948 28.8141 24 28.8141C25.0387 28.8141 26.0554 28.7195 27.0418 28.5386C27.1788 29.36 27.25 30.2037 27.25 31.0641C27.25 39.4864 20.4223 46.3141 12 46.3141C3.57766 46.3141 -3.25 39.4864 -3.25 31.0641C-3.25 30.2037 -3.17875 29.36 -3.04185 28.5386ZM24 -3.18591C24.9291 -3.18591 25.8388 -3.10282 26.7221 -2.94367C25.6979 0.842367 23.2522 4.04428 19.9931 6.05399C18.4576 4.01511 16.1602 2.58255 13.5239 2.17946C13.3551 1.94888 13.1805 1.72278 13.0004 1.50137C15.7754 -1.38773 19.6777 -3.18591 24 -3.18591ZM14.6824 3.99601C16.268 4.52292 17.6463 5.5042 18.6627 6.78547C17.8725 7.16992 17.044 7.4881 16.1846 7.7328C15.8332 6.41633 15.3254 5.16369 14.6824 3.99601ZM12.6814 3.591C13.589 4.94672 14.285 6.45609 14.7221 8.07184C13.8388 8.231 12.9291 8.31409 12 8.31409C11.0709 8.31409 10.1612 8.231 9.27789 8.07184C9.71498 6.45609 10.411 4.94672 11.3186 3.591C11.5434 3.57317 11.7706 3.56409 12 3.56409C12.2294 3.56409 12.4566 3.57317 12.6814 3.591ZM9.31759 3.99601C8.67458 5.16369 8.16681 6.41633 7.81539 7.7328C6.95599 7.4881 6.12754 7.16992 5.33727 6.78547C6.35374 5.5042 7.73197 4.52292 9.31759 3.99601ZM-2.72212 -2.94367C-1.69792 0.842365 0.747774 4.04428 4.00687 6.05399C5.54235 4.01511 7.83982 2.58254 10.4761 2.17946C10.645 1.94888 10.8195 1.72278 10.9996 1.50137C8.22461 -1.38773 4.3223 -3.18591 0 -3.18591C-0.92912 -3.18591 -1.83883 -3.10282 -2.72212 -2.94367Z" fill="#333333"/>
</g>
</svg>
