<svg width="84" height="84" viewBox="0 0 84 84" fill="none" xmlns="http://www.w3.org/2000/svg"><path d="M64.5915 19.1627 60.4407 15.1431C55.8306 11.8455 49.2845 9.79468 42.0001 9.79468 34.7157 9.79468 28.1696 11.8455 23.5595 15.1431L19.4251 19.2119 19.2774 19.2939C17.686 21.5087 16.7837 23.9861 16.7837 26.5947 16.7837 34.1908 24.3634 40.622 34.7813 42.6892L35.0274 42.8697C36.8649 40.1791 40.1954 38.6205 43.8048 39.3916 45.9212 39.8181 47.7587 41.1306 48.9563 42.8697L49.2188 42.6892C59.604 40.622 67.1837 34.1908 67.1837 26.5947 67.2001 23.9205 66.2649 21.4103 64.5915 19.1627z" fill="#ced3eb"/><path d="M67.1509 14.1586C66.429 15.8977 65.5759 17.5711 64.5915 19.1625 63.4103 21.0656 62.0649 22.8703 60.5228 24.5602 59.5056 23.0508 57.8321 21.8859 55.8306 21.3445 57.6353 19.4578 59.1774 17.3742 60.4407 15.143 63.0165 10.582 64.3946 5.39766 64.3946.0h5.5946C69.9892 2.92031 69.661 5.79141 68.9884 8.58047 68.529 10.4836 67.922 12.3539 67.1509 14.1586z" fill="#ced3eb"/><path d="M16.8495 14.175C16.0784 12.3703 15.4714 10.5 15.012 8.59683 14.3394 5.80776 14.0112 2.93667 14.0112.0163574H19.6058C19.6058 5.41401 20.9839 10.5984 23.5761 15.1593 24.8394 17.3906 26.3815 19.4742 28.1862 21.3609 26.1847 21.9023 24.5112 23.0671 23.494 24.5765 21.9683 22.9031 20.6065 21.0984 19.4417 19.2117 18.4409 17.6039 17.5714 15.914 16.8495 14.175z" fill="#ced3eb"/><path d="M84.0003 36.8486V40.8189C84.0003 49.2845 80.8011 57.4712 75.1737 63.6892 74.6487 61.54 73.6315 59.6697 72.3354 58.3244 76.2073 53.3369 78.4058 47.2009 78.4058 40.8025V36.8322C78.4058 27.8416 74.1401 19.458 67.1675 14.1423 67.9386 12.3376 68.5456 10.4673 69.005 8.56421 78.2581 14.8478 84.0003 25.4462 84.0003 36.8486z" fill="#ced3eb"/><path d="M15.0117 8.58032C15.4711 10.4834 16.0781 12.3538 16.8492 14.1584 9.87656 19.4741 5.61094 27.8577 5.61094 36.8319V40.8022C5.61094 47.1842 7.79297 53.3366 11.6812 58.3241 10.3852 59.6694 9.36797 61.5233 8.84297 63.6889 3.19922 57.471.0 49.3006.0 40.8186V36.8483C0 25.4459 5.74219 14.8475 15.0117 8.58032z" fill="#ced3eb"/><path d="M50.236 45.872C50.3508 46.4626 50.4001 47.0368 50.4001 47.5946 50.4001 51.3517 48.2344 52.9103 46.4462 54.4689 44.7727 56.0439 43.7391 57.865 43.7391 60.2439V82.2446C43.7391 83.1962 42.886 84.0001 41.9837 84.0001 41.0977 84.0001 40.2282 83.2618 40.2282 82.2446V59.9649C40.2282 57.5696 39.0798 55.9126 37.3243 54.2884 35.6508 52.7626 33.6001 51.4501 33.5673 47.611 33.5509 45.8556 34.0923 44.2314 35.011 42.886 36.8485 40.1954 40.179 38.6368 43.7883 39.4079 45.9047 39.8345 47.7422 41.147 48.9399 42.886 49.5797 43.772 50.0063 44.7892 50.236 45.872z" fill="#9ea7d6"/><path d="M60.5229 24.5766C61.2119 25.5773 61.6057 26.7586 61.6057 28.0055 61.6057 31.8609 57.8322 35.0109 53.2057 35.0109 48.5791 35.0109 44.8057 31.8773 44.8057 28.0055 44.8057 24.1336 48.5791 21 53.2057 21 54.1244 21 55.0103 21.1313 55.8307 21.3445 57.8322 21.9023 59.5057 23.0508 60.5229 24.5766z" fill="#6d7bc2"/><path d="M30.7945 21C35.4211 21 39.1945 24.1336 39.1945 28.0055 39.1945 31.8773 35.4211 35.0109 30.7945 35.0109 26.168 35.0109 22.3945 31.8773 22.3945 28.0055 22.3945 26.7586 22.7883 25.5773 23.4773 24.5766 24.4945 23.0672 26.168 21.9023 28.1695 21.3609 28.9898 21.1312 29.8758 21 30.7945 21z" fill="#6d7bc2"/><path d="M40.2444 81.1947V81.3259C40.2444 83.1634 38.3741 84.4759 36.7007 83.754 36.3397 83.6064 36.0444 83.3767 35.8968 83.0978L32.271 76.7814C31.303 75.0915 30.7944 73.1884 30.7944 71.2361 30.7944 69.497 31.2046 67.7908 31.9757 66.2486L33.321 63.558C33.5015 63.197 33.5999 62.8033 33.5999 62.3931V47.6111C33.5999 50.0556 34.4694 51.6142 36.8319 53.7634 39.1944 55.9291 40.2608 57.5697 40.2608 59.965L40.2444 81.1947z" fill="#6d7bc2"/><path d="M43.7393 59.965C43.7393 57.5697 44.8057 55.9291 47.1682 53.7634 49.5307 51.5978 50.4002 50.0392 50.4002 47.6111V62.3931C50.4002 62.8033 50.4986 63.197 50.6791 63.558L52.0244 66.2486C52.7955 67.7908 53.2057 69.497 53.2057 71.2361 53.2057 73.1884 52.6971 75.0916 51.7291 76.7814L48.1033 83.1142C47.9557 83.3931 47.6603 83.6228 47.2994 83.7705 45.6096 84.4923 43.7557 83.1634 43.7557 81.3423V81.2111 59.965H43.7393z" fill="#6d7bc2"/><path d="M72.335 58.3405C73.6311 59.6858 74.6482 61.5397 75.1732 63.7053 75.4522 64.8045 75.5998 65.9858 75.5998 67.1999 75.5998 73.385 71.8264 78.4053 67.1998 78.4053 62.5732 78.4053 58.7998 73.4014 58.7998 67.1999 58.7998 60.9983 62.5732 55.9944 67.1998 55.9944 69.1357 55.9944 70.924 56.8639 72.335 58.3405z" fill="#6d7bc2"/><path d="M11.6647 58.3405C13.0757 56.8639 14.864 55.9944 16.7999 55.9944 21.4265 55.9944 25.1999 60.9983 25.1999 67.1999 25.1999 73.4014 21.4265 78.4053 16.7999 78.4053 12.1733 78.4053 8.3999 73.4014 8.3999 67.1999 8.3999 65.9858 8.54756 64.8045 8.82646 63.7053 9.35146 61.5397 10.3522 59.6858 11.6647 58.3405z" fill="#6d7bc2"/></svg>