<svg id="Capa_1" xmlns="http://www.w3.org/2000/svg" viewBox="0 0 512 512"><style>.st3{fill:#4555a5}</style><path d="M48.2 181.5C52.4 123.2 103.3 77.4 161.7 78c34.6.4 65.5 16.4 85.9 41.3 4.4 5.3 12.5 5.3 16.9.0 20.4-24.9 51.2-41 85.9-41.3 58.5-.7 109.3 45.1 113.5 103.5 7.5 102.9-114.9 210.1-190.7 248.3-10.8 5.4-23.5 5.4-34.2.0-76-38.1-198.3-145.4-190.8-248.3z" fill="#caddea"/><path d="M282.6 424.8c63-34.7 150.8-111.1 175.1-192.4-16.7-3-38.2-.1-55.8 6.5-30.6 11.5-97.8 51.2-116.2 140 0 .1-3.4 23.3-3.1 45.9z" fill="#acc5e8"/><path d="M408.1 253.9 351.2 197c-8.7-8.7-22.7-8.7-31.4.0l-70.7 70.7-52-52c-8.7-8.7-22.7-8.7-31.4.0l-38.1 38.1H22.2C9.9 253.9.0 263.9.0 276.2c0 12.3 9.9 22.2 22.2 22.2h114.5c5.9.0 11.5-2.3 15.7-6.5l28.9-28.9 52 52c8.7 8.7 22.7 8.7 31.4.0l70.7-70.7 47.7 47.7c4.2 4.2 9.8 6.5 15.7 6.5h90.8c12.3.0 22.2-9.9 22.2-22.2.0-12.3-9.9-22.2-22.2-22.2l-81.5-.2z" fill="#6073ba"/><path class="st3" d="M408.1 253.9l-12.4-12.4c-10.9 4.7-24.9 12.4-39.3 23.5l26.8 26.8c4.2 4.2 9.8 6.5 15.7 6.5h25.7c10-14.4 18.6-29.3 25.2-44.4h-41.7zM152.5 291.9l10.6-10.6c-13.1-10.2-18.8-34.2-13.1-49.8l-22.4 22.4H22.2c-12.3.0-22.2 10-22.2 22.3s9.9 22.2 22.2 22.2h114.5c6 0 11.6-2.4 15.8-6.5z"/></svg>