<svg id="Capa_1" xmlns="http://www.w3.org/2000/svg" viewBox="0 0 512 512"><path d="M11.7 245.5c-13-35.5-15.2-74.2-6.4-111.1l16.8-70.1c7.9-32.6 39.4-52.7 71-45.2l31.5 7.6c12.2 2.9 24.9 1.6 36.5-3.5 29.8-13.2 61.9-13.2 91.7.0 11.5 5.1 24.3 6.4 36.5 3.5l31.5-7.6c31.5-7.6 63.1 12.6 70.9 45.3l16.8 70.1c8.8 36.8 6.6 75.6-6.3 111.1l-84.9 232.1c-7.1 19.5-29.9 27.1-46.6 15.5-7.6-5.3-12.6-13.7-13.7-23.1l-8.3-69.5s-3.2-36.1-13.9-58.5c-11.4-24.1-44.1-23.8-55.9.0-13.1 26.2-14.1 60.4-14.1 60.4l-8.1 67.6c-1.1 9.4-6.1 17.8-13.7 23.1-16.7 11.6-39.4 4-46.6-15.5L11.7 245.5z" fill="#caddea"/><path d="M350.9 245.5c13-35.5 15.2-74.2 6.3-111.1l-16.8-70.1c-4.6-19.3-17.6-34.3-34-41.7l14.4-3.5c31.5-7.6 63.1 12.6 70.9 45.3l16.8 70.1c8.8 36.8 6.6 75.6-6.3 111.1l-84.9 232.1c-7.1 19.5-29.9 27.1-46.6 15.5-3.3-2.3-6.1-5.2-8.3-8.5 1.4-2.1 2.6-4.5 3.6-7.1l84.9-232.1zM117.2 470.1c-1 8.3-5.1 15.9-11.3 21.2 10.2 8.7 25.2 10.2 37.1 1.9 7.6-5.3 12.6-13.7 13.7-23.1l8.1-67.6s1-34.2 14.1-60.4c5.9-11.7 16.8-17.8 27.7-18-21.9-4.5-59.4 2.3-67.2 18-13.1 26.2-14.1 60.4-14.1 60.4l-8.1 67.6z" fill="#97b0db"/><path d="M109.5 248.8c-1.6 1.5-7.9 7.2-16.3 7.2-23.9-.1-44.1-46.4-49.2-81.9-1-7-10.6-79.2 24.7-95.9 18.5-8.7 46.2-.6 55.4 16.5 7.7 14.3-3 23.8-7.5 58.4-6.7 51.5 11 78.8-7.1 95.7z" fill="#e1eaf9"/><g><path d="M282.9 238.9h62.9V176c0-9.5 7.7-17.2 17.2-17.2h51.6c9.5.0 17.2 7.7 17.2 17.2v62.9h62.9c9.5.0 17.2 7.7 17.2 17.2v51.6c0 9.5-7.7 17.2-17.2 17.2h-62.9v62.9c0 9.5-7.7 17.2-17.2 17.2H363c-9.5.0-17.2-7.7-17.2-17.2v-62.9h-62.9c-9.5.0-17.2-7.7-17.2-17.2v-51.6c0-9.5 7.7-17.2 17.2-17.2z" fill="#4555a5"/><path d="M265.7 256.1c0-9.5 7.7-17.2 17.2-17.2h62.9V176c0-9.5 7.7-17.2 17.2-17.2h25.8v246.3H363c-9.5.0-17.2-7.7-17.2-17.2V325h-62.9c-9.5.0-17.2-7.7-17.2-17.2v-51.7z" fill="#6073ba"/></g></svg>