<svg id="Layer_1" xmlns="http://www.w3.org/2000/svg" viewBox="0 0 512 512"><style>.st1{fill:#e1eaf9}.st5{fill:#4555a5}</style><path d="M426.4 252.5c-17.7 30.9-56 104.3-56 140.6.0 23.9 7.7 48.1 23.3 68.4l26 33.9c5.2 6.9.3 16.6-8.5 16.6H225.9c-5.9.0-10.6-4.7-10.6-10.4V418c0-5.7-4.8-10.4-10.6-10.4h-36.5c-23.3.0-44.8-37.1-57-77.6-5.9-19.8-9.6-40.4-10.2-57.8H76.2c-11 0-17.3-12.1-11-20.9L99 205c1.3-1.8 2-3.9 2-6v-27C101 78.4 177.6.7 273.4.0c133.5-1 217.6 139.9 153 252.5z" fill="#caddea"/><path class="st1" d="M247.1 501.6V418c0-5.7-4.8-10.4-10.6-10.4h-31.9c5.9.0 10.6 4.7 10.6 10.4v83.6c0 5.7 4.8 10.4 10.6 10.4h31.8c-5.8.0-10.5-4.7-10.5-10.4zM132.8 272.2H108c-11 0-17.4-12.1-11-20.9l33.8-46.3c1.3-1.8 2-3.9 2-6v-27c0-88.9 69-163.4 158-171.4-5.7-.4-11.5-.6-17.4-.6C177.6.7 101 78.4 101 172.1v27c0 2.2-.7 4.3-2 6l-33.8 46.3c-6.4 8.7.0 20.9 11 20.9H101c1.7 52.9 32.4 135.4 67.2 135.4H2e2c-34.8-.1-65.5-82.5-67.2-135.5z"/><path d="M426.4 252.5c-17.7 30.9-56 104.3-56 140.6.0 23.9 7.7 48.1 23.3 68.4l26 33.9c5.2 6.9.3 16.6-8.5 16.6h-31.8c8.7.0 13.7-9.8 8.5-16.6l-26-33.9c-15.6-20.3-23.3-44.5-23.3-68.4.0-36.3 38.3-109.6 56-140.6C456.3 144.9 382.2 11.4 258.9.7c4.8-.4 9.6-.7 14.5-.7 133.5-.9 217.6 139.9 153 252.5z" fill="#97b0db"/><g><circle class="st5" cx="235.8" cy="225.3" r="12.8"/><circle class="st5" cx="233" cy="275.8" r="7.8"/><circle class="st5" cx="272.7" cy="265.9" r="15.6"/><circle class="st5" cx="191.3" cy="256.1" r="19.4"/><circle class="st5" cx="199.5" cy="301.5" r="12.1"/><circle class="st5" cx="246.7" cy="308.7" r="9.2"/></g></svg>