<svg id="Layer_1" xmlns="http://www.w3.org/2000/svg" viewBox="0 0 512 512"><style>.st1{display:inline}.st2{fill:#ffcca8}.st3{fill:#f5b896}.st4{fill:#ffefe5}.st5{fill:#6073ba}.st6{fill:#4555a5}.st7{fill:#e1eaf9}.st7,.st8{display:inline}.st10,.st8{fill:#caddea}.st11{fill:#e1eaf9}.st14{opacity:.32;fill:#6073ba;enable-background:new}.st18{fill:#fc7070}.st19{fill:#e56a6a}</style><g id="Layer_2_1_"><path class="st10" d="M328.3 111.5c-2.7 35.3-36.1 48.1-80.7 55H480c17.7.0 32 14.3 32 32s-14.3 32-32 32H262.2c12.4 74.7-10.1 131.8-19.7 148.1-12.4 20.8-58 11.6-100.5 8.5s-56.2-33.2-75.5-33.2H0V169.5h45.5c17.8.0 41.9-4.5 60.5-25.2 36-40 62.7-42.1 127.3-41.3 18 .2 39.9-2.5 55.4-4 15.4-1.5 40.3-10.7 39.6 12.5z"/><path class="st14" d="M69.3 184.3c-1.2-2.2-32.3-1.2-69.3-.3v-14.4h45.5c17.8.0 41.9-4.5 60.5-25.2-19.9 24.8-31.7 50.8-31.7 102.3.0.0-3.2-59.3-5-62.4zM213.9 219.4l95.5 11.2c17.7 2.1 30.5 18.2 28.4 36-2.1 17.7-18.2 30.5-36 28.4l-3.6-.4c17 3.8 28.1 20.6 24.8 37.8-3.4 17.5-20.5 29-38 25.7l-2.7-.5c10.4 5.5 16.5 17.3 14.1 29.4-1 5-3.2 9.3-6.4 12.9l-113.4-9.4c-.1-.1-.3-.2-.4-.2l.1.2c-11.2-1-22.9-2.3-34.4-3.1-42.5-3.1-56.2-33.2-75.5-33.2H-.1V341c32.1.6 61.6 1.3 66.3-1.8 6.5-4.3 6.3-24.6 11-45.1.8 24.2 4.8 35.7 20.1 51.9 14.1 15 38.2 20.7 65.3 23.5-.3-2.8-.3-5.6.3-8.5 2.4-12.3 12.8-21.1 24.7-22.1-15.7-4.7-25.8-20.8-22.6-37.2 2.5-12.8 12.3-22.4 24.3-25.3-8-6.8-12.7-17.4-11.4-28.5 2.1-17.8 18.3-30.6 36-28.5zM247.6 166.5c-13 0-46.6.8-50.3 1s-8.8 13-9.3 20.3c-1.2-6.6.5-17.2-.5-18.4s-18.2 5.4-23.1 15.7c2.2-8.1 4-12.6 9.7-16.7 6.3-4.4 15.9-4.2 13.5-7.8-2.5-3.7-1.2-10 .7-13.7 2 6.6 2.9 14.2 16.2 15.7s43.1 3.9 43.1 3.9z"/><g><linearGradient id="SVGID_1_" gradientUnits="userSpaceOnUse" x1="-1252.089" y1="1655.846" x2="-1185.108" y2="1668.866" gradientTransform="rotate(-90 -1151.755 257)"><stop offset=".3" stop-color="#acc5e8"/><stop offset=".304" stop-color="#b1c9e8"/><stop offset=".308" stop-color="#bfd4e9"/><stop offset=".31" stop-color="#caddea"/></linearGradient><path d="M175.9 301.6c-3.4 17.5 8.2 34.6 25.7 38l94.4 18.3c17.5 3.4 34.6-8.2 38-25.7 3.4-17.5-8.2-34.6-25.7-38L213.8 276c-17.5-3.4-34.5 8.1-37.9 25.6z" fill="url(#SVGID_1_)"/><linearGradient id="SVGID_2_" gradientUnits="userSpaceOnUse" x1="-1299.373" y1="1643.275" x2="-1241.602" y2="1654.504" gradientTransform="rotate(-90 -1151.755 257)"><stop offset=".24" stop-color="#acc5e8"/><stop offset=".244" stop-color="#b1c9e8"/><stop offset=".248" stop-color="#bfd4e9"/><stop offset=".25" stop-color="#caddea"/></linearGradient><path d="M173.7 360.9c-2.9 14.8 6.9 29.3 21.7 32.1l79.8 15.5c14.8 2.9 29.3-6.9 32.1-21.7 2.9-14.8-6.9-29.3-21.7-32.1l-79.8-15.5c-14.8-2.8-29.2 6.9-32.1 21.7z" fill="url(#SVGID_2_)"/><linearGradient id="SVGID_3_" gradientUnits="userSpaceOnUse" x1="-1182.307" y1="1673.779" x2="-1122.581" y2="1681.112" gradientTransform="rotate(-90 -1151.755 257)"><stop offset=".18" stop-color="#acc5e8"/><stop offset=".189" stop-color="#b1c9e8"/><stop offset=".2" stop-color="#bfd4e9"/><stop offset=".206" stop-color="#caddea"/></linearGradient><path d="M188.8 247.8c-2.1 17.7 10.7 33.9 28.4 36l95.5 11.2c17.7 2.1 33.9-10.7 36-28.4 2.1-17.7-10.7-33.9-28.4-36l-95.5-11.2c-17.8-2.1-33.9 10.7-36 28.4z" fill="url(#SVGID_3_)"/></g><g><path class="st11" d="M218.6 332.1s11.4-17.9 8.1-42.3l-15.4-3.3c-11.5-2.4-22.8 4.7-25.7 16.1-3 12.2 4.9 24.5 17.3 26.7l15.7 2.8zM208.5 385.1s8.8-13.9 6.3-32.9l-12-2.5c-8.9-1.9-17.8 3.6-20 12.5-2.4 9.5 3.8 19.1 13.5 20.8l12.2 2.1zM232.9 275.6s10.1-18.9 5-43.3l-15.8-2.1c-11.8-1.6-22.7 6.4-24.7 18.1-2.1 12.6 6.8 24.3 19.5 25.6l16 1.7z"/></g><path class="st18" d="M481 189.2c-5.8.0-10.5 4.7-10.5 10.5s4.7 10.5 10.5 10.5 10.5-4.7 10.5-10.5-4.7-10.5-10.5-10.5z"/><g><path class="st18" d="M471 253.8l-16.1 28c-8.2 14.3 2.1 32.2 18.6 32.2 16.6.0 26.9-17.9 18.6-32.2l-16.1-28c-1.1-1.9-3.9-1.9-5 0z"/><path class="st19" d="M471 281.8l10.6-18.4-5.6-9.6c-1.1-1.9-3.8-1.9-4.9.0l-16.1 28c-8.2 14.3 2.1 32.2 18.6 32.2 2.9.0 5.6-.6 8-1.5-11.7-4.7-17.5-19-10.6-30.7z"/></g><g><path class="st18" d="M438.6 352.5l-28.3 49C395.9 426.6 414 458 443 458s47.1-31.4 32.6-56.5l-28.3-49c-2-3.3-6.7-3.3-8.7.0z"/><path class="st19" d="M438.5 401.5l18.5-32.1-9.8-16.9c-1.9-3.3-6.8-3.3-8.6.0l-28.3 49C395.9 426.6 414 458 443 458c5.1.0 9.8-1 14.1-2.7-20.3-8.2-30.6-33.1-18.6-53.8z"/></g></g></svg>