<svg id="Layer_1" xmlns="http://www.w3.org/2000/svg" xmlns:xlink="http://www.w3.org/1999/xlink" viewBox="0 0 512 512"><style>.st0{display:none}.st1{fill:#caddea}.st1,.st3{display:inline}.st4{fill:#acc5e8}.st5{fill:#e1eaf9}.st7{fill:#6073ba}.st8{fill:#4555a5}.st9{fill:#caddea}.st10{fill:#97b0db}.st11,.st12,.st13{display:inline;fill:#97b0db}.st12,.st13{fill:#4555a5}.st13{fill:#6073ba}</style><g id="Layer_1_1_" class="st0"><path class="st1" d="M284.8 137.9h-57.5c-23 0-41.6-18.6-41.6-41.6V41.6c0-23 18.6-41.6 41.6-41.6h57.5c23 0 41.6 18.6 41.6 41.6v54.7c0 23-18.7 41.6-41.6 41.6z"/><path d="M72.9 5e2c9-2 14.9-13.4 17.1-12.8 2.2.7-2.5 17.5-4.3 23.2-1.9 5.7-3.7 12.5-4.8 16-1.2 3.5-2.5 9.9.2 13.5 2.6 3.6 6.4-1 9-10.2s7.9-25.5 7.9-25.5-2.9 13.8-5.1 22.1c-2.2 8.4-7.8 19-3 23.1 2.5 2.1 5.5-.6 7.2-4.6 1.7-4.1 3.8-10.9 3.9-11.5 1.6-6.8 6.2-25.6 6.2-25.6s-3 15.7-4.8 23.2c-1 4.2-3.3 9.6-3.3 12.9.0 2.7 2.1 4.4 4.8 3.6 2.5-.7 4.7-6.3 6.1-12.2 1.5-6 3.7-17 5.1-22.2.5-2 1.4-3.9 1.3-2.4-.1 3.2-2.6 11.9-3.4 16.3-1 5.5-.8 9.4 1.8 9.7 1.6.2 3.1-.2 4.5-2.6 1.6-2.8 3.2-10.1 4.3-15.3 1.9-8.4 4.4-16.1 5.5-23.6 1.1-7.5 2.6-22.9 3.8-27.9s3.5-11.6 3.5-11.6h-.2c4.6-14.2 15.6-48.2 22.7-68.9 9.2-26.7 6-35.9 7.4-47.3.9-7.5 8.8-26.1 14.4-46.1 8.6 18 17.4 44.4 12.1 70.5-9.3 45.8-6.4 32.5-9.3 45.8-3.2 14.7-6.4 29.1-7.9 44.2-3.2 33.6-5.8 67.6-.4 100.9.6 3.8 1.7 13.2 2.9 24.4h71.3c.3-3.2.6-6.6.8-10 2.3-32.8 1.2-50.7 7.1-51.5 5.9.9 4.8 18.7 7.1 51.5.2 3.5.5 6.8.8 10h71.3c1.2-11.2 2.3-20.7 2.9-24.4 5.3-33.3 2.8-67.3-.4-100.9-1.5-15-4.7-29.5-7.9-44.2-2.9-13.3.0.0-9.3-45.8-5.3-26.1 3.5-52.5 12.1-70.5 5.7 20 13.5 38.7 14.4 46.1 1.4 11.5-1.8 20.7 7.4 47.3 7.1 20.7 18.2 54.7 22.7 68.9h-.2s2.4 6.6 3.5 11.6c1.2 5 2.7 20.4 3.8 27.9 1.1 7.5 3.6 15.2 5.5 23.6 1.1 5.2 2.7 12.5 4.3 15.3 1.4 2.4 2.8 2.8 4.5 2.6 2.6-.3 2.8-4.2 1.8-9.7-.8-4.4-3.3-13.1-3.4-16.3-.1-1.5.8.5 1.3 2.4 1.3 5.2 3.6 16.1 5.1 22.2 1.4 5.9 3.6 11.5 6.1 12.2 2.8.8 4.8-1 4.8-3.6.0-3.4-2.3-8.8-3.3-12.9-1.8-7.5-4.8-23.2-4.8-23.2s4.7 18.7 6.2 25.6c.2.7 2.2 7.5 3.9 11.5 1.7 4 4.7 6.7 7.2 4.6 4.8-4-.8-14.7-3-23.1-2.2-8.4-5.1-22.1-5.1-22.1s5.3 16.3 7.9 25.5c2.6 9.2 6.3 13.7 9 10.2 2.6-3.6 1.3-10 .2-13.5-1.2-3.5-3-10.3-4.8-16-1.9-5.7-6.5-22.6-4.3-23.2 2.4-.6 8.4 10.8 17.4 12.8s10.3-4.9 6.3-7.7c-3.9-2.7-8.7-5.7-17.1-15.9-5-6.1-12-10.3-19.3-13.2-1.3-.5-2.7-1-3.9-1.8-2.4-1.7-2.8-5.3-3.5-8-.6-2.7-1.2-5.4-1.9-8-1.4-5.3-2.7-13.8-2.7-27.9.0-33.6-6.9-62.5-10.6-70.3s-6-13.8-10.3-45.5 4-26.5.0-64.8-33.4-45-46.6-48.1c-13.2-3.1-40.1-14.2-45.4-18.2-2.6-2-3-12-2.7-21.6 4-6.2 6.1-14.3 7.6-21.5.6.8 2 2.3 3.1 2.4 1.6.1 4-5 4.8-7.8s1.8-12.2.6-15.8c-1.1-3.5-3.8-.8-4.7.6-.3.5-1 1-1.7 1.4.2-4.7.5-9.3 1.2-14 1.3-9.1.7-17.9-2.4-26.7-6.5-18.6-32-19.9-35.6-20-3.5.1-29.1 1.4-35.6 20-3.1 8.8-3.7 17.6-2.4 26.7.7 4.6.9 9.3 1.2 14-.7-.4-1.4-.9-1.7-1.4-.9-1.4-3.5-4.2-4.7-.6-1.1 3.5-.1 13 .6 15.8s3.2 7.9 4.8 7.8c1.2-.1 2.5-1.6 3.1-2.4 1.5 7.1 3.5 15.3 7.6 21.5.2 9.6-.2 19.6-2.7 21.6-5.2 4-32.2 15.1-45.3 18.2-13.2 3.1-42.6 9.8-46.6 48.1s4.3 33.1.0 64.8-6.6 37.7-10.3 45.5-10.6 36.8-10.6 70.3c0 14.2-1.3 22.6-2.7 27.9-.7 2.6-1.2 5.3-1.9 8s-1.1 6.2-3.5 8c-1.2.8-2.5 1.3-3.9 1.8-7.3 2.8-14.3 7.1-19.3 13.2-8.4 10.2-13.2 13.1-17.1 15.9-3.5 2.8-2.3 9.8 6.7 7.7z" fill="#f9d5c5"/><g class="st3"><path class="st4" d="M229.2 137.4h53.6v17.9h-53.6v-17.9z"/></g><path class="st1" d="M374 177.2c-19.1-11.4-48.6-22.8-118-22.8s-98.8 11.4-118 22.8c-19.1 11.4-29.4 24.6-29.4 55.7v63.9c0 8.6 5.6 16.3 13.9 18.8l35.2 10.8V512h81.8v-18.8h33V512h81.8V326.5l35.2-10.8c8.3-2.5 13.9-10.2 13.9-18.8V233c0-31.1-10.2-44.4-29.4-55.8z"/><g class="st3"><path class="st4" d="M157.7 249.1v77.4l-10.9-3.3v-61.6c0-6.9 4.9-12.5 10.9-12.5z"/></g><g class="st3"><path class="st4" d="M283.5 474.4V512h-10.9v-25c-.1-6.9 4.8-12.6 10.9-12.6z"/></g><g class="st3"><path class="st4" d="M228.5 474.4V512h10.9v-25c.1-6.9-4.8-12.6-10.9-12.6z"/></g><g class="st3"><path class="st4" d="M354.2 249.1v77.4l10.9-3.3v-61.6c.1-6.9-4.8-12.5-10.9-12.5z"/></g><g class="st3"><path class="st5" d="M227.4 342.4v-2.8c5.7-3.3 9.5-9.4 9.5-16.5.0-10.5-8.5-19.1-19.1-19.1-10.5.0-19.1 8.5-19.1 19.1v35.7c0 10.5 8.5 19.1 19.1 19.1 10.5.0 19.1-8.5 19.1-19.1.0-6.9-3.8-13.1-9.5-16.4zM284.6 342.4v-2.8c-5.7-3.3-9.5-9.4-9.5-16.5.0-10.5 8.5-19.1 19.1-19.1s19.1 8.5 19.1 19.1v35.7c0 10.5-8.5 19.1-19.1 19.1s-19.1-8.5-19.1-19.1c0-6.9 3.8-13.1 9.5-16.4z"/></g><path d="M256 13.6c-27.5.0-49.8 19.9-49.8 44.5.0 5.7 5.1 10.3 11.5 10.3h42.1c0 11.4 10.3 20.6 23 20.6s23-9.2 23-20.6V58.1c0-24.6-22.3-44.5-49.8-44.5z" fill="#e1eaf9"/><g class="st3"><path class="st7" d="M264.9 173.1c0 4.9-4 8.9-8.9 8.9s-8.9-4-8.9-8.9-4-8.9-8.9-8.9-8.9 4-8.9 8.9V191c0 4.9 4 8.9 8.9 8.9s8.9-4 8.9-8.9H265c0 4.9 4 8.9 8.9 8.9s8.9-4 8.9-8.9v-17.9c0-4.9-4-8.9-8.9-8.9-5-.1-9 3.9-9 8.9z"/><path class="st8" d="M260.5 262.3c7.4.0 13.4-6 13.4-13.4v-22.3h-4.5c-12.3.0-22.3 10-22.3 22.3.0 7.4 6 13.4 13.4 13.4z"/><path class="st7" d="M251.5 262.3c-7.4.0-13.4-6-13.4-13.4v-22.3h4.5c12.3.0 22.3 10 22.3 22.3.0 7.4-6 13.4-13.4 13.4zM222.7 308.9h-11.9c-2.6.0-4.8-2.1-4.8-4.8.0-2.6 2.1-4.8 4.8-4.8h11.9c2.6.0 4.8 2.1 4.8 4.8s-2.2 4.8-4.8 4.8zM241.7 330.3c-8.1.0-14.7 6.8-14.3 15 .3 7.3 6.3 13.3 13.6 13.6 8.2.4 15-6.2 15-14.3h14.3c3.9.0 7.1-3.2 7.1-7.1s-3.2-7.1-7.1-7.1h-28.6v-.1zM301.3 308.9h-11.9c-2.6.0-4.8-2.1-4.8-4.8.0-2.6 2.1-4.8 4.8-4.8h11.9c2.6.0 4.8 2.1 4.8 4.8s-2.2 4.8-4.8 4.8z"/><g><path class="st7" d="M241.1 458.7c-4.9.0-8.9-4-8.9-8.9v-8.9c0-4.9 4-8.9 8.9-8.9s8.9 4 8.9 8.9v8.9c0 4.9-3.9 8.9-8.9 8.9zM270.9 458.7c-4.9.0-8.9-4-8.9-8.9v-8.9c0-4.9 4-8.9 8.9-8.9s8.9 4 8.9 8.9v8.9c0 4.9-4 8.9-8.9 8.9z"/></g></g><g class="st3"><circle class="st7" cx="255.6" cy="68.1" r="17.9"/><circle class="st7" cx="255.6" cy="179.2" r="17.9"/><circle class="st7" cx="255.6" cy="246.6" r="17.9"/><circle class="st7" cx="255.6" cy="350.1" r="17.9"/><circle class="st7" cx="217.3" cy="315.1" r="17.9"/><circle class="st7" cx="297" cy="315.1" r="17.9"/><circle class="st7" cx="254.9" cy="457.8" r="17.9"/></g></g><g id="Layer_2_1_"><path class="st5" d="M81.4 286c-4 0-7.4-3-7.9-7-.9-7.6-1.4-15.3-1.4-23 0-39.4 12.3-77 35.5-108.7 2.6-3.6 7.6-4.3 11.2-1.7s4.3 7.6 1.7 11.2C99.2 185.7 88 220 88 256c0 7 .4 14.1 1.3 21 .5 4.4-2.6 8.4-6.9 8.9-.4.1-.7.1-1 .1zM288 437.1c-3.8.0-7.2-2.7-7.9-6.6-.8-4.3 2.1-8.5 6.4-9.3 21.5-3.9 41.7-11.9 60.1-23.8 3.7-2.4 8.7-1.3 11.1 2.4 2.4 3.7 1.3 8.7-2.4 11.1-20.2 13-42.3 21.7-65.9 26.1-.4.1-.9.1-1.4.1zM429.1 232c-3.8.0-7.2-2.7-7.9-6.6C411 169.6 373.5 123 320.9 101c-4.1-1.7-6-6.4-4.3-10.5s6.4-6 10.5-4.3c27.9 11.7 52.7 30.3 71.8 53.9 19.4 23.8 32.5 52.4 38 82.4.8 4.3-2.1 8.5-6.4 9.3-.4.2-.9.2-1.4.2z"/><path class="st9" d="M231.8 73.4h-54.5c-4.3.0-7.7-3.5-7.7-7.7v-23c0-4.3 3.5-7.7 7.7-7.7h54.5c4.3.0 7.7 3.5 7.7 7.7v23c0 4.2-3.4 7.7-7.7 7.7z"/><path class="st10" d="M232.2 35h-14.8c4.1.0 7.4 3.6 7.4 8.1v22.3c0 4.5-3.3 8.1-7.4 8.1h14.8c4.1.0 7.4-3.6 7.4-8.1V43c-.1-4.4-3.4-8-7.4-8z"/><path class="st9" d="M231.8 146.7h-54.5c-4.3.0-7.7-3.5-7.7-7.7v-23c0-4.3 3.5-7.7 7.7-7.7h54.5c4.3.0 7.7 3.5 7.7 7.7v23c0 4.3-3.4 7.7-7.7 7.7z"/><path class="st10" d="M232.2 108.3h-14.8c4.1.0 7.4 3.6 7.4 8.1v22.3c0 4.5-3.3 8.1-7.4 8.1h14.8c4.1.0 7.4-3.6 7.4-8.1v-22.3c-.1-4.4-3.4-8.1-7.4-8.1z"/><path class="st9" d="M231.8 220.2h-54.5c-4.3.0-7.7-3.5-7.7-7.7v-23c0-4.3 3.5-7.7 7.7-7.7h54.5c4.3.0 7.7 3.5 7.7 7.7v23c0 4.2-3.4 7.7-7.7 7.7z"/><path class="st10" d="M232.2 181.8h-14.8c4.1.0 7.4 3.6 7.4 8.1v22.3c0 4.5-3.3 8.1-7.4 8.1h14.8c4.1.0 7.4-3.6 7.4-8.1v-22.3c-.1-4.5-3.4-8.1-7.4-8.1z"/><path class="st5" d="M232.2 35H177c-4.1.0-7.4-3.3-7.4-7.4V7.4c0-4.1 3.3-7.4 7.4-7.4h55.2c4.1.0 7.4 3.3 7.4 7.4v20.3c-.1 4-3.4 7.3-7.4 7.3z"/><path class="st4" d="M232.2.0h-14.8c4.1.0 7.4 3.3 7.4 7.4v20.3c0 4.1-3.3 7.4-7.4 7.4h14.8c4.1.0 7.4-3.3 7.4-7.4V7.4c-.1-4.1-3.4-7.4-7.4-7.4z"/><path class="st5" d="M232.2 108.3H177c-4.1.0-7.4-3.3-7.4-7.4V80.7c0-4.1 3.3-7.4 7.4-7.4h55.2c4.1.0 7.4 3.3 7.4 7.4V101c-.1 4-3.4 7.3-7.4 7.3z"/><path class="st4" d="M232.2 73.4h-14.8c4.1.0 7.4 3.3 7.4 7.4V101c0 4.1-3.3 7.4-7.4 7.4h14.8c4.1.0 7.4-3.3 7.4-7.4V80.7c-.1-4-3.4-7.3-7.4-7.3z"/><path class="st5" d="M232.2 181.7H177c-4.1.0-7.4-3.3-7.4-7.4V154c0-4.1 3.3-7.4 7.4-7.4h55.2c4.1.0 7.4 3.3 7.4 7.4v20.3c-.1 4.1-3.4 7.4-7.4 7.4z"/><path class="st4" d="M232.2 146.8h-14.8c4.1.0 7.4 3.3 7.4 7.4v20.3c0 4.1-3.3 7.4-7.4 7.4h14.8c4.1.0 7.4-3.3 7.4-7.4v-20.3c-.1-4.2-3.4-7.4-7.4-7.4z"/><g><path class="st7" d="M306.3 62.8c-6.5 14.5-22.5 54.2-32.4 80.2s-43.4 23.8-54.5 10.1c-8.3-10.2-21.3-10.2-29.6.0-11.1 13.7-44.7 15.9-54.5-10.1-9.9-26-25.8-65.7-32.4-80.2-6.5-14.5-1-36.7 24.8-36.7s37.3 18.2 41.1 24 67.7 5.8 71.5.0 15.3-24 41.1-24 31.4 22.2 24.9 36.7z"/><path class="st8" d="M281.4 26.1c-2.8.0-5.4.2-7.8.6 19.8 3.6 23.8 23 17.9 36.1C285 77.3 269 117 259.1 143c-4.3 11.4-13.2 17.4-22.8 19.3 13.9 2.8 31-2 37.6-19.3 9.9-26 25.8-65.7 32.4-80.2 6.5-14.5.9-36.7-24.9-36.7zM168 84.2c-.8-1.8-2.9-2.7-4.7-1.9-5.1 2.2-11-.2-13.2-5.3-.8-1.8-2.9-2.7-4.7-1.9-1.8.8-2.7 2.9-1.9 4.7 3.7 8.7 13.8 12.8 22.6 9.1 1.8-.7 2.7-2.8 1.9-4.7zM182.9 114.8c-4.3 3.5-10.6 3-14.1-1.3-1.3-1.5-3.5-1.7-5-.5-1.5 1.3-1.7 3.5-.5 5 6.1 7.3 16.9 8.3 24.2 2.3 1.5-1.3 1.7-3.5.5-5-1.3-1.6-3.6-1.8-5.1-.5z"/><path class="st8" d="M263.7 75.1c-1.8-.8-3.9.1-4.7 1.9-2.2 5.1-8.1 7.5-13.2 5.3-1.8-.8-3.9.1-4.7 1.9s.1 3.9 1.9 4.7c8.8 3.7 18.9-.4 22.6-9.1.8-1.8-.1-3.9-1.9-4.7zM245.4 113c-1.5-1.3-3.8-1.1-5 .5-3.5 4.3-9.9 4.9-14.2 1.3-1.5-1.3-3.8-1.1-5 .5-1.3 1.5-1.1 3.8.5 5 7.4 6.1 18.2 5 24.2-2.3 1.3-1.5 1.1-3.7-.5-5zM211.7 84.4c-4 3.9-10.3 3.8-14.2-.2-1.4-1.4-3.7-1.4-5.1-.1-1.4 1.4-1.4 3.7-.1 5.1 6.6 6.8 17.6 6.9 24.3.3 1.4-1.4 1.4-3.7.1-5.1-1.3-1.3-3.6-1.4-5 0z"/></g><g><g class="st0"><path id="Shape" class="st11" d="M239.8 361.1c6.7-5.4 9.3-14.4 6.4-22.4-2.8-8.1-10.5-13.5-19-13.5-.3.0-.6.0-.9.1.6-1.6.9-3.4.9-5.1.0-8.4-6.8-15.1-15.1-15.1s-15.1 6.8-15.1 15.1c0 1.8.3 3.7 1 5.4-1.2-.2-2.3-.4-3.5-.4-6.9.0-13.1 4-16 10.3s-1.9 13.6 2.6 18.9l58.7 6.7z"/><path id="Shape_1_" class="st11" d="M81.6 354.3c4.5-5.2 5.5-12.6 2.6-18.9s-9.1-10.3-16-10.3c-1.2.0-2.4.1-3.5.4.7-1.7 1-3.6 1-5.4.0-8.4-6.8-15.1-15.1-15.1s-15.1 6.8-15.1 15.1c0 1.7.3 3.5.9 5.1-.3.0-.6-.1-.9-.1-8.6.0-16.2 5.4-19 13.5s-.3 17.1 6.4 22.4l58.7-6.7z"/><path id="Shape_2_" class="st12" d="M65.6 320.1c0 1.8-.3 3.7-1 5.4-5.2 1.1-9.7 4.5-12.2 9.2-3.5-5.7-9.6-9.2-16.2-9.5-.6-1.6-.9-3.4-.9-5.1.0-8.4 6.8-15.1 15.1-15.1s15.2 6.8 15.2 15.1z"/><path id="Shape_3_" class="st13" d="M85.8 342.9c0 4.2-1.5 8.3-4.2 11.5-5.1-5.2-11.9-8.3-19.1-8.8-3.9-.3-7.8-.1-11.7.6-.2-1.1-.3-2.2-.3-3.3.0-2.7.6-5.3 1.8-7.7.0-.1.1-.3.2-.4 2.5-4.7 6.9-8.1 12.2-9.2 1.2-.2 2.3-.4 3.5-.4 9.7.0 17.6 7.9 17.6 17.7z"/><path id="Shape_5_" class="st12" d="M227.2 320.1c0 1.7-.3 3.5-.9 5.1-6.7.2-12.7 3.8-16.2 9.5-2.5-4.7-6.9-8.1-12.2-9.2-.7-1.7-1-3.6-1-5.4.0-8.4 6.8-15.1 15.1-15.1s15.2 6.8 15.2 15.1z"/><path id="Shape_6_" class="st13" d="M212 342.9c0 1.1-.1 2.2-.3 3.3-3.8-.7-7.8-.9-11.7-.6-7.2.4-14.1 3.6-19.1 8.8-4.5-5.2-5.5-12.6-2.6-18.9s9.1-10.3 16-10.3c1.2.0 2.4.1 3.5.4 5.2 1.1 9.7 4.5 12.2 9.2.1.1.1.3.2.4 1.2 2.3 1.8 5 1.8 7.7z"/></g><path id="Shape_4_" class="st9" d="M201.9 510.6c-13.5 1.1-26.9-5.3-35.3-16.1l-6.9-17.9c-1.5-14.9 6.5-31.2 26.8-40.3.0.0-9.8-.1-30-10.1l-.6-.3c-15.5-7.7-33.8-7.7-49.3.0l-.6.3c-20.2 10.1-30 10.1-30 10.1 20.3 9.1 28.3 25.4 26.8 40.3l-6.9 19.6c-8.7 10.2-21.5 16-34.9 15.7-24.3.0-41.3-22.8-50.2-42.8-14.4-32.4-16.2-71.4 5.7-100.9 1.9-2.6 4-5 6.3-7.2 7.6-7.7 17.4-12.9 28.1-15 3.8-.7 7.8-.9 11.7-.6 7.2.4 14.1 3.6 19.1 8.8 1.6 1.7 2.7 3.8 3.4 6 2.3 9.5-1.2 19.5-9 25.5.0.0 40.1-.1 40.1-25.3V310c0-2.8 2.3-5 5-5h20.2c2.8.0 5 2.3 5 5v50.5c0 25.2 40.1 25.3 40.1 25.3-7.8-6-11.3-16-9-25.5.7-2.2 1.9-4.3 3.4-6 5.1-5.2 11.9-8.3 19.1-8.8 3.9-.3 7.8-.1 11.7.6 10.6 2.1 20.4 7.3 28.1 15 2.3 2.2 4.4 4.7 6.3 7.2 25.8 34.9 18.7 83.3-3.7 118.1-.1.0-14 22.2-40.5 24.2z"/><path class="st8" d="M65.6 320.2c0-8.4-6.8-15.1-15.1-15.1s-15.1 6.8-15.1 15.1c0 1.7.3 3.3.8 4.8-.4.0-.7-.1-1.1-.1-11.2.0-20.3 9.1-20.3 20.3.0 11.2 9.1 20.3 20.3 20.3s20.3-9.1 20.3-20.3c0-3.6-1-7.1-2.7-10 7.2-1.1 12.9-7.4 12.9-15z"/><circle class="st7" cx="68.2" cy="342.8" r="17.6"/><path class="st8" d="M227.1 324.9c-.4.0-.7.0-1.1.1.5-1.5.8-3.1.8-4.8.0-8.4-6.8-15.1-15.1-15.1-8.4.0-15.1 6.8-15.1 15.1.0 7.6 5.6 13.9 13 15-1.7 3-2.7 6.4-2.7 10 0 11.2 9.1 20.3 20.3 20.3s20.3-9.1 20.3-20.3c-.1-11.2-9.2-20.3-20.4-20.3z"/><circle class="st7" cx="193.8" cy="342.8" r="17.6"/><path id="Shape_12_" class="st4" d="M21.7 410.2c-.3.0-.7.0-1-.1-1.3-.3-2.5-1.1-3.2-2.2s-1-2.5-.7-3.8c2-9.7 6-18.8 11.8-26.8 7-10 18.1-16.2 30.3-16.8 2.8.0 5 2.3 5 5 0 2.8-2.3 5-5 5-8.9.7-17.1 5.3-22.2 12.7-5 6.8-8.4 14.6-10.1 22.9-.4 2.5-2.5 4.1-4.9 4.1z"/><path id="Shape_19_" class="st10" d="M131.3 406c-2.8.0-5-2.3-5-5v-20.2c0-2.8 2.3-5 5-5 2.8.0 5 2.3 5 5V401c0 2.7-2.2 5-5 5z"/></g><g><path class="st7" d="M419.7 248h-38.9c-5.6.0-11.1.7-16.4 1.9-24.5 5.9-36.3 24.1-36.5 45.2-.2 19 7.8 37.3 29.8 45.2 1.2.4 2.5.6 3.7 1 4.5 1.3 7.1 1.7 12.1 2.2 2.2.2 17.3-2.6 24.8-7.7 4.8-3.3 8.9-7.6 11.6-12.5 2.6-4.8 7.4-7.9 12.9-7.9 49.5.0 75.2-17.8 87-39.1 7.4-13.3-4.6-28.4-22.3-28.4l-67.8.1z"/><path class="st9" d="M364.7 249.8c5.3-1.3 10.7-1.9 16.3-1.9h6.4v-21.3H381c-46 0-79 31.8-79 69.9.0 28.7 16.3 53.1 48.5 63.5 6.7 2.1 11.2 8 11.2 14.5V386h25.7v-11.8c0-14-10.1-27.7-29.4-34.7-21.9-7.8-30.1-24.6-29.9-43.5.3-20.8 12.3-40.3 36.6-46.2z"/><defs><path id="SVGID_1_" d="M419.7 248h-38.9c-5.6.0-11.1.7-16.4 1.9-24.5 5.9-36.6 25.6-36.8 46.6-.2 19 8.1 35.9 30.1 43.8 1.2.4 2.5.6 3.7 1 4.5 1.3 7.1 1.7 12.1 2.2 2.2.2 17.3-2.6 24.8-7.7 4.8-3.3 8.9-7.6 11.6-12.5 2.6-4.8 7.4-7.9 12.9-7.9 49.5.0 75.2-17.8 87-39.1 7.4-13.3-4.6-28.4-22.3-28.4h-67.8v.1z"/></defs><clipPath id="SVGID_2_"><use xlink:href="#SVGID_1_" overflow="visible"/></clipPath><path d="M466.9 267.9c-7 7-16.7 11-26.7 11h-28.1c-13.1.0-24.9 5.1-33.9 13.3-2.4-4-3.8-8.5-3.8-13.3h-12.9c0 8.6 2.9 16.7 8.1 23.4-5 7.9-8.1 17.2-8.1 27.2v23.4c4.1 1.5 8.4 2.4 12.9 3v-26.3c0-20.8 16.9-37.7 37.7-37.7h28.1c13.3.0 26.4-5.4 35.8-14.8l-9.1-9.2z" clip-path="url(#SVGID_2_)" fill="#97b0db"/><g><defs><path id="SVGID_3_" d="M419.7 248h-38.9c-5.6.0-11.1.7-16.4 1.9-24.5 5.9-36.6 25.6-36.8 46.6-.2 19 8.1 35.9 30.1 43.8 1.2.4 2.5.6 3.7 1 4.5 1.3 7.1 1.7 12.1 2.2 2.2.2 17.3-2.6 24.8-7.7 4.8-3.3 8.9-7.6 11.6-12.5 2.6-4.8 7.4-7.9 12.9-7.9 49.5.0 75.2-17.8 87-39.1 7.4-13.3-4.6-28.4-22.3-28.4h-67.8v.1z"/></defs><clipPath id="SVGID_4_"><use xlink:href="#SVGID_3_" overflow="visible"/></clipPath><path d="M476.1 277l-9.2-9.2c-7 7-16.7 11-26.7 11h-20.5v12.9h20.5c13.4.1 26.4-5.3 35.9-14.7z" clip-path="url(#SVGID_4_)" fill="#acc5e8"/></g></g></g></svg>