<svg id="Layer_1" xmlns="http://www.w3.org/2000/svg" viewBox="0 0 512 512"><style>.st1{fill:#caddea}.st3{fill:#4555a5}</style><path d="M418.8 252.5c-17.7 30.9-56 104.3-56 140.6.0 23.9 7.7 48.1 23.3 68.4l26 33.9c5.2 6.9.3 16.6-8.5 16.6H218.3c-5.9.0-10.6-4.7-10.6-10.4V418c0-5.7-4.8-10.4-10.6-10.4h-36.5c-23.3.0-44.8-37.1-57-77.6-5.9-19.8-9.6-40.4-10.2-57.8H68.6c-11 0-17.3-12.1-11-20.9L91.4 205c1.3-1.8 2-3.9 2-6v-27C93.4 78.4 170 .7 265.8.0c133.5-1 217.6 139.9 153 252.5z" fill="#acc5e8"/><path class="st1" d="M239.5 501.6V418c0-5.7-4.8-10.4-10.6-10.4H197c5.9.0 10.6 4.7 10.6 10.4v83.6c0 5.7 4.8 10.4 10.6 10.4H250c-5.8.0-10.5-4.7-10.5-10.4zM125.2 272.2h-24.8c-11 0-17.4-12.1-11-20.9l33.8-46.3c1.3-1.8 2-3.9 2-6v-27c0-88.9 69-163.4 158-171.4-5.7-.4-11.5-.6-17.4-.6C170 .7 93.4 78.4 93.4 172.1v27c0 2.2-.7 4.3-2 6l-33.8 46.3c-6.4 8.7.0 20.9 11 20.9h24.8c1.7 52.9 32.4 135.4 67.2 135.4h31.8c-34.8-.1-65.5-82.5-67.2-135.5z"/><path d="M418.8 252.5c-17.7 30.9-56 104.3-56 140.6.0 23.9 7.7 48.1 23.3 68.4l26 33.9c5.2 6.9.3 16.6-8.5 16.6h-31.8c8.7.0 13.7-9.8 8.5-16.6l-26-33.9C338.7 441.2 331 417 331 393.1c0-36.3 38.3-109.6 56-140.6C448.7 144.9 374.6 11.4 251.3.7c4.8-.4 9.6-.7 14.5-.7 133.5-.9 217.6 139.9 153 252.5z" fill="#97b0db"/><path class="st3" d="M303.9 303.2V512h-49.5V321.4c0-7.5-6.2-13.5-13.8-13.5l-67.7-20.8c-9.4.0-16 8.9-13.1 17.7l2.6 7.9c4 12.1-4.8 24.8-17.8 25.4-26.3 1.2-40-7.5-40-7.5l-.9-.6c-5.9-19.8-9.6-40.4-10.2-57.8H68.6c-11 0-17.3-12.1-11-20.9L91.4 205c1.3-1.8 2-3.9 2-6 28.8-28.5 65.8-22.1 77.8-17.2 17.8 7.3 33.4 22.6 36.9 35.2l1.8 5.6c2.1 9.3 8.5 17.4 17.9 22 0 0 47.6 23.9 57.3 29.2s19.3 16.6 18.8 29.4z"/><path d="M125.2 272.2h-24.8c-11 0-17.4-12.1-11-20.9l33.8-46.3c1.3-1.8 2-3.9 2-6v-18.6c-9.4 2.5-21.3 8.2-31.8 18.6.0 2.2-.7 4.3-2 6l-33.8 46.3c-6.3 8.6-.1 20.9 11 20.9h24.8c.8 19.4 4.5 39.1 10.2 57.8l.9.7s11.4 7.1 33.5 7.5c-7.4-22.2-12.1-46.1-12.8-66z" fill="#6073ba"/><path class="st3" d="M319.6 181.7c0-17.4-14.5-31.6-32.3-31.6S255 164.3 255 181.7c0 8 1.5 15.9 3 23.5 1.4 7.4 2.9 15.2 2.9 22.7.0 11.1 9.2 20.3 20.6 20.3 2.1.0 4-.3 5.9-.9 8.5-2.5 14.7-10.4 14.7-19.5.0-1.4-.1-2.7-.4-4-1.4-6.9 3.7-15 8.6-19.8 6-5.9 9.3-13.8 9.3-22.3z"/></svg>