<svg id="Layer_1" xmlns="http://www.w3.org/2000/svg" viewBox="0 0 512 512"><style>.st4{fill:#97b0db}</style><g id="Layer_1_1_"><path d="M481.3 272.5c0 97.2-79.2 178.5-176.4 178.5-35.1.0-69-10.2-97.8-29.4l-37.8-25.2c-20.4-13.5-48.3 2.7-48.3 25.8V512H31V406c0-57.9 47.1-105 105-105h60c24.6.0 44.7-19.8 45-44.4 3.6-.6 22.2-9 43.2-18.6 6.9 1.8 13.8 2.7 20.7 2.1 11.7-.3 23.4-3.9 33.3-10.5 26.7-17.7 59.4-20.7 87.9-9.6 24.9 25.5 55.2 52.5 55.2 52.5z" fill="#6073ba"/><path d="M440.3 258.7c-1.1 100.9-68.4 180.7-156.1 191.1 6.8.8 13.8 1.2 20.7 1.2 97.2.0 176.4-81.3 176.4-178.5l-41-13.8z" fill="#4555a5"/><path d="M481 253.9c0-117.2-98.7-197.4-202.1-139.5-21.2-11-10.6-81.7-10.6-99.4V0H177v38.8c0 45-16.3 134.1 49.5 148.4 19.9 28.1 14.5 69.4 14.5 69.4s11.9 13.8 58.9 13.8c17.7-.3 34.8-5.4 50.1-15.6 22.5-15 56-15 78.5.0 10.5 6.9 22.2 11.7 34.5 14.1l18.3 3.6-.3-18.6z" fill="#caddea"/><path d="M481 253.9c0-98.6-69.9-171-153.7-157 64.4 11.2 112.7 75 112.7 157l.1 7.4c7.3 3.5 14.9 6 22.9 7.6l18.3 3.6-.3-18.6z" fill="#acc5e8"/><path class="st4" d="M341.5 339l-.2.2c-9.2 9.2-24.2 9.2-33.4.0l-.2-.2c-9.2-9.2-9.2-24.2.0-33.4l.2-.2c9.2-9.2 24.2-9.2 33.4.0l.2.2c9.3 9.2 9.3 24.2.0 33.4zM280.7 343.6c5.1 5.1 5.1 13.2.0 18.3-5.1 5.1-13.2 5.1-18.3.0-5.1-5.1-5.1-13.2.0-18.3 5.1-5 13.3-5 18.3.0zM372.4 352.2c5.1 5.1 5.1 13.2.0 18.3-5.1 5.1-13.2 5.1-18.3.0-5.1-5.1-5.1-13.2.0-18.3 5-5 13.2-5 18.3.0zM325.3 363.5c7.8 7.8 7.8 20.5.0 28.3-7.8 7.8-20.5 7.8-28.3.0-7.8-7.8-7.8-20.5.0-28.3 7.8-7.8 20.5-7.8 28.3.0zM384.5 317c4.1 4.1 4.1 10.9.0 15s-10.9 4.1-15 0-4.1-10.9.0-15c4.2-4.1 10.9-4.1 15 0zM272.8 387.1c3.8 3.8 3.8 10.1.0 13.9-3.8 3.8-10.1 3.8-13.9.0-3.8-3.8-3.8-10.1.0-13.9 3.9-3.9 10.1-3.9 13.9.0z"/></g></svg>