<svg id="Capa_1" xmlns="http://www.w3.org/2000/svg" viewBox="0 0 512 512"><style>.st0{fill:#ffe7cf}.st1{fill:#f4d5ba}.st4{fill:#97b0db}.st5{fill:#83e283}.st7{fill:#caddea}.st8{fill:#4555a5}.st9{fill:#6073ba}</style><path class="st0" d="M291.6 360.5l54.4-51.1-21.6-4c-10.4-2.1-17.9-14.2-17.9-24.8v-47.4h-101v47.4c0 10.6-7.5 22.7-17.9 24.8l-21.6 4 54.4 51.1c20 18.8 51.2 18.8 71.2.0z"/><path class="st1" d="M282 233.2V305c0 10.6 7.5 22.7 17.9 24.8l18.6 5.3 27.4-25.8-21.6-4c-10.4-2.1-17.9-14.2-17.9-24.8v-47.4l-24.4.1z"/><path d="M249.2 469.2h0z" fill="#fff" stroke="#000" stroke-width="15" stroke-linecap="round" stroke-linejoin="round" stroke-miterlimit="10"/><path d="M319 302.8l-63 47.1-63-47.1c-3.4-2.5-7.8-3.3-11.8-2.1l-105.9 32c-11.4 3.4-19.9 13-21.9 24.8L30 494c-1.6 9.4 5.6 18 15.2 18h421.6c9.5.0 16.8-8.6 15.2-18l-23.3-136.6c-2-11.7-10.5-21.3-21.9-24.8l-105.9-32c-4.1-1.1-8.5-.4-11.9 2.2z" fill="#acc5e8"/><path class="st4" d="M181.2 300.7l-18.2 5.5 40.2 56.3c3.2 4.4 9 6.1 14 3.9l38.9-16.5-63-47.1c-3.5-2.6-7.9-3.3-11.9-2.1zM294.9 366.4c5 2.1 10.8.5 14-3.9l40.2-56.3h-.1l-18.1-5.5c-4-1.2-8.4-.4-11.8 2.1l-63 47.1 38.8 16.5z"/><path class="st5" d="M256 349.9l-30.6 13 17.9 20.7h25.4l17.9-20.7zM268.7 383.6h-25.4L219.9 512h72.2z"/><path d="M256 488.2s-70.8-188.7-74.8-187.5l-105.9 32c-11.4 3.4-19.9 13-21.9 24.8L30 494c-1.6 9.4 5.6 18 15.2 18h421.6c9.5.0 16.8-8.6 15.2-18l-23.3-136.6c-2-11.7-10.5-21.3-21.9-24.8l-105.9-32c-4.1-1.1-74.9 187.6-74.9 187.6z" fill="#e1eaf9"/><path class="st7" d="M482 494l-23.3-136.6c-2-11.7-10.5-21.3-21.9-24.8l-105.9-32c-1.1-.3-7.1 13.4-15.3 33.5l76.8 23.2c5.8 1.8 10.1 6.6 11.1 12.6l24.3 142h39.1c9.4.1 16.7-8.5 15.1-17.9z"/><path class="st8" d="M368.6 405.3c-4.3.0-7.7-3.5-7.7-7.7v-87.7c0-29.3-22.9-53.3-52.1-54.7-4.3-.2-7.6-3.8-7.4-8.1s3.8-7.5 8.1-7.4c37.5 1.8 66.9 32.6 66.9 70.1v87.7c-.1 4.4-3.5 7.8-7.8 7.8zM143.4 348.2c-4.3.0-7.7-3.5-7.7-7.7V310c0-37.5 29.3-68.3 66.7-70.1 4.3-.2 7.9 3.1 8.1 7.3.2 4.3-3.1 7.9-7.3 8.1-29.2 1.5-52 25.5-52 54.7v30.5c-.1 4.2-3.5 7.7-7.8 7.7z"/><circle class="st9" cx="368.5" cy="402.7" r="32.2"/><circle class="st7" cx="368.5" cy="402.7" r="14.2"/><path class="st9" d="M169 465.9h-9.6c-4.3.0-7.7-3.5-7.7-7.7s3.5-7.7 7.7-7.7h9.6c1.2.0 2.3-.5 3.1-1.3.8-.9 1.2-2 1.1-3.2l-5.6-72.2c-.2-2.6-.8-5.1-1.8-7.4-3.6-8.4-12-13.8-21.6-13.8h-1.5c-9.8.1-18.6 6.1-21.9 14.9-.8 2-1.2 4.2-1.4 6.4l-5.6 72.2c-.1 1.2.3 2.3 1.1 3.2.8.9 1.9 1.3 3.1 1.3h9.6c4.3.0 7.7 3.5 7.7 7.7s-3.5 7.7-7.7 7.7H118c-5.5.0-10.7-2.3-14.4-6.3-3.7-4-5.6-9.4-5.2-14.9l5.6-72.2c.3-3.6 1.1-7.1 2.3-10.5 5.5-14.8 20-24.9 36.3-25h1.6c15.8.0 29.8 9.1 35.8 23.3 1.7 3.9 2.7 8 3 12.2l5.6 72.2c.4 5.4-1.5 10.9-5.2 14.9-3.7 3.9-9 6.2-14.4 6.2z"/><path class="st1" d="M166.9 163.5v-28.9h-17.6c-8.4.0-15.2 6.8-15.2 15.2v11.7c0 8.4 6.8 15.2 15.2 15.2h17.6v-13.2zM362.7 134.6h-17.6V176.7h17.6c8.4.0 15.2-6.8 15.2-15.2v-11.7c0-8.4-6.8-15.2-15.2-15.2z"/><path class="st0" d="M320.8 36.2C305.6 23.1 284.2 24 256 23.6c-28.2.3-49.6-.5-64.8 12.6-19.4 16.7-29.9 41.5-29.9 67.1v74.4c0 25.6 32.2 93.5 94.7 93.5s94.7-67.9 94.7-93.5v-74.4c0-25.6-10.5-50.4-29.9-67.1z"/><path class="st1" d="M320.8 36.2c-6-5.2-13.1-8.2-21.1-9.9v151.4c0 21.8-23.4 74.5-69.2 89.4 7.8 2.6 16.3 4 25.5 4 62.5.0 94.7-67.9 94.7-93.5v-74.4c0-25.5-10.5-50.3-29.9-67z"/><path class="st9" d="M313 0H199c-29.3.0-53.1 23.8-53.1 53.1v87.1s14.6-.3 24 9c2 1.9 5.3.5 5.3-2.2V75.7c0-13 10.5-23.5 23.5-23.5H220c5.6.0 11 1.9 15.3 5.5l2.1 1.7c5.2 4.3 11.8 6.6 18.5 6.6 6.8.0 13.3-2.3 18.5-6.6l2.1-1.7c4.3-3.5 9.7-5.5 15.3-5.5h21.3c13 0 23.5 10.5 23.5 23.5V147c0 2.8 3.3 4.2 5.3 2.2 9.4-9.3 24-9 24-9V53.1C366.1 23.8 342.3.0 313 0z"/><path class="st8" d="M313 0h-51c29 0 52.6 23.3 53.1 52.3 12.1.9 21.7 11 21.7 23.4V147c0 2.8 3.3 4.2 5.3 2.2 9.4-9.3 24-9 24-9V53.1C366.1 23.8 342.3.0 313 0z"/></svg>