<svg id="Capa_1" xmlns="http://www.w3.org/2000/svg" viewBox="0 0 512 512"><style>.st2{fill:#97b0db}</style><path d="M297.6 95.2c-16.6-3.6-32 6.6-36.1 22.3-3.7 15.2-5.5 30.6-5.5 45.8.0-15.1-1.8-30.6-5.6-46.1-4.1-15.8-20-26.1-36.7-21.8-15.9 4.3-25.5 20.7-21.4 36.2 2.5 10.6 3.8 21.3 3.8 31.6V186c0 34.2 9.8 67.1 30 97.6V331c0 16.8 13.2 30 30 30s30-13.2 30-30v-47c19.6-29 30-62.8 30-97.9v-22.8c0-10.4 1.3-21 3.7-31.3 4-15.9-5.6-32.3-22.2-36.8zM132.8 76.4C49 94.5.0 128.3.0 169c0 11.6 4 22.9 12 33.4 5 6.7 14.5 7.9 21 3 6.7-5 8-14.4 3-21-4-5.2-6-10.4-6-15.4.0-19.8 34.5-47.1 109.2-63.3 8.1-1.8 13.2-9.7 11.5-17.8s-9.7-13.3-17.9-11.5zm246.4.0c-8.1-1.8-16.1 3.4-17.8 11.5s3.4 16.1 11.5 17.8C447.5 121.9 482 149.1 482 169c0 5-2 10.2-5.9 15.4-5 6.6-3.7 16 3 21 6.5 5 16 3.7 21-3 7.9-10.5 12-21.8 12-33.4-.1-40.7-49.1-74.5-132.9-92.6z" fill="#6073ba"/><path d="M15 181c-21.8 21.8-21 63.9 10.6 95.4C57 307.8 99.1 309 121 287c22-22 20.8-64-10.6-95.4C79 160.1 36.8 159.1 15 181zm482 0c-21.7-21.7-63.8-21.1-95.4 10.6-31.3 31.3-32.7 73.4-10.6 95.4 21.9 21.9 64 20.9 95.4-10.6 31.5-31.4 32.5-73.5 10.6-95.4zM391 88.9c-.9-4.5-3.6-8.7-7.8-11.1C381.1 76.6 325.3 46 256 46S130.9 76.6 128.8 77.8c-4.2 2.4-6.9 6.6-7.8 11.1-.6 4.8 1.2 9.3 4.5 12.6C142 118 151 140.2 151 163.3v22.8c0 42.3 12 83.1 35.1 118.8-3.3 8.4-5.1 17.1-5.1 26.1.0 6.6.9 13.2 2.4 19.5l28.2 104.4c1.8 6.6 7.5 11.1 14.4 11.1h60c6.9.0 12.6-4.5 14.4-11.1l27.9-104.4c1.8-6.3 2.7-12.9 2.7-19.5.0-9-1.8-17.7-5.1-26.1C349 269.2 361 228.4 361 186.1v-22.8c0-23.1 9-45.3 25.5-61.8 3.3-3.3 5.1-7.8 4.5-12.6zm-85.8 39.3c-2.7 11.4-4.2 23.1-4.2 35.1v22.8c0 55.4-30 92.9-30 93V331c0 8.4-6.6 15-15 15s-15-6.6-15-15v-51.9c-.1-.1-30-37.5-30-93v-22.8c0-12-1.5-23.7-4.2-35.1-2.1-8.1 3-16.2 10.8-18.3 8.4-2.1 16.2 3 18.3 11.1 3.3 13.8 5.1 27.9 5.1 42.3v22.8c0 21 5.1 41.7 15 60.3 9.9-18.6 15-39.3 15-60.3v-22.8c0-14.4 1.8-28.5 5.1-42.3 2.1-8.1 10.2-12.9 18.3-11.1 7.8 2.1 12.9 10.2 10.8 18.3z" fill="#caddea"/><path class="st2" d="M110.4 191.6c-15.3-15.4-33.2-23.5-50.1-25.2 10.4 4.2 20.7 10.8 30.1 20.2C121.8 218 123 260 101 282c-11.2 11.2-27.7 16.4-45.3 14.6 24.6 9.8 49.9 5.8 65.3-9.6 22-22 20.8-64-10.6-95.4zM497 181c-8.7-8.7-20.8-13.9-34.1-14.8 5.3 2.4 10.1 5.7 14.1 9.8 21.9 21.9 20.9 64-10.6 95.4-18.8 18.9-41.4 26.8-61.3 25.4 23.1 10.7 55.7 5.2 81.3-20.4 31.5-31.4 32.5-73.5 10.6-95.4zM391 88.9c-.9-4.5-3.6-8.7-7.8-11.1-.6-.3-5.7-3.1-14.2-6.9 1.4 2 2.4 4.3 2.9 6.7.6 5-1.3 9.7-4.7 13.1-17.2 17.2-26.6 40.4-26.6 64.5V179c0 44.1-12.5 86.7-36.6 124 3.4 8.8 5.3 17.8 5.3 27.2.0 6.9-.9 13.8-2.8 20.3l-29.1 108.9c-.7 2.5-1.9 4.6-3.5 6.4H286c6.9.0 12.6-4.5 14.4-11.1l27.9-104.4c1.8-6.3 2.7-12.9 2.7-19.5.0-9-1.8-17.7-5.1-26.1C349 269.2 361 228.4 361 186.1v-22.8c0-23.1 9-45.3 25.5-61.8 3.3-3.3 5.1-7.8 4.5-12.6z"/></svg>