<svg id="Capa_1" xmlns="http://www.w3.org/2000/svg" viewBox="0 0 512 512"><style>.st0{fill:#caddea}.st1{fill:#97b0db}.st2{fill:#6073ba}.st3{fill:#4555a5}</style><path class="st0" d="M171 211.2c1.5 8.4 3.9 16.7 6.9 24.6 2.8 7.3 4.2 15 4.2 22.9v22.9c0 36.2-29.8 65.7-65.9 64.4-.7.0-1.5-.1-2.2-.1-53.4-3.1-94.3-50.9-106.2-85.5-9.5-27.6-20.1-138.1 33.3-195.6C68.2 35.6 110.8 26 147.7 41.2c4.5 1.9 9 4.1 13.4 6.9 8.1 5 14.8 12.1 19.4 20.4 4.7 8.4 7.1 17.8 7.1 27.4v24.9c0 6.7-1.2 13.4-3.5 19.6L168.8 181v17.8l2.2 12.4z"/><path class="st1" d="M47.7 260.5c-9.6-27.6-20.2-138 33.3-195.6 13.8-14.8 31.5-24.6 50.5-28.6-32.6-7-67.1 3.6-90.3 28.6-53.4 57.6-42.8 168-33.3 195.6C19.7 295.1 60.6 342.9 114 346c.7.0 1.5.1 2.2.1 7.2.3 14-.7 20.5-2.7-44.9-10.9-78.4-52.1-89-82.9z"/><path class="st2" d="M240.2 447V234.9c0-36.3-29.4-65.8-65.8-65.8H149c-8 0-14.9 6.2-15.3 14.2-.4 8.6 6.4 15.6 14.9 15.6h25.9c19.9.0 36 16.1 36 36V447c0 3 2.4 5.4 5.4 5.4h18.9c3 .1 5.4-2.4 5.4-5.4z"/><path class="st3" d="M118.2 224.5c-1.9.0-3.8-.7-5.3-2.1-10.7-9.9-16.8-23.9-16.8-38.4s6.1-28.5 16.8-38.4c3.1-2.9 8-2.7 10.9.4 2.9 3.1 2.7 8-.4 10.9-7.5 7-11.8 16.8-11.8 27.1.0 10.2 4.3 20.1 11.8 27.1 3.1 2.9 3.3 7.8.4 10.9-1.5 1.6-3.5 2.5-5.6 2.5z"/><path class="st0" d="M340.9 210.7c-1.5 8.9-4.1 17.5-7.2 26-2.6 7.1-3.9 14.5-3.9 22.1v22.9c0 36.2 29.8 65.7 65.9 64.4.7.0 1.5-.1 2.2-.1 53.4-3.1 94.3-50.9 106.2-85.5 9.5-27.6 20.1-138.1-33.3-195.6-27.1-29.2-69.7-38.8-106.6-23.6-4.5 1.9-9 4.1-13.4 6.9-8.1 5-14.8 12.1-19.4 20.4-4.7 8.4-7.1 17.8-7.1 27.4v24.9c0 6.7 1.2 13.4 3.5 19.6l15.7 38.1V195l-2.6 15.7z"/><path class="st1" d="M361.1 281.7v-22.9c0-7.6 1.3-15.1 3.9-22.1 3.1-8.5 5.6-17.1 7.2-26l2.7-15.6v-16.5l-15.7-38.1c-2.3-6.2-3.5-12.9-3.5-19.6V96c0-9.6 2.4-19 7.1-27.4 4.6-8.3 11.3-15.4 19.4-20.4 4.5-2.7 9-5 13.4-6.9 6.7-2.8 13.6-4.7 20.5-5.9-17.1-2.8-35-1.1-51.8 5.9-4.5 1.9-9 4.1-13.4 6.9-8.1 5-14.8 12.1-19.4 20.4-4.7 8.4-7.1 17.8-7.1 27.4v24.9c0 6.7 1.2 13.4 3.5 19.6l15.7 38.1V195l-2.7 15.6c-1.5 8.9-4.1 17.5-7.2 26-2.6 7.1-3.9 14.5-3.9 22.1v22.9c0 36.2 29.8 65.7 65.9 64.4.7.0 1.5-.1 2.2-.1 4.2-.2 8.3-.8 12.3-1.5-28.1-6.6-49.1-32.3-49.1-62.7z"/><g><path class="st2" d="M301.6 472.5V234.9c0-19.9 16.1-36 36-36H363c8 0 14.9-6.2 15.3-14.2.4-8.6-6.4-15.6-14.9-15.6h-25.9c-36.3.0-65.8 29.4-65.8 65.8v237.6c0 3 2.4 5.4 5.4 5.4H296c3.1.0 5.6-2.5 5.6-5.4z"/><path class="st3" d="M393.8 224.5c-2.1.0-4.1-.8-5.7-2.5-2.9-3.1-2.7-8 .4-10.9 7.5-7 11.8-16.8 11.8-27.1.0-10.2-4.3-20.1-11.8-27.1-3.1-2.9-3.3-7.8-.4-10.9 2.9-3.1 7.8-3.3 10.9-.4 10.7 9.9 16.8 23.9 16.8 38.4s-6.1 28.5-16.8 38.4c-1.4 1.4-3.3 2.1-5.2 2.1z"/></g></svg>