<svg id="Layer_1" xmlns="http://www.w3.org/2000/svg" viewBox="0 0 512 512"><style>.st1{fill:#acc5e8}.st2{fill:#4555a5}.st3{fill:#6073ba}</style><path d="M236.6 14.7l2.6-1.8c35.7-24.7 84.7-1.1 87.6 42.2l.2 3.2c1.6 23.2 17.4 43.1 39.7 49.8l3 .9c41.6 12.5 53.7 65.5 21.6 94.7l-2.4 2.1 1.2 3c16.2 40.3-17.7 82.8-60.6 76l-3.1-.5c-23-3.7-45.9 7.4-57.4 27.6l-1.6 2.8c-21.4 37.8-75.8 37.8-97.2.0l-1.6-2.8-3.1.5c-42.9 6.8-76.8-35.7-60.6-76l1.2-3c8.7-21.6 3-46.4-14.2-62.1l-2.4-2.1c-32-29.3-19.9-82.3 21.6-94.7l3-.9c22.3-6.7 38.1-26.5 39.7-49.8l.2-3.2c2.9-43.3 51.9-66.9 87.6-42.2l2.6 1.8c19.5 13.3 44.9 13.3 64 0z" fill="#caddea"/><circle class="st1" cx="297.6" cy="130.9" r="23.2"/><circle class="st1" cx="304.8" cy="193.4" r="12.3"/><circle class="st1" cx="284.9" cy="264.1" r="26.7"/><circle class="st1" cx="213.3" cy="205.2" r="41.3"/><circle class="st1" cx="213.3" cy="105.1" r="31.9"/><circle class="st1" cx="128.9" cy="224" r="16.6"/><circle class="st1" cx="111.6" cy="284.7" r="16.6"/><circle class="st1" cx="203.6" cy="299.1" r="23.8"/><circle class="st1" cx="110.9" cy="149.5" r="28.6"/><g><path class="st2" d="M477.6 175.9c-3.4 12.6-11.4 28.4-23.8 47.3.0.0-18.1-10.5-15.2-15.1-1.3-23.3-24.6-37.3-62.7-37.3s-61.5 13.9-62.7 37.3c3 4.6-15.2 15.1-15.2 15.1-12.4-18.8-20.4-34.7-23.8-47.3C257.8 115.6 315.4 87 376.4 87c61.8 1.3 117.7 29.1 101.2 88.9z"/><path class="st3" d="M501.5 233.6c0 67-90.6 158.9-141.5 202.4-18.8 16.1-40.4 32.7-62.2 47.3-6.9 4.6-16.2-.3-16.2-8.8v-23.2l-33.9-8.5c-8-2-10.7-12.2-4.6-17.8 47.5-45.3 197.1-191.6 214.4-254.5 2.6-9.6 8.8-38.9 1.8-58.4 10.1 6.4 15.2 17.4 17.8 22.1 11 19.5 24.4 55.3 24.4 99.4z"/><path class="st2" d="M468.3 318.6c-32.1 47.8-83.4 98.3-128.7 134.2-23.8-21.9-42.8-41.9-60.6-62.7 37.7-37.3 89.3-90.5 127.6-138.1 16.3 18.7 36.6 40.7 61.7 66.6z"/><path class="st3" d="M504 442.8l-33.9 8.5v23.2c0 8.4-9.3 13.4-16.2 8.8-47.5-31.7-97.1-75.4-135.2-119.3-31.3-36-68.5-87.8-68.5-130.4.0-44.1 13.5-80 24.5-99.5 2.6-4.6 7.6-15.6 17.8-22.1-6.9 19.5-.8 49 1.8 58.4 17.3 63.5 167.2 209 214.4 254.5 6.1 5.8 3.3 15.8-4.7 17.9z"/></g></svg>