<svg id="Capa_1" xmlns="http://www.w3.org/2000/svg" viewBox="0 0 512 512"><style>.st4{fill:#6073ba}</style><linearGradient id="SVGID_1_" gradientUnits="userSpaceOnUse" x1="234.495" y1="1836.124" x2="234.495" y2="1495.3" gradientTransform="translate(16.838 -1417.13) scale(1.0199)"><stop offset="0" stop-color="#bfdbdb"/><stop offset="1" stop-color="#f3dbdb"/></linearGradient><path d="M256 435.3c-91.1.0-164.1-35.9-242.5-106.8-18-16.2-18-44.5.0-60.7C91.9 196.9 164.9 161 256 161s164.1 35.9 242.5 106.8c18 16.2 18 44.5.0 60.7-78.4 70.9-151.4 106.8-242.5 106.8z" fill="url(#SVGID_1_)"/><path d="M256 435.3c-91.1.0-164.1-35.9-242.5-106.8-18-16.2-18-44.5.0-60.7C91.9 196.9 164.9 161 256 161s164.1 35.9 242.5 106.8c18 16.2 18 44.5.0 60.7-78.4 70.9-151.4 106.8-242.5 106.8z" fill="#caddea"/><circle cx="256" cy="298.2" r="113" fill="#97b0db"/><circle cx="256" cy="298.2" r="56.8" fill="#4555a5"/><path class="st4" d="M256 140.7c-6.6.0-12-5.4-12-12v-40c0-6.6 5.4-12 12-12s12 5.4 12 12v40c0 6.6-5.4 12-12 12zM353.1 154.6c-6.3-2-9.8-8.8-7.7-15.1l12.4-38c2-6.3 8.8-9.8 15.1-7.7 6.3 2 9.8 8.8 7.7 15.1l-12.4 38c-2 6.3-8.8 9.7-15.1 7.7zM156.9 154.6c-6.3 2-13.1-1.4-15.1-7.7l-12.4-38c-2-6.3 1.4-13.1 7.7-15.1 6.3-2 13.1 1.4 15.1 7.7l12.4 38c2 6.3-1.4 13-7.7 15.1z"/></svg>