<svg id="Layer_1" xmlns="http://www.w3.org/2000/svg" xmlns:xlink="http://www.w3.org/1999/xlink" viewBox="0 0 512 512"><style>.st0,.st2{display:none;fill:#6073ba}.st2{display:inline}</style><path class="st0" d="M414.5 318.5c0-18-11.6-33.4-27.7-39 10.5 7.9 17.2 20.5 17.2 34.6.0 18.6-11.5 34.5-28.2 40.7.0.0-.4 22.8.0 96.7.2 40.6.0 164.3.0 164.3.0.5.0 1-.1 1.6h.1c6.6.0 11.9-5.3 11.9-11.9.0.0.2-117.6.0-156.2-.4-70.3.0-92 0-92 15.9-6 26.8-21.1 26.8-38.8zM431.4 217c-2-23.1-21.4-41.8-23.6-43.8-3.5-3.2-8.3-4-12.5-2.3 6.8 7.2 21.6 25 23.4 46.2 2.2 24.7-8.8 49.2-9.2 50.3-.1.3-.3.6-.4.9.5.1 1 .3 1.6.3 1.9.3 3.9.1 5.8-.6 3-1.1 5.4-3.4 6.8-6.3.3-.9 10-22.7 8.1-44.7z"/><defs><path id="SVGID_1_" d="M337.4.0s73.5 75 116.5 128.5c62.8 78.2 10.6 117.8 10.6 182.1.0 42.8-21.6 201.4-21.6 201.4H248.5s-10.8-120.1-6.5-222.8c5-47.3-51.9-85.2-127.1-160.7C29.5 42.8 9 0 9 0h328.4z"/></defs><clipPath id="SVGID_2_"><use xlink:href="#SVGID_1_" overflow="visible"/></clipPath><path d="M337.4.0s73.5 75 116.5 128.5c62.8 78.2 10.6 117.8 10.6 182.1.0 42.8-21.6 201.4-21.6 201.4H248.5s-10.8-120.1-6.5-222.8c5-47.3-51.9-85.2-127.1-160.7C29.5 42.8 9 0 9 0h328.4z" clip-path="url(#SVGID_2_)" fill="#caddea"/><defs><path id="SVGID_3_" d="M337.4.0s73.5 75 116.5 128.5c62.8 78.2 10.6 117.8 10.6 182.1.0 42.8-21.6 201.4-21.6 201.4H248.5s-10.8-120.1-6.5-222.8c5-47.3-51.9-85.2-127.1-160.7C29.5 42.8 9 0 9 0h328.4z"/></defs><clipPath id="SVGID_4_"><use xlink:href="#SVGID_3_" overflow="visible"/></clipPath><path d="M279 312.2c0-23.6 19.2-42.8 42.8-42.8 11.7.0 22.9 4.9 30.9 13.3 6.2-3.6 13.3-5.5 20.5-5.5 22.8.0 41.3 18.5 41.3 41.3.0 17.7-11 32.8-26.8 38.7.0.0-.4 21.7.0 92 .2 38.7.0 156.2.0 156.2.0 6.6-5.3 11.9-11.9 11.9h-46.3c-6.6.0-11.9-5.3-11.9-11.9.0.0-2.8-121.7-.4-168.7 1.9-37.6.4-82 .4-82-21.6-2-38.6-20.3-38.6-42.5z" clip-path="url(#SVGID_4_)" fill="#6073ba"/><defs><path id="SVGID_5_" d="M337.4.0s73.5 75 116.5 128.5c62.8 78.2 10.6 117.8 10.6 182.1.0 42.8-21.6 201.4-21.6 201.4H248.5s-10.8-120.1-6.5-222.8c5-47.3-51.9-85.2-127.1-160.7C29.5 42.8 9 0 9 0h328.4z"/></defs><clipPath id="SVGID_6_"><use xlink:href="#SVGID_5_" overflow="visible"/></clipPath><path d="M423.2 261.7c-1.3 2.9-3.8 5.2-6.8 6.3-1.9.7-3.9.9-5.8.6-1.2-.2-2.3-.5-3.4-1.1l-57.8-27.9c-3.4-1.7-5.9-4.8-6.5-8.6-.7-3.7.5-7.6 3.1-10.3l45.1-47c4.5-4.7 11.9-4.9 16.7-.5 2.2 2.1 21.6 20.7 23.6 43.8 1.9 22-7.8 43.8-8.2 44.7z" clip-path="url(#SVGID_6_)" fill="#6073ba"/><g><defs><path id="SVGID_7_" d="M337.4.0s73.5 75 116.5 128.5c62.8 78.2 10.6 117.8 10.6 182.1.0 42.8-21.6 201.4-21.6 201.4H248.5s-10.8-120.1-6.5-222.8c5-47.3-51.9-85.2-127.1-160.7C29.5 42.8 9 0 9 0h328.4z"/></defs><clipPath id="SVGID_8_"><use xlink:href="#SVGID_7_" overflow="visible"/></clipPath><path d="M107.5-20.5l31.7-32.1c2.2-2.2 5.2-3.5 8.4-3.5 3.1.0 6.2 1.2 8.4 3.4l165.9 165.8c7.5-3.1 16-3.4 23.8-.8 17.9 6 27.5 25.4 21.5 43.3-4.3 12.8-15.4 21.3-27.9 23-.2 3.4-.9 6.7-1.9 10-6.8 20.2-28.8 31.2-49 24.4s-31.2-28.8-24.4-49c.9-2.7 2.1-5.3 3.6-7.8L107.6-3.7c-4.6-4.6-4.7-12.1-.1-16.8z" clip-path="url(#SVGID_8_)" fill="#6073ba"/></g><g><defs><path id="SVGID_9_" d="M337.4.0s73.5 75 116.5 128.5c62.8 78.2 10.6 117.8 10.6 182.1.0 42.8-21.6 201.4-21.6 201.4H248.5s-10.8-120.1-6.5-222.8c5-47.3-51.9-85.2-127.1-160.7C29.5 42.8 9 0 9 0h328.4z"/></defs><clipPath id="SVGID_10_"><use xlink:href="#SVGID_9_" overflow="visible"/></clipPath><path d="M352.6 140.7c3.8-.3 6.9 2.9 6.3 6.6-1.4 9.5-7.3 15.8-12.1 19.5-3.2 2.4-7.4 1.9-9-1.7-1.2-2.6-.3-5.7 1.9-7.4 3.8-3 6.5-7.2 7.4-12 .6-2.8 2.8-4.8 5.5-5z" clip-path="url(#SVGID_10_)" fill="#acc5e8"/></g><g><defs><path id="SVGID_11_" d="M337.4.0s73.5 75 116.5 128.5c62.8 78.2 10.6 117.8 10.6 182.1.0 42.8-21.6 201.4-21.6 201.4H248.5s-10.8-120.1-6.5-222.8c5-47.3-51.9-85.2-127.1-160.7C29.5 42.8 9 0 9 0h328.4z"/></defs><clipPath id="SVGID_12_"><use xlink:href="#SVGID_11_" overflow="visible"/></clipPath><path d="M406.6 203.3c2.6-2.8 7-2.5 9.1.6 5.3 8 5.2 16.6 4.1 22.5-.7 3.9-4.2 6.4-7.8 4.8-2.6-1.2-4-4-3.5-6.8.8-4.8-.1-9.7-2.6-13.9-1.5-2.2-1.2-5.2.7-7.2z" clip-path="url(#SVGID_12_)" fill="#acc5e8"/></g><g><defs><path id="SVGID_13_" d="M337.4.0s73.5 75 116.5 128.5c62.8 78.2 10.6 117.8 10.6 182.1.0 42.8-21.6 201.4-21.6 201.4H248.5s-10.8-120.1-6.5-222.8c5-47.3-51.9-85.2-127.1-160.7C29.5 42.8 9 0 9 0h328.4z"/></defs><clipPath id="SVGID_14_"><use xlink:href="#SVGID_13_" overflow="visible"/></clipPath><path d="M387.4 299.7c2.1-3.1 6.6-3.5 9.1-.7 6.4 7.1 7.5 15.7 7.3 21.7-.1 4-3.3 6.9-7.1 5.8-2.8-.8-4.6-3.3-4.5-6.2.2-4.8-1.5-9.6-4.5-13.3-1.7-2.1-1.8-5.1-.3-7.3z" clip-path="url(#SVGID_14_)" fill="#acc5e8"/></g></svg>