<svg id="Layer_1" xmlns="http://www.w3.org/2000/svg" viewBox="0 0 512 512"><style>.st0{display:none}.st1{fill:#caddea}.st1,.st2{display:inline}.st3{fill:#caddea}.st4{fill:#6073ba}.st5{fill:#4555a5}.st6,.st9{display:inline;fill:#6073ba}.st9{fill:none;stroke:#97b0db;stroke-width:12;stroke-linecap:round;stroke-linejoin:round;stroke-miterlimit:10}.st10{fill:#acc5e8}.st12{display:inline;fill:none;stroke:#6073ba;stroke-width:12;stroke-linecap:round;stroke-linejoin:round;stroke-miterlimit:10}</style><g id="Layer_1_1_" class="st0"><path class="st1" d="M202.4 185.1s-3.1 33.6.0 42.3 92.3 10.7 94.5 2.5c2.2-8.2 5.6-33 0-37.3-5.6-4.4-94.5-7.5-94.5-7.5z"/><path class="st1" d="M261.2 496.8h-20c-49.6.0-90.2-40.6-90.2-90.2v-86.5c0-49.6 1.1-93.7 54.4-110.1l93.8 7.1c81 22.4 52.3 53.4 52.3 103v86.5c-.1 49.6-40.7 90.2-90.3 90.2z"/><g class="st2"><path class="st3" d="M279.2 318.6s16.9-15.3 35-14.9c26 .5 53.4-5.9 60.3-3.1 11.7 4.9 65.1 22 65.1 22l10.9-20s-50.6-57-69.8-61.9c-19.2-4.8-64.4-34.1-106.9-19.3-22 7.8 5.4 97.2 5.4 97.2z"/><path class="st3" d="M439.6 322.6s2.6 19.7 8.7 19.2c6.2-.5 2.8-14 2.8-14s27.5 20.3 34.6 1.6c7.2-18.8-35.3-26.7-35.3-26.7l-10.8 19.9z"/></g><g class="st2"><path class="st3" d="M224.3 305.9s-20.8-9.5-37.9-3.7c-24.7 8.3-52.7 10.4-58.5 15.2-9.7 8.1-55.5 40.6-55.5 40.6L56 342.2s31-69.6 47.9-80 51.2-51.9 96.1-50.6c23.6.7 24.3 94.3 24.3 94.3z"/><path class="st3" d="M72.6 358s3.5 19.5-2.5 20.9-6.9-12.5-6.9-12.5-20.2 27.7-32.7 11.9c-12.5-15.8 25.7-36.1 25.7-36.1L72.6 358z"/></g><g class="st2"><path class="st3" d="M335.6 371.1s52.5 23 80.2 31.2c25.8 7.6 57.7 25.7 58.4 28.6.7 2.9 1 28.6-12.1 33.6S307 489.8 285.9 481.6c0-.1 15.2-101.9 49.7-110.5z"/><path class="st4" d="M472.2 377.6s-25 1.8-39.7 20.1c0 0-6 8-16.7 4.6.0.0-39.4 25.2-14.3 72.6.0.0 53.1-3.3 60.6-10.4 7.6-7.1 10.1-86.9 10.1-86.9z"/><path class="st5" d="M462.1 464.5s26.5-6.3 31.3-32.8-.1-51.6-17.6-53.8c-17.5-2.2-28.5 7.2-33.3 19.9-4.8 12.6-18.8 68 19.6 66.7z"/></g><path class="st1" d="M258.3 6s52.9-2.4 73.1 47.9 24.1 136.8-22.7 150.5c-31.9 9.3-66.3 2.7-97.1-9.1-16.3-6.2-21.8-19.9-31.1-30.8C120.9 94.9 140.2 12.2 258.3 6z"/><path class="st6" d="M150.9 358.6s104 22.3 200.4.0c0 0 11 18.8 12.4 24.4 3 11.9-2.4 31.5-23.9 56.3-31.5 36.6-139.2 63.9-177 40.5-33-20.5-40.5-90.3-11.9-121.2z"/><g class="st2"><path class="st3" d="M267.3 402.9c19.3 6.7 47.4 22.4 72.6 36.4 23.5 13.1 50.6 37.8 50.6 40.9.0 3-5.3 28.1-19.2 30.1-13.9 2-156.9-9.6-175.6-22.4.0.0-21.6-6.2-24.4-30.9-4.1-35.9 13.6-82.8 96-54.1z"/><path class="st4" d="M400.4 427.8s-24.8-3.8-43.2 10.8c0 0-7.6 6.5-17.3.8.0.0-44 15.8-30 67.7.0.0 52.5 8.5 61.4 3.2 9-5.3 29.1-82.5 29.1-82.5z"/><path class="st5" d="M371.3 510.3s27.2-.2 37.8-25.1c10.5-24.8 11.3-50.4-5.3-56.4-16.5-6-29.4.8-36.8 12-7.5 11.3-33.4 62.2 4.3 69.5z"/></g><path d="M280.2 159.4s12.1 17.5 26 12.8 14.7-24.5 14.7-24.5-20.9-1.9-40.7 11.7z" fill="#fff"/><path d="M212.3 125.4s-20.5-18-27-4.9 8.4 32.2 20.5 32.4c12.1.2 14.6-21.8 6.5-27.5z" fill="#acc5e8"/><path class="st1" d="M215.4 124.7s-15.7-13.7-20.7-3.8c-5 10 6.4 24.6 15.7 24.7 9.2.2 11.1-16.5 5-20.9z"/><path class="st6" d="M196.9 32.4s25.4 34.5 78.8 33.3c0 0 21-3 29.9-16.6.0.0-16.8 6.8-25.7 3.9.0.0 50.3-7.7 49.7-21.1-.6-13.5-27-28.5-46.3-30.8C268-.7 221.6-.4 207.5 7.3c-14.1 7.5-14.5 20.6-10.6 25.1z"/><path class="st6" d="M219.6 3.2S162 12.8 151 59.1c-6 24.9-1 45.9-1 45.9s4.4-55.2 51-57.5c33.9-1.7 56.1-5.1 56.1-5.1L219.6 3.2z"/></g><g id="Layer_2_1_"><path class="st4" d="M140.5 357.1v68.4c0 11.9 7.9 22.2 19.4 25.3 23 6.3 41.7 23.1 50.5 45 3.9 9.8 13.4 16.2 23.9 16.2h43.3c10.5.0 20-6.4 23.9-16.2 8.8-21.8 27.5-38.7 50.5-45 11.4-3.1 19.4-13.5 19.4-25.3v-68.4c0-9.8-7.9-17.7-17.7-17.7H158.2c-9.8.0-17.7 7.9-17.7 17.7z"/><path class="st5" d="M268 376H140.5v-12H268c3.3.0 6 2.7 6 6s-2.7 6-6 6z"/><circle class="st5" cx="289.1" cy="370" r="6"/><path class="st3" d="M132.2 385.9c-28.9.0-51-25.7-46.7-54.3 10.1-67.4 68.1-117.3 136.2-117.3h68.7c68.2.0 126.1 49.9 136.2 117.3 4.3 28.6-17.8 54.3-46.7 54.3.0.0-28-2.8-28-46.5H161.4c0 44.7-29.2 46.5-29.2 46.5z"/><g class="st0"><path class="st9" d="M168 345v-28m177 28v-28"/></g><path class="st10" d="M161.4 339.4V317c0-3.3 2.7-6 6-6s6 2.7 6 6v22.4h-12zM339.9 339.4V317c0-3.3 2.7-6 6-6s6 2.7 6 6v22.4h-12z"/><path class="st3" d="M100.9 394.6c-24.6 14.2-30.9 46.9-13.4 69.2l25.4 32.5c12.5 16 35 20.4 52.6 10.2s25.1-31.8 17.5-50.7l-15.4-38.2c-10.7-26.3-42.2-37.2-66.7-23zM411.1 394.6c24.6 14.2 30.9 46.9 13.4 69.2l-25.4 32.5c-12.5 16-35 20.4-52.6 10.2s-25.1-31.8-17.5-50.7l15.4-38.2c10.7-26.3 42.2-37.2 66.7-23z"/><circle class="st10" cx="137.4" cy="124.3" r="25.4"/><circle class="st10" cx="374.6" cy="124.3" r="25.4"/><circle class="st3" cx="256" cy="124.3" r="124.3"/><g class="st0"><path class="st6" d="M221.5 181.5C230 192 242.6 198 256 198s26-6 34.5-16.4c4.1-5.1 3.3-12.6-1.7-16.7-5.1-4.1-12.6-3.3-16.7 1.7-3.9 4.9-9.8 7.7-16 7.7s-12.1-2.8-16-7.7c-4.1-5.1-11.6-5.9-16.7-1.7-5.2 4-6 11.5-1.9 16.6zM203.8 132.7c1.5-1.5 4-1.5 5.5.0 2.3 2.3 5.4 3.5 8.4 3.5s6.1-1.2 8.4-3.5c4.6-4.6 4.6-12.1.0-16.8-10.8-10.8-28.3-10.8-39 0-4.6 4.6-4.6 12.1.0 16.8 4.5 4.6 12 4.6 16.7.0zM294.4 136.2c3 0 6.1-1.2 8.4-3.5 1.5-1.5 4-1.5 5.5.0 4.6 4.6 12.1 4.6 16.8.0 4.6-4.6 4.6-12.1.0-16.8-10.8-10.8-28.3-10.8-39 0-4.6 4.6-4.6 12.1.0 16.8 2.2 2.3 5.2 3.5 8.3 3.5z"/></g><g class="st0"><circle class="st6" cx="204.8" cy="117" r="11.8"/><circle class="st6" cx="308.2" cy="117" r="11.8"/><path d="M279 164c0 12.7-10.3 23-23 23s-23-10.3-23-23" fill="none" stroke="#6073ba" stroke-width="10" stroke-linecap="round" stroke-linejoin="round" stroke-miterlimit="10"/></g><g class="st0"><path class="st12" d="M290 163.7c-7.8 10.5-20.2 17.3-34.3 17.3-13.3.0-25.2-6.1-33-15.6M300.5 117c0-5 4-9 9-9s9 4 9 9m-125 0c0-5 4-9 9-9s9 4 9 9"/></g><g><path class="st4" d="M255.7 187c-14.6.0-28.3-6.5-37.6-17.8-2.1-2.6-1.7-6.3.8-8.4 2.6-2.1 6.3-1.7 8.4.8 7 8.5 17.3 13.4 28.3 13.4 11.7.0 22.5-5.4 29.5-14.9 2-2.7 5.7-3.2 8.4-1.3 2.7 2 3.2 5.7 1.3 8.4-9.1 12.4-23.8 19.8-39.1 19.8zM318.5 123c-3.3.0-6-2.7-6-6 0-1.7-1.3-3-3-3s-3 1.3-3 3c0 3.3-2.7 6-6 6s-6-2.7-6-6c0-8.3 6.7-15 15-15s15 6.7 15 15c0 3.3-2.7 6-6 6zm-107 0c-3.3.0-6-2.7-6-6 0-1.7-1.3-3-3-3s-3 1.3-3 3c0 3.3-2.7 6-6 6s-6-2.7-6-6c0-8.3 6.7-15 15-15s15 6.7 15 15c0 3.3-2.7 6-6 6zM253.8 41.8c-3.3.0-6-2.7-6-6s2.7-6 6-6c4.9.0 8.9-4 8.9-8.9s-4-8.9-8.9-8.9c-3.3.0-6-2.7-6-6s2.7-6 6-6c11.5.0 20.9 9.4 20.9 20.9s-9.4 20.9-20.9 20.9z"/></g></g></svg>