<svg id="Layer_1" xmlns="http://www.w3.org/2000/svg" viewBox="0 0 512 512"><style>.st0{fill:#caddea}.st1{fill:#e1eaf9}.st2{fill:#97b0db}.st4{fill:#6073ba}</style><path class="st0" d="M479.8 367.5c-9.9 17.2-31.2 58.1-31.2 78.3.0 13.3 4.3 26.8 13 38.1l14.5 18.9c2.9 3.8.2 9.2-4.7 9.2H368.2c-3.3.0-5.9-2.6-5.9-5.8v-46.5c0-3.2-2.7-5.8-5.9-5.8h-20.3c-13 0-24.9-20.7-31.7-43.2-3.3-11-5.3-22.5-5.7-32.2h-13.8c-6.1.0-9.6-6.7-6.1-11.6l18.8-25.8c.7-1 1.1-2.2 1.1-3.3v-15c0-52.1 42.6-95.4 96-95.8 74.3-.6 121.1 77.8 85.1 140.5z"/><path class="st1" d="M380 506.2v-46.5c0-3.2-2.7-5.8-5.9-5.8h-17.8c3.3.0 5.9 2.6 5.9 5.8v46.5c0 3.2 2.7 5.8 5.9 5.8h17.7c-3.2.0-5.8-2.6-5.8-5.8zM316.4 378.5h-13.8c-6.1.0-9.7-6.7-6.1-11.6l18.8-25.8c.7-1 1.1-2.2 1.1-3.3v-15c0-49.5 38.4-91 88-95.4-3.2-.2-6.4-.3-9.7-.3-53.3.4-96 43.6-96 95.8v15c0 1.2-.4 2.4-1.1 3.3L278.8 367c-3.6 4.8.0 11.6 6.1 11.6h13.8c.9 29.5 18 75.4 37.4 75.4h17.7c-19.4-.1-36.5-46-37.4-75.5z"/><path class="st2" d="M479.8 367.5c-9.9 17.2-31.2 58.1-31.2 78.3.0 13.3 4.3 26.8 13 38.1l14.5 18.9c2.9 3.8.2 9.2-4.7 9.2h-17.7c4.8.0 7.6-5.5 4.7-9.2l-14.5-18.9c-8.7-11.3-13-24.8-13-38.1.0-20.2 21.3-61 31.2-78.3 34.4-59.9-6.9-134.2-75.6-140.2 2.7-.2 5.3-.4 8.1-.4 74.4-.5 121.2 77.9 85.2 140.6z"/><path class="st0" d="M32.2 367.5c-36-62.7 10.9-141.1 85.2-140.6 53.3.4 96 43.6 96 95.8v15c0 1.2.4 2.3 1.1 3.3l18.8 25.8c3.5 4.9.0 11.6-6.1 11.6h-13.8c-.3 9.7-2.4 21.2-5.7 32.2-6.8 22.5-18.8 43.2-31.7 43.2h-20.3c-3.2.0-5.9 2.6-5.9 5.8v46.5c0 3.2-2.6 5.8-5.9 5.8H40.6c-4.9.0-7.6-5.4-4.7-9.2l14.5-18.9c8.7-11.3 13-24.8 13-38.1.0-20.1-21.4-61-31.2-78.2z"/><path class="st2" d="M132 506.2c0 3.2-2.6 5.8-5.8 5.8h17.7c3.2.0 5.9-2.6 5.9-5.8v-46.5c0-3.2 2.6-5.8 5.9-5.8h-17.8c-3.2.0-5.9 2.6-5.9 5.8v46.5zM195.6 378.5c-.9 29.5-18 75.4-37.4 75.4h17.7c19.4.0 36.5-45.9 37.4-75.4h13.8c6.1.0 9.7-6.8 6.1-11.6l-18.8-25.8c-.7-.9-1.1-2.1-1.1-3.3v-15c0-52.2-42.6-95.4-96-95.8-3.3.0-6.5.1-9.7.3 49.6 4.5 88 45.9 88 95.4v15c0 1.2.4 2.3 1.1 3.3l18.8 25.8c3.6 4.9.0 11.6-6.1 11.6h-13.8v.1z"/><path class="st1" d="M32.2 367.5c-36-62.7 10.9-141.1 85.2-140.6 2.7.0 5.4.2 8.1.4-68.6 6-109.9 80.3-75.6 140.2 9.9 17.3 31.2 58.1 31.2 78.3.0 13.3-4.3 26.8-13 38.1l-14.5 18.9c-2.9 3.8-.1 9.2 4.7 9.2H40.6c-4.9.0-7.6-5.4-4.7-9.2l14.5-18.9c8.7-11.3 13-24.8 13-38.1.0-20.2-21.4-61.1-31.2-78.3z"/><path class="st0" d="M256 0H106.1C87.7.0 72.8 14.9 72.8 33.4v76.3c0 18.4 14.9 33.4 33.4 33.4h4.9V161c0 6.3 7.2 9.8 12.1 6l31.5-23.9H256c18.4.0 33.4-14.9 33.4-33.4V33.4c0-18.5-15-33.4-33.4-33.4z"/><path class="st4" d="M411.4 36.5H263.6c-16.3.0-29.6 13.2-29.6 29.6v74.4c0 16.3 13.2 29.6 29.6 29.6h99.8l34.4 25.5c4.7 3.5 11.4.1 11.4-5.7v-19.8h2.3c16.3.0 29.6-13.2 29.6-29.6V66.1c-.1-16.3-13.3-29.6-29.7-29.6z"/><g><path class="st0" d="M397.4 75.2h-124c-3.6.0-6.5-2.4-6.5-5.3s2.9-5.3 6.5-5.3h124c3.6.0 6.5 2.4 6.5 5.3.0 3-2.9 5.3-6.5 5.3zM398.6 108.6H272.1c-2.9.0-5.3-2.4-5.3-5.3s2.4-5.3 5.3-5.3h126.5c2.9.0 5.3 2.4 5.3 5.3s-2.4 5.3-5.3 5.3zM358.1 142h-84.8c-3.6.0-6.5-2.4-6.5-5.3s2.9-5.3 6.5-5.3h84.8c3.6.0 6.5 2.4 6.5 5.3.1 2.9-2.9 5.3-6.5 5.3z"/></g><g><path class="st4" d="M169.5 86.9v-4.5c0-3.9.8-7.3 2.5-10.1 1.7-2.9 4.7-5.9 9.1-9.2 4.3-3 7.1-5.5 8.4-7.4 1.4-1.9 2-4 2-6.4.0-2.6-1-4.6-2.9-6s-4.7-2.1-8.1-2.1c-6.1.0-13 2-20.8 6l-6.6-13.3c9-5.1 18.6-7.6 28.7-7.6 8.3.0 15 2 19.9 6s7.4 9.4 7.4 16c0 4.5-1 8.3-3 11.5s-5.9 6.9-11.5 10.9c-3.9 2.9-6.3 5.1-7.4 6.6-1 1.5-1.5 3.5-1.5 5.9v3.6l-16.2.1zm-2 20.8c0-3.4.9-6 2.7-7.7s4.5-2.6 8-2.6c3.4.0 6 .9 7.8 2.7 1.8 1.8 2.8 4.3 2.8 7.7.0 3.2-.9 5.7-2.8 7.6-1.9 1.8-4.5 2.8-7.8 2.8-3.4.0-6-.9-7.9-2.7-1.9-2-2.8-4.5-2.8-7.8z"/></g></svg>