<svg id="Layer_1" xmlns="http://www.w3.org/2000/svg" viewBox="0 0 512 512"><style>.st1{fill:#e1eaf9}</style><path d="M426.4 252.5c-17.7 30.9-56 104.3-56 140.6.0 23.9 7.7 48.1 23.3 68.4l26 33.9c5.2 6.9.3 16.6-8.5 16.6H225.9c-5.9.0-10.6-4.7-10.6-10.4V418c0-5.7-4.8-10.4-10.6-10.4h-36.5c-23.3.0-44.8-37.1-57-77.6-5.9-19.8-9.6-40.4-10.2-57.8H76.2c-11 0-17.3-12.1-11-20.9L99 205c1.3-1.8 2-3.9 2-6v-27C101 78.4 177.6.7 273.4.0c133.5-1 217.6 139.9 153 252.5z" fill="#caddea"/><path class="st1" d="M247.1 501.6V418c0-5.7-4.8-10.4-10.6-10.4h-31.9c5.9.0 10.6 4.7 10.6 10.4v83.6c0 5.7 4.8 10.4 10.6 10.4h31.8c-5.8.0-10.5-4.7-10.5-10.4zM132.8 272.2H108c-11 0-17.4-12.1-11-20.9l33.8-46.3c1.3-1.8 2-3.9 2-6v-27c0-88.9 69-163.4 158-171.4-5.7-.4-11.5-.6-17.4-.6C177.6.7 101 78.4 101 172.1v27c0 2.2-.7 4.3-2 6l-33.8 46.3c-6.4 8.7.0 20.9 11 20.9H101c1.7 52.9 32.4 135.4 67.2 135.4H2e2c-34.8-.1-65.5-82.5-67.2-135.5z"/><path d="M426.4 252.5c-17.7 30.9-56 104.3-56 140.6.0 23.9 7.7 48.1 23.3 68.4l26 33.9c5.2 6.9.3 16.6-8.5 16.6h-31.8c8.7.0 13.7-9.8 8.5-16.6l-26-33.9c-15.6-20.3-23.3-44.5-23.3-68.4.0-36.3 38.3-109.6 56-140.6C456.3 144.9 382.2 11.4 258.9.7c4.8-.4 9.6-.7 14.5-.7 133.5-.9 217.6 139.9 153 252.5z" fill="#97b0db"/><path d="M379.2 146.2c-1.3-1-1.7-2.7-1.1-4.2 1-1.9 1.6-3.9 2.1-6 3.1-13-2.9-26.7-14.6-33.2-2.2-1.2-3.6-3.3-3.9-5.8-1.7-12.3-10.6-22.1-22.8-25-2.2-.5-4.5-.9-6.8-.9-1.7.0-3.3-1.1-3.9-2.7-3.6-9.1-11.4-15.8-20.9-18-9.7-2.3-19.9.3-27.2 7-2.6 2.3-6.4 2.7-9.4.6-3-2-6.2-3.4-9.7-4.3-11.7-2.8-23.9 1.6-31.1 11.3-1.7 2.2-4.4 3.6-7.2 3.5-14.1-.5-26.8 9.2-30.1 22.9-.2 1-.4 1.8-.5 2.8-.3 2.1-1.9 3.9-4.1 4.5-9.2 2.3-16.2 9.5-18.4 18.8v.1c-.5 2.2-1.8 4.3-3.5 5.5-6.2 4.6-10.4 11.4-11.6 19.1-2.2 13.3 5.1 26.9 17.6 32.3 2.3 1 4.7 1.7 7.2 2.1 2 .3 3.7 1.7 4.6 3.6 3.1 7.6 9.7 13.2 17.6 15.2 5.1 1.2 10.4.9 15.2-1.1 1.4-.5 3 0 3.8 1.4 4.2 6.6 10.7 11.3 18.4 13.1 6.6 1.6 13.4.9 19.5-1.9.4-.2 42.5-17 71.6 9.6 6.6 6.1 14.9 9.4 23.7 7.4 6.6-1.6 15.3-5.8 18.6-16.4.9-2.7 1.3-5.5 1.2-8.3.0-1.3.6-2.3 1.7-3 7.6-4.1 13-11.1 14.9-19.4 3-11.3-1.4-23.5-10.9-30.6z" fill="#6073ba"/><g><path class="st1" d="M268 153.4s3.9.5 5.5 3.6-.2 6.6-.2 6.6c-.7 1.4-.5 3.4.6 4.6l4.8 4.6c1.1.9 2.8 1.1 4.2.7.2-.1.3-.1.5-.2.0.0.4-.2 1-.4 1.2-.5 3.5-1 5.7.1 3.1 1.5 3.7 5.4 3.7 5.4.2 1.5 1.7 3 3.2 3.4l6.6 1c.5.0 1-.1 1.6-.2 1.1-.4 2-1.2 2.5-2.1.0.0 1.4-2.9 4.2-3.9.3-.1.6-.2 1-.3 3.5-.6 6.2 2.2 6.2 2.2 1 1 3 1.4 4.4.9l.2-.1 5.9-3.1c1.3-.8 2.2-2.7 1.9-4.2.0.0-.7-3.9 1.7-6.4.7-.7 1.5-1.2 2.3-1.5 2-.7 4.1-.4 4.1-.4.7.1 1.4.0 2.1-.2.9-.3 1.8-.9 2.2-1.7.0.0.7-1.1 1.6-2.9.9-1.9 1.4-3.1 1.4-3.1.5-1.4.1-3.5-1.1-4.6.0.0-2.9-2.7-2.4-6.1.5-3.5 4.1-5.2 4.1-5.2 1.4-.7 2.4-2.5 2.3-4.1l-1.1-6.6c-.4-1.5-1.9-2.9-3.5-3.1.0.0-3.9-.5-5.5-3.6s.2-6.6.2-6.6c.7-1.4.5-3.4-.6-4.6l-4.8-4.6c-1.1-.9-2.8-1.1-4.2-.7-.2.1-.3.1-.5.2.0.0-.4.2-1 .4-1.2.5-3.5 1-5.7-.1-3.1-1.5-3.7-5.4-3.7-5.4-.2-1.5-1.7-3-3.2-3.4l-6.6-1c-.5.0-1 .1-1.6.2-1.1.4-2 1.2-2.5 2.1.0.0-1.4 2.9-4.2 3.9-.3.1-.6.2-1 .3-3.5.6-6.2-2.2-6.2-2.2-1-1-3-1.4-4.4-.9l-.2.1-5.9 3.1c-1.3.8-2.2 2.7-1.9 4.2.0.0.7 3.9-1.7 6.4-.7.7-1.5 1.2-2.3 1.5-2 .7-4.1.4-4.1.4-.7-.1-1.4.0-2.1.2-.9.3-1.8.9-2.2 1.7.0.0-.7 1.1-1.6 2.9-.9 1.9-1.4 3.1-1.4 3.1-.5 1.4-.1 3.5 1.1 4.6.0.0 2.9 2.7 2.4 6.1-.5 3.5-4.1 5.2-4.1 5.2-1.4.7-2.4 2.5-2.3 4.1l1.1 6.6c.4 1.5 2 2.9 3.5 3.1zm20.3-7.5c-1.6-4.8-1.3-10 1-14.6 2.2-4.4 6-7.8 10.7-9.5 5-1.8 10.4-1.5 15.1.8 4.6 2.3 8 6.2 9.7 11 1.6 4.8 1.3 10-1 14.6-2.2 4.4-6 7.8-10.7 9.5-5 1.8-10.4 1.5-15.1-.8-4.7-2.3-8.1-6.2-9.7-11zM208.4 134.5l2.2 4.1c.4.6 1.3 1 2 1 0 0 3.4-.4 5.3 1.2 1.9 1.5 2.3 4.9 2.3 4.9.1.7.7 1.5 1.4 1.8l4.5 1.3c.4.1.8.0 1.2-.1s.7-.4 1-.6c0 0 1.5-1.9 3.5-2.6.3-.1.7-.2 1.1-.3 2.5-.3 5.1 1.8 5.1 1.8.5.4 1.5.6 2.2.3h.1l4.1-2.2c.6-.4 1.1-1.3 1-2 0 0-.4-3.3 1.2-5.3.7-.8 1.7-1.4 2.7-1.7 1.2-.4 2.3-.5 2.3-.5.1.0.3.0.4-.1.6-.2 1.2-.7 1.4-1.3l1.4-4.5c.2-.7-.2-1.7-.8-2.1.0.0-2.6-2.1-2.9-4.5-.3-2.4 1.9-5.1 1.9-5.1.5-.6.6-1.6.3-2.2l-2.2-4.1c-.4-.6-1.3-1-2-1 0 0-3.4.4-5.3-1.2-1.9-1.5-2.3-4.9-2.3-4.9-.1-.7-.7-1.5-1.4-1.8l-4.5-1.3c-.4-.1-.8.0-1.2.1s-.7.4-1 .6c0 0-1.5 1.9-3.5 2.6-.3.1-.7.2-1.1.3-2.5.3-5.1-1.8-5.1-1.8-.5-.4-1.5-.6-2.1-.3h-.1l-4.1 2.2c-.6.4-1.1 1.3-1 2 0 0 .4 3.3-1.2 5.3-.7.8-1.7 1.4-2.7 1.7-1.2.4-2.3.5-2.3.5-.1.0-.3.0-.4.1-.6.2-1.2.7-1.4 1.3l-1.4 4.5c-.2.7.2 1.7.8 2.1.0.0 2.6 2.1 2.9 4.6.3 2.4-1.9 5.1-1.9 5.1-.5.5-.7 1.5-.4 2.1zm15.7-14.8c1-1.2 2.3-2.1 3.8-2.7 2.9-1.1 6-.5 8.4 1.4 3.7 3 4.3 8.4 1.3 12.1-1 1.2-2.3 2.1-3.8 2.7-2.9 1.1-6 .5-8.4-1.4-3.8-3-4.3-8.4-1.3-12.1z"/></g></svg>