<svg id="Layer_1" xmlns="http://www.w3.org/2000/svg" viewBox="0 0 512 512"><style>.st0{fill:#caddea}.st1{fill:#acc5e8}.st2{fill:#6073ba}</style><path class="st0" d="M287.5 155.2v236.7c0 30.5 17 57.9 44.2 71.5l81.7 40.8c5.3 2.7 11 4.6 16.9 5.8 4.4.9 8.9 1.4 13.5 1.4 37.4.0 67.8-30.4 67.8-67.8V298.4c0-42.3-11.8-83.7-34-119.8-22.3-36-54-65.1-91.9-84-9.4-4.7-19.9-7.2-30.3-7.2-4.6.0-9.2.5-13.5 1.4-31.1 6.3-54.4 33.7-54.4 66.4zM-.5 298.4v145.3c0 32.6 23.1 59.8 53.7 66.3 4.5 1 9.2 1.5 14 1.5 10.5.0 20.9-2.5 30.3-7.2l81.7-40.8c27.3-13.6 44.2-41.1 44.2-71.5V155.2c0-37.4-30.4-67.8-67.8-67.8-4.7.0-9.4.5-14 1.5-5.7 1.2-11.2 3.1-16.3 5.7-37.9 18.9-69.6 48-91.9 84C11.3 214.6-.5 256-.5 298.4z"/><path class="st1" d="M511.5 298.4v145.3c0 37.4-30.4 67.8-67.8 67.8-4.5.0-9-.5-13.5-1.4-.8-.2-1.7-.4-2.5-.6 29.7-7.2 51.7-34 51.7-65.9V298.4c0-42.3-11.8-83.7-34-119.8-22.3-36-54-65.1-91.9-84-4.6-2.3-9.4-4.1-14.4-5.2.8-.2 1.6-.4 2.5-.6 4.4-.9 8.9-1.4 13.5-1.4 10.5.0 21 2.5 30.3 7.2 37.9 18.9 69.6 48 91.9 84 22.4 36 34.2 77.4 34.2 119.8zm-288-143.2v236.7c0 30.5-16.9 57.9-44.2 71.5l-81.7 40.8c-9.4 4.7-19.8 7.2-30.3 7.2-4.8.0-9.5-.5-14-1.5-.7-.1-1.3-.3-2-.5 5-1.2 9.8-3 14.3-5.2l81.7-40.8c27.3-13.6 44.2-41.1 44.2-71.5V155.2c0-31.8-22.1-58.6-51.7-65.9.7-.2 1.3-.3 2-.4 4.6-1 9.3-1.5 14-1.5 37.3.1 67.7 30.5 67.7 67.8z"/><path class="st2" d="M253.9-.5c-8 0-14.5 6.5-14.5 14.5v105.9l-85.8 85.8c-1.2 1.2-2.3 2.7-3 4.3l-13.9 30.9-31.9-15.2-9-34.8c-2-7.8-9.9-12.4-17.7-10.4s-12.4 9.9-10.4 17.7l10.7 41.4c1.1 4.1 3.9 7.6 7.8 9.4l30.5 14.6L34.2 329c-6.3 5-7.3 14.1-2.3 20.4 2.9 3.6 7.1 5.5 11.4 5.5 3.2.0 6.3-1 9-3.1l37.9-30.1 19.6 35.2-26.2 48.5c-3.8 7-1.2 15.8 5.9 19.6 2.2 1.2 4.5 1.7 6.9 1.7 5.2.0 10.2-2.8 12.8-7.6l30-55.5c2.4-4.4 2.3-9.6-.1-14l-25.8-46.2 39.5-31.3c1.8-1.4 3.3-3.3 4.2-5.4l19-42.2 88.1-88.1c2.7-2.7 4.2-6.4 4.2-10.3V14c.1-8-6.4-14.5-14.4-14.5z"/><path class="st2" d="M253.6-.5c8 0 14.5 6.5 14.5 14.5v105.9l59.8 80.8c1.2 1.2 2.3 2.7 3 4.3l11.6 35.5 31.1-14.8 9-34.8c2-7.8 9.9-12.4 17.7-10.4 7.8 2 12.4 9.9 10.4 17.7L4e2 239.6c-1.1 4.1-3.9 7.6-7.8 9.4l-30.5 14.6 82.5 65.4c6.3 5 7.3 14.1 2.3 20.4-2.9 3.6-7.1 5.5-11.4 5.5-3.2.0-6.3-1-9-3.1l-37.9-30.1-19.6 35.2 26.2 48.5c3.8 7 1.2 15.8-5.9 19.6-2.2 1.2-4.5 1.7-6.9 1.7-5.2.0-10.2-2.8-12.8-7.6l-30-55.5c-2.4-4.4-2.3-9.6.1-14l25.8-46.2-39.5-31.3c-1.8-1.4-3.3-3.3-4.2-5.4l-16-47.2-62.1-83.1c-2.7-2.7-4.2-6.4-4.2-10.3V14c0-8 6.5-14.5 14.5-14.5z"/></svg>