<svg id="Capa_1" xmlns="http://www.w3.org/2000/svg" viewBox="0 0 460 460"><style>.st1,.st3,.st5{display:inline;fill:#ffb76e}.st3,.st5{fill:#f46a1a}.st5{fill:#ff926e}.st6{fill:#caddea}.st7{fill:#97b0db}</style><path class="st6" d="M146 157.8c-2.8-3.5-5-6.8-6.5-10-2.3-4.8-3.3-9.6-3.3-15s1-10.2 3.3-15c1.6-3.2 3.7-6.5 6.5-10 23.4-29.2 16.6-72.3-13.2-94.8S62.2-1 36.5 26.2C10.1 54 0 93.9.0 132.7s10.1 78.8 36.5 106.6c25.7 27.2 66.5 35.7 96.3 13.2 29.8-22.4 36.5-65.6 13.2-94.7z"/><path class="st7" d="M146 157.8c-2.8-3.5-5-6.8-6.5-10-2.3-4.8-3.3-9.6-3.3-15s1-10.2 3.3-15c1.6-3.2 3.7-6.5 6.5-10 23.4-29.2 16.6-72.3-13.2-94.8C117.4 1.3 99.2-2 81.7 1.1 91 2.9 1e2 6.7 108.2 12.9c29.8 22.5 36.6 65.6 13.2 94.8-2.8 3.5-5 6.8-6.5 10-2.3 4.8-3.3 9.6-3.3 15s1 10.2 3.3 15c1.6 3.2 3.7 6.5 6.5 10 23.4 29.2 16.6 72.3-13.2 94.8-8.2 6.2-17.2 10-26.6 11.8 17.6 3.1 35.8-.2 51.1-11.8 29.9-22.4 36.6-65.6 13.3-94.7z"/><path d="M272 311.4c-5.1-2.8-8.1-8.1-8.1-13.9v-94c0-51.6 34.4-57.6 49.6-57.6h9.9c1.8-3.8 2.6-7.5 2.6-11.8s-.8-8-2.6-11.8h-9.9c-28.2.0-73.2 18.4-73.2 81.2.0.0 5 98.6.0 97.9-3.1-.5-6.8-.6-10.2-.6-3.5.0-6.9.2-10.2.6-4.3.5.0-97.9.0-97.9.0-62.8-45-81.2-73.2-81.2h-18.6c-2.4.0-4.6 1.6-5.4 3.9-.7 2.1-1 4.3-1 7.9.0 3.9.9 6.3 2 8.7.9 1.9 2.9 3.2 5.1 3.2h17.9c15.2.0 49.6 3.4 49.6 57.6.0.0-.4 75-.4 94.3.0 5.8-3.1 11.2-8.2 13.9-21.9 12-36.3 32.8-36.3 56.8.0 28.5 20.5 52.9 49.4 62.9 3.4 1.2 5.7 4.4 5.7 8v12c0 4.7 3.8 8.5 8.5 8.5h30.2c4.7.0 8.5-3.8 8.5-8.5v-12c0-3.6 2.3-6.8 5.7-8 29-10 49.4-34.4 49.4-62.9.0-24.2-14.2-44.8-36.8-57.2z" fill="#6073ba"/><path d="M321.3 146l2.6-9.1c-15.2.0-69.6 1-69.6 66.6v94c0 5.8 3.1 11.1 8.1 13.9 22.6 12.4 36.8 33 36.8 57.2.0 28.5-20.4 52.8-49.4 62.9-3.4 1.2-5.8 4.4-5.8 8v12c0 4.7-3.8 8.5-8.5 8.5h9.7c4.7.0 8.5-3.8 8.5-8.5v-12c0-3.6 2.3-6.8 5.8-8 28.9-10 49.4-34.4 49.4-62.9.0-24.2-14.2-44.8-36.8-57.2-5.1-2.8-8.1-8.1-8.1-13.9v-94c-.1-51.5 37.4-57.5 57.3-57.5z" fill="#4555a5"/><path class="st6" d="M423.5 26.1C397.8-1.1 357-9.6 327.2 12.9s-36.6 65.6-13.2 94.8c2.8 3.5 5 6.8 6.5 10 2.3 4.8 3.3 9.6 3.3 15s-1 10.2-3.3 15c-1.6 3.2-3.7 6.5-6.5 10-23.4 29.2-16.6 72.3 13.2 94.8s70.6 14 96.3-13.2c26.3-27.9 36.5-67.8 36.5-106.6S449.9 54 423.5 26.1z"/><path class="st7" d="M423.5 26.1c-18.6-19.7-45.2-29.6-69.7-25 16.6 3 32.7 11.8 45.2 25 26.3 27.9 36.5 67.8 36.5 106.6s-10.1 78.8-36.5 106.6c-12.5 13.2-28.6 22-45.2 25 24.6 4.6 51.1-5.3 69.7-25 26.3-27.9 36.5-67.8 36.5-106.6S449.9 54 423.5 26.1z"/></svg>