<svg width="72" height="72" fill="none" xmlns="http://www.w3.org/2000/svg"><g clip-path="url(#clip0)" fill="#4555A5"><path d="M15.44 69.778l-2.109-2.981a1.4 1.4 0 00-1.954-.338 1.4 1.4 0 00-.338 1.955l2.123 2.981c.268.38.704.59 1.154.59.28 0 .562-.083.815-.252.619-.436.76-1.322.31-1.955zM31.669 70.299l-2.306-10.983a20.75 20.75 0 00-8.761-13.008l-4.922-3.305a4.946 4.946 0 00-6.272.647V26.705a4.684 4.684 0 00-3.685-4.599A4.71 4.71 0 000 26.704v21.812c0 2.854.872 5.596 2.531 7.93l2.503 3.53a1.426 1.426 0 001.97.338 1.4 1.4 0 00.337-1.955l-2.503-3.53a10.787 10.787 0 01-2.026-6.313V26.705c0-.577.254-1.111.704-1.477a1.87 1.87 0 011.603-.366c.872.197 1.49.957 1.49 1.857v17.297c0 2.447.9 4.78 2.532 6.595.07.084.14.169.225.253.928.985 2.025 2.152 3.065 3.248l1.449 1.547.014.014a787.724 787.724 0 002.165 2.307c.535.562 1.42.59 1.983.056.563-.534.59-1.42.056-1.983-.028-.028-1.673-1.786-3.557-3.783l-3.22-3.43-.029-.029c-.76-.9-.745-2.222.042-3.108a2.13 2.13 0 012.77-.351l4.923 3.304a17.929 17.929 0 017.58 11.25l2.306 10.983A1.4 1.4 0 0030.29 72c.098 0 .197-.014.295-.028.76-.155 1.237-.9 1.083-1.673z"/><path d="M10.42 62.705a1.407 1.407 0 00-1.968-.338 1.4 1.4 0 00-.324 1.955l.014.014c.281.38.703.59 1.14.59.28 0 .562-.084.815-.267.633-.45.773-1.322.323-1.954zM70.242 23.034a4.686 4.686 0 00-3.965-.928 4.684 4.684 0 00-3.685 4.599V43.65a4.946 4.946 0 00-6.272-.647l-4.922 3.305c-4.528 3.037-7.636 7.664-8.76 13.008L40.33 70.299a1.4 1.4 0 001.083 1.659c.099.014.197.028.295.028a1.41 1.41 0 001.378-1.111l2.307-10.983a17.948 17.948 0 017.58-11.25l4.921-3.305a2.133 2.133 0 012.77.352c.788.9.802 2.208.043 3.108l-.028.028s-6.75 7.186-6.778 7.214a1.4 1.4 0 00.056 1.983 1.4 1.4 0 001.983-.056c.014-.014 5.765-6.132 6.693-7.116.07-.084.155-.169.225-.253a9.835 9.835 0 002.532-6.595V26.705c0-.9.604-1.66 1.49-1.856a1.938 1.938 0 011.603.365c.45.366.704.9.704 1.477v21.825c0 2.264-.69 4.443-2.011 6.3L56.545 69.778a1.4 1.4 0 00.338 1.955c.253.169.534.253.816.253.435 0 .871-.21 1.153-.59l10.617-14.95A13.611 13.611 0 0072 48.517V26.705c0-1.435-.647-2.77-1.758-3.67z"/><path d="M53.817 26.958l-2.503-.605v-.45A6.27 6.27 0 0054 20.743v-3.25c0-3.473-2.827-6.3-6.3-6.3a6.298 6.298 0 00-4.078 1.505c-1.224-2.98-4.177-5.104-7.608-5.104-3.445 0-6.384 2.123-7.608 5.133a6.273 6.273 0 00-4.092-1.52 6.308 6.308 0 00-6.3 6.3v3.249a6.307 6.307 0 002.686 5.161v.45l-2.503.605a6.603 6.603 0 00-5.077 6.426V36a1.41 1.41 0 001.407 1.406h6.468c-.014.169-.014.338-.014.52v5.063a1.41 1.41 0 001.406 1.406h8.452a1.41 1.41 0 001.406-1.406 1.41 1.41 0 00-1.406-1.406h-1.448v-2.911a1.41 1.41 0 00-1.407-1.406 1.41 1.41 0 00-1.406 1.406v2.91h-2.784v-3.655a5.822 5.822 0 014.486-5.682l3.853-.928 2.587 5.878c.225.507.732.844 1.294.844.563 0 1.069-.323 1.294-.844l2.573-5.864 3.853.914a5.822 5.822 0 014.486 5.682v3.642h-2.798v-2.897a1.41 1.41 0 00-1.406-1.406 1.41 1.41 0 00-1.407 1.406v2.91H41.02a1.41 1.41 0 00-1.406 1.407 1.41 1.41 0 001.406 1.406h8.592a1.41 1.41 0 001.407-1.406v-5.048c0-.17 0-.352-.014-.52h6.482a1.41 1.41 0 001.407-1.407v-2.63c-.014-3.08-2.096-5.723-5.077-6.426zM47.714 14.02a3.478 3.478 0 013.474 3.249h-1.955c-1.645 0-3.263-.394-4.711-1.153a3.451 3.451 0 013.192-2.096zm-3.487 6.525v-1.462c1.575.647 3.276.998 4.992.998h1.968v.675a3.496 3.496 0 01-3.487 3.488 3.487 3.487 0 01-3.488-3.488v-.21h.015zm-13.613-4.739c0-2.981 2.419-5.4 5.4-5.4a5.401 5.401 0 015.33 4.542l-2.363-1.392a1.403 1.403 0 00-1.786.31 6.056 6.056 0 01-4.654 2.165h-1.927v-.225zm-6.3-1.786c1.434 0 2.658.872 3.192 2.096a10.143 10.143 0 01-4.71 1.153H20.84a3.478 3.478 0 013.473-3.249zm-3.487 6.061h1.968c1.716 0 3.417-.337 5.007-.998v1.66a3.496 3.496 0 01-3.488 3.487 3.487 3.487 0 01-3.487-3.488v-.66zm6.792 9.436a8.612 8.612 0 00-5.977 5.09h-5.695v-1.223a3.804 3.804 0 012.91-3.698l3.587-.858a1.412 1.412 0 001.083-1.364v-.478c.253.028.52.056.787.056s.52-.014.788-.056V27.45c0 .464.225.914.646 1.181.155.099.324.169.507.197l2.095.506-.731.183zm3.923-2.194a7.558 7.558 0 00-1.125-.38L27.9 26.34v-.436c.45-.323.858-.689 1.224-1.11.632.97 1.448 1.8 2.418 2.418v.112zm6.103 2.068L36 33.145l-1.645-3.754v-.999a8.102 8.102 0 003.29 0v.999zm-1.63-3.657a5.401 5.401 0 01-5.4-5.4v-1.49h1.926c2.236 0 4.345-.83 5.976-2.306l2.897 1.701v2.292a5.409 5.409 0 01-5.4 5.203zm4.443 1.603v-.098a8.357 8.357 0 002.433-2.433c.351.422.759.788 1.209 1.097v.436l-2.517.605c-.38.098-.76.225-1.125.393zm15.61 7.257h-5.724a8.644 8.644 0 00-5.977-5.09l-.703-.17 2.11-.506c.168-.028.351-.098.506-.197.422-.267.647-.717.647-1.181v-.464c.253.028.52.056.787.056s.535-.014.788-.056v.478a1.4 1.4 0 001.082 1.364l3.586.858a3.78 3.78 0 012.911 3.698l-.014 1.21z"/><path d="M36.998 41.99a1.392 1.392 0 00-.998-.407c-.366 0-.731.155-.998.408a1.392 1.392 0 00-.408.998c0 .366.154.731.408.999.267.267.618.407.998.407.366 0 .731-.154.998-.407.268-.268.408-.62.408-.999 0-.38-.154-.731-.408-.998zM36 0a1.41 1.41 0 00-1.406 1.406v2.11A1.41 1.41 0 0036 4.922a1.41 1.41 0 001.406-1.406v-2.11A1.41 1.41 0 0036 0zM30.825 4.584l-1.476-1.476a1.4 1.4 0 00-1.983 0 1.4 1.4 0 000 1.983l1.462 1.49c.281.281.633.408.999.408.365 0 .717-.14.998-.408a1.417 1.417 0 000-1.997zM44.606 3.15a1.4 1.4 0 00-1.983 0l-1.462 1.462a1.4 1.4 0 00.998 2.391c.366 0 .718-.14.999-.408l1.462-1.462a1.413 1.413 0 00-.014-1.983z"/></g><defs><clipPath id="clip0"><path fill="#fff" d="M0 0h72v72H0z"/></clipPath></defs></svg>