<svg width="72" height="72" fill="none" xmlns="http://www.w3.org/2000/svg"><g clip-path="url(#clip0)" fill="#4555A5"><path d="M33.57 65.655l-2.25-.57.78-7.065-2.385-.27-.78 7.035H26.4V48c0-.66-.54-1.2-1.2-1.2H24V42h2.445c1.185 0 2.325.48 3.18 1.32.84.84 1.32 1.98 1.32 3.18 0 .165-.015.33-.03.495l-.93 8.34 2.385.27.93-8.355a6.842 6.842 0 00-1.98-5.64 6.968 6.968 0 00-4.875-2.025H19.2v-3.24l1.845-2.76c.6 0 1.215-.09 1.785-.27l3.96 3.57c.045.045.09.075.135.105a7.687 7.687 0 004.26 1.29c.24 0 .465-.015.705-.03.57.09 1.14.135 1.725.135 4.785 0 9-3.135 10.38-7.725l.57-1.875h.885l4.65 1.17c.36.075.735 0 1.035-.225.285-.225.465-.57.465-.945v-7.2c0-.66-.54-1.2-1.2-1.2-.105 0-.195.015-.285.03l-4.65 1.17h-4.65c-.285 0-.57.105-.795.3l-8.76 7.665-5.07-5.07-.93-1.86a4.803 4.803 0 003.54-4.635v-.03c.555-.12.93-.615.945-1.17V13.14l1.11-1.11c.36-.36.45-.93.225-1.38l-1.335-2.67v-.45A6.31 6.31 0 0027.9 3.06a6.467 6.467 0 00-4.47-1.845c-2.385 0-4.635-.075-6.675 1.35-1.905-1.86-4.95-1.8-6.795.09-1.845 1.89-1.8 4.935.105 6.78.54.525 1.185.9 1.89 1.125l.72-2.295a2.403 2.403 0 01-1.56-3.015 2.403 2.403 0 013.015-1.56c.33.105.63.285.885.51-1.23 1.65-1.77 3.585-1.545 5.775.255 2.4 1.425 4.935 2.445 6.99L7.2 35.43V27.6c0-1.995-1.605-3.6-3.6-3.6A3.591 3.591 0 000 27.6V30h2.4v-2.4c0-.66.54-1.2 1.2-1.2.66 0 1.2.54 1.2 1.2v24H3.6c-.66 0-1.2-.54-1.2-1.2v-18H0v18C0 52.38 1.62 54 3.6 54h1.2v2.4c0 .66.54 1.2 1.2 1.2h1.2v6.27l-3.765.93A3.601 3.601 0 000 68.55a3.601 3.601 0 003.75 3.435 3.597 3.597 0 002.52-1.2h9.045c1.32 1.485 3.6 1.605 5.085.285 1.485-1.32 1.605-3.6.285-5.085a3.626 3.626 0 00-2.52-1.2L14.4 63.87V57.6H18c.66 0 1.2-.54 1.2-1.2V54h3.6c.405 0 .81-.075 1.2-.21V70.8c0 .66.54 1.2 1.2 1.2h7.575A3.22 3.22 0 0036 68.775c0-1.47-1.005-2.76-2.43-3.12zM21.6 46.8h-2.4V42h2.4v4.8zm-2.4-30.93V18c0 .405.045.81.15 1.2h-1.845l1.695-3.33zm-2.4 7.845c0-1.17.945-2.115 2.115-2.115h.105c.57 0 1.11.225 1.5.615l2.94 2.94L20.4 27.9l-2.895-2.61a2.092 2.092 0 01-.705-1.575zm20.16 11.61l4.845-5.655-.09.315a8.382 8.382 0 01-4.755 5.34zM49.2 27.27l-2.4-.6v-2.925l2.4-.6v4.125zM31.995 32.1L41.25 24h3.15v2.4H42c-.345 0-.69.15-.915.42l-7.08 8.265a5.244 5.244 0 01-5.67-.045L22.2 29.52l2.97-2.67 5.19 5.19c.435.45 1.155.48 1.635.06zm-7.86-11.7l-.03-.06.915-2.34h1.38c0 1.275-.99 2.325-2.265 2.4zm3.33-11.61l1.08 2.145-.855.855a1.19 1.19 0 00-.345.855V15.6H24.21c-.495 0-.945.3-1.125.765l-1.11 2.835h-.06c-.21-.36-.33-.78-.33-1.2V9.6H19.65a.645.645 0 01-.03-.375.546.546 0 01.33-.39c.315-.15.63.075.9.21a1.21 1.21 0 001.515-.345l3.285-4.38c.18.135.36.27.51.435a3.916 3.916 0 011.155 2.775v.72c.03.18.075.375.15.54zm-11.61.855c-.135-1.17.27-3.03 1.26-4.185 1.56-1.86 3.87-1.86 6.105-1.86l-2.175 2.895c-1.59-.45-3.255.465-3.705 2.055 0 .03-.015.045-.015.075a3.056 3.056 0 00.78 2.865l.48.48-1.275 2.355c-.63-1.395-1.335-3.6-1.455-4.68zM18 67.2c.66 0 1.2.54 1.2 1.2 0 .66-.54 1.2-1.2 1.2-.435 0-.825-.225-1.035-.6a1.19 1.19 0 00-1.035-.6H5.685c-.435 0-.825.225-1.035.6-.33.57-1.065.765-1.635.435a1.199 1.199 0 01.6-2.235c.105 0 4.95-1.2 4.95-1.2h4.5c-.015 0 4.845 1.2 4.935 1.2zm-6-3.6H9.6v-6H12v6zm4.8-8.4H7.2V41.07l7.455-15.855c.255.72.675 1.35 1.245 1.86l3.705 3.33.87.795H20.4c-.405 0-.78.195-1.005.54l-2.4 3.6a1.17 1.17 0 00-.195.66v19.2zm6.855-3.945c-.225.225-.525.36-.855.345h-3.6v-2.4h3.6c.66 0 1.2.54 1.2 1.2 0 .315-.12.63-.345.855zm9.12 18.345H26.4v-2.4h3.45l3.12.78a.825.825 0 01.6.99.792.792 0 01-.795.63z"/><path d="M14.4 42H9.6v2.4h4.8V42zM72 43.2V27.6a3.591 3.591 0 00-4.8-3.39V6c0-3.315-2.685-6-6-6h-8.4c-.66 0-1.2.54-1.2 1.2v2.4c0 1.395.795 2.655 2.055 3.255l-1.995 5.97A1.198 1.198 0 0052.8 14.4H54V18c0 .66.54 1.2 1.2 1.2h2.4v1.92a13.334 13.334 0 00-3.6 9.165v5.01L45.495 36c-.15.015-.3.06-.435.12l-4.8 2.4c-.405.21-.66.615-.66 1.08v3.6c0 .66.54 1.2 1.2 1.2h2.4c.135 0 .255-.015.375-.06l3.42-1.14H62.4c.84 0 1.665-.225 2.4-.645v.645c0 1.98-1.62 3.6-3.6 3.6H46.8c-.66 0-1.2.54-1.2 1.2 0 .075.015.165.03.24l3.315 16.56h-3.57L41.4 46.965a4.32 4.32 0 01-.09-.885h-2.4c0 .48.045.945.15 1.41l3.855 17.31h-.9a3.591 3.591 0 00-3.6 3.6c0 1.995 1.605 3.6 3.6 3.6h8.4c.57 0 1.05-.39 1.17-.945a3.584 3.584 0 005.07-.225c.015-.015.015-.03.03-.03h9.045c1.32 1.485 3.6 1.605 5.085.285 1.485-1.32 1.605-3.6.285-5.085a3.626 3.626 0 00-2.52-1.2l-3.765-.945V56.25h-2.4v7.35h-2.4V54h8.4c1.98 0 3.6-1.62 3.6-3.6v-4.65h-2.4v4.65c0 .66-.54 1.2-1.2 1.2H50.4c-.66 0-1.2-.54-1.2-1.2 0-.66.54-1.2 1.2-1.2H66c.66 0 1.2-.54 1.2-1.2V27.6c0-.66.54-1.2 1.2-1.2.66 0 1.2.54 1.2 1.2v15.6H72zM49.2 69.6H42c-.66 0-1.2-.54-1.2-1.2 0-.66.54-1.2 1.2-1.2h7.2v2.4zM63.45 66l4.65 1.17c.09.03.195.03.285.03.66 0 1.2.54 1.2 1.2 0 .66-.54 1.2-1.2 1.2-.435 0-.825-.225-1.035-.6a1.19 1.19 0 00-1.035-.6H56.07c-.435 0-.825.225-1.035.6-.33.57-1.065.765-1.635.435A1.199 1.199 0 0154 67.2c.105 0 .195-.015.285-.03l4.65-1.17h4.515zM50.4 54h7.2v9.87l-3.765.945c-.84.045-1.65.375-2.265.945l-2.385-11.955c.39.12.81.195 1.215.195zm10.8-29.4c0-.99.81-1.8 1.8-1.8s1.8.81 1.8 1.8v3h-3.6v-3zM54 2.4h7.2c1.98 0 3.6 1.62 3.6 3.6v1.2l-1.44-1.92c-.225-.3-.585-.48-.96-.48h-7.2c-.66 0-1.2-.54-1.2-1.2V2.4zm2.4 14.4v-3.6c0-.66-.54-1.2-1.2-1.2h-.735l1.605-4.8h5.73l3 4.005V20.4H60V18c0-.66-.54-1.2-1.2-1.2h-2.4zm0 13.485c0-2.67.96-5.235 2.7-7.245-.195.495-.3 1.02-.3 1.56v10.29l-2.4.195v-4.8zm6 10.515H46.8c-.135 0-.255.015-.375.06L43.005 42H42v-1.665l3.93-1.965 14.175-1.185a1.196 1.196 0 001.095-1.2v-6h3.6v8.4a2.4 2.4 0 01-2.4 2.415z"/></g><defs><clipPath id="clip0"><path fill="#fff" d="M0 0h72v72H0z"/></clipPath></defs></svg>