<svg width="72" height="72" fill="none" xmlns="http://www.w3.org/2000/svg"><g clip-path="url(#clip0)" fill="#4555A5"><path d="M51.989 54.925l-9.745-7.572v-3.168c3.487-2.097 5.822-5.912 5.822-10.275v-9.628c0-4.406-3.586-7.996-7.988-7.996h-8.944l-.618-1.182a1.75 1.75 0 00-1.125-.887 1.77 1.77 0 00-1.407.24 8.703 8.703 0 00-3.853 7.249V33.91c0 1.21.183 2.407.535 3.547.168.563.759.873 1.322.69.562-.17.871-.76.689-1.323a9.78 9.78 0 01-.436-2.928v-6.208c6.482-1.112 13.106-1.112 19.73 0v6.194c0 5.447-4.43 9.867-9.858 9.867a9.854 9.854 0 01-7.44-3.392 1.05 1.05 0 00-1.49-.099 1.052 1.052 0 00-.099 1.492c.76.873 1.617 1.605 2.56 2.21v3.378l-9.746 7.573c-3.08 2.393-4.837 5.997-4.837 9.91v6.123c0 .577.478 1.056 1.055 1.056.576 0 1.054-.479 1.054-1.056v-6.123c0-3.237 1.463-6.25 4.022-8.234l8.747-6.8a6.326 6.326 0 006.019 4.392 6.326 6.326 0 006.019-4.391l8.746 6.799a10.359 10.359 0 014.022 8.234v6.123c0 .577.478 1.056 1.055 1.056s1.055-.479 1.055-1.056v-6.123c-.028-3.899-1.786-7.502-4.866-9.895zM26.227 25.549v-3.856c0-2.07.97-4.012 2.601-5.265l.717 1.38c.183.351.549.563.928.563h9.605c3.248 0 5.878 2.646 5.878 5.883v1.295c-6.623-1.07-13.233-1.07-19.73 0zm9.703 26.52a4.21 4.21 0 01-4.205-4.209v-2.815c1.378.535 2.855.83 4.36.83 1.42 0 2.784-.253 4.035-.703v2.688a4.188 4.188 0 01-4.19 4.209z"/><path d="M24.033 64.441c-.577 0-1.055.479-1.055 1.056v5.447c0 .577.478 1.056 1.055 1.056.576 0 1.054-.479 1.054-1.056v-5.447c0-.577-.478-1.056-1.054-1.056zM47.827 64.441c-.577 0-1.055.479-1.055 1.056v5.447c0 .577.478 1.056 1.055 1.056.576 0 1.054-.479 1.054-1.056v-5.447c0-.577-.464-1.056-1.054-1.056zM2.306 57.727l7.946-6.841a1.03 1.03 0 00.365-.803V47.48c.76.31 1.603.479 2.475.479.872 0 1.702-.17 2.475-.479v2.604c0 .31.14.605.366.803l2.053 1.773c.197.17.45.254.689.254.295 0 .59-.127.802-.366a1.053 1.053 0 00-.113-1.492l-1.687-1.45v-3.463a6.665 6.665 0 002.123-4.885v-2.885c0-3.702-3.01-6.7-6.694-6.7-3.698 0-6.693 3.012-6.693 6.7v2.871c0 1.929.815 3.66 2.123 4.885v3.463L.942 56.136a2.174 2.174 0 00-.76 1.647v3.674c0 1 .718 1.844 1.688 2.027 3.291.591 6.666.929 10.041.985h.014a1.06 1.06 0 001.055-1.041 1.045 1.045 0 00-1.04-1.07 61.695 61.695 0 01-9.662-.943v-3.618c.014-.042.028-.056.028-.07zm6.188-19.355a4.587 4.587 0 014.584-4.59 4.587 4.587 0 014.585 4.59v2.871a4.587 4.587 0 01-4.585 4.59 4.587 4.587 0 01-4.584-4.59v-2.871zM61.566 50.083c0 .31.14.605.365.803l1.744 1.506c.197.169.45.253.689.253.295 0 .59-.127.802-.366a1.053 1.053 0 00-.113-1.492l-1.378-1.182v-3.463a6.664 6.664 0 002.123-4.885v-2.885c0-3.702-3.009-6.7-6.693-6.7-3.699 0-6.694 3.012-6.694 6.7v2.871c0 1.929.816 3.66 2.123 4.885v3.463l-1.687 1.45a1.065 1.065 0 00-.113 1.492c.211.239.507.365.802.365.239 0 .492-.084.689-.253l2.053-1.774a1.03 1.03 0 00.366-.802v-2.604a6.57 6.57 0 002.475.479c.872 0 1.701-.17 2.475-.479l-.028 2.618zm-2.475-4.237a4.587 4.587 0 01-4.585-4.589v-2.885a4.587 4.587 0 014.585-4.59 4.587 4.587 0 014.584 4.59v2.871c.014 2.534-2.053 4.603-4.584 4.603zM71.24 56.136l-2.727-2.35a1.051 1.051 0 00-1.491.112 1.053 1.053 0 00.112 1.492l2.729 2.35c.014.015.014.029.014.043V61.4a61.378 61.378 0 01-9.661.944 1.072 1.072 0 00-1.041 1.07 1.06 1.06 0 001.055 1.041h.014a63.184 63.184 0 0010.04-.985 2.053 2.053 0 001.688-2.027v-3.674a2.048 2.048 0 00-.731-1.633zM62.03 17.863h-.549c-.394 0-.745.211-.928.563l-1.631 3.069-1.575-3.055a1.069 1.069 0 00-.942-.577h-6.54c-.576 0-1.054.478-1.054 1.056 0 .577.478 1.055 1.055 1.055h5.892l1.406 2.731a1.948 1.948 0 001.73 1.056h.014c.731 0 1.392-.394 1.73-1.042L62.1 19.96c5.47-.042 9.9-4.504 9.9-9.98 0-1.858-.52-3.688-1.49-5.264a1.053 1.053 0 00-1.786 1.112 7.827 7.827 0 011.18 4.152c-.013 4.35-3.543 7.883-7.874 7.883zM9.9 19.974l1.463 2.76a1.935 1.935 0 001.73 1.04h.013c.732 0 1.392-.407 1.73-1.055l1.406-2.73h5.049c.576 0 1.054-.48 1.054-1.056 0-.578-.478-1.056-1.054-1.056h-5.682c-.393 0-.759.225-.942.577l-1.575 3.055-1.631-3.07a1.061 1.061 0 00-.928-.562h-.549c-4.33 0-7.86-3.533-7.86-7.869 0-4.335 3.515-7.897 7.846-7.897h52.046a7.88 7.88 0 013.782.972 1.05 1.05 0 001.435-.423 1.05 1.05 0 00-.422-1.435A9.903 9.903 0 0062.03 0H9.97C4.472 0 0 4.476 0 9.98c0 5.49 4.43 9.952 9.9 9.994z"/><path d="M16.44 9.164a1.42 1.42 0 001.63 1.633 1.421 1.421 0 001.154-1.155 1.42 1.42 0 00-1.632-1.633 1.438 1.438 0 00-1.153 1.155zM28.505 9.403c0 .774.633 1.407 1.406 1.407.773 0 1.406-.633 1.406-1.407s-.633-1.408-1.406-1.408c-.774 0-1.406.634-1.406 1.408zM55.575 9.403c0-.774-.633-1.408-1.406-1.408-.774 0-1.406.634-1.406 1.408 0 .774.632 1.407 1.406 1.407.787 0 1.406-.619 1.406-1.407zM40.683 9.403c0 .774.633 1.407 1.406 1.407.773 0 1.406-.633 1.406-1.407s-.633-1.408-1.406-1.408c-.773 0-1.406.634-1.406 1.408z"/></g><defs><clipPath id="clip0"><path fill="#fff" d="M0 0h72v72H0z"/></clipPath></defs></svg>