<svg width="72" height="72" fill="none" xmlns="http://www.w3.org/2000/svg"><path d="M24.72 53.572a15.283 15.283 0 0010.879 4.505c4.11 0 7.971-1.6 10.879-4.505 5.998-5.999 5.998-15.758 0-21.756-5.999-5.999-15.758-5.999-21.756 0-6 5.996-6 15.757-.002 21.756zm3.85 1.215v-6.685a3.941 3.941 0 013.014-3.827l-.96 3.838a1.472 1.472 0 001.43 1.83c.04 0 .08-.002.121-.004l2.16 3.603c.27.448.741.714 1.264.714a1.46 1.46 0 001.263-.714l2.163-3.603a1.472 1.472 0 001.55-1.826l-.96-3.838a3.944 3.944 0 013.015 3.827v6.686a13.913 13.913 0 01-7.03 1.89c-2.508 0-4.92-.657-7.03-1.89zm2.319-19.823v-.772a2.394 2.394 0 012.391-2.391h4.637a2.394 2.394 0 012.392 2.391v.772c0 .04-.032.073-.073.073h-9.275a.072.072 0 01-.072-.073zm.772 1.472h7.875v2.391c0 1.065-.418 2.061-1.177 2.808a3.905 3.905 0 01-2.828 1.128c-2.134-.036-3.87-1.837-3.87-4.012v-2.315zm5.028 11.293l1.706-2.56.822 3.283c.002.013.01.043-.022.07-.032.03-.06.02-.072.015l-2.434-.808zm-4.614.81a.068.068 0 01-.073-.014c-.032-.03-.023-.06-.021-.07l.821-3.284 1.707 2.56-2.434.808zm3.524-1.697l-1.783-2.675H37.383L35.6 46.842zm0 1.998l2.043.68-1.98 3.3c-.006.011-.02.037-.061.037-.04 0-.056-.026-.062-.036l-1.98-3.3 2.04-.68zm0-20.126c3.581 0 7.163 1.363 9.889 4.09 5.452 5.452 5.452 14.323 0 19.776-.46.46-.95.885-1.461 1.273v-5.75a5.342 5.342 0 00-4.851-5.314l.166-.156a5.3 5.3 0 001.596-3.806V36.26c.46-.25.772-.736.772-1.295v-.772c0-2.09-1.7-3.79-3.79-3.79h-4.638c-2.09 0-3.79 1.7-3.79 3.79v.772c0 .56.313 1.046.772 1.295v2.492c0 1.595.695 3.04 1.794 4.033a5.342 5.342 0 00-4.885 5.316v5.751c-.51-.388-.998-.81-1.461-1.273-5.453-5.453-5.453-14.325 0-19.777a13.94 13.94 0 019.887-4.087z" fill="#4555A5"/><path d="M64.481 64.028l-9.298-9.298a2.178 2.178 0 00-1.55-.642c-.587 0-1.138.228-1.552.642l-.09.09-1.37-1.372c5.17-7.214 4.517-17.342-1.959-23.819a18.316 18.316 0 00-10.6-5.247 18.612 18.612 0 00-11.397 2.133.698.698 0 00-.273.951c.188.34.612.461.951.273 6.617-3.658 14.977-2.474 20.33 2.878 6.657 6.658 6.657 17.492 0 24.15-6.658 6.657-17.493 6.657-24.15 0-6.658-6.658-6.658-17.492 0-24.15.484-.484 1-.943 1.534-1.363a.701.701 0 00-.866-1.1c-.578.454-1.135.948-1.658 1.471-7.204 7.204-7.204 18.925 0 26.129a18.414 18.414 0 0013.063 5.403c3.776 0 7.554-1.15 10.756-3.443l1.371 1.372-.09.09a2.178 2.178 0 00-.641 1.55c0 .587.228 1.137.642 1.551l2.636 2.637a.7.7 0 00.99-.99l-1.011-1.011 5.567-5.568 7.673 7.673c.005.004.013.013.013.032 0 .02-.01.03-.013.032l-5.5 5.502c-.005.004-.014.012-.033.012-.02 0-.03-.01-.032-.012L53.242 65.9a.7.7 0 00-.99.99l4.682 4.682c.273.273.636.425 1.022.425s.749-.152 1.022-.425l5.501-5.501c.273-.273.425-.636.425-1.022s-.15-.748-.423-1.022zM47.467 56.85c.41-.343.811-.708 1.195-1.094.386-.386.749-.785 1.094-1.194l1.248 1.247-2.289 2.29-1.248-1.249zm1.792 5.073l-.635-.636a.79.79 0 010-1.122l4.447-4.447a.79.79 0 011.122 0l.636.635-5.57 5.57z" fill="#4555A5"/><path d="M34.052 38.964a.7.7 0 00.7-.7v-.386a.7.7 0 00-1.4 0v.386a.7.7 0 00.7.7zM37.143 38.964a.7.7 0 00.7-.7v-.386a.7.7 0 00-1.4 0v.386a.7.7 0 00.7.7zM3 29.576v1.277a11.385 11.385 0 006.28 1.87 11.5 11.5 0 006.282-1.893V25.29a3.98 3.98 0 00-3.616-3.959c.043-.038.084-.077.124-.115a3.947 3.947 0 001.188-2.835v-1.913c.344-.186.576-.549.576-.967v-.576a2.828 2.828 0 00-2.824-2.824H7.554a2.828 2.828 0 00-2.824 2.824v.576c0 .416.232.779.576.967v1.858a4.05 4.05 0 001.337 3.005A3.977 3.977 0 003 25.291v4.285zm1.043.695v-4.98c0-1.38.96-2.541 2.246-2.853l-.714 2.859c-.098.388.025.8.32 1.07.207.19.473.293.746.293.03 0 .06-.002.09-.005l1.61 2.686c.2.333.553.533.941.533.388 0 .74-.198.94-.533l1.611-2.686a1.104 1.104 0 00.836-.288 1.1 1.1 0 00.32-1.07l-.714-2.859a2.941 2.941 0 012.246 2.852v4.981a10.368 10.368 0 01-5.237 1.408c-1.868 0-3.667-.49-5.24-1.408zM5.771 15.5v-.576c0-.983.8-1.781 1.781-1.781h3.456c.983 0 1.781.8 1.781 1.781v.576c0 .03-.024.056-.056.056h-6.91a.056.056 0 01-.052-.056zm.576 1.097h5.868v1.78c0 .794-.311 1.537-.877 2.093a2.914 2.914 0 01-2.107.843c-1.59-.026-2.884-1.367-2.884-2.99v-1.726zm3.746 8.415l1.271-1.907.612 2.447c.002.008.009.032-.015.053-.023.021-.045.015-.053.013l-1.815-.606zm-3.437.604c-.008.002-.03.01-.053-.013-.024-.022-.02-.045-.015-.054l.612-2.446 1.272 1.907-1.816.605zM9.28 24.35l-1.329-1.995h2.66L9.28 24.35zm0 1.488l1.523.508-1.476 2.46c-.004.008-.015.025-.047.025s-.043-.019-.047-.025l-1.476-2.46 1.523-.508z" fill="#4555A5"/><path d="M8.128 18.48a.52.52 0 00.52-.521v-.288a.52.52 0 10-1.04 0v.288c0 .288.232.52.52.52zM10.432 18.48a.52.52 0 00.52-.521v-.288a.52.52 0 10-1.04 0v.288c0 .288.232.52.52.52zM55.482 29.576v1.277a11.385 11.385 0 006.28 1.87 11.5 11.5 0 006.282-1.893V25.29a3.98 3.98 0 00-3.616-3.959c.043-.038.084-.077.124-.115a3.947 3.947 0 001.188-2.835v-1.913c.344-.186.576-.549.576-.967v-.576a2.828 2.828 0 00-2.824-2.824h-3.456a2.828 2.828 0 00-2.824 2.824v.576c0 .416.232.779.576.967v1.858a4.05 4.05 0 001.337 3.005 3.982 3.982 0 00-3.64 3.961v4.284h-.003zm1.043.695v-4.98c0-1.38.96-2.541 2.246-2.853l-.714 2.859c-.099.388.025.8.32 1.07.206.19.473.293.746.293.03 0 .06-.002.09-.005l1.61 2.686c.2.333.553.533.941.533.388 0 .74-.198.94-.533l1.611-2.686a1.104 1.104 0 00.836-.288 1.1 1.1 0 00.32-1.07l-.714-2.859a2.941 2.941 0 012.246 2.852v4.981a10.367 10.367 0 01-5.237 1.408c-1.868 0-3.669-.49-5.241-1.408zM58.253 15.5v-.576c0-.983.8-1.781 1.781-1.781h3.456c.983 0 1.78.8 1.78 1.781v.576c0 .03-.022.056-.054.056h-6.912a.056.056 0 01-.051-.056zm.576 1.097h5.868v1.78c0 .794-.311 1.537-.877 2.093a2.914 2.914 0 01-2.107.843c-1.59-.026-2.884-1.367-2.884-2.99v-1.726zm3.746 8.415l1.271-1.907.612 2.447c.002.008.009.032-.015.053-.023.021-.044.015-.053.013l-1.815-.606zm-3.437.604c-.008.002-.03.01-.053-.013-.024-.022-.02-.045-.015-.054l.612-2.446 1.271 1.907-1.815.605zm2.624-1.265l-1.329-1.995h2.66l-1.331 1.995zm0 1.488l1.523.508-1.476 2.46c-.004.008-.015.025-.047.025s-.043-.019-.047-.025l-1.476-2.46 1.523-.508z" fill="#4555A5"/><path d="M60.61 18.48a.52.52 0 00.52-.521v-.288a.52.52 0 10-1.04 0v.288c0 .288.232.52.52.52zM62.914 18.48a.52.52 0 00.52-.521v-.288a.52.52 0 10-1.04 0v.288c0 .288.232.52.52.52zM29.24 17.477v1.277a11.385 11.385 0 006.28 1.87 11.5 11.5 0 006.282-1.893V13.191a3.981 3.981 0 00-3.616-3.959c.043-.038.083-.077.124-.115a3.947 3.947 0 001.188-2.835V4.369c.344-.186.576-.549.576-.967v-.576A2.828 2.828 0 0037.25.002h-3.456a2.828 2.828 0 00-2.824 2.824v.576c0 .416.232.779.576.966v1.858a4.05 4.05 0 001.337 3.006 3.982 3.982 0 00-3.641 3.961v4.284h-.002zm1.043.697v-4.983c0-1.38.96-2.54 2.246-2.852l-.715 2.859c-.098.388.026.8.32 1.07.207.19.474.293.747.293.03 0 .06-.002.09-.005l1.61 2.686c.2.333.553.533.94.533.39 0 .741-.198.942-.533l1.61-2.686a1.104 1.104 0 00.836-.288 1.1 1.1 0 00.32-1.07l-.714-2.859a2.941 2.941 0 012.246 2.852v4.983a10.367 10.367 0 01-5.237 1.408 10.37 10.37 0 01-5.241-1.408zM32.01 3.4v-.576c0-.983.8-1.781 1.78-1.781h3.457c.983 0 1.78.8 1.78 1.781V3.4c0 .03-.023.056-.055.056h-6.911c-.026 0-.051-.026-.051-.056zm.576 1.099h5.868v1.78c0 .794-.311 1.537-.877 2.093a2.914 2.914 0 01-2.107.843c-1.59-.026-2.884-1.367-2.884-2.99V4.498zm3.748 8.413l1.27-1.907.613 2.446c.002.009.009.032-.015.054-.023.021-.045.015-.053.013l-1.815-.606zm-3.439.606c-.009.002-.03.01-.053-.013-.024-.022-.02-.045-.015-.054l.612-2.446 1.271 1.907-1.815.606zm2.626-1.268l-1.33-1.994h2.661l-1.331 1.995zm0 1.492l1.523.507-1.476 2.46c-.005.008-.015.025-.047.025s-.043-.019-.047-.025l-1.476-2.46 1.523-.508z" fill="#4555A5"/><path d="M34.37 6.382a.52.52 0 00.52-.52v-.288a.52.52 0 10-1.04 0v.288a.52.52 0 00.52.52zM36.674 6.382a.52.52 0 00.52-.52v-.288a.52.52 0 10-1.04 0v.288a.52.52 0 00.52.52z" fill="#4555A5"/></svg>