<svg width="72" height="72" fill="none" xmlns="http://www.w3.org/2000/svg"><path d="M55.37 18.33V9.445C55.37 6.995 53.367 5 50.906 5c-2.416 0-4.387 1.917-4.463 4.302-4.552 3.81-12.95 7.711-20.686 8.146v-1.385c0-2.334-1.906-4.231-4.248-4.231h-6.662c-2.343 0-4.248 1.897-4.248 4.23v1.512C4.64 18.271 0 23.33 0 29.451c0 6.12 4.64 11.18 10.599 11.876v1.512a4.235 4.235 0 002.842 3.99v19.334c0 .773.63 1.4 1.406 1.4h3.333c2.611 0 4.735-2.116 4.735-4.718V46.829a4.238 4.238 0 002.842-3.99v-1.384c7.736.435 16.134 4.336 20.686 8.145.076 2.385 2.049 4.303 4.463 4.303 2.461 0 4.464-1.995 4.464-4.445V40.57c4.307-1.987 7.14-6.338 7.14-11.12 0-4.78-2.832-9.132-7.14-11.121zM20.768 38.612h-5.18V20.289h5.18v18.323zm-7.357-22.55c0-.789.645-1.431 1.436-1.431h6.662c.791 0 1.435.642 1.435 1.432v1.427h-9.533v-1.427zM2.813 29.453c0-5.052 4.124-9.161 9.192-9.161h.77v18.322h-.77c-5.068-.001-9.193-4.11-9.193-9.162zm17.29 33.393a1.923 1.923 0 01-1.923 1.919h-1.927V47.068h3.85v15.777zm2.841-20.006c0 .79-.644 1.432-1.435 1.432h-6.662a1.435 1.435 0 01-1.436-1.432V41.41h9.533v1.428zm29.613 6.617c0 .907-.74 1.646-1.65 1.646a1.652 1.652 0 01-1.656-1.646V35.738c0-.772-.63-1.4-1.406-1.4-.776 0-1.406.628-1.406 1.4v10.323c-5.544-3.942-14.151-7.45-22.088-7.45h-.771V20.29h.77c7.938 0 16.545-3.51 22.089-7.45v10.322c0 .772.63 1.4 1.406 1.4.776 0 1.406-.628 1.406-1.4V9.444a1.653 1.653 0 013.306 0v40.011zM55.37 37.38V21.522c2.65 1.72 4.327 4.698 4.327 7.93 0 3.231-1.677 6.208-4.327 7.928zM70.594 28.052h-2.905c-.777 0-1.407.627-1.407 1.4 0 .772.63 1.399 1.407 1.399h2.905c.776 0 1.406-.627 1.406-1.4 0-.772-.63-1.4-1.406-1.4zM66.22 22.155c.36 0 .719-.136.993-.409l2.903-2.881c.55-.546.55-1.432.002-1.98a1.41 1.41 0 00-1.988 0l-2.902 2.88a1.395 1.395 0 00-.003 1.98c.275.274.635.41.995.41zM67.214 37.155a1.41 1.41 0 00-1.988.003 1.394 1.394 0 00.003 1.979l2.902 2.882c.274.273.634.408.993.408.36 0 .722-.137.996-.411a1.395 1.395 0 00-.003-1.98l-2.903-2.881z" fill="#4555A5"/><path d="M47.845 28.052c-.776 0-1.406.627-1.406 1.4v.008a1.407 1.407 0 002.813-.008c0-.773-.63-1.4-1.407-1.4z" fill="#4555A5"/></svg>