<svg width="72" height="72" fill="none" xmlns="http://www.w3.org/2000/svg"><path d="M3.85 44.02a4.61 4.61 0 001.08 1.682 4.616 4.616 0 003.273 1.363 4.623 4.623 0 003.272-1.363 4.623 4.623 0 001.363-3.273V39.85a5.315 5.315 0 01-2.503-.406c-.06.291-.128.574-.216.854-.33 1.075-.884 2.057-1.762 2.761-.888.718-2.068 1.133-3.63 1.052a8.132 8.132 0 01-.877-.091zm27.322-6.909h9.272v-2.914h-7.14c-.586 0-1.12.244-1.506.63a2.119 2.119 0 00-.626 1.504v.78zm9.273 2.11h-9.271v3.209c0 1.27.521 2.43 1.362 3.272a4.608 4.608 0 006.545 0 4.623 4.623 0 001.363-3.273l.001-3.209zm28.9 7.04c.565.299 1.064.705 1.475 1.187A4.942 4.942 0 0172 50.653v7.112c0 .582-.471 1.052-1.052 1.052-.58 0-1.056-.471-1.056-1.052v-7.112c0-.701-.256-1.347-.678-1.845a2.904 2.904 0 00-1.46-.925 6.68 6.68 0 01-3.954 1.29 6.701 6.701 0 01-4.074-1.374 1.935 1.935 0 00-1.339.762l-5.664 7.502c-.2.263-.51.423-.84.423h-7.26a1.937 1.937 0 00-1.945 1.941 1.94 1.94 0 001.945 1.945h8.67c.347 0 .614-.037.945-.204.613-.307 1.188-1.24 1.606-1.797l3.75-4.963a1.05 1.05 0 011.475-.207c.463.35.554 1.013.204 1.476l-3.568 4.727v9.193h12.187v-6.055a1.054 1.054 0 012.108 0v7.111c0 .582-.471 1.052-1.052 1.052H1.056A1.055 1.055 0 010 69.653v-7.111a1.054 1.054 0 012.108 0v6.055h12.19v-9.195l-3.572-4.728a1.053 1.053 0 111.681-1.269l3.668 4.856c.335.443.67.889 1.004 1.336.191.252.426.443.686.57.291.147.563.203.88.203h8.735a1.937 1.937 0 001.94-1.945c0-.534-.215-1.02-.565-1.375a1.952 1.952 0 00-1.375-.565h-7.264a1.05 1.05 0 01-.84-.423l-5.662-7.503a1.95 1.95 0 00-1.339-.76 6.718 6.718 0 01-8.028.089 2.892 2.892 0 00-1.443.9 2.856 2.856 0 00-.693 1.867v7.111c0 .582-.471 1.052-1.052 1.052A1.06 1.06 0 010 57.763v-7.111c0-1.232.458-2.368 1.212-3.242.407-.466.897-.86 1.447-1.151a6.692 6.692 0 01-1.2-3.83v-6.1c0-1.168.475-2.229 1.244-2.998a4.235 4.235 0 012.994-1.243h5.01a4.245 4.245 0 014.243 4.241v6.1a6.695 6.695 0 01-1.093 3.67c.57.288 1.052.683 1.439 1.193l5.345 7.08h4.222v-4.278c0-1.213.64-2.308 1.681-3.238.806-.717 1.866-1.343 3.038-1.838a6.701 6.701 0 01-.518-2.591v-6.099a4.245 4.245 0 014.243-4.241h8.196c.582 0 1.056.473 1.056 1.056v9.283c0 .866-.168 1.695-.467 2.46 1.26.495 2.399 1.132 3.261 1.873 1.104.95 1.786 2.082 1.786 3.333v4.278h4.221l5.346-7.08a4.042 4.042 0 011.442-1.187 6.701 6.701 0 01-1.096-3.676v-6.1a4.245 4.245 0 014.243-4.241h5.01a4.247 4.247 0 014.24 4.242v6.099a6.73 6.73 0 01-1.2 3.833zM68.15 44.02a7.62 7.62 0 01-.878.091c-1.558.08-2.74-.334-3.628-1.051-.882-.706-1.434-1.687-1.766-2.762a8.12 8.12 0 01-.211-.854 5.333 5.333 0 01-2.508.406v2.58c0 1.27.522 2.43 1.363 3.272a4.626 4.626 0 003.277 1.363 4.623 4.623 0 003.272-1.363 4.668 4.668 0 001.079-1.682zm-8.99-6.283c1.409.2 2.437-.617 2.62-.778.207-.176.402-.282.686-.295a1.048 1.048 0 011.1 1c.036.686.13 1.38.326 2.014.215.705.554 1.327 1.068 1.742.507.406 1.22.638 2.212.59.383-.02.802-.08 1.263-.182V36.33c0-.587-.243-1.117-.63-1.504a2.122 2.122 0 00-1.503-.63h-5.01c-.587 0-1.117.244-1.504.63-.387.387-.63.917-.63 1.504l.003 1.406zm-46.32 0v-1.408c0-.586-.239-1.116-.625-1.503a2.131 2.131 0 00-1.506-.63H5.697a2.13 2.13 0 00-1.504.63 2.119 2.119 0 00-.625 1.503v5.497c.458.104.877.163 1.26.183.992.048 1.705-.183 2.212-.59.514-.415.853-1.037 1.073-1.743.195-.634.29-1.327.323-2.014a1.05 1.05 0 011.1-1c.271.013.478.112.678.287.146.134 1.19.992 2.627.788zm17.87 9.097c-1.1.426-2.073.969-2.766 1.59-.602.535-.973 1.108-.973 1.671v4.278h.41c1.117 0 2.133.454 2.866 1.188a4.045 4.045 0 01.69 4.81h10.125a4.052 4.052 0 01-.494-1.944c0-1.12.454-2.133 1.188-2.866a4.04 4.04 0 012.866-1.188h.406v-4.278c0-.582-.398-1.18-1.045-1.734-.758-.65-1.81-1.212-2.981-1.638a6.726 6.726 0 01-5.193 2.453 6.716 6.716 0 01-4.763-1.982 7.362 7.362 0 01-.336-.36zM8.79 8.809a1.054 1.054 0 010-2.108h19.523a1.055 1.055 0 010 2.108H8.79zm0 11.098a1.054 1.054 0 01-1.053-1.056c0-.582.471-1.056 1.052-1.056h9.762c.582 0 1.056.474 1.056 1.056 0 .582-.474 1.056-1.056 1.056H8.79zm0-5.549a1.054 1.054 0 010-2.108h19.523c.583 0 1.052.471 1.052 1.052 0 .58-.47 1.056-1.052 1.056H8.79zm20.605 11.244c.148.411.382.778.682 1.076a2.946 2.946 0 002.1.873h6.2c.582 0 1.051.472 1.051 1.057 0 .582-.47 1.051-1.051 1.051h-6.2a5.035 5.035 0 01-3.59-1.499 5.127 5.127 0 01-1.38-2.56H12.502l-4.776 4.777c-.191.19-.454.31-.75.31a1.055 1.055 0 01-1.056-1.052v-4.121a6.352 6.352 0 01-3.46-1.79 6.36 6.36 0 01-1.876-4.517V7.394c0-1.758.717-3.357 1.877-4.517A6.371 6.371 0 016.976 1H30.13c1.762 0 3.36.721 4.517 1.877a6.374 6.374 0 011.877 4.517v1.954h17.914c1.4 0 2.667.569 3.588 1.49a5.057 5.057 0 011.49 3.588v10.157c0 1.399-.57 2.666-1.49 3.587a5.086 5.086 0 01-2.536 1.38v4.145a1.05 1.05 0 01-1.797.746l-4.78-4.78h-5.76a1.055 1.055 0 110-2.108h6.199c.295 0 .558.12.75.315l3.28 3.28v-2.54c0-.585.474-1.055 1.056-1.055.813 0 1.559-.335 2.097-.873.539-.54.873-1.28.873-2.097V14.426c0-.818-.334-1.559-.873-2.097a2.966 2.966 0 00-2.097-.873H36.522v7.752a6.36 6.36 0 01-1.878 4.517 6.36 6.36 0 01-4.516 1.877h-.733zm-17.332-2.108h18.066c1.18 0 2.248-.482 3.025-1.26a4.273 4.273 0 001.26-3.026V7.394a4.27 4.27 0 00-1.26-3.025 4.27 4.27 0 00-3.025-1.26H6.976c-1.18 0-2.248.483-3.026 1.26a4.272 4.272 0 00-1.26 3.025V19.21c0 1.176.482 2.25 1.26 3.027a4.268 4.268 0 003.026 1.26c.583 0 1.052.474 1.052 1.056v2.54l3.29-3.285c.206-.209.473-.313.745-.313zM55.596 62.48H16.408v6.114h39.19l-.002-6.114z" fill="#4555A5"/></svg>