<svg width="72" height="72" fill="none" xmlns="http://www.w3.org/2000/svg"><g clip-path="url(#clip0)" fill="#4555A5"><path d="M72 10.378c0-3.15-2.56-5.71-5.71-5.71h-5.934V3.39A3.39 3.39 0 0056.967 0H15.033a3.39 3.39 0 00-3.39 3.39v1.279H5.71C2.56 4.655 0 7.229 0 10.379v41.933c0 3.15 2.56 5.71 5.71 5.71h4.921c.577 0 1.055-.478 1.055-1.055 0-.576-.478-1.054-1.055-1.054H5.71a3.607 3.607 0 01-3.6-3.6v-1.28h67.782v1.28c0 1.982-1.618 3.6-3.6 3.6H14.85c-.577 0-1.055.478-1.055 1.054 0 .577.478 1.055 1.055 1.055h11.94v7.214h-5.977a2.19 2.19 0 00-2.18 2.18v2.404a2.19 2.19 0 002.18 2.18h21.234c.576 0 1.055-.478 1.055-1.055 0-.576-.479-1.054-1.055-1.054H20.813c-.043 0-.07-.029-.07-.07v-2.405c0-.043.027-.07.07-.07h30.375c.042 0 .07.027.07.07v2.404c0 .043-.028.07-.07.07h-4.922c-.577 0-1.055.479-1.055 1.055 0 .577.478 1.055 1.055 1.055h4.922a2.19 2.19 0 002.18-2.18v-2.404a2.19 2.19 0 00-2.18-2.18H45.21v-7.214h21.08c3.15 0 5.709-2.56 5.709-5.71V10.379zM37.28 65.236h-2.546v-2.447a.12.12 0 01.113-.112h2.334c.056 0 .113.056.113.112l-.014 2.447zm5.822 0h-3.713v-2.447a2.227 2.227 0 00-2.222-2.222h-2.334a2.227 2.227 0 00-2.222 2.222v2.447h-3.713v-7.214h14.204v7.214zm22.134-16.313h-4.88v-37.49h3.6c.703 0 1.28.576 1.28 1.28v36.21zm-53.592 0h-4.88V12.698c0-.703.577-1.28 1.28-1.28h3.6v37.505zm2.11-11.868h9.534v11.868h-9.535V37.055zm6.988-19.688c0-1.983 1.617-3.6 3.6-3.6s3.6 1.617 3.6 3.6-1.617 3.6-3.6 3.6a3.607 3.607 0 01-3.6-3.6zm3.614 5.71c.788 0 1.547.154 2.264.45l-1.462 1.167a1.25 1.25 0 01-1.59 0l-1.462-1.167a5.689 5.689 0 012.25-.45zm-4.12 1.659l1.997 1.603a3.39 3.39 0 002.11.745 3.39 3.39 0 002.109-.745l2.08-1.66 2.18 1.45c.563.379 1.266.477 1.913.266a2.191 2.191 0 001.392-1.336l.14-.365 2.42.801-1.716 4.585c-.14.365-.436.647-.802.76a1.315 1.315 0 01-1.096-.156l-.563-.38v-1.307c0-.577-.478-1.055-1.055-1.055-.576 0-1.054.478-1.054 1.055v5.934H18.42v-5.934c0-1.66.69-3.178 1.815-4.261zm14.878-2.573c0-.015.014-.029.014-.029l.844-2.264a1.275 1.275 0 011.42-.815l-.098.365c-.14.563.197 1.14.773 1.28.085.028.169.028.253.028h.042c0 .014 0 .014-.014.028l-1.04 2.756-2.419-.801.225-.548zm5.133-3.249a4.25 4.25 0 00-.45-.731l1.884-7.566a1.052 1.052 0 00-.773-1.28 1.052 1.052 0 00-1.28.774l-1.715 6.905a3.35 3.35 0 00-2.152.225 3.656 3.656 0 00-1.04.73V6.878c0-.057.056-.113.112-.113h18.633a.12.12 0 01.112.113v13.978a.121.121 0 01-.112.112h-12.98c.14-.689.056-1.392-.24-2.053zM25.41 37.054h32.836v11.87H25.41v-11.87zM15.033 2.11h41.934c.703 0 1.28.577 1.28 1.28v31.556H32.4v-2.18c.408.17.83.254 1.28.254.351 0 .703-.056 1.04-.169.985-.323 1.772-1.055 2.124-2.04l2.91-7.747H53.48a2.227 2.227 0 002.222-2.222V6.877a2.227 2.227 0 00-2.222-2.222H34.833a2.227 2.227 0 00-2.222 2.222v13.978c0 .407.112.787.31 1.125l-.873 2.334c0 .014-.014.056-.07.07-.056.014-.084 0-.098-.014L29.08 22.5a7.429 7.429 0 00-1.153-.703 5.73 5.73 0 002.124-4.444c0-3.15-2.56-5.71-5.71-5.71s-5.71 2.56-5.71 5.71c0 1.8.83 3.403 2.138 4.444-.38.197-.745.408-1.097.66-.056.029-.098.071-.14.1-1.955 1.49-3.22 3.824-3.22 6.454v5.934h-2.56V3.39c0-.703.577-1.28 1.28-1.28zM2.109 10.38c0-1.984 1.618-3.6 3.6-3.6h5.935v2.544h-3.6a3.39 3.39 0 00-3.39 3.39v36.225H2.11v-38.56zm65.236 38.544V12.698a3.39 3.39 0 00-3.389-3.389h-3.6V6.764h5.935c1.982 0 3.6 1.617 3.6 3.6V48.91h-2.546v.014z"/><path d="M54.633 41.934H36.886a3.4 3.4 0 00-3.22-2.334 3.4 3.4 0 00-3.22 2.334h-1.45c-.576 0-1.054.479-1.054 1.055 0 .577.478 1.055 1.055 1.055h1.448a3.4 3.4 0 003.22 2.334 3.4 3.4 0 003.22-2.334h17.748c.576 0 1.054-.478 1.054-1.055 0-.576-.464-1.055-1.054-1.055zM33.666 44.27c-.703 0-1.28-.577-1.28-1.28 0-.703.576-1.28 1.28-1.28.703 0 1.28.577 1.28 1.28 0 .703-.577 1.28-1.28 1.28zM19.11 41.934h-1.166c-.577 0-1.055.479-1.055 1.055 0 .577.478 1.055 1.055 1.055h1.167c.576 0 1.055-.478 1.055-1.055 0-.576-.479-1.055-1.055-1.055z"/></g><defs><clipPath id="clip0"><path fill="#fff" d="M0 0h72v72H0z"/></clipPath></defs></svg>