<svg width="72" height="72" fill="none" xmlns="http://www.w3.org/2000/svg"><path d="M29.728 26.878a1.048 1.048 0 00-1.49-.07 1.052 1.052 0 00-.07 1.493 12.736 12.736 0 012.291 3.579 1.049 1.049 0 001.378.563c.535-.225.788-.845.563-1.38a14.525 14.525 0 00-2.672-4.184z" fill="#4555A5"/><path d="M58.345 42.572v-13.13C65.967 28.893 72 22.512 72 14.735 72 6.607 65.405 0 57.29 0c-8.113 0-14.723 6.607-14.723 14.735 0 1.663.281 3.268.788 4.776l-9.394 5.888c-3.445-4.578-8.93-7.536-15.075-7.536C8.48 17.863 0 26.343 0 36.782S8.48 55.7 18.886 55.7c6.103 0 11.545-2.916 15.005-7.438l9.056 5.677a14.428 14.428 0 00-.38 3.325c0 8.128 6.596 14.735 14.71 14.735S72 65.393 72 57.265c0-7.776-6.033-14.158-13.655-14.693zm5.907-17.314a12.55 12.55 0 01-6.961 2.1 12.55 12.55 0 01-6.961-2.1v-.169c0-3.845 3.122-6.973 6.96-6.973 3.84 0 6.962 3.128 6.962 6.973v.17zm-10.885-8.353a9.329 9.329 0 00-3.094 2.437 8.35 8.35 0 01-1.378-4.607c0-1.831.59-3.521 1.59-4.902a7.073 7.073 0 00-.127 1.338 6.96 6.96 0 003.01 5.734zm-.914-5.734c0-2.662 2.166-4.832 4.824-4.832 2.657 0 4.823 2.17 4.823 4.832 0 2.663-2.166 4.832-4.823 4.832-2.658 0-4.824-2.17-4.824-4.832zm8.747 5.734a6.972 6.972 0 002.897-7.072 8.333 8.333 0 011.589 4.902 8.35 8.35 0 01-1.378 4.607 9.067 9.067 0 00-3.108-2.437zM57.29 2.113c6.947 0 12.6 5.663 12.6 12.622 0 3.466-1.392 6.607-3.656 8.89a8.81 8.81 0 00-.73-2.353 10.455 10.455 0 002.277-6.523c0-5.804-4.71-10.509-10.49-10.509S46.8 8.96 46.8 14.75c0 2.38.802 4.676 2.278 6.522a9.532 9.532 0 00-.731 2.352 12.578 12.578 0 01-3.656-8.889c-.014-6.959 5.639-12.622 12.6-12.622zM26.593 51.728a16.645 16.645 0 01-7.692 1.874c-2.784 0-5.414-.676-7.72-1.888V48.15c0-.676.295-1.31.815-1.733l3.966-3.296a3.626 3.626 0 002.939 1.521c1.21 0 2.278-.591 2.94-1.52l3.965 3.295a2.22 2.22 0 01.815 1.733l-.028 3.578zM23.794 31.02v2.747c0 2.705-2.194 4.917-4.908 4.917a4.908 4.908 0 01-4.908-4.917V31.02h9.816zm-9.802-2.113v-3.973l1.336.437c.113.028.211.056.324.056h6.778c.745 0 1.364.606 1.364 1.367v2.127h-9.802v-.014zm6.399 11.72v.381c0 .831-.675 1.507-1.505 1.507-.83 0-1.505-.676-1.505-1.507v-.394c.492.112.999.169 1.519.169.506.014.998-.043 1.49-.155zm8.31 9.805v-2.268c0-.14-.014-.281-.014-.408a14.633 14.633 0 004.894-10.946c0-.268-.014-.55-.028-.888a1.044 1.044 0 00-1.11-.986 1.044 1.044 0 00-.985 1.113c.014.296.028.536.028.761a12.52 12.52 0 01-3.6 8.805 4.464 4.464 0 00-.745-.803l-4.627-3.846v-1.141a7.033 7.033 0 003.417-6.03v-6.987c0-1.916-1.56-3.48-3.473-3.48h-6.61l-1.968-.648a1.554 1.554 0 00-1.378.212 1.529 1.529 0 00-.633 1.24V33.78a7.02 7.02 0 003.389 6.016v1.169l-4.627 3.831c-.281.226-.52.494-.731.775a12.582 12.582 0 01-3.572-8.79 12.55 12.55 0 013.29-8.48 1.052 1.052 0 00-.07-1.494 1.048 1.048 0 00-1.49.07 14.693 14.693 0 00-3.84 9.904c0 4.184 1.773 8.128 4.866 10.932a4.55 4.55 0 00-.028.436v2.254c-4.204-3.057-6.947-8.03-6.947-13.622 0-9.27 7.524-16.82 16.791-16.82s16.79 7.536 16.79 16.82a16.899 16.899 0 01-6.988 13.65zm6.385-3.902a18.812 18.812 0 002.7-9.734c0-3.522-.97-6.818-2.644-9.636l9.056-5.677c2.293 4.452 6.793 7.593 12.024 7.96v13.129c-5.752.408-10.603 4.141-12.628 9.297l-8.508-5.339zm18.281 12.904a9.188 9.188 0 00-3.094 2.437 8.35 8.35 0 01-1.378-4.606c0-1.832.59-3.522 1.59-4.903a6.964 6.964 0 00-.127 1.339 6.96 6.96 0 003.01 5.733zm-.914-5.733c0-2.663 2.166-4.832 4.824-4.832 2.657 0 4.823 2.17 4.823 4.832s-2.166 4.832-4.823 4.832c-2.658 0-4.824-2.17-4.824-4.832zm11.799 14.087a12.55 12.55 0 01-6.961 2.099 12.55 12.55 0 01-6.961-2.1v-.168c0-3.846 3.122-6.973 6.96-6.973 3.84 0 6.962 3.127 6.962 6.973v.169zm1.982-1.634a8.81 8.81 0 00-.73-2.353 10.45 10.45 0 002.024-4.254 1.058 1.058 0 00-.801-1.254 1.056 1.056 0 00-1.252.803 8.557 8.557 0 01-1.181 2.79 9.153 9.153 0 00-3.094-2.438 6.971 6.971 0 002.897-7.072 8.305 8.305 0 011.294 2.733 1.055 1.055 0 102.039-.549 10.507 10.507 0 00-10.14-7.79c-5.793 0-10.49 4.719-10.49 10.509 0 2.38.802 4.677 2.278 6.522a9.533 9.533 0 00-.731 2.353 12.578 12.578 0 01-3.656-8.89c0-6.958 5.653-12.622 12.6-12.622s12.6 5.664 12.6 12.623c0 3.465-1.393 6.607-3.657 8.889z" fill="#4555A5"/></svg>