<svg width="72" height="72" fill="none" xmlns="http://www.w3.org/2000/svg"><g clip-path="url(#clip0)" fill="#4555A5"><path d="M68.313 9.323H50.53c-2.024 0-3.672 1.635-3.687 3.643v3.714c0 2.21-1.691 2.553-3.585 2.726-.29.014-.593.057-.882.129a.873.873 0 00-.68.745.85.85 0 00.087.531c.231.574 1.374 2.94 5.003 3.572.043.014.057.043.057.1v.817c0 2.008 1.663 3.686 3.687 3.686h17.783c2.039-.028 3.673-1.663 3.687-3.686V12.966c-.014-2.008-1.663-3.643-3.687-3.643zm1.952 15.963a1.989 1.989 0 01-1.952 1.965H50.53a1.999 1.999 0 01-1.952-1.965v-.803a1.82 1.82 0 00-1.474-1.807h-.015c-1.663-.287-2.617-1.019-3.137-1.621.752-.086 1.691-.244 2.544-.703 1.36-.717 2.068-1.994 2.068-3.686v-3.7a1.952 1.952 0 011.952-1.922h17.783c1.07 0 1.937.86 1.952 1.922v12.32h.014z"/><path d="M66.188 16.637h-.593a.866.866 0 00-.867.861c0 .473.39.86.867.86h.593a.867.867 0 00.867-.86c0-.473-.39-.86-.867-.86zM63.947 17.498c0-.473-.39-.86-.867-.86h-2.372a.867.867 0 00-.867.86c0 .473.39.86.867.86h2.372a.867.867 0 00.867-.86zM52.786 18.359h5.61a.867.867 0 00.867-.861c0-.473-.39-.86-.868-.86h-5.61a.867.867 0 00-.867.86c0 .473.39.86.868.86zM66.188 13.482H63.34a.867.867 0 00-.868.86c0 .474.39.861.868.861h2.848a.867.867 0 00.867-.86c0-.474-.39-.86-.867-.86zM56.487 15.203h4.337a.867.867 0 00.868-.86c0-.474-.39-.86-.868-.86h-4.337a.866.866 0 00-.868.86c0 .473.39.86.868.86zM52.786 15.203h1.387a.867.867 0 00.868-.86c0-.474-.39-.86-.867-.86h-1.388a.867.867 0 00-.868.86c0 .473.39.86.868.86zM66.188 19.793H63.34a.867.867 0 00-.868.86c0 .474.39.861.868.861h2.848a.867.867 0 00.867-.86c0-.474-.39-.861-.867-.861zM56.487 19.793a.867.867 0 00-.868.86c0 .474.39.861.868.861h4.337a.867.867 0 00.868-.86c0-.474-.39-.861-.868-.861h-4.337zM52.786 21.514h1.387a.867.867 0 00.868-.86c0-.474-.39-.861-.867-.861h-1.388a.867.867 0 00-.868.86c0 .474.39.861.868.861zM66.188 22.948h-.593a.866.866 0 00-.867.86c0 .474.39.861.867.861h.593a.867.867 0 00.867-.86c0-.474-.39-.86-.867-.86zM63.08 22.948h-2.372a.867.867 0 00-.867.86c0 .474.39.861.867.861h2.372a.867.867 0 00.867-.86c0-.474-.39-.86-.867-.86zM58.395 22.948h-5.61a.867.867 0 00-.867.86c0 .474.39.861.868.861h5.61a.867.867 0 00.867-.86c0-.474-.39-.86-.868-.86zM29.61 53.283a4.526 4.526 0 00-.868-.13c-1.894-.171-3.585-.515-3.585-2.724v-3.715c0-2.008-1.663-3.686-3.687-3.686H3.687C1.648 43.057.014 44.692 0 46.714v12.32c.014 2.008 1.663 3.629 3.687 3.643H21.47c2.024 0 3.672-1.635 3.687-3.643v-.817c0-.043.014-.086.058-.086 3.628-.646 4.77-2.998 5.002-3.572a.834.834 0 00.087-.53.906.906 0 00-.694-.746zm-4.714 3.14s0 .015 0 0c-.867.173-1.489.933-1.474 1.794v.817a1.952 1.952 0 01-1.952 1.922H3.687c-1.07 0-1.938-.86-1.952-1.922v-12.32a1.989 1.989 0 011.952-1.965H21.47c1.07.029 1.937.89 1.952 1.965v3.715c0 1.692.708 2.969 2.067 3.686.839.444 1.778.616 2.545.703-.52.602-1.475 1.32-3.138 1.606z"/><path d="M5.812 52.207h.593a.867.867 0 00.867-.86c0-.474-.39-.86-.867-.86h-.593a.867.867 0 00-.867.86c0 .473.39.86.867.86zM11.291 50.486h-2.37a.867.867 0 00-.868.86c0 .474.39.861.867.861h2.371a.867.867 0 00.868-.86c0-.474-.39-.86-.868-.86zM19.214 50.486h-5.61a.867.867 0 00-.867.86c0 .474.39.861.868.861h5.61a.867.867 0 00.867-.86c0-.474-.39-.86-.868-.86zM5.812 49.052H8.66a.867.867 0 00.868-.86c0-.474-.39-.861-.868-.861H5.812a.867.867 0 00-.867.86c0 .474.39.86.867.86zM11.161 49.052H15.5a.866.866 0 00.867-.86c0-.474-.39-.861-.867-.861H11.16a.867.867 0 00-.867.86c0 .474.39.86.867.86zM19.215 47.33h-1.388a.867.867 0 00-.868.861c0 .474.39.86.868.86h1.387a.867.867 0 00.868-.86c0-.473-.39-.86-.867-.86zM5.812 55.362H8.66a.867.867 0 00.868-.86c0-.473-.39-.86-.868-.86H5.812a.867.867 0 00-.867.86c0 .473.39.86.867.86zM10.294 54.502c0 .473.39.86.867.86H15.5a.866.866 0 00.867-.86c0-.473-.39-.86-.867-.86H11.16a.867.867 0 00-.867.86zM19.215 53.641h-1.388a.867.867 0 00-.868.861c0 .473.39.86.868.86h1.387a.867.867 0 00.868-.86c0-.473-.39-.86-.867-.86zM6.405 56.797h-.593a.867.867 0 00-.867.86c0 .474.39.86.867.86h.593a.867.867 0 00.867-.86c0-.473-.39-.86-.867-.86zM11.291 56.797h-2.37a.867.867 0 00-.868.86c0 .474.39.86.867.86h2.371a.867.867 0 00.868-.86c0-.473-.39-.86-.868-.86zM19.214 56.797h-5.61a.867.867 0 00-.867.86c0 .474.39.86.868.86h5.61a.867.867 0 00.867-.86c0-.473-.39-.86-.868-.86zM9.76 7.07c-.146.116-.305.23-.45.36a.871.871 0 00-.1 1.219c.303.358.853.401 1.229.1.13-.115.26-.215.39-.316a.86.86 0 00.159-1.204.876.876 0 00-1.214-.158c0-.014-.015-.014-.015 0zM7.923 10.025a.882.882 0 00-1.215.201 15.43 15.43 0 00-2.37 5.049 15.1 15.1 0 00-.492 3.858.867.867 0 001.735 0c0-1.162.144-2.31.433-3.428a13.557 13.557 0 012.111-4.475.849.849 0 00-.202-1.205zM52.699 72c10.626 0 19.272-8.577 19.272-19.119 0-10.541-8.646-19.133-19.272-19.133-10.627 0-19.273 8.577-19.273 19.119S42.058 72 52.7 72zm-2.993-1.965a19.945 19.945 0 01-2.863-.731v-4.69a.867.867 0 00-1.735 0v3.972a9.153 9.153 0 01-1.59-.918V61.2a2.899 2.899 0 01.174-1.104c.014-.03.014-.072.029-.1a2.983 2.983 0 011.807-1.607l.593-.2c.578-.202 1.156-.374 1.749-.517l.477 3.557a.863.863 0 001.215.674l.997-.445.188.746-1.041 7.831zM47.19 48.177c1.46.344 1.72.344 2.068.1a.888.888 0 00.361-.63l.13-1.679a6.038 6.038 0 004.67-1.764 5.438 5.438 0 011.649 2.74l.245.96a.87.87 0 001.056.631l.954-.415c-.029.215-.174.487-.39.53a.867.867 0 00-.723.86c-.015 2.468-2.053 4.461-4.54 4.447-2.472-.014-4.468-1.994-4.482-4.446a.863.863 0 00-.723-.846.495.495 0 01-.405-.488h.13zm1.967-6.569c1.821-1.936 4.886-2.037 6.838-.23.073.072.16.144.232.23a4.65 4.65 0 011.272 3.557l-.03.473a7.205 7.205 0 00-2.688-3.342.861.861 0 00-1.186.216 4.26 4.26 0 01-3.889 1.72l-.434-.042h-.029c-.592-.043-1.127.387-1.17.99l-.102 1.247-.087-1.262a4.762 4.762 0 011.273-3.557zm.751 18.244l-.318-2.395c.16.373.39.702.68.975l.896.86-1.258.56zm2.79 10.427c-.419 0-.823-.014-1.243-.043l.926-7.215.737.015.723 7.214a30.23 30.23 0 01-1.142.029zm-.534-9.552l.535-.244.723.33-.145.502-.969-.015-.144-.573zm.535-2.381l-1.258-1.162a1.27 1.27 0 01-.42-.903v-.832a6.531 6.531 0 003.326 0v.832a1.27 1.27 0 01-.42.903L52.7 58.346zm2.429.086c.289-.273.52-.602.68-.961l-.319 2.38-1.258-.573.897-.846zm6.752 9.236a8.254 8.254 0 01-1.59.904v-3.958c0-.474-.391-.861-.868-.861a.867.867 0 00-.868.86v4.676c-.968.33-1.966.588-2.978.76l-.78-7.773.216-.746.824.373c.434.2.954 0 1.142-.43a1.2 1.2 0 00.073-.244l.477-3.557c.593.143 1.17.315 1.75.516l.592.2c.795.259 1.46.847 1.807 1.607.015.029.015.072.029.1.13.36.202.746.188 1.12v6.453h-.014zM52.699 35.47c9.672 0 17.523 7.803 17.523 17.398.014 5.292-2.43 10.298-6.607 13.582v-5.235a4.93 4.93 0 00-.304-1.764.699.699 0 00-.058-.158 4.75 4.75 0 00-2.834-2.538l-.564-.201a22.848 22.848 0 00-3.759-.932v-.947a6.08 6.08 0 002.834-4.59c.882-.487 1.33-1.491 1.07-2.467a1.84 1.84 0 00-.853-1.161l.087-1.176a6.336 6.336 0 00-1.735-4.848c-2.473-2.625-6.636-2.768-9.297-.316-.1.1-.216.201-.318.316a6.356 6.356 0 00-1.735 4.848l.087 1.176a1.84 1.84 0 00-.853 1.161 2.23 2.23 0 001.07 2.468 6.122 6.122 0 002.834 4.603v.947a21.33 21.33 0 00-3.774.932l-.578.201a4.794 4.794 0 00-2.834 2.539c-.029.057-.014.1-.043.172a5.123 5.123 0 00-.304 1.75v5.235c-4.178-3.285-6.621-8.29-6.607-13.583.029-9.595 7.88-17.412 17.552-17.412z"/><path d="M19.301 38.252c10.627 0 19.273-8.577 19.273-19.119S29.942 0 19.3 0C8.661 0 .03 8.577.03 19.119S8.675 38.252 19.3 38.252zm-3.152-2.008a16.928 16.928 0 01-3.73-1.119 6.388 6.388 0 01.463-3.4.847.847 0 00-.463-1.118.862.862 0 00-1.127.445 8.043 8.043 0 00-.651 3.184 17.234 17.234 0 01-1.822-1.19v-4.461c0-.445.073-.875.232-1.291a.984.984 0 01.043-.115 3.541 3.541 0 012.11-1.879l.666-.23c.694-.229 1.388-.444 2.096-.602l.55 4.131a.863.863 0 001.214.674l1.244-.56.245.976-1.07 6.555zm-.072-9.022l-.405-3.098c.058-.014.101-.014.16-.028.173.487.447.918.823 1.262l1.128 1.075-1.706.79zM13.764 15.06a.893.893 0 00.636-.301c.087-.1.16-.23.202-.359.579-1.793 1.634-2.725 2.574-3.227.954.832 2.342 1.29 4.525 1.477.362.803 1.23 2.152 3.036 2.352l.347-.014c.087-.029.174.029.203.115a.484.484 0 01-.058.373.566.566 0 01-.304.243l-.217.043a.837.837 0 00-.867.804c-.101 2.481-2.212 4.403-4.699 4.303-2.356-.1-4.236-1.965-4.337-4.289a.837.837 0 00-.868-.803h-.1a.544.544 0 01-.492-.53c0-.044 0-.087.014-.13.029-.143.217-.086.217-.086l.188.029zm.766-4.002c.13-.86.492-1.678 1.056-2.338.144.373.303.746.491 1.09a6.146 6.146 0 00-1.547 1.248zm6.81-3.643c.78.416 1.359.875 1.764 1.377a4.663 4.663 0 011.026 3.284l-.058.89a2.536 2.536 0 01-.91-1.334.848.848 0 00-.796-.646c-3.889-.229-4.655-1.233-5.335-3.384.897-.416 2.718-1.033 4.309-.187zm-3.962-1.793l.217-.215a2.422 2.422 0 011.735-.674 2.452 2.452 0 011.85.803c-1.402-.416-2.76-.244-3.802.086zm1.923 30.909c-.477 0-.954-.015-1.431-.058l.954-5.952 1.07.014.737 5.938c-.433.043-.882.058-1.33.058zm-.723-8.548l.738-.33.94.43-.217.731-1.258-.014-.203-.817zm.738-2.468l-1.475-1.39a1.598 1.598 0 01-.492-1.105v-.746c.55.172 1.128.273 1.706.301h.246c.665 0 1.316-.1 1.938-.3v.745c0 .416-.174.817-.477 1.104l-1.446 1.392zm2.66-.143c.376-.358.65-.789.824-1.262.058.014.101.014.16.029l-.406 3.098-1.706-.775 1.128-1.09zm7.807 7.688c-.564.43-1.157.817-1.778 1.176 0-1.09-.217-2.166-.65-3.155-.174-.445-.68-.646-1.128-.474a.854.854 0 00-.478 1.119c0 .014.015.014.015.029.463 1.06.622 2.223.463 3.37-1.244.53-2.545.918-3.875 1.148l-.81-6.498.29-.96 1.04.473c.434.2.954 0 1.143-.43.028-.072.057-.158.072-.245l.55-4.13c.708.172 1.416.373 2.096.602l.665.23c.94.315 1.691.99 2.11 1.879.015.043.015.086.03.114.158.416.23.86.23 1.305l.015 4.447zM19.316 1.72c9.672 0 17.523 7.803 17.523 17.398a17.01 17.01 0 01-5.32 12.45v-2.97a4.94 4.94 0 00-.348-1.936c-.029-.057-.043-.115-.072-.172a5.327 5.327 0 00-3.123-2.811l-.665-.23a26.575 26.575 0 00-4.337-1.061v-.99c.144-.143.39-.301.578-.473a6.068 6.068 0 001.923-3.6 2.2 2.2 0 001.46-2.64 1.891 1.891 0 00-1.186-1.304l.087-1.19a6.37 6.37 0 00-1.402-4.476 5.856 5.856 0 00-.969-.918c-.173-2.151-1.995-3.815-4.164-3.8-2.154-.03-3.976 1.592-4.164 3.729a6.463 6.463 0 00-2.4 5.464l.087 1.19a1.86 1.86 0 00-1.185 1.306 2.2 2.2 0 00.592 2.094c.246.244.535.43.868.53a6.242 6.242 0 002.501 4.06v.99c-1.475.229-2.92.573-4.337 1.06l-.665.23a5.283 5.283 0 00-3.123 2.811c-.03.058-.044.115-.073.187a5.448 5.448 0 00-.347 1.921v2.984a17.075 17.075 0 01-5.306-12.45c.03-9.58 7.88-17.369 17.567-17.383z"/></g><defs><clipPath id="clip0"><path fill="#fff" d="M0 0h72v72H0z"/></clipPath></defs></svg>