<svg width="72" height="72" fill="none" xmlns="http://www.w3.org/2000/svg"><path d="M53.305 23.954c-.773 0-1.4-.63-1.4-1.406v-9.616c0-.776.627-1.406 1.4-1.406.773 0 1.4.63 1.4 1.406v9.616c0 .776-.626 1.406-1.4 1.406zM53.3 9.813c.772 0 1.399-.63 1.399-1.407 0-.776-.627-1.406-1.4-1.406-.773 0-1.4.63-1.4 1.406 0 .777.627 1.407 1.4 1.407z" fill="#4555A5"/><path d="M68 14.774C68 6.628 61.406 0 53.3 0a14.57 14.57 0 00-8.928 3.045H9.092C6.286 3.045 4 5.34 4 8.162v51.155c0 2.822 2.285 5.117 5.093 5.117h4.44v2.447c0 2.823 2.286 5.118 5.093 5.118h36.592c2.809 0 5.093-2.297 5.093-5.118V47.377c0-.777-.627-1.407-1.4-1.407-.772 0-1.399.63-1.399 1.407V66.88a2.301 2.301 0 01-2.294 2.305h-36.59a2.301 2.301 0 01-2.294-2.305v-2.447h29.352c2.809 0 5.093-2.296 5.093-5.117V29.33c.819.144 1.661.218 2.52.218 1.464 0 2.88-.216 4.214-.619v5.735c0 .776.627 1.406 1.4 1.406.773 0 1.4-.63 1.4-1.406v-6.909A14.8 14.8 0 0068 14.775zM47.98 59.317a2.302 2.302 0 01-2.294 2.305H9.093a2.302 2.302 0 01-2.294-2.305V8.162a2.301 2.301 0 012.294-2.305h32.493a14.738 14.738 0 00-2.974 8.293H14.78c-.772 0-1.399.63-1.399 1.406v5.938c0 .777.627 1.407 1.4 1.407H40c.318 0 .611-.107.846-.287a14.812 14.812 0 007.135 5.931v30.772h-.001zm-9.381-42.355v3.126h-22.42v-3.126h22.42zm14.7 9.772c-6.562 0-11.901-5.366-11.901-11.961 0-6.596 5.34-11.962 11.901-11.962 6.563 0 11.902 5.366 11.902 11.962 0 6.595-5.34 11.961-11.901 11.961z" fill="#4555A5"/><path d="M58.913 42.401a1.414 1.414 0 01-1.309-.911 1.424 1.424 0 01.422-1.584 1.412 1.412 0 011.626-.106c.504.313.761.933.624 1.513a1.416 1.416 0 01-1.363 1.088zM39.998 30.604H14.78c-.772 0-1.4-.63-1.4-1.406 0-.776.628-1.406 1.4-1.406H40c.772 0 1.399.63 1.399 1.406 0 .776-.626 1.406-1.4 1.406zM39.998 37.274H14.78c-.772 0-1.4-.63-1.4-1.406 0-.776.628-1.406 1.4-1.406H40c.772 0 1.399.63 1.399 1.406 0 .776-.626 1.406-1.4 1.406zM39.998 43.944H14.78c-.772 0-1.4-.63-1.4-1.406 0-.776.628-1.406 1.4-1.406H40c.772 0 1.399.63 1.399 1.406 0 .778-.626 1.406-1.4 1.406zM39.998 50.614H14.78c-.772 0-1.4-.63-1.4-1.406 0-.777.628-1.407 1.4-1.407H40c.772 0 1.399.63 1.399 1.407s-.626 1.406-1.4 1.406z" fill="#4555A5"/></svg>