<svg width="72" height="72" fill="none" xmlns="http://www.w3.org/2000/svg"><g clip-path="url(#clip0)"><path d="M61.177 8.4a10.699 10.699 0 00-3.597.63V4.8c0-2.651-2.148-4.8-4.796-4.8H19.217a4.797 4.797 0 00-4.795 4.8v4.23a10.784 10.784 0 00-12.299 3.737 10.81 10.81 0 000 12.865 10.786 10.786 0 0012.299 3.737V67.2c0 2.65 2.146 4.8 4.795 4.8h33.567a4.797 4.797 0 004.795-4.8V29.37c4.053 1.45 8.578.35 11.516-2.796a10.806 10.806 0 002.005-11.69A10.789 10.789 0 0061.177 8.4zm-15.956-6l-1.538 1.642a2.394 2.394 0 01-1.748.758H30.067a2.407 2.407 0 01-1.75-.758L26.782 2.4h18.44zM16.818 4.8c0-1.327 1.074-2.4 2.399-2.4h4.276l3.075 3.283A4.814 4.814 0 0030.067 7.2h11.868a4.803 4.803 0 003.498-1.517l3.076-3.284h4.276a2.399 2.399 0 012.399 2.4v5.427a10.775 10.775 0 00-3.562 13.971L44.357 35.1a14.276 14.276 0 00-7.156-2.638v-2.533c5.69-.637 9.893-5.612 9.574-11.334-.319-5.722-5.049-10.198-10.774-10.198-5.725 0-10.454 4.476-10.773 10.2-.319 5.721 3.883 10.697 9.575 11.334v2.532a14.295 14.295 0 00-7.157 2.64L20.381 24.2c2.563-4.882 1.026-10.915-3.561-13.97l-.002-5.43zm11.99 51.578a7.168 7.168 0 013.237-5.978 7.157 7.157 0 007.912 0 7.169 7.169 0 013.237 5.978 11.89 11.89 0 01-14.386 0zM36 49.2a4.797 4.797 0 01-4.795-4.8c0-2.65 2.147-4.799 4.795-4.799a4.797 4.797 0 014.795 4.8c0 2.65-2.147 4.8-4.795 4.8zm9.34 5.105a9.551 9.551 0 00-3.597-5.584 7.205 7.205 0 00-.893-9.66 7.19 7.19 0 00-9.693 0 7.205 7.205 0 00-.893 9.66 9.543 9.543 0 00-3.597 5.584c-3.94-4.902-3.43-12.02 1.173-16.307 4.603-4.286 11.733-4.287 16.334 0 4.602 4.288 5.114 11.405 1.173 16.307h-.007zm-2.536-30.209a7.188 7.188 0 00-2.726-3.6 4.803 4.803 0 00-.96-6.17 4.792 4.792 0 00-6.238 0 4.803 4.803 0 00-.961 6.17 7.189 7.189 0 00-2.726 3.6 8.407 8.407 0 011.196-11.164 8.387 8.387 0 0111.218 0 8.404 8.404 0 011.197 11.164zM33.603 18a2.399 2.399 0 114.796 0 2.399 2.399 0 11-4.796 0zm.104 4.19a4.612 4.612 0 004.587 0 4.803 4.803 0 012.48 3.91c-2.868 2-6.678 2-9.546 0a4.799 4.799 0 012.479-3.91zM2.432 19.2a8.4 8.4 0 015.777-8.002 8.386 8.386 0 019.39 3.025 8.407 8.407 0 01.029 9.873 7.188 7.188 0 00-2.726-3.6 4.803 4.803 0 00-.96-6.17 4.792 4.792 0 00-6.239 0 4.803 4.803 0 00-.96 6.17 7.188 7.188 0 00-2.726 3.6A8.376 8.376 0 012.432 19.2zM8.427 18a2.399 2.399 0 114.796 0 2.399 2.399 0 11-4.796 0zm-2.374 8.1a4.8 4.8 0 012.48-3.91 4.612 4.612 0 004.586 0 4.803 4.803 0 012.48 3.91c-2.87 2-6.679 2-9.546 0zm46.731 43.5H19.217a2.399 2.399 0 01-2.399-2.4v-1.868a4.74 4.74 0 002.399.666h33.567a4.754 4.754 0 002.398-.666v1.867c0 1.326-1.073 2.4-2.398 2.4zm2.398-8.4c0 1.326-1.073 2.4-2.398 2.4H19.217a2.399 2.399 0 01-2.399-2.4V28.174a10.862 10.862 0 002.096-1.852l6.887 10.335c-5.597 5.63-5.581 14.734.036 20.347 5.616 5.612 14.712 5.612 20.327 0 5.615-5.613 5.632-14.717.035-20.347l6.887-10.335c.615.705 1.32 1.328 2.096 1.852V61.2zm1.222-35.1a4.8 4.8 0 012.48-3.91 4.612 4.612 0 004.587 0 4.803 4.803 0 012.48 3.91c-2.87 2-6.68 2-9.547 0zm4.773-5.7a2.399 2.399 0 01-2.398-2.4 2.399 2.399 0 114.796 0 2.4 2.4 0 01-2.398 2.4zm6.804 3.696a7.188 7.188 0 00-2.726-3.6 4.803 4.803 0 00-.96-6.17 4.792 4.792 0 00-6.238 0 4.803 4.803 0 00-.961 6.17 7.189 7.189 0 00-2.726 3.6 8.407 8.407 0 011.196-11.164 8.387 8.387 0 0111.218 0 8.403 8.403 0 011.197 11.164z" fill="#4555A5"/></g><defs><clipPath id="clip0"><path fill="#fff" d="M0 0h72v72H0z"/></clipPath></defs></svg>